G04 #@! TF.GenerationSoftware,KiCad,Pcbnew,(6.0.10)*
G04 #@! TF.CreationDate,2023-01-22T16:50:07+00:00*
G04 #@! TF.ProjectId,MaxDC,4d617844-432e-46b6-9963-61645f706362,rev?*
G04 #@! TF.SameCoordinates,Original*
G04 #@! TF.FileFunction,Legend,Top*
G04 #@! TF.FilePolarity,Positive*
%FSLAX46Y46*%
G04 Gerber Fmt 4.6, Leading zero omitted, Abs format (unit mm)*
G04 Created by KiCad (PCBNEW (6.0.10)) date 2023-01-22 16:50:07*
%MOMM*%
%LPD*%
G01*
G04 APERTURE LIST*
G04 Aperture macros list*
%AMRoundRect*
0 Rectangle with rounded corners*
0 $1 Rounding radius*
0 $2 $3 $4 $5 $6 $7 $8 $9 X,Y pos of 4 corners*
0 Add a 4 corners polygon primitive as box body*
4,1,4,$2,$3,$4,$5,$6,$7,$8,$9,$2,$3,0*
0 Add four circle primitives for the rounded corners*
1,1,$1+$1,$2,$3*
1,1,$1+$1,$4,$5*
1,1,$1+$1,$6,$7*
1,1,$1+$1,$8,$9*
0 Add four rect primitives between the rounded corners*
20,1,$1+$1,$2,$3,$4,$5,0*
20,1,$1+$1,$4,$5,$6,$7,0*
20,1,$1+$1,$6,$7,$8,$9,0*
20,1,$1+$1,$8,$9,$2,$3,0*%
G04 Aperture macros list end*
%ADD10C,0.150000*%
%ADD11C,0.200000*%
%ADD12C,0.180000*%
%ADD13C,0.120000*%
%ADD14R,2.600000X2.600000*%
%ADD15C,2.600000*%
%ADD16R,2.000000X2.000000*%
%ADD17O,2.000000X2.000000*%
%ADD18R,2.500000X2.500000*%
%ADD19RoundRect,0.250000X-0.337500X-0.475000X0.337500X-0.475000X0.337500X0.475000X-0.337500X0.475000X0*%
%ADD20RoundRect,0.250000X0.337500X0.475000X-0.337500X0.475000X-0.337500X-0.475000X0.337500X-0.475000X0*%
%ADD21C,2.000000*%
%ADD22C,2.400000*%
%ADD23RoundRect,0.381000X0.381000X-1.841500X0.381000X1.841500X-0.381000X1.841500X-0.381000X-1.841500X0*%
%ADD24C,3.200000*%
%ADD25C,5.000000*%
%ADD26C,3.000000*%
%ADD27C,6.400000*%
%ADD28RoundRect,0.250000X-0.475000X0.337500X-0.475000X-0.337500X0.475000X-0.337500X0.475000X0.337500X0*%
%ADD29R,3.000000X3.000000*%
%ADD30RoundRect,0.250000X-0.350000X-0.450000X0.350000X-0.450000X0.350000X0.450000X-0.350000X0.450000X0*%
G04 APERTURE END LIST*
D10*
X179171666Y-62112380D02*
X179171666Y-62826666D01*
X179124047Y-62969523D01*
X179028809Y-63064761D01*
X178885952Y-63112380D01*
X178790714Y-63112380D01*
X180171666Y-63112380D02*
X179600238Y-63112380D01*
X179885952Y-63112380D02*
X179885952Y-62112380D01*
X179790714Y-62255238D01*
X179695476Y-62350476D01*
X179600238Y-62398095D01*
X173299380Y-113253095D02*
X172299380Y-113253095D01*
X172299380Y-113015000D01*
X172347000Y-112872142D01*
X172442238Y-112776904D01*
X172537476Y-112729285D01*
X172727952Y-112681666D01*
X172870809Y-112681666D01*
X173061285Y-112729285D01*
X173156523Y-112776904D01*
X173251761Y-112872142D01*
X173299380Y-113015000D01*
X173299380Y-113253095D01*
X172299380Y-112348333D02*
X172299380Y-111729285D01*
X172680333Y-112062619D01*
X172680333Y-111919761D01*
X172727952Y-111824523D01*
X172775571Y-111776904D01*
X172870809Y-111729285D01*
X173108904Y-111729285D01*
X173204142Y-111776904D01*
X173251761Y-111824523D01*
X173299380Y-111919761D01*
X173299380Y-112205476D01*
X173251761Y-112300714D01*
X173204142Y-112348333D01*
X169238095Y-127304380D02*
X169809523Y-127304380D01*
X169523809Y-128304380D02*
X169523809Y-127304380D01*
X170142857Y-128304380D02*
X170142857Y-127304380D01*
X170523809Y-127304380D01*
X170619047Y-127352000D01*
X170666666Y-127399619D01*
X170714285Y-127494857D01*
X170714285Y-127637714D01*
X170666666Y-127732952D01*
X170619047Y-127780571D01*
X170523809Y-127828190D01*
X170142857Y-127828190D01*
X171095238Y-127399619D02*
X171142857Y-127352000D01*
X171238095Y-127304380D01*
X171476190Y-127304380D01*
X171571428Y-127352000D01*
X171619047Y-127399619D01*
X171666666Y-127494857D01*
X171666666Y-127590095D01*
X171619047Y-127732952D01*
X171047619Y-128304380D01*
X171666666Y-128304380D01*
X164857142Y-104677142D02*
X164809523Y-104724761D01*
X164666666Y-104772380D01*
X164571428Y-104772380D01*
X164428571Y-104724761D01*
X164333333Y-104629523D01*
X164285714Y-104534285D01*
X164238095Y-104343809D01*
X164238095Y-104200952D01*
X164285714Y-104010476D01*
X164333333Y-103915238D01*
X164428571Y-103820000D01*
X164571428Y-103772380D01*
X164666666Y-103772380D01*
X164809523Y-103820000D01*
X164857142Y-103867619D01*
X165238095Y-104724761D02*
X165380952Y-104772380D01*
X165619047Y-104772380D01*
X165714285Y-104724761D01*
X165761904Y-104677142D01*
X165809523Y-104581904D01*
X165809523Y-104486666D01*
X165761904Y-104391428D01*
X165714285Y-104343809D01*
X165619047Y-104296190D01*
X165428571Y-104248571D01*
X165333333Y-104200952D01*
X165285714Y-104153333D01*
X165238095Y-104058095D01*
X165238095Y-103962857D01*
X165285714Y-103867619D01*
X165333333Y-103820000D01*
X165428571Y-103772380D01*
X165666666Y-103772380D01*
X165809523Y-103820000D01*
X166761904Y-104772380D02*
X166190476Y-104772380D01*
X166476190Y-104772380D02*
X166476190Y-103772380D01*
X166380952Y-103915238D01*
X166285714Y-104010476D01*
X166190476Y-104058095D01*
D11*
X114074285Y-147542857D02*
X114074285Y-146342857D01*
X114360000Y-146342857D01*
X114531428Y-146400000D01*
X114645714Y-146514285D01*
X114702857Y-146628571D01*
X114760000Y-146857142D01*
X114760000Y-147028571D01*
X114702857Y-147257142D01*
X114645714Y-147371428D01*
X114531428Y-147485714D01*
X114360000Y-147542857D01*
X114074285Y-147542857D01*
X115902857Y-147542857D02*
X115217142Y-147542857D01*
X115560000Y-147542857D02*
X115560000Y-146342857D01*
X115445714Y-146514285D01*
X115331428Y-146628571D01*
X115217142Y-146685714D01*
D12*
X106292857Y-133392857D02*
X106240476Y-133445238D01*
X106083333Y-133497619D01*
X105978571Y-133497619D01*
X105821428Y-133445238D01*
X105716666Y-133340476D01*
X105664285Y-133235714D01*
X105611904Y-133026190D01*
X105611904Y-132869047D01*
X105664285Y-132659523D01*
X105716666Y-132554761D01*
X105821428Y-132450000D01*
X105978571Y-132397619D01*
X106083333Y-132397619D01*
X106240476Y-132450000D01*
X106292857Y-132502380D01*
X106711904Y-133445238D02*
X106869047Y-133497619D01*
X107130952Y-133497619D01*
X107235714Y-133445238D01*
X107288095Y-133392857D01*
X107340476Y-133288095D01*
X107340476Y-133183333D01*
X107288095Y-133078571D01*
X107235714Y-133026190D01*
X107130952Y-132973809D01*
X106921428Y-132921428D01*
X106816666Y-132869047D01*
X106764285Y-132816666D01*
X106711904Y-132711904D01*
X106711904Y-132607142D01*
X106764285Y-132502380D01*
X106816666Y-132450000D01*
X106921428Y-132397619D01*
X107183333Y-132397619D01*
X107340476Y-132450000D01*
X107759523Y-132502380D02*
X107811904Y-132450000D01*
X107916666Y-132397619D01*
X108178571Y-132397619D01*
X108283333Y-132450000D01*
X108335714Y-132502380D01*
X108388095Y-132607142D01*
X108388095Y-132711904D01*
X108335714Y-132869047D01*
X107707142Y-133497619D01*
X108388095Y-133497619D01*
D11*
X154800000Y-134428571D02*
X154742857Y-134485714D01*
X154571428Y-134542857D01*
X154457142Y-134542857D01*
X154285714Y-134485714D01*
X154171428Y-134371428D01*
X154114285Y-134257142D01*
X154057142Y-134028571D01*
X154057142Y-133857142D01*
X154114285Y-133628571D01*
X154171428Y-133514285D01*
X154285714Y-133400000D01*
X154457142Y-133342857D01*
X154571428Y-133342857D01*
X154742857Y-133400000D01*
X154800000Y-133457142D01*
X155200000Y-133342857D02*
X156000000Y-133342857D01*
X155485714Y-134542857D01*
D10*
X171357142Y-78107142D02*
X171309523Y-78154761D01*
X171166666Y-78202380D01*
X171071428Y-78202380D01*
X170928571Y-78154761D01*
X170833333Y-78059523D01*
X170785714Y-77964285D01*
X170738095Y-77773809D01*
X170738095Y-77630952D01*
X170785714Y-77440476D01*
X170833333Y-77345238D01*
X170928571Y-77250000D01*
X171071428Y-77202380D01*
X171166666Y-77202380D01*
X171309523Y-77250000D01*
X171357142Y-77297619D01*
X172309523Y-78202380D02*
X171738095Y-78202380D01*
X172023809Y-78202380D02*
X172023809Y-77202380D01*
X171928571Y-77345238D01*
X171833333Y-77440476D01*
X171738095Y-77488095D01*
X172928571Y-77202380D02*
X173023809Y-77202380D01*
X173119047Y-77250000D01*
X173166666Y-77297619D01*
X173214285Y-77392857D01*
X173261904Y-77583333D01*
X173261904Y-77821428D01*
X173214285Y-78011904D01*
X173166666Y-78107142D01*
X173119047Y-78154761D01*
X173023809Y-78202380D01*
X172928571Y-78202380D01*
X172833333Y-78154761D01*
X172785714Y-78107142D01*
X172738095Y-78011904D01*
X172690476Y-77821428D01*
X172690476Y-77583333D01*
X172738095Y-77392857D01*
X172785714Y-77297619D01*
X172833333Y-77250000D01*
X172928571Y-77202380D01*
D11*
X141374285Y-60697523D02*
X141374285Y-61130857D01*
X142002857Y-61130857D02*
X140802857Y-61130857D01*
X140802857Y-60511809D01*
X142002857Y-59397523D02*
X142002857Y-60016571D01*
X140802857Y-60016571D01*
X142002857Y-58283238D02*
X142002857Y-59026095D01*
X142002857Y-58654666D02*
X140802857Y-58654666D01*
X140974285Y-58778476D01*
X141088571Y-58902285D01*
X141145714Y-59026095D01*
D10*
X180333333Y-124107142D02*
X180285714Y-124154761D01*
X180142857Y-124202380D01*
X180047619Y-124202380D01*
X179904761Y-124154761D01*
X179809523Y-124059523D01*
X179761904Y-123964285D01*
X179714285Y-123773809D01*
X179714285Y-123630952D01*
X179761904Y-123440476D01*
X179809523Y-123345238D01*
X179904761Y-123250000D01*
X180047619Y-123202380D01*
X180142857Y-123202380D01*
X180285714Y-123250000D01*
X180333333Y-123297619D01*
X180666666Y-123202380D02*
X181285714Y-123202380D01*
X180952380Y-123583333D01*
X181095238Y-123583333D01*
X181190476Y-123630952D01*
X181238095Y-123678571D01*
X181285714Y-123773809D01*
X181285714Y-124011904D01*
X181238095Y-124107142D01*
X181190476Y-124154761D01*
X181095238Y-124202380D01*
X180809523Y-124202380D01*
X180714285Y-124154761D01*
X180666666Y-124107142D01*
X180333333Y-111607142D02*
X180285714Y-111654761D01*
X180142857Y-111702380D01*
X180047619Y-111702380D01*
X179904761Y-111654761D01*
X179809523Y-111559523D01*
X179761904Y-111464285D01*
X179714285Y-111273809D01*
X179714285Y-111130952D01*
X179761904Y-110940476D01*
X179809523Y-110845238D01*
X179904761Y-110750000D01*
X180047619Y-110702380D01*
X180142857Y-110702380D01*
X180285714Y-110750000D01*
X180333333Y-110797619D01*
X180714285Y-110797619D02*
X180761904Y-110750000D01*
X180857142Y-110702380D01*
X181095238Y-110702380D01*
X181190476Y-110750000D01*
X181238095Y-110797619D01*
X181285714Y-110892857D01*
X181285714Y-110988095D01*
X181238095Y-111130952D01*
X180666666Y-111702380D01*
X181285714Y-111702380D01*
X194238095Y-141252380D02*
X194238095Y-140252380D01*
X194238095Y-140728571D02*
X194809523Y-140728571D01*
X194809523Y-141252380D02*
X194809523Y-140252380D01*
X195761904Y-140252380D02*
X195285714Y-140252380D01*
X195238095Y-140728571D01*
X195285714Y-140680952D01*
X195380952Y-140633333D01*
X195619047Y-140633333D01*
X195714285Y-140680952D01*
X195761904Y-140728571D01*
X195809523Y-140823809D01*
X195809523Y-141061904D01*
X195761904Y-141157142D01*
X195714285Y-141204761D01*
X195619047Y-141252380D01*
X195380952Y-141252380D01*
X195285714Y-141204761D01*
X195238095Y-141157142D01*
X136047619Y-100238095D02*
X136047619Y-100809523D01*
X135047619Y-100523809D02*
X136047619Y-100523809D01*
X135952380Y-101095238D02*
X136000000Y-101142857D01*
X136047619Y-101238095D01*
X136047619Y-101476190D01*
X136000000Y-101571428D01*
X135952380Y-101619047D01*
X135857142Y-101666666D01*
X135761904Y-101666666D01*
X135619047Y-101619047D01*
X135047619Y-101047619D01*
X135047619Y-101666666D01*
X104238095Y-101252380D02*
X104238095Y-100252380D01*
X104238095Y-100728571D02*
X104809523Y-100728571D01*
X104809523Y-101252380D02*
X104809523Y-100252380D01*
X105190476Y-100252380D02*
X105809523Y-100252380D01*
X105476190Y-100633333D01*
X105619047Y-100633333D01*
X105714285Y-100680952D01*
X105761904Y-100728571D01*
X105809523Y-100823809D01*
X105809523Y-101061904D01*
X105761904Y-101157142D01*
X105714285Y-101204761D01*
X105619047Y-101252380D01*
X105333333Y-101252380D01*
X105238095Y-101204761D01*
X105190476Y-101157142D01*
X104238095Y-91252380D02*
X104238095Y-90252380D01*
X104238095Y-90728571D02*
X104809523Y-90728571D01*
X104809523Y-91252380D02*
X104809523Y-90252380D01*
X105238095Y-90347619D02*
X105285714Y-90300000D01*
X105380952Y-90252380D01*
X105619047Y-90252380D01*
X105714285Y-90300000D01*
X105761904Y-90347619D01*
X105809523Y-90442857D01*
X105809523Y-90538095D01*
X105761904Y-90680952D01*
X105190476Y-91252380D01*
X105809523Y-91252380D01*
X191738095Y-114804380D02*
X192309523Y-114804380D01*
X192023809Y-115804380D02*
X192023809Y-114804380D01*
X192642857Y-115804380D02*
X192642857Y-114804380D01*
X193023809Y-114804380D01*
X193119047Y-114852000D01*
X193166666Y-114899619D01*
X193214285Y-114994857D01*
X193214285Y-115137714D01*
X193166666Y-115232952D01*
X193119047Y-115280571D01*
X193023809Y-115328190D01*
X192642857Y-115328190D01*
X194166666Y-115804380D02*
X193595238Y-115804380D01*
X193880952Y-115804380D02*
X193880952Y-114804380D01*
X193785714Y-114947238D01*
X193690476Y-115042476D01*
X193595238Y-115090095D01*
X180333333Y-139037142D02*
X180285714Y-139084761D01*
X180142857Y-139132380D01*
X180047619Y-139132380D01*
X179904761Y-139084761D01*
X179809523Y-138989523D01*
X179761904Y-138894285D01*
X179714285Y-138703809D01*
X179714285Y-138560952D01*
X179761904Y-138370476D01*
X179809523Y-138275238D01*
X179904761Y-138180000D01*
X180047619Y-138132380D01*
X180142857Y-138132380D01*
X180285714Y-138180000D01*
X180333333Y-138227619D01*
X180904761Y-138560952D02*
X180809523Y-138513333D01*
X180761904Y-138465714D01*
X180714285Y-138370476D01*
X180714285Y-138322857D01*
X180761904Y-138227619D01*
X180809523Y-138180000D01*
X180904761Y-138132380D01*
X181095238Y-138132380D01*
X181190476Y-138180000D01*
X181238095Y-138227619D01*
X181285714Y-138322857D01*
X181285714Y-138370476D01*
X181238095Y-138465714D01*
X181190476Y-138513333D01*
X181095238Y-138560952D01*
X180904761Y-138560952D01*
X180809523Y-138608571D01*
X180761904Y-138656190D01*
X180714285Y-138751428D01*
X180714285Y-138941904D01*
X180761904Y-139037142D01*
X180809523Y-139084761D01*
X180904761Y-139132380D01*
X181095238Y-139132380D01*
X181190476Y-139084761D01*
X181238095Y-139037142D01*
X181285714Y-138941904D01*
X181285714Y-138751428D01*
X181238095Y-138656190D01*
X181190476Y-138608571D01*
X181095238Y-138560952D01*
X104238095Y-51252380D02*
X104238095Y-50252380D01*
X104238095Y-50728571D02*
X104809523Y-50728571D01*
X104809523Y-51252380D02*
X104809523Y-50252380D01*
X105809523Y-51252380D02*
X105238095Y-51252380D01*
X105523809Y-51252380D02*
X105523809Y-50252380D01*
X105428571Y-50395238D01*
X105333333Y-50490476D01*
X105238095Y-50538095D01*
X164537142Y-144166666D02*
X164584761Y-144214285D01*
X164632380Y-144357142D01*
X164632380Y-144452380D01*
X164584761Y-144595238D01*
X164489523Y-144690476D01*
X164394285Y-144738095D01*
X164203809Y-144785714D01*
X164060952Y-144785714D01*
X163870476Y-144738095D01*
X163775238Y-144690476D01*
X163680000Y-144595238D01*
X163632380Y-144452380D01*
X163632380Y-144357142D01*
X163680000Y-144214285D01*
X163727619Y-144166666D01*
X163632380Y-143309523D02*
X163632380Y-143500000D01*
X163680000Y-143595238D01*
X163727619Y-143642857D01*
X163870476Y-143738095D01*
X164060952Y-143785714D01*
X164441904Y-143785714D01*
X164537142Y-143738095D01*
X164584761Y-143690476D01*
X164632380Y-143595238D01*
X164632380Y-143404761D01*
X164584761Y-143309523D01*
X164537142Y-143261904D01*
X164441904Y-143214285D01*
X164203809Y-143214285D01*
X164108571Y-143261904D01*
X164060952Y-143309523D01*
X164013333Y-143404761D01*
X164013333Y-143595238D01*
X164060952Y-143690476D01*
X164108571Y-143738095D01*
X164203809Y-143785714D01*
X168285714Y-119768666D02*
X168761904Y-119768666D01*
X168190476Y-120054380D02*
X168523809Y-119054380D01*
X168857142Y-120054380D01*
X169761904Y-119959142D02*
X169714285Y-120006761D01*
X169571428Y-120054380D01*
X169476190Y-120054380D01*
X169333333Y-120006761D01*
X169238095Y-119911523D01*
X169190476Y-119816285D01*
X169142857Y-119625809D01*
X169142857Y-119482952D01*
X169190476Y-119292476D01*
X169238095Y-119197238D01*
X169333333Y-119102000D01*
X169476190Y-119054380D01*
X169571428Y-119054380D01*
X169714285Y-119102000D01*
X169761904Y-119149619D01*
X170714285Y-120054380D02*
X170142857Y-120054380D01*
X170428571Y-120054380D02*
X170428571Y-119054380D01*
X170333333Y-119197238D01*
X170238095Y-119292476D01*
X170142857Y-119340095D01*
X194238095Y-101252380D02*
X194238095Y-100252380D01*
X194238095Y-100728571D02*
X194809523Y-100728571D01*
X194809523Y-101252380D02*
X194809523Y-100252380D01*
X195714285Y-100252380D02*
X195523809Y-100252380D01*
X195428571Y-100300000D01*
X195380952Y-100347619D01*
X195285714Y-100490476D01*
X195238095Y-100680952D01*
X195238095Y-101061904D01*
X195285714Y-101157142D01*
X195333333Y-101204761D01*
X195428571Y-101252380D01*
X195619047Y-101252380D01*
X195714285Y-101204761D01*
X195761904Y-101157142D01*
X195809523Y-101061904D01*
X195809523Y-100823809D01*
X195761904Y-100728571D01*
X195714285Y-100680952D01*
X195619047Y-100633333D01*
X195428571Y-100633333D01*
X195333333Y-100680952D01*
X195285714Y-100728571D01*
X195238095Y-100823809D01*
X174666666Y-137997380D02*
X174666666Y-138711666D01*
X174619047Y-138854523D01*
X174523809Y-138949761D01*
X174380952Y-138997380D01*
X174285714Y-138997380D01*
X175095238Y-138092619D02*
X175142857Y-138045000D01*
X175238095Y-137997380D01*
X175476190Y-137997380D01*
X175571428Y-138045000D01*
X175619047Y-138092619D01*
X175666666Y-138187857D01*
X175666666Y-138283095D01*
X175619047Y-138425952D01*
X175047619Y-138997380D01*
X175666666Y-138997380D01*
X119733333Y-60607142D02*
X119685714Y-60654761D01*
X119542857Y-60702380D01*
X119447619Y-60702380D01*
X119304761Y-60654761D01*
X119209523Y-60559523D01*
X119161904Y-60464285D01*
X119114285Y-60273809D01*
X119114285Y-60130952D01*
X119161904Y-59940476D01*
X119209523Y-59845238D01*
X119304761Y-59750000D01*
X119447619Y-59702380D01*
X119542857Y-59702380D01*
X119685714Y-59750000D01*
X119733333Y-59797619D01*
X120209523Y-60702380D02*
X120400000Y-60702380D01*
X120495238Y-60654761D01*
X120542857Y-60607142D01*
X120638095Y-60464285D01*
X120685714Y-60273809D01*
X120685714Y-59892857D01*
X120638095Y-59797619D01*
X120590476Y-59750000D01*
X120495238Y-59702380D01*
X120304761Y-59702380D01*
X120209523Y-59750000D01*
X120161904Y-59797619D01*
X120114285Y-59892857D01*
X120114285Y-60130952D01*
X120161904Y-60226190D01*
X120209523Y-60273809D01*
X120304761Y-60321428D01*
X120495238Y-60321428D01*
X120590476Y-60273809D01*
X120638095Y-60226190D01*
X120685714Y-60130952D01*
X104238095Y-141252380D02*
X104238095Y-140252380D01*
X104238095Y-140728571D02*
X104809523Y-140728571D01*
X104809523Y-141252380D02*
X104809523Y-140252380D01*
X105714285Y-140585714D02*
X105714285Y-141252380D01*
X105476190Y-140204761D02*
X105238095Y-140919047D01*
X105857142Y-140919047D01*
X163785714Y-97768666D02*
X164261904Y-97768666D01*
X163690476Y-98054380D02*
X164023809Y-97054380D01*
X164357142Y-98054380D01*
X165261904Y-97959142D02*
X165214285Y-98006761D01*
X165071428Y-98054380D01*
X164976190Y-98054380D01*
X164833333Y-98006761D01*
X164738095Y-97911523D01*
X164690476Y-97816285D01*
X164642857Y-97625809D01*
X164642857Y-97482952D01*
X164690476Y-97292476D01*
X164738095Y-97197238D01*
X164833333Y-97102000D01*
X164976190Y-97054380D01*
X165071428Y-97054380D01*
X165214285Y-97102000D01*
X165261904Y-97149619D01*
X165642857Y-97149619D02*
X165690476Y-97102000D01*
X165785714Y-97054380D01*
X166023809Y-97054380D01*
X166119047Y-97102000D01*
X166166666Y-97149619D01*
X166214285Y-97244857D01*
X166214285Y-97340095D01*
X166166666Y-97482952D01*
X165595238Y-98054380D01*
X166214285Y-98054380D01*
D11*
X130800000Y-134428571D02*
X130742857Y-134485714D01*
X130571428Y-134542857D01*
X130457142Y-134542857D01*
X130285714Y-134485714D01*
X130171428Y-134371428D01*
X130114285Y-134257142D01*
X130057142Y-134028571D01*
X130057142Y-133857142D01*
X130114285Y-133628571D01*
X130171428Y-133514285D01*
X130285714Y-133400000D01*
X130457142Y-133342857D01*
X130571428Y-133342857D01*
X130742857Y-133400000D01*
X130800000Y-133457142D01*
X131942857Y-134542857D02*
X131257142Y-134542857D01*
X131600000Y-134542857D02*
X131600000Y-133342857D01*
X131485714Y-133514285D01*
X131371428Y-133628571D01*
X131257142Y-133685714D01*
D10*
X194238095Y-51252380D02*
X194238095Y-50252380D01*
X194238095Y-50728571D02*
X194809523Y-50728571D01*
X194809523Y-51252380D02*
X194809523Y-50252380D01*
X195428571Y-50680952D02*
X195333333Y-50633333D01*
X195285714Y-50585714D01*
X195238095Y-50490476D01*
X195238095Y-50442857D01*
X195285714Y-50347619D01*
X195333333Y-50300000D01*
X195428571Y-50252380D01*
X195619047Y-50252380D01*
X195714285Y-50300000D01*
X195761904Y-50347619D01*
X195809523Y-50442857D01*
X195809523Y-50490476D01*
X195761904Y-50585714D01*
X195714285Y-50633333D01*
X195619047Y-50680952D01*
X195428571Y-50680952D01*
X195333333Y-50728571D01*
X195285714Y-50776190D01*
X195238095Y-50871428D01*
X195238095Y-51061904D01*
X195285714Y-51157142D01*
X195333333Y-51204761D01*
X195428571Y-51252380D01*
X195619047Y-51252380D01*
X195714285Y-51204761D01*
X195761904Y-51157142D01*
X195809523Y-51061904D01*
X195809523Y-50871428D01*
X195761904Y-50776190D01*
X195714285Y-50728571D01*
X195619047Y-50680952D01*
D11*
X142800000Y-134428571D02*
X142742857Y-134485714D01*
X142571428Y-134542857D01*
X142457142Y-134542857D01*
X142285714Y-134485714D01*
X142171428Y-134371428D01*
X142114285Y-134257142D01*
X142057142Y-134028571D01*
X142057142Y-133857142D01*
X142114285Y-133628571D01*
X142171428Y-133514285D01*
X142285714Y-133400000D01*
X142457142Y-133342857D01*
X142571428Y-133342857D01*
X142742857Y-133400000D01*
X142800000Y-133457142D01*
X143828571Y-133742857D02*
X143828571Y-134542857D01*
X143542857Y-133285714D02*
X143257142Y-134142857D01*
X144000000Y-134142857D01*
D10*
X180333333Y-99107142D02*
X180285714Y-99154761D01*
X180142857Y-99202380D01*
X180047619Y-99202380D01*
X179904761Y-99154761D01*
X179809523Y-99059523D01*
X179761904Y-98964285D01*
X179714285Y-98773809D01*
X179714285Y-98630952D01*
X179761904Y-98440476D01*
X179809523Y-98345238D01*
X179904761Y-98250000D01*
X180047619Y-98202380D01*
X180142857Y-98202380D01*
X180285714Y-98250000D01*
X180333333Y-98297619D01*
X181238095Y-98202380D02*
X180761904Y-98202380D01*
X180714285Y-98678571D01*
X180761904Y-98630952D01*
X180857142Y-98583333D01*
X181095238Y-98583333D01*
X181190476Y-98630952D01*
X181238095Y-98678571D01*
X181285714Y-98773809D01*
X181285714Y-99011904D01*
X181238095Y-99107142D01*
X181190476Y-99154761D01*
X181095238Y-99202380D01*
X180857142Y-99202380D01*
X180761904Y-99154761D01*
X180714285Y-99107142D01*
X169357142Y-104802380D02*
X169023809Y-104326190D01*
X168785714Y-104802380D02*
X168785714Y-103802380D01*
X169166666Y-103802380D01*
X169261904Y-103850000D01*
X169309523Y-103897619D01*
X169357142Y-103992857D01*
X169357142Y-104135714D01*
X169309523Y-104230952D01*
X169261904Y-104278571D01*
X169166666Y-104326190D01*
X168785714Y-104326190D01*
X169738095Y-104754761D02*
X169880952Y-104802380D01*
X170119047Y-104802380D01*
X170214285Y-104754761D01*
X170261904Y-104707142D01*
X170309523Y-104611904D01*
X170309523Y-104516666D01*
X170261904Y-104421428D01*
X170214285Y-104373809D01*
X170119047Y-104326190D01*
X169928571Y-104278571D01*
X169833333Y-104230952D01*
X169785714Y-104183333D01*
X169738095Y-104088095D01*
X169738095Y-103992857D01*
X169785714Y-103897619D01*
X169833333Y-103850000D01*
X169928571Y-103802380D01*
X170166666Y-103802380D01*
X170309523Y-103850000D01*
X171261904Y-104802380D02*
X170690476Y-104802380D01*
X170976190Y-104802380D02*
X170976190Y-103802380D01*
X170880952Y-103945238D01*
X170785714Y-104040476D01*
X170690476Y-104088095D01*
D12*
X106519921Y-139997619D02*
X106153254Y-139473809D01*
X105891349Y-139997619D02*
X105891349Y-138897619D01*
X106310397Y-138897619D01*
X106415159Y-138950000D01*
X106467540Y-139002380D01*
X106519921Y-139107142D01*
X106519921Y-139264285D01*
X106467540Y-139369047D01*
X106415159Y-139421428D01*
X106310397Y-139473809D01*
X105891349Y-139473809D01*
X106938968Y-139945238D02*
X107096111Y-139997619D01*
X107358016Y-139997619D01*
X107462778Y-139945238D01*
X107515159Y-139892857D01*
X107567540Y-139788095D01*
X107567540Y-139683333D01*
X107515159Y-139578571D01*
X107462778Y-139526190D01*
X107358016Y-139473809D01*
X107148492Y-139421428D01*
X107043730Y-139369047D01*
X106991349Y-139316666D01*
X106938968Y-139211904D01*
X106938968Y-139107142D01*
X106991349Y-139002380D01*
X107043730Y-138950000D01*
X107148492Y-138897619D01*
X107410397Y-138897619D01*
X107567540Y-138950000D01*
X107986587Y-139002380D02*
X108038968Y-138950000D01*
X108143730Y-138897619D01*
X108405635Y-138897619D01*
X108510397Y-138950000D01*
X108562778Y-139002380D01*
X108615159Y-139107142D01*
X108615159Y-139211904D01*
X108562778Y-139369047D01*
X107934206Y-139997619D01*
X108615159Y-139997619D01*
D13*
X187185000Y-59600000D02*
X171825000Y-59600000D01*
X177851000Y-57088000D02*
X178246000Y-56692000D01*
X182931000Y-57088000D02*
X183038000Y-56981000D01*
X187185000Y-53400000D02*
X171825000Y-53400000D01*
X187425000Y-50840000D02*
X187425000Y-50100000D01*
X183197000Y-57354000D02*
X183304000Y-57247000D01*
X187185000Y-61660000D02*
X187185000Y-50340000D01*
X187185000Y-61660000D02*
X171825000Y-61660000D01*
X175432000Y-54426000D02*
X175812000Y-54046000D01*
X187185000Y-50900000D02*
X171825000Y-50900000D01*
X187425000Y-50100000D02*
X186925000Y-50100000D01*
X180512000Y-54426000D02*
X180892000Y-54046000D01*
X180763000Y-54708000D02*
X181158000Y-54312000D01*
X187185000Y-50340000D02*
X171825000Y-50340000D01*
X178117000Y-57354000D02*
X178497000Y-56974000D01*
X175683000Y-54708000D02*
X176078000Y-54312000D01*
X185867000Y-54153000D02*
X185973000Y-54046000D01*
X171825000Y-61660000D02*
X171825000Y-50340000D01*
X186133000Y-54419000D02*
X186239000Y-54312000D01*
X173037000Y-57354000D02*
X173417000Y-56974000D01*
X172771000Y-57088000D02*
X173166000Y-56692000D01*
X176605000Y-55700000D02*
G75*
G03*
X176605000Y-55700000I-2180000J0D01*
G01*
X186765000Y-55700000D02*
G75*
G03*
X186765000Y-55700000I-2180000J0D01*
G01*
X181685000Y-55700000D02*
G75*
G03*
X181685000Y-55700000I-2180000J0D01*
G01*
X169926000Y-108451000D02*
X164084000Y-108451000D01*
X164084000Y-108451000D02*
G75*
G03*
X171069000Y-109594000I2921000J-4064000D01*
G01*
X171950000Y-131450000D02*
X169050000Y-131450000D01*
X169050000Y-131450000D02*
X169050000Y-128550000D01*
X169050000Y-128550000D02*
X171950000Y-128550000D01*
X171950000Y-128550000D02*
X171950000Y-131450000D01*
X165238748Y-106735000D02*
X165761252Y-106735000D01*
X165238748Y-105265000D02*
X165761252Y-105265000D01*
X119024000Y-143381000D02*
X119024000Y-137539000D01*
X119024000Y-137539000D02*
G75*
G03*
X117881000Y-144524000I-4064000J-2921000D01*
G01*
X107261252Y-135735000D02*
X106738748Y-135735000D01*
X107261252Y-134265000D02*
X106738748Y-134265000D01*
X156241000Y-138099000D02*
X159483000Y-138099000D01*
X150115000Y-139099000D02*
X153759000Y-139099000D01*
X152355000Y-136139000D02*
X157645000Y-136139000D01*
X149950000Y-139940000D02*
X160050000Y-139940000D01*
X151176000Y-137139000D02*
X153759000Y-137139000D01*
X150343000Y-138459000D02*
X153759000Y-138459000D01*
X150980000Y-137379000D02*
X153759000Y-137379000D01*
X156241000Y-137619000D02*
X159194000Y-137619000D01*
X156241000Y-138179000D02*
X159525000Y-138179000D01*
X156241000Y-138259000D02*
X159564000Y-138259000D01*
X151075000Y-137259000D02*
X153759000Y-137259000D01*
X150163000Y-138939000D02*
X153759000Y-138939000D01*
X150138000Y-139019000D02*
X153759000Y-139019000D01*
X150753000Y-137699000D02*
X153759000Y-137699000D01*
X156241000Y-136899000D02*
X158601000Y-136899000D01*
X156241000Y-137539000D02*
X159138000Y-137539000D01*
X152421000Y-136099000D02*
X157579000Y-136099000D01*
X151746000Y-136579000D02*
X158254000Y-136579000D01*
X156241000Y-137059000D02*
X158753000Y-137059000D01*
X156241000Y-138619000D02*
X159723000Y-138619000D01*
X151564000Y-136739000D02*
X158436000Y-136739000D01*
X156241000Y-138699000D02*
X159754000Y-138699000D01*
X149996000Y-139619000D02*
X160004000Y-139619000D01*
X150293000Y-138579000D02*
X153759000Y-138579000D01*
X150397000Y-138339000D02*
X153759000Y-138339000D01*
X156241000Y-136939000D02*
X158640000Y-136939000D01*
X152291000Y-136179000D02*
X157709000Y-136179000D01*
X152875000Y-135859000D02*
X157125000Y-135859000D01*
X156241000Y-139019000D02*
X159862000Y-139019000D01*
X153056000Y-135779000D02*
X156944000Y-135779000D01*
X156241000Y-139099000D02*
X159885000Y-139099000D01*
X149922000Y-140340000D02*
X160078000Y-140340000D01*
X151522000Y-136779000D02*
X153759000Y-136779000D01*
X149989000Y-139659000D02*
X160011000Y-139659000D01*
X150605000Y-137939000D02*
X153759000Y-137939000D01*
X150361000Y-138419000D02*
X153759000Y-138419000D01*
X154138000Y-135459000D02*
X155862000Y-135459000D01*
X156241000Y-138299000D02*
X159584000Y-138299000D01*
X150035000Y-139419000D02*
X159965000Y-139419000D01*
X156241000Y-137939000D02*
X159395000Y-137939000D01*
X150262000Y-138659000D02*
X153759000Y-138659000D01*
X150653000Y-137859000D02*
X153759000Y-137859000D01*
X150003000Y-139579000D02*
X159997000Y-139579000D01*
X150517000Y-138099000D02*
X153759000Y-138099000D01*
X156241000Y-138019000D02*
X159440000Y-138019000D01*
X150475000Y-138179000D02*
X153759000Y-138179000D01*
X151439000Y-136859000D02*
X153759000Y-136859000D01*
X150026000Y-139459000D02*
X159974000Y-139459000D01*
X150629000Y-137899000D02*
X153759000Y-137899000D01*
X150560000Y-138019000D02*
X153759000Y-138019000D01*
X149976000Y-139739000D02*
X160024000Y-139739000D01*
X154401000Y-135419000D02*
X155599000Y-135419000D01*
X150072000Y-139259000D02*
X159928000Y-139259000D01*
X152000000Y-136379000D02*
X158000000Y-136379000D01*
X150232000Y-138739000D02*
X153759000Y-138739000D01*
X153938000Y-135499000D02*
X156062000Y-135499000D01*
X151625000Y-145479646D02*
X152625000Y-145479646D01*
X153370000Y-135659000D02*
X156630000Y-135659000D01*
X149946000Y-139980000D02*
X160054000Y-139980000D01*
X152490000Y-136059000D02*
X157510000Y-136059000D01*
X151653000Y-136659000D02*
X158347000Y-136659000D01*
X156241000Y-138579000D02*
X159707000Y-138579000D01*
X150436000Y-138259000D02*
X153759000Y-138259000D01*
X150455000Y-138219000D02*
X153759000Y-138219000D01*
X150189000Y-138859000D02*
X153759000Y-138859000D01*
X152711000Y-135939000D02*
X157289000Y-135939000D01*
X156241000Y-138419000D02*
X159639000Y-138419000D01*
X149960000Y-139860000D02*
X160040000Y-139860000D01*
X156241000Y-137219000D02*
X158892000Y-137219000D01*
X156241000Y-137339000D02*
X158989000Y-137339000D01*
X156241000Y-136979000D02*
X158679000Y-136979000D01*
X156241000Y-139219000D02*
X159918000Y-139219000D01*
X150203000Y-138819000D02*
X153759000Y-138819000D01*
X156241000Y-137099000D02*
X158789000Y-137099000D01*
X151321000Y-136979000D02*
X153759000Y-136979000D01*
X151247000Y-137059000D02*
X153759000Y-137059000D01*
X156241000Y-138379000D02*
X159621000Y-138379000D01*
X149942000Y-140020000D02*
X160058000Y-140020000D01*
X151794000Y-136539000D02*
X158206000Y-136539000D01*
X152230000Y-136219000D02*
X157770000Y-136219000D01*
X156241000Y-137979000D02*
X159417000Y-137979000D01*
X156241000Y-137419000D02*
X159050000Y-137419000D01*
X150727000Y-137739000D02*
X153759000Y-137739000D01*
X150010000Y-139539000D02*
X159990000Y-139539000D01*
X156241000Y-137259000D02*
X158925000Y-137259000D01*
X150093000Y-139179000D02*
X153759000Y-139179000D01*
X150920000Y-137459000D02*
X153759000Y-137459000D01*
X156241000Y-138139000D02*
X159504000Y-138139000D01*
X156241000Y-137859000D02*
X159347000Y-137859000D01*
X150538000Y-138059000D02*
X153759000Y-138059000D01*
X156241000Y-137179000D02*
X158858000Y-137179000D01*
X150277000Y-138619000D02*
X153759000Y-138619000D01*
X149921000Y-140380000D02*
X160079000Y-140380000D01*
X156241000Y-138059000D02*
X159462000Y-138059000D01*
X156241000Y-139179000D02*
X159907000Y-139179000D01*
X152963000Y-135819000D02*
X157037000Y-135819000D01*
X149932000Y-140140000D02*
X160068000Y-140140000D01*
X156241000Y-138979000D02*
X159850000Y-138979000D01*
X156241000Y-137899000D02*
X159371000Y-137899000D01*
X151360000Y-136939000D02*
X153759000Y-136939000D01*
X152111000Y-136299000D02*
X157889000Y-136299000D01*
X156241000Y-138659000D02*
X159738000Y-138659000D01*
X151946000Y-136419000D02*
X158054000Y-136419000D01*
X150806000Y-137619000D02*
X153759000Y-137619000D01*
X156241000Y-138739000D02*
X159768000Y-138739000D01*
X150062000Y-139299000D02*
X159938000Y-139299000D01*
X150890000Y-137499000D02*
X153759000Y-137499000D01*
X150217000Y-138779000D02*
X153759000Y-138779000D01*
X153490000Y-135619000D02*
X156510000Y-135619000D01*
X150583000Y-137979000D02*
X153759000Y-137979000D01*
X151399000Y-136899000D02*
X153759000Y-136899000D01*
X156241000Y-138899000D02*
X159824000Y-138899000D01*
X150082000Y-139219000D02*
X153759000Y-139219000D01*
X150176000Y-138899000D02*
X153759000Y-138899000D01*
X150103000Y-139139000D02*
X153759000Y-139139000D01*
X151844000Y-136499000D02*
X158156000Y-136499000D01*
X151142000Y-137179000D02*
X153759000Y-137179000D01*
X156241000Y-137739000D02*
X159273000Y-137739000D01*
X151043000Y-137299000D02*
X153759000Y-137299000D01*
X151699000Y-136619000D02*
X158301000Y-136619000D01*
X149920000Y-140500000D02*
X160080000Y-140500000D01*
X150053000Y-139339000D02*
X159947000Y-139339000D01*
X156241000Y-137579000D02*
X159166000Y-137579000D01*
X149930000Y-140180000D02*
X160070000Y-140180000D01*
X150246000Y-138699000D02*
X153759000Y-138699000D01*
X156241000Y-138539000D02*
X159690000Y-138539000D01*
X156241000Y-137659000D02*
X159221000Y-137659000D01*
X150779000Y-137659000D02*
X153759000Y-137659000D01*
X149925000Y-140260000D02*
X160075000Y-140260000D01*
X153770000Y-135539000D02*
X156230000Y-135539000D01*
X156241000Y-137299000D02*
X158957000Y-137299000D01*
X156241000Y-138819000D02*
X159797000Y-138819000D01*
X156241000Y-137779000D02*
X159298000Y-137779000D01*
X149965000Y-139820000D02*
X160035000Y-139820000D01*
X152055000Y-136339000D02*
X157945000Y-136339000D01*
X153154000Y-135739000D02*
X156846000Y-135739000D01*
X149938000Y-140060000D02*
X160062000Y-140060000D01*
X149920000Y-140460000D02*
X160080000Y-140460000D01*
X156241000Y-139139000D02*
X159897000Y-139139000D01*
X152170000Y-136259000D02*
X157830000Y-136259000D01*
X150834000Y-137579000D02*
X153759000Y-137579000D01*
X156241000Y-136779000D02*
X158478000Y-136779000D01*
X156241000Y-139059000D02*
X159874000Y-139059000D01*
X149982000Y-139699000D02*
X160018000Y-139699000D01*
X151608000Y-136699000D02*
X158392000Y-136699000D01*
X149920000Y-140420000D02*
X160080000Y-140420000D01*
X156241000Y-138499000D02*
X159674000Y-138499000D01*
X151480000Y-136819000D02*
X153759000Y-136819000D01*
X152791000Y-135899000D02*
X157209000Y-135899000D01*
X156241000Y-136819000D02*
X158520000Y-136819000D01*
X156241000Y-137019000D02*
X158716000Y-137019000D01*
X150310000Y-138539000D02*
X153759000Y-138539000D01*
X150950000Y-137419000D02*
X153759000Y-137419000D01*
X151011000Y-137339000D02*
X153759000Y-137339000D01*
X150677000Y-137819000D02*
X153759000Y-137819000D01*
X150044000Y-139379000D02*
X159956000Y-139379000D01*
X151894000Y-136459000D02*
X158106000Y-136459000D01*
X149970000Y-139779000D02*
X160030000Y-139779000D01*
X156241000Y-137699000D02*
X159247000Y-137699000D01*
X151284000Y-137019000D02*
X153759000Y-137019000D01*
X156241000Y-137499000D02*
X159110000Y-137499000D01*
X150018000Y-139499000D02*
X159982000Y-139499000D01*
X149927000Y-140220000D02*
X160073000Y-140220000D01*
X150126000Y-139059000D02*
X153759000Y-139059000D01*
X151211000Y-137099000D02*
X153759000Y-137099000D01*
X151108000Y-137219000D02*
X153759000Y-137219000D01*
X152561000Y-136019000D02*
X157439000Y-136019000D01*
X149935000Y-140100000D02*
X160065000Y-140100000D01*
X156241000Y-137379000D02*
X159020000Y-137379000D01*
X156241000Y-137819000D02*
X159323000Y-137819000D01*
X150416000Y-138299000D02*
X153759000Y-138299000D01*
X152125000Y-145979646D02*
X152125000Y-144979646D01*
X156241000Y-138859000D02*
X159811000Y-138859000D01*
X156241000Y-138459000D02*
X159657000Y-138459000D01*
X152635000Y-135979000D02*
X157365000Y-135979000D01*
X156241000Y-138339000D02*
X159603000Y-138339000D01*
X156241000Y-138219000D02*
X159545000Y-138219000D01*
X156241000Y-137139000D02*
X158824000Y-137139000D01*
X150862000Y-137539000D02*
X153759000Y-137539000D01*
X150326000Y-138499000D02*
X153759000Y-138499000D01*
X153622000Y-135579000D02*
X156378000Y-135579000D01*
X150379000Y-138379000D02*
X153759000Y-138379000D01*
X150496000Y-138139000D02*
X153759000Y-138139000D01*
X149923000Y-140300000D02*
X160077000Y-140300000D01*
X150150000Y-138979000D02*
X153759000Y-138979000D01*
X156241000Y-138939000D02*
X159837000Y-138939000D01*
X156241000Y-136859000D02*
X158561000Y-136859000D01*
X156241000Y-137459000D02*
X159080000Y-137459000D01*
X150702000Y-137779000D02*
X153759000Y-137779000D01*
X153258000Y-135699000D02*
X156742000Y-135699000D01*
X149955000Y-139900000D02*
X160045000Y-139900000D01*
X156241000Y-138779000D02*
X159783000Y-138779000D01*
X160120000Y-140500000D02*
G75*
G03*
X160120000Y-140500000I-5120000J0D01*
G01*
X181120000Y-76620000D02*
X162880000Y-76620000D01*
X181120000Y-76620000D02*
X181120000Y-69380000D01*
X181120000Y-69380000D02*
X162880000Y-69380000D01*
X162880000Y-76620000D02*
X162880000Y-69380000D01*
X153779000Y-51991000D02*
X134221000Y-51991000D01*
X153779000Y-69009000D02*
X134221000Y-69009000D01*
X134221000Y-51991000D02*
X134221000Y-69009000D01*
X153779000Y-69009000D02*
X153779000Y-51991000D01*
X184661000Y-127055000D02*
X184661000Y-132945000D01*
X182341000Y-131241000D02*
X182341000Y-134738000D01*
X183861000Y-126176000D02*
X183861000Y-128759000D01*
X183421000Y-125834000D02*
X183421000Y-128759000D01*
X181020000Y-124946000D02*
X181020000Y-135054000D01*
X181941000Y-131241000D02*
X181941000Y-134874000D01*
X184301000Y-126608000D02*
X184301000Y-133392000D01*
X184901000Y-127421000D02*
X184901000Y-132579000D01*
X185581000Y-129401000D02*
X185581000Y-130599000D01*
X183581000Y-131241000D02*
X183581000Y-134050000D01*
X185141000Y-127875000D02*
X185141000Y-132125000D01*
X184021000Y-131241000D02*
X184021000Y-133679000D01*
X181421000Y-125003000D02*
X181421000Y-134997000D01*
X183981000Y-126284000D02*
X183981000Y-128759000D01*
X184101000Y-126399000D02*
X184101000Y-128759000D01*
X182861000Y-131241000D02*
X182861000Y-134504000D01*
X185021000Y-127635000D02*
X185021000Y-132365000D01*
X181261000Y-124976000D02*
X181261000Y-135024000D01*
X184741000Y-127170000D02*
X184741000Y-132830000D01*
X182981000Y-131241000D02*
X182981000Y-134440000D01*
X181341000Y-124989000D02*
X181341000Y-135011000D01*
X183021000Y-131241000D02*
X183021000Y-134417000D01*
X183261000Y-131241000D02*
X183261000Y-134273000D01*
X182701000Y-125416000D02*
X182701000Y-128759000D01*
X183301000Y-131241000D02*
X183301000Y-134247000D01*
X181581000Y-125035000D02*
X181581000Y-134965000D01*
X182661000Y-131241000D02*
X182661000Y-134603000D01*
X183541000Y-125920000D02*
X183541000Y-128759000D01*
X180860000Y-124932000D02*
X180860000Y-135068000D01*
X181221000Y-124970000D02*
X181221000Y-135030000D01*
X181140000Y-124960000D02*
X181140000Y-135040000D01*
X180780000Y-124927000D02*
X180780000Y-135073000D01*
X185301000Y-128258000D02*
X185301000Y-131742000D01*
X181821000Y-131241000D02*
X181821000Y-134907000D01*
X183781000Y-131241000D02*
X183781000Y-133892000D01*
X184181000Y-126480000D02*
X184181000Y-128759000D01*
X181180000Y-124965000D02*
X181180000Y-135035000D01*
X181381000Y-124996000D02*
X181381000Y-135004000D01*
X183421000Y-131241000D02*
X183421000Y-134166000D01*
X184581000Y-126946000D02*
X184581000Y-133054000D01*
X183181000Y-125677000D02*
X183181000Y-128759000D01*
X182261000Y-131241000D02*
X182261000Y-134768000D01*
X184181000Y-131241000D02*
X184181000Y-133520000D01*
X181501000Y-125018000D02*
X181501000Y-134982000D01*
X185101000Y-127791000D02*
X185101000Y-132209000D01*
X183021000Y-125583000D02*
X183021000Y-128759000D01*
X182141000Y-125189000D02*
X182141000Y-128759000D01*
X181661000Y-125053000D02*
X181661000Y-134947000D01*
X182901000Y-125517000D02*
X182901000Y-128759000D01*
X181821000Y-125093000D02*
X181821000Y-128759000D01*
X183741000Y-131241000D02*
X183741000Y-133925000D01*
X183181000Y-131241000D02*
X183181000Y-134323000D01*
X183501000Y-125890000D02*
X183501000Y-128759000D01*
X183981000Y-131241000D02*
X183981000Y-133716000D01*
X182541000Y-131241000D02*
X182541000Y-134657000D01*
X181060000Y-124950000D02*
X181060000Y-135050000D01*
X185221000Y-128056000D02*
X185221000Y-131944000D01*
X183701000Y-126043000D02*
X183701000Y-128759000D01*
X182581000Y-125361000D02*
X182581000Y-128759000D01*
X183221000Y-125702000D02*
X183221000Y-128759000D01*
X180820000Y-124930000D02*
X180820000Y-135070000D01*
X183621000Y-131241000D02*
X183621000Y-134020000D01*
X183661000Y-126011000D02*
X183661000Y-128759000D01*
X181861000Y-131241000D02*
X181861000Y-134897000D01*
X182781000Y-125455000D02*
X182781000Y-128759000D01*
X183901000Y-126211000D02*
X183901000Y-128759000D01*
X184941000Y-127490000D02*
X184941000Y-132510000D01*
X175520354Y-126625000D02*
X175520354Y-127625000D01*
X183661000Y-131241000D02*
X183661000Y-133989000D01*
X182301000Y-131241000D02*
X182301000Y-134754000D01*
X182461000Y-125310000D02*
X182461000Y-128759000D01*
X182421000Y-125293000D02*
X182421000Y-128759000D01*
X183701000Y-131241000D02*
X183701000Y-133957000D01*
X182581000Y-131241000D02*
X182581000Y-134639000D01*
X183141000Y-125653000D02*
X183141000Y-128759000D01*
X183341000Y-131241000D02*
X183341000Y-134221000D01*
X181621000Y-125044000D02*
X181621000Y-134956000D01*
X185501000Y-128938000D02*
X185501000Y-131062000D01*
X181701000Y-125062000D02*
X181701000Y-134938000D01*
X184261000Y-126564000D02*
X184261000Y-133436000D01*
X184821000Y-127291000D02*
X184821000Y-132709000D01*
X182261000Y-125232000D02*
X182261000Y-128759000D01*
X184781000Y-127230000D02*
X184781000Y-132770000D01*
X182981000Y-125560000D02*
X182981000Y-128759000D01*
X181100000Y-124955000D02*
X181100000Y-135045000D01*
X182661000Y-125397000D02*
X182661000Y-128759000D01*
X182501000Y-131241000D02*
X182501000Y-134674000D01*
X184461000Y-126794000D02*
X184461000Y-133206000D01*
X184221000Y-131241000D02*
X184221000Y-133478000D01*
X180900000Y-124935000D02*
X180900000Y-135065000D01*
X182821000Y-131241000D02*
X182821000Y-134525000D01*
X182021000Y-125150000D02*
X182021000Y-128759000D01*
X182101000Y-125176000D02*
X182101000Y-128759000D01*
X182621000Y-131241000D02*
X182621000Y-134621000D01*
X182821000Y-125475000D02*
X182821000Y-128759000D01*
X183901000Y-131241000D02*
X183901000Y-133789000D01*
X183061000Y-125605000D02*
X183061000Y-128759000D01*
X183061000Y-131241000D02*
X183061000Y-134395000D01*
X182221000Y-131241000D02*
X182221000Y-134783000D01*
X183301000Y-125753000D02*
X183301000Y-128759000D01*
X183381000Y-131241000D02*
X183381000Y-134194000D01*
X180740000Y-124925000D02*
X180740000Y-135075000D01*
X182221000Y-125217000D02*
X182221000Y-128759000D01*
X182741000Y-131241000D02*
X182741000Y-134564000D01*
X185461000Y-128770000D02*
X185461000Y-131230000D01*
X180980000Y-124942000D02*
X180980000Y-135058000D01*
X184061000Y-126360000D02*
X184061000Y-128759000D01*
X182781000Y-131241000D02*
X182781000Y-134545000D01*
X180620000Y-124921000D02*
X180620000Y-135079000D01*
X181981000Y-131241000D02*
X181981000Y-134862000D01*
X175020354Y-127125000D02*
X176020354Y-127125000D01*
X180940000Y-124938000D02*
X180940000Y-135062000D01*
X182501000Y-125326000D02*
X182501000Y-128759000D01*
X181301000Y-124982000D02*
X181301000Y-135018000D01*
X183621000Y-125980000D02*
X183621000Y-128759000D01*
X181861000Y-125103000D02*
X181861000Y-128759000D01*
X184101000Y-131241000D02*
X184101000Y-133601000D01*
X184141000Y-131241000D02*
X184141000Y-133561000D01*
X181901000Y-125115000D02*
X181901000Y-128759000D01*
X182941000Y-125538000D02*
X182941000Y-128759000D01*
X183501000Y-131241000D02*
X183501000Y-134110000D01*
X185381000Y-128490000D02*
X185381000Y-131510000D01*
X184861000Y-127355000D02*
X184861000Y-132645000D01*
X180500000Y-124920000D02*
X180500000Y-135080000D01*
X181461000Y-125010000D02*
X181461000Y-134990000D01*
X182381000Y-131241000D02*
X182381000Y-134723000D01*
X185541000Y-129138000D02*
X185541000Y-130862000D01*
X185261000Y-128154000D02*
X185261000Y-131846000D01*
X182701000Y-131241000D02*
X182701000Y-134584000D01*
X180580000Y-124920000D02*
X180580000Y-135080000D01*
X183461000Y-125862000D02*
X183461000Y-128759000D01*
X182901000Y-131241000D02*
X182901000Y-134483000D01*
X184621000Y-127000000D02*
X184621000Y-133000000D01*
X185421000Y-128622000D02*
X185421000Y-131378000D01*
X182021000Y-131241000D02*
X182021000Y-134850000D01*
X184141000Y-126439000D02*
X184141000Y-128759000D01*
X182181000Y-131241000D02*
X182181000Y-134797000D01*
X182421000Y-131241000D02*
X182421000Y-134707000D01*
X183381000Y-125806000D02*
X183381000Y-128759000D01*
X181941000Y-125126000D02*
X181941000Y-128759000D01*
X183141000Y-131241000D02*
X183141000Y-134347000D01*
X184541000Y-126894000D02*
X184541000Y-133106000D01*
X183781000Y-126108000D02*
X183781000Y-128759000D01*
X185181000Y-127963000D02*
X185181000Y-132037000D01*
X181741000Y-125072000D02*
X181741000Y-134928000D01*
X181781000Y-125082000D02*
X181781000Y-128759000D01*
X184421000Y-126746000D02*
X184421000Y-133254000D01*
X182061000Y-131241000D02*
X182061000Y-134837000D01*
X183101000Y-125629000D02*
X183101000Y-128759000D01*
X183821000Y-126142000D02*
X183821000Y-128759000D01*
X184021000Y-126321000D02*
X184021000Y-128759000D01*
X182381000Y-125277000D02*
X182381000Y-128759000D01*
X184701000Y-127111000D02*
X184701000Y-132889000D01*
X184381000Y-126699000D02*
X184381000Y-133301000D01*
X183101000Y-131241000D02*
X183101000Y-134371000D01*
X183861000Y-131241000D02*
X183861000Y-133824000D01*
X183341000Y-125779000D02*
X183341000Y-128759000D01*
X182061000Y-125163000D02*
X182061000Y-128759000D01*
X181901000Y-131241000D02*
X181901000Y-134885000D01*
X182101000Y-131241000D02*
X182101000Y-134824000D01*
X185341000Y-128370000D02*
X185341000Y-131630000D01*
X180700000Y-124923000D02*
X180700000Y-135077000D01*
X183821000Y-131241000D02*
X183821000Y-133858000D01*
X182341000Y-125262000D02*
X182341000Y-128759000D01*
X185061000Y-127711000D02*
X185061000Y-132289000D01*
X181781000Y-131241000D02*
X181781000Y-134918000D01*
X183941000Y-131241000D02*
X183941000Y-133753000D01*
X182741000Y-125436000D02*
X182741000Y-128759000D01*
X184981000Y-127561000D02*
X184981000Y-132439000D01*
X182141000Y-131241000D02*
X182141000Y-134811000D01*
X184221000Y-126522000D02*
X184221000Y-128759000D01*
X181981000Y-125138000D02*
X181981000Y-128759000D01*
X182621000Y-125379000D02*
X182621000Y-128759000D01*
X182541000Y-125343000D02*
X182541000Y-128759000D01*
X183541000Y-131241000D02*
X183541000Y-134080000D01*
X181541000Y-125026000D02*
X181541000Y-134974000D01*
X182181000Y-125203000D02*
X182181000Y-128759000D01*
X182861000Y-125496000D02*
X182861000Y-128759000D01*
X182301000Y-125246000D02*
X182301000Y-128759000D01*
X180540000Y-124920000D02*
X180540000Y-135080000D01*
X183741000Y-126075000D02*
X183741000Y-128759000D01*
X182941000Y-131241000D02*
X182941000Y-134462000D01*
X180660000Y-124922000D02*
X180660000Y-135078000D01*
X184341000Y-126653000D02*
X184341000Y-133347000D01*
X183261000Y-125727000D02*
X183261000Y-128759000D01*
X183941000Y-126247000D02*
X183941000Y-128759000D01*
X183221000Y-131241000D02*
X183221000Y-134298000D01*
X184061000Y-131241000D02*
X184061000Y-133640000D01*
X184501000Y-126844000D02*
X184501000Y-133156000D01*
X183461000Y-131241000D02*
X183461000Y-134138000D01*
X182461000Y-131241000D02*
X182461000Y-134690000D01*
X183581000Y-125950000D02*
X183581000Y-128759000D01*
X185620000Y-130000000D02*
G75*
G03*
X185620000Y-130000000I-5120000J0D01*
G01*
X182941000Y-113038000D02*
X182941000Y-116259000D01*
X183381000Y-113306000D02*
X183381000Y-116259000D01*
X184741000Y-114670000D02*
X184741000Y-120330000D01*
X184781000Y-114730000D02*
X184781000Y-120270000D01*
X182621000Y-118741000D02*
X182621000Y-122121000D01*
X181541000Y-112526000D02*
X181541000Y-122474000D01*
X181821000Y-118741000D02*
X181821000Y-122407000D01*
X183301000Y-113253000D02*
X183301000Y-116259000D01*
X183141000Y-113153000D02*
X183141000Y-116259000D01*
X183181000Y-118741000D02*
X183181000Y-121823000D01*
X180980000Y-112442000D02*
X180980000Y-122558000D01*
X182221000Y-118741000D02*
X182221000Y-122283000D01*
X183861000Y-113676000D02*
X183861000Y-116259000D01*
X183501000Y-113390000D02*
X183501000Y-116259000D01*
X182701000Y-118741000D02*
X182701000Y-122084000D01*
X181781000Y-112582000D02*
X181781000Y-116259000D01*
X183541000Y-113420000D02*
X183541000Y-116259000D01*
X181861000Y-118741000D02*
X181861000Y-122397000D01*
X183221000Y-118741000D02*
X183221000Y-121798000D01*
X184941000Y-114990000D02*
X184941000Y-120010000D01*
X184821000Y-114791000D02*
X184821000Y-120209000D01*
X183061000Y-118741000D02*
X183061000Y-121895000D01*
X183901000Y-113711000D02*
X183901000Y-116259000D01*
X185221000Y-115556000D02*
X185221000Y-119444000D01*
X182101000Y-118741000D02*
X182101000Y-122324000D01*
X184861000Y-114855000D02*
X184861000Y-120145000D01*
X184181000Y-118741000D02*
X184181000Y-121020000D01*
X184221000Y-114022000D02*
X184221000Y-116259000D01*
X185541000Y-116638000D02*
X185541000Y-118362000D01*
X182461000Y-112810000D02*
X182461000Y-116259000D01*
X183981000Y-118741000D02*
X183981000Y-121216000D01*
X182261000Y-118741000D02*
X182261000Y-122268000D01*
X181741000Y-112572000D02*
X181741000Y-122428000D01*
X183981000Y-113784000D02*
X183981000Y-116259000D01*
X175020354Y-114625000D02*
X176020354Y-114625000D01*
X183101000Y-113129000D02*
X183101000Y-116259000D01*
X182381000Y-118741000D02*
X182381000Y-122223000D01*
X181060000Y-112450000D02*
X181060000Y-122550000D01*
X181461000Y-112510000D02*
X181461000Y-122490000D01*
X183621000Y-118741000D02*
X183621000Y-121520000D01*
X185181000Y-115463000D02*
X185181000Y-119537000D01*
X184021000Y-118741000D02*
X184021000Y-121179000D01*
X185581000Y-116901000D02*
X185581000Y-118099000D01*
X181261000Y-112476000D02*
X181261000Y-122524000D01*
X182901000Y-118741000D02*
X182901000Y-121983000D01*
X182101000Y-112676000D02*
X182101000Y-116259000D01*
X185261000Y-115654000D02*
X185261000Y-119346000D01*
X183461000Y-113362000D02*
X183461000Y-116259000D01*
X182701000Y-112916000D02*
X182701000Y-116259000D01*
X184901000Y-114921000D02*
X184901000Y-120079000D01*
X182581000Y-118741000D02*
X182581000Y-122139000D01*
X181221000Y-112470000D02*
X181221000Y-122530000D01*
X181140000Y-112460000D02*
X181140000Y-122540000D01*
X182341000Y-112762000D02*
X182341000Y-116259000D01*
X181941000Y-118741000D02*
X181941000Y-122374000D01*
X180700000Y-112423000D02*
X180700000Y-122577000D01*
X180540000Y-112420000D02*
X180540000Y-122580000D01*
X181581000Y-112535000D02*
X181581000Y-122465000D01*
X183021000Y-118741000D02*
X183021000Y-121917000D01*
X182221000Y-112717000D02*
X182221000Y-116259000D01*
X182301000Y-112746000D02*
X182301000Y-116259000D01*
X181381000Y-112496000D02*
X181381000Y-122504000D01*
X185061000Y-115211000D02*
X185061000Y-119789000D01*
X183581000Y-113450000D02*
X183581000Y-116259000D01*
X182461000Y-118741000D02*
X182461000Y-122190000D01*
X181301000Y-112482000D02*
X181301000Y-122518000D01*
X183701000Y-113543000D02*
X183701000Y-116259000D01*
X184981000Y-115061000D02*
X184981000Y-119939000D01*
X183381000Y-118741000D02*
X183381000Y-121694000D01*
X181861000Y-112603000D02*
X181861000Y-116259000D01*
X185021000Y-115135000D02*
X185021000Y-119865000D01*
X182781000Y-118741000D02*
X182781000Y-122045000D01*
X180580000Y-112420000D02*
X180580000Y-122580000D01*
X184061000Y-113860000D02*
X184061000Y-116259000D01*
X181901000Y-118741000D02*
X181901000Y-122385000D01*
X182981000Y-113060000D02*
X182981000Y-116259000D01*
X183021000Y-113083000D02*
X183021000Y-116259000D01*
X181941000Y-112626000D02*
X181941000Y-116259000D01*
X184541000Y-114394000D02*
X184541000Y-120606000D01*
X184421000Y-114246000D02*
X184421000Y-120754000D01*
X183741000Y-118741000D02*
X183741000Y-121425000D01*
X184501000Y-114344000D02*
X184501000Y-120656000D01*
X182381000Y-112777000D02*
X182381000Y-116259000D01*
X183621000Y-113480000D02*
X183621000Y-116259000D01*
X182861000Y-112996000D02*
X182861000Y-116259000D01*
X181901000Y-112615000D02*
X181901000Y-116259000D01*
X184381000Y-114199000D02*
X184381000Y-120801000D01*
X180820000Y-112430000D02*
X180820000Y-122570000D01*
X182501000Y-118741000D02*
X182501000Y-122174000D01*
X184261000Y-114064000D02*
X184261000Y-120936000D01*
X183501000Y-118741000D02*
X183501000Y-121610000D01*
X183661000Y-113511000D02*
X183661000Y-116259000D01*
X181661000Y-112553000D02*
X181661000Y-122447000D01*
X182541000Y-118741000D02*
X182541000Y-122157000D01*
X180940000Y-112438000D02*
X180940000Y-122562000D01*
X180620000Y-112421000D02*
X180620000Y-122579000D01*
X185461000Y-116270000D02*
X185461000Y-118730000D01*
X183461000Y-118741000D02*
X183461000Y-121638000D01*
X183781000Y-113608000D02*
X183781000Y-116259000D01*
X181621000Y-112544000D02*
X181621000Y-122456000D01*
X183661000Y-118741000D02*
X183661000Y-121489000D01*
X184061000Y-118741000D02*
X184061000Y-121140000D01*
X185301000Y-115758000D02*
X185301000Y-119242000D01*
X184141000Y-113939000D02*
X184141000Y-116259000D01*
X180780000Y-112427000D02*
X180780000Y-122573000D01*
X182781000Y-112955000D02*
X182781000Y-116259000D01*
X183701000Y-118741000D02*
X183701000Y-121457000D01*
X184581000Y-114446000D02*
X184581000Y-120554000D01*
X182861000Y-118741000D02*
X182861000Y-122004000D01*
X184101000Y-113899000D02*
X184101000Y-116259000D01*
X185421000Y-116122000D02*
X185421000Y-118878000D01*
X181781000Y-118741000D02*
X181781000Y-122418000D01*
X184701000Y-114611000D02*
X184701000Y-120389000D01*
X184341000Y-114153000D02*
X184341000Y-120847000D01*
X183941000Y-113747000D02*
X183941000Y-116259000D01*
X182661000Y-112897000D02*
X182661000Y-116259000D01*
X180660000Y-112422000D02*
X180660000Y-122578000D01*
X184221000Y-118741000D02*
X184221000Y-120978000D01*
X182421000Y-118741000D02*
X182421000Y-122207000D01*
X183781000Y-118741000D02*
X183781000Y-121392000D01*
X183221000Y-113202000D02*
X183221000Y-116259000D01*
X182181000Y-112703000D02*
X182181000Y-116259000D01*
X175520354Y-114125000D02*
X175520354Y-115125000D01*
X182261000Y-112732000D02*
X182261000Y-116259000D01*
X182181000Y-118741000D02*
X182181000Y-122297000D01*
X182061000Y-112663000D02*
X182061000Y-116259000D01*
X181981000Y-112638000D02*
X181981000Y-116259000D01*
X182621000Y-112879000D02*
X182621000Y-116259000D01*
X182581000Y-112861000D02*
X182581000Y-116259000D01*
X183821000Y-118741000D02*
X183821000Y-121358000D01*
X182421000Y-112793000D02*
X182421000Y-116259000D01*
X184101000Y-118741000D02*
X184101000Y-121101000D01*
X182941000Y-118741000D02*
X182941000Y-121962000D01*
X182141000Y-112689000D02*
X182141000Y-116259000D01*
X181100000Y-112455000D02*
X181100000Y-122545000D01*
X183741000Y-113575000D02*
X183741000Y-116259000D01*
X184181000Y-113980000D02*
X184181000Y-116259000D01*
X182981000Y-118741000D02*
X182981000Y-121940000D01*
X183901000Y-118741000D02*
X183901000Y-121289000D01*
X185141000Y-115375000D02*
X185141000Y-119625000D01*
X183861000Y-118741000D02*
X183861000Y-121324000D01*
X184621000Y-114500000D02*
X184621000Y-120500000D01*
X180860000Y-112432000D02*
X180860000Y-122568000D01*
X181501000Y-112518000D02*
X181501000Y-122482000D01*
X183261000Y-113227000D02*
X183261000Y-116259000D01*
X182021000Y-112650000D02*
X182021000Y-116259000D01*
X182501000Y-112826000D02*
X182501000Y-116259000D01*
X185101000Y-115291000D02*
X185101000Y-119709000D01*
X182341000Y-118741000D02*
X182341000Y-122238000D01*
X181341000Y-112489000D02*
X181341000Y-122511000D01*
X183821000Y-113642000D02*
X183821000Y-116259000D01*
X183341000Y-118741000D02*
X183341000Y-121721000D01*
X183141000Y-118741000D02*
X183141000Y-121847000D01*
X184141000Y-118741000D02*
X184141000Y-121061000D01*
X185501000Y-116438000D02*
X185501000Y-118562000D01*
X184301000Y-114108000D02*
X184301000Y-120892000D01*
X182061000Y-118741000D02*
X182061000Y-122337000D01*
X181981000Y-118741000D02*
X181981000Y-122362000D01*
X184461000Y-114294000D02*
X184461000Y-120706000D01*
X185341000Y-115870000D02*
X185341000Y-119130000D01*
X183421000Y-113334000D02*
X183421000Y-116259000D01*
X183941000Y-118741000D02*
X183941000Y-121253000D01*
X182661000Y-118741000D02*
X182661000Y-122103000D01*
X181180000Y-112465000D02*
X181180000Y-122535000D01*
X184021000Y-113821000D02*
X184021000Y-116259000D01*
X183581000Y-118741000D02*
X183581000Y-121550000D01*
X182541000Y-112843000D02*
X182541000Y-116259000D01*
X183421000Y-118741000D02*
X183421000Y-121666000D01*
X185381000Y-115990000D02*
X185381000Y-119010000D01*
X181701000Y-112562000D02*
X181701000Y-122438000D01*
X181421000Y-112503000D02*
X181421000Y-122497000D01*
X181020000Y-112446000D02*
X181020000Y-122554000D01*
X183341000Y-113279000D02*
X183341000Y-116259000D01*
X182141000Y-118741000D02*
X182141000Y-122311000D01*
X183101000Y-118741000D02*
X183101000Y-121871000D01*
X183181000Y-113177000D02*
X183181000Y-116259000D01*
X182821000Y-118741000D02*
X182821000Y-122025000D01*
X182301000Y-118741000D02*
X182301000Y-122254000D01*
X180900000Y-112435000D02*
X180900000Y-122565000D01*
X183261000Y-118741000D02*
X183261000Y-121773000D01*
X181821000Y-112593000D02*
X181821000Y-116259000D01*
X180500000Y-112420000D02*
X180500000Y-122580000D01*
X183541000Y-118741000D02*
X183541000Y-121580000D01*
X184661000Y-114555000D02*
X184661000Y-120445000D01*
X182021000Y-118741000D02*
X182021000Y-122350000D01*
X182741000Y-118741000D02*
X182741000Y-122064000D01*
X182901000Y-113017000D02*
X182901000Y-116259000D01*
X183301000Y-118741000D02*
X183301000Y-121747000D01*
X182821000Y-112975000D02*
X182821000Y-116259000D01*
X182741000Y-112936000D02*
X182741000Y-116259000D01*
X180740000Y-112425000D02*
X180740000Y-122575000D01*
X183061000Y-113105000D02*
X183061000Y-116259000D01*
X185620000Y-117500000D02*
G75*
G03*
X185620000Y-117500000I-5120000J0D01*
G01*
X160500000Y-131000000D02*
X100500000Y-131000000D01*
X100500000Y-131000000D02*
X100500000Y-71000000D01*
X100500000Y-71000000D02*
X160500000Y-71000000D01*
X160500000Y-71000000D02*
X160500000Y-131000000D01*
X194450000Y-118950000D02*
X191550000Y-118950000D01*
X191550000Y-116050000D02*
X194450000Y-116050000D01*
X191550000Y-118950000D02*
X191550000Y-116050000D01*
X194450000Y-116050000D02*
X194450000Y-118950000D01*
X180761252Y-137735000D02*
X180238748Y-137735000D01*
X180761252Y-136265000D02*
X180238748Y-136265000D01*
X163235000Y-143738748D02*
X163235000Y-144261252D01*
X161765000Y-143738748D02*
X161765000Y-144261252D01*
X171200000Y-120300000D02*
X171200000Y-123700000D01*
X171200000Y-123700000D02*
X167800000Y-123700000D01*
X167800000Y-123700000D02*
X167800000Y-120300000D01*
X167800000Y-120300000D02*
X171200000Y-120300000D01*
X164780000Y-149465000D02*
X185220000Y-149465000D01*
X176313000Y-145828000D02*
X176266000Y-145874000D01*
X185220000Y-139544000D02*
X185220000Y-149465000D01*
X178815000Y-143736000D02*
X178768000Y-143782000D01*
X181393000Y-145828000D02*
X181346000Y-145874000D01*
X183895000Y-143736000D02*
X183848000Y-143782000D01*
X164540000Y-149705000D02*
X165040000Y-149705000D01*
X164540000Y-148965000D02*
X164540000Y-149705000D01*
X164780000Y-147405000D02*
X185220000Y-147405000D01*
X183690000Y-143530000D02*
X183655000Y-143566000D01*
X171426000Y-146044000D02*
X171391000Y-146079000D01*
X173530000Y-143530000D02*
X173495000Y-143566000D01*
X178610000Y-143530000D02*
X178575000Y-143566000D01*
X164780000Y-148905000D02*
X185220000Y-148905000D01*
X164780000Y-139544000D02*
X185220000Y-139544000D01*
X173735000Y-143736000D02*
X173688000Y-143782000D01*
X181586000Y-146044000D02*
X181551000Y-146079000D01*
X176506000Y-146044000D02*
X176471000Y-146079000D01*
X171233000Y-145828000D02*
X171186000Y-145874000D01*
X164780000Y-142504000D02*
X185220000Y-142504000D01*
X164780000Y-139544000D02*
X164780000Y-149465000D01*
X166696000Y-146340000D02*
G75*
G03*
X167408805Y-146485253I683999J1535001D01*
G01*
X165845000Y-144121000D02*
G75*
G03*
X165844573Y-145488042I1534993J-684001D01*
G01*
X167380000Y-146485000D02*
G75*
G03*
X168063318Y-146339756I0J1680000D01*
G01*
X168064000Y-143270000D02*
G75*
G03*
X166696958Y-143269573I-684001J-1534993D01*
G01*
X168915001Y-145489000D02*
G75*
G03*
X168915427Y-144121958I-1535001J684000D01*
G01*
X179220000Y-144805000D02*
G75*
G03*
X179220000Y-144805000I-1680000J0D01*
G01*
X174140000Y-144805000D02*
G75*
G03*
X174140000Y-144805000I-1680000J0D01*
G01*
X184300000Y-144805000D02*
G75*
G03*
X184300000Y-144805000I-1680000J0D01*
G01*
X110780000Y-61380000D02*
X129020000Y-61380000D01*
X110780000Y-61380000D02*
X110780000Y-68620000D01*
X129020000Y-61380000D02*
X129020000Y-68620000D01*
X110780000Y-68620000D02*
X129020000Y-68620000D01*
X163300000Y-101700000D02*
X163300000Y-98300000D01*
X166700000Y-101700000D02*
X163300000Y-101700000D01*
X166700000Y-98300000D02*
X166700000Y-101700000D01*
X163300000Y-98300000D02*
X166700000Y-98300000D01*
X132241000Y-138939000D02*
X135837000Y-138939000D01*
X126629000Y-137899000D02*
X129759000Y-137899000D01*
X126862000Y-137539000D02*
X129759000Y-137539000D01*
X125960000Y-139860000D02*
X136040000Y-139860000D01*
X126326000Y-138499000D02*
X129759000Y-138499000D01*
X126103000Y-139139000D02*
X129759000Y-139139000D01*
X125982000Y-139699000D02*
X136018000Y-139699000D01*
X129938000Y-135499000D02*
X132062000Y-135499000D01*
X127176000Y-137139000D02*
X129759000Y-137139000D01*
X125925000Y-140260000D02*
X136075000Y-140260000D01*
X127075000Y-137259000D02*
X129759000Y-137259000D01*
X125935000Y-140100000D02*
X136065000Y-140100000D01*
X126980000Y-137379000D02*
X129759000Y-137379000D01*
X125930000Y-140180000D02*
X136070000Y-140180000D01*
X127894000Y-136459000D02*
X134106000Y-136459000D01*
X132241000Y-137859000D02*
X135347000Y-137859000D01*
X126455000Y-138219000D02*
X129759000Y-138219000D01*
X132241000Y-138859000D02*
X135811000Y-138859000D01*
X132241000Y-138419000D02*
X135639000Y-138419000D01*
X125920000Y-140420000D02*
X136080000Y-140420000D01*
X126560000Y-138019000D02*
X129759000Y-138019000D01*
X126517000Y-138099000D02*
X129759000Y-138099000D01*
X126126000Y-139059000D02*
X129759000Y-139059000D01*
X127108000Y-137219000D02*
X129759000Y-137219000D01*
X126361000Y-138419000D02*
X129759000Y-138419000D01*
X132241000Y-137979000D02*
X135417000Y-137979000D01*
X132241000Y-139059000D02*
X135874000Y-139059000D01*
X127399000Y-136899000D02*
X129759000Y-136899000D01*
X132241000Y-137459000D02*
X135080000Y-137459000D01*
X132241000Y-137339000D02*
X134989000Y-137339000D01*
X132241000Y-136819000D02*
X134520000Y-136819000D01*
X126093000Y-139179000D02*
X129759000Y-139179000D01*
X126583000Y-137979000D02*
X129759000Y-137979000D01*
X132241000Y-139139000D02*
X135897000Y-139139000D01*
X132241000Y-137419000D02*
X135050000Y-137419000D01*
X126496000Y-138139000D02*
X129759000Y-138139000D01*
X127564000Y-136739000D02*
X134436000Y-136739000D01*
X130401000Y-135419000D02*
X131599000Y-135419000D01*
X126082000Y-139219000D02*
X129759000Y-139219000D01*
X126343000Y-138459000D02*
X129759000Y-138459000D01*
X125965000Y-139820000D02*
X136035000Y-139820000D01*
X126176000Y-138899000D02*
X129759000Y-138899000D01*
X127247000Y-137059000D02*
X129759000Y-137059000D01*
X126072000Y-139259000D02*
X135928000Y-139259000D01*
X125932000Y-140140000D02*
X136068000Y-140140000D01*
X132241000Y-138139000D02*
X135504000Y-138139000D01*
X125989000Y-139659000D02*
X136011000Y-139659000D01*
X127321000Y-136979000D02*
X129759000Y-136979000D01*
X132241000Y-138299000D02*
X135584000Y-138299000D01*
X132241000Y-138579000D02*
X135707000Y-138579000D01*
X127480000Y-136819000D02*
X129759000Y-136819000D01*
X132241000Y-138779000D02*
X135783000Y-138779000D01*
X127439000Y-136859000D02*
X129759000Y-136859000D01*
X132241000Y-138979000D02*
X135850000Y-138979000D01*
X126653000Y-137859000D02*
X129759000Y-137859000D01*
X127653000Y-136659000D02*
X134347000Y-136659000D01*
X125946000Y-139980000D02*
X136054000Y-139980000D01*
X132241000Y-138899000D02*
X135824000Y-138899000D01*
X126115000Y-139099000D02*
X129759000Y-139099000D01*
X126475000Y-138179000D02*
X129759000Y-138179000D01*
X126605000Y-137939000D02*
X129759000Y-137939000D01*
X128111000Y-136299000D02*
X133889000Y-136299000D01*
X132241000Y-137059000D02*
X134753000Y-137059000D01*
X132241000Y-137659000D02*
X135221000Y-137659000D01*
X126035000Y-139419000D02*
X135965000Y-139419000D01*
X132241000Y-138019000D02*
X135440000Y-138019000D01*
X126436000Y-138259000D02*
X129759000Y-138259000D01*
X126310000Y-138539000D02*
X129759000Y-138539000D01*
X127142000Y-137179000D02*
X129759000Y-137179000D01*
X126003000Y-139579000D02*
X135997000Y-139579000D01*
X132241000Y-137939000D02*
X135395000Y-137939000D01*
X128963000Y-135819000D02*
X133037000Y-135819000D01*
X126232000Y-138739000D02*
X129759000Y-138739000D01*
X126262000Y-138659000D02*
X129759000Y-138659000D01*
X128791000Y-135899000D02*
X133209000Y-135899000D01*
X125921000Y-140380000D02*
X136079000Y-140380000D01*
X126026000Y-139459000D02*
X135974000Y-139459000D01*
X132241000Y-136779000D02*
X134478000Y-136779000D01*
X132241000Y-138219000D02*
X135545000Y-138219000D01*
X128490000Y-136059000D02*
X133510000Y-136059000D01*
X125970000Y-139779000D02*
X136030000Y-139779000D01*
X129154000Y-135739000D02*
X132846000Y-135739000D01*
X132241000Y-138699000D02*
X135754000Y-138699000D01*
X128355000Y-136139000D02*
X133645000Y-136139000D01*
X127746000Y-136579000D02*
X134254000Y-136579000D01*
X126677000Y-137819000D02*
X129759000Y-137819000D01*
X129770000Y-135539000D02*
X132230000Y-135539000D01*
X126010000Y-139539000D02*
X135990000Y-139539000D01*
X132241000Y-138539000D02*
X135690000Y-138539000D01*
X126044000Y-139379000D02*
X135956000Y-139379000D01*
X125942000Y-140020000D02*
X136058000Y-140020000D01*
X132241000Y-138339000D02*
X135603000Y-138339000D01*
X127211000Y-137099000D02*
X129759000Y-137099000D01*
X132241000Y-137539000D02*
X135138000Y-137539000D01*
X132241000Y-137899000D02*
X135371000Y-137899000D01*
X132241000Y-136979000D02*
X134679000Y-136979000D01*
X125955000Y-139900000D02*
X136045000Y-139900000D01*
X125920000Y-140500000D02*
X136080000Y-140500000D01*
X126834000Y-137579000D02*
X129759000Y-137579000D01*
X128711000Y-135939000D02*
X133289000Y-135939000D01*
X127011000Y-137339000D02*
X129759000Y-137339000D01*
X132241000Y-137779000D02*
X135298000Y-137779000D01*
X126138000Y-139019000D02*
X129759000Y-139019000D01*
X129622000Y-135579000D02*
X132378000Y-135579000D01*
X129490000Y-135619000D02*
X132510000Y-135619000D01*
X132241000Y-138659000D02*
X135738000Y-138659000D01*
X127043000Y-137299000D02*
X129759000Y-137299000D01*
X126753000Y-137699000D02*
X129759000Y-137699000D01*
X127794000Y-136539000D02*
X134206000Y-136539000D01*
X132241000Y-138739000D02*
X135768000Y-138739000D01*
X128125000Y-145979646D02*
X128125000Y-144979646D01*
X126727000Y-137739000D02*
X129759000Y-137739000D01*
X132241000Y-137619000D02*
X135194000Y-137619000D01*
X126246000Y-138699000D02*
X129759000Y-138699000D01*
X127946000Y-136419000D02*
X134054000Y-136419000D01*
X132241000Y-137139000D02*
X134824000Y-137139000D01*
X126702000Y-137779000D02*
X129759000Y-137779000D01*
X126062000Y-139299000D02*
X135938000Y-139299000D01*
X132241000Y-138619000D02*
X135723000Y-138619000D01*
X128291000Y-136179000D02*
X133709000Y-136179000D01*
X132241000Y-137219000D02*
X134892000Y-137219000D01*
X128000000Y-136379000D02*
X134000000Y-136379000D01*
X132241000Y-137739000D02*
X135273000Y-137739000D01*
X125950000Y-139940000D02*
X136050000Y-139940000D01*
X126053000Y-139339000D02*
X135947000Y-139339000D01*
X132241000Y-137579000D02*
X135166000Y-137579000D01*
X127844000Y-136499000D02*
X134156000Y-136499000D01*
X132241000Y-137699000D02*
X135247000Y-137699000D01*
X126277000Y-138619000D02*
X129759000Y-138619000D01*
X128230000Y-136219000D02*
X133770000Y-136219000D01*
X129056000Y-135779000D02*
X132944000Y-135779000D01*
X132241000Y-137499000D02*
X135110000Y-137499000D01*
X132241000Y-137019000D02*
X134716000Y-137019000D01*
X126806000Y-137619000D02*
X129759000Y-137619000D01*
X132241000Y-139019000D02*
X135862000Y-139019000D01*
X125996000Y-139619000D02*
X136004000Y-139619000D01*
X127699000Y-136619000D02*
X134301000Y-136619000D01*
X126018000Y-139499000D02*
X135982000Y-139499000D01*
X132241000Y-137299000D02*
X134957000Y-137299000D01*
X132241000Y-136939000D02*
X134640000Y-136939000D01*
X132241000Y-138099000D02*
X135483000Y-138099000D01*
X128875000Y-135859000D02*
X133125000Y-135859000D01*
X126163000Y-138939000D02*
X129759000Y-138939000D01*
X126189000Y-138859000D02*
X129759000Y-138859000D01*
X126416000Y-138299000D02*
X129759000Y-138299000D01*
X129258000Y-135699000D02*
X132742000Y-135699000D01*
X127284000Y-137019000D02*
X129759000Y-137019000D01*
X132241000Y-136899000D02*
X134601000Y-136899000D01*
X127360000Y-136939000D02*
X129759000Y-136939000D01*
X127608000Y-136699000D02*
X134392000Y-136699000D01*
X128055000Y-136339000D02*
X133945000Y-136339000D01*
X128421000Y-136099000D02*
X133579000Y-136099000D01*
X132241000Y-139179000D02*
X135907000Y-139179000D01*
X130138000Y-135459000D02*
X131862000Y-135459000D01*
X128635000Y-135979000D02*
X133365000Y-135979000D01*
X125923000Y-140300000D02*
X136077000Y-140300000D01*
X132241000Y-137259000D02*
X134925000Y-137259000D01*
X132241000Y-139099000D02*
X135885000Y-139099000D01*
X126150000Y-138979000D02*
X129759000Y-138979000D01*
X126217000Y-138779000D02*
X129759000Y-138779000D01*
X125927000Y-140220000D02*
X136073000Y-140220000D01*
X126538000Y-138059000D02*
X129759000Y-138059000D01*
X132241000Y-138459000D02*
X135657000Y-138459000D01*
X132241000Y-137819000D02*
X135323000Y-137819000D01*
X126293000Y-138579000D02*
X129759000Y-138579000D01*
X126397000Y-138339000D02*
X129759000Y-138339000D01*
X128561000Y-136019000D02*
X133439000Y-136019000D01*
X125976000Y-139739000D02*
X136024000Y-139739000D01*
X132241000Y-138499000D02*
X135674000Y-138499000D01*
X132241000Y-139219000D02*
X135918000Y-139219000D01*
X128170000Y-136259000D02*
X133830000Y-136259000D01*
X126203000Y-138819000D02*
X129759000Y-138819000D01*
X125920000Y-140460000D02*
X136080000Y-140460000D01*
X132241000Y-138059000D02*
X135462000Y-138059000D01*
X126779000Y-137659000D02*
X129759000Y-137659000D01*
X132241000Y-138819000D02*
X135797000Y-138819000D01*
X125938000Y-140060000D02*
X136062000Y-140060000D01*
X125922000Y-140340000D02*
X136078000Y-140340000D01*
X129370000Y-135659000D02*
X132630000Y-135659000D01*
X126920000Y-137459000D02*
X129759000Y-137459000D01*
X132241000Y-136859000D02*
X134561000Y-136859000D01*
X127625000Y-145479646D02*
X128625000Y-145479646D01*
X132241000Y-137179000D02*
X134858000Y-137179000D01*
X126379000Y-138379000D02*
X129759000Y-138379000D01*
X126890000Y-137499000D02*
X129759000Y-137499000D01*
X132241000Y-137099000D02*
X134789000Y-137099000D01*
X132241000Y-138379000D02*
X135621000Y-138379000D01*
X127522000Y-136779000D02*
X129759000Y-136779000D01*
X132241000Y-138259000D02*
X135564000Y-138259000D01*
X126950000Y-137419000D02*
X129759000Y-137419000D01*
X132241000Y-137379000D02*
X135020000Y-137379000D01*
X132241000Y-138179000D02*
X135525000Y-138179000D01*
X136120000Y-140500000D02*
G75*
G03*
X136120000Y-140500000I-5120000J0D01*
G01*
X138455000Y-138219000D02*
X141759000Y-138219000D01*
X140711000Y-135939000D02*
X145289000Y-135939000D01*
X139011000Y-137339000D02*
X141759000Y-137339000D01*
X144241000Y-138699000D02*
X147754000Y-138699000D01*
X138246000Y-138699000D02*
X141759000Y-138699000D01*
X144241000Y-137339000D02*
X146989000Y-137339000D01*
X144241000Y-138539000D02*
X147690000Y-138539000D01*
X138862000Y-137539000D02*
X141759000Y-137539000D01*
X138026000Y-139459000D02*
X147974000Y-139459000D01*
X140963000Y-135819000D02*
X145037000Y-135819000D01*
X144241000Y-138019000D02*
X147440000Y-138019000D01*
X140421000Y-136099000D02*
X145579000Y-136099000D01*
X137996000Y-139619000D02*
X148004000Y-139619000D01*
X139794000Y-136539000D02*
X146206000Y-136539000D01*
X138003000Y-139579000D02*
X147997000Y-139579000D01*
X139075000Y-137259000D02*
X141759000Y-137259000D01*
X138379000Y-138379000D02*
X141759000Y-138379000D01*
X138560000Y-138019000D02*
X141759000Y-138019000D01*
X137920000Y-140460000D02*
X148080000Y-140460000D01*
X141622000Y-135579000D02*
X144378000Y-135579000D01*
X139360000Y-136939000D02*
X141759000Y-136939000D01*
X137930000Y-140180000D02*
X148070000Y-140180000D01*
X144241000Y-139139000D02*
X147897000Y-139139000D01*
X144241000Y-139059000D02*
X147874000Y-139059000D01*
X144241000Y-138859000D02*
X147811000Y-138859000D01*
X138436000Y-138259000D02*
X141759000Y-138259000D01*
X138062000Y-139299000D02*
X147938000Y-139299000D01*
X137920000Y-140500000D02*
X148080000Y-140500000D01*
X144241000Y-137139000D02*
X146824000Y-137139000D01*
X139699000Y-136619000D02*
X146301000Y-136619000D01*
X137976000Y-139739000D02*
X148024000Y-139739000D01*
X138138000Y-139019000D02*
X141759000Y-139019000D01*
X138053000Y-139339000D02*
X147947000Y-139339000D01*
X140561000Y-136019000D02*
X145439000Y-136019000D01*
X144241000Y-136819000D02*
X146520000Y-136819000D01*
X138980000Y-137379000D02*
X141759000Y-137379000D01*
X138361000Y-138419000D02*
X141759000Y-138419000D01*
X138115000Y-139099000D02*
X141759000Y-139099000D01*
X144241000Y-139219000D02*
X147918000Y-139219000D01*
X139142000Y-137179000D02*
X141759000Y-137179000D01*
X137989000Y-139659000D02*
X148011000Y-139659000D01*
X140635000Y-135979000D02*
X145365000Y-135979000D01*
X138834000Y-137579000D02*
X141759000Y-137579000D01*
X138950000Y-137419000D02*
X141759000Y-137419000D01*
X144241000Y-138499000D02*
X147674000Y-138499000D01*
X137982000Y-139699000D02*
X148018000Y-139699000D01*
X140791000Y-135899000D02*
X145209000Y-135899000D01*
X138163000Y-138939000D02*
X141759000Y-138939000D01*
X142138000Y-135459000D02*
X143862000Y-135459000D01*
X140355000Y-136139000D02*
X145645000Y-136139000D01*
X137950000Y-139940000D02*
X148050000Y-139940000D01*
X138779000Y-137659000D02*
X141759000Y-137659000D01*
X137955000Y-139900000D02*
X148045000Y-139900000D01*
X137942000Y-140020000D02*
X148058000Y-140020000D01*
X139564000Y-136739000D02*
X146436000Y-136739000D01*
X144241000Y-139099000D02*
X147885000Y-139099000D01*
X139480000Y-136819000D02*
X141759000Y-136819000D01*
X138150000Y-138979000D02*
X141759000Y-138979000D01*
X139043000Y-137299000D02*
X141759000Y-137299000D01*
X144241000Y-138059000D02*
X147462000Y-138059000D01*
X144241000Y-138419000D02*
X147639000Y-138419000D01*
X141770000Y-135539000D02*
X144230000Y-135539000D01*
X144241000Y-137659000D02*
X147221000Y-137659000D01*
X139946000Y-136419000D02*
X146054000Y-136419000D01*
X144241000Y-138779000D02*
X147783000Y-138779000D01*
X140125000Y-145979646D02*
X140125000Y-144979646D01*
X138203000Y-138819000D02*
X141759000Y-138819000D01*
X144241000Y-137619000D02*
X147194000Y-137619000D01*
X144241000Y-138379000D02*
X147621000Y-138379000D01*
X138044000Y-139379000D02*
X147956000Y-139379000D01*
X139108000Y-137219000D02*
X141759000Y-137219000D01*
X137946000Y-139980000D02*
X148054000Y-139980000D01*
X144241000Y-138179000D02*
X147525000Y-138179000D01*
X138653000Y-137859000D02*
X141759000Y-137859000D01*
X139608000Y-136699000D02*
X146392000Y-136699000D01*
X138397000Y-138339000D02*
X141759000Y-138339000D01*
X139844000Y-136499000D02*
X146156000Y-136499000D01*
X138293000Y-138579000D02*
X141759000Y-138579000D01*
X144241000Y-137259000D02*
X146925000Y-137259000D01*
X144241000Y-137579000D02*
X147166000Y-137579000D01*
X144241000Y-138259000D02*
X147564000Y-138259000D01*
X144241000Y-137019000D02*
X146716000Y-137019000D01*
X139746000Y-136579000D02*
X146254000Y-136579000D01*
X138920000Y-137459000D02*
X141759000Y-137459000D01*
X138605000Y-137939000D02*
X141759000Y-137939000D01*
X138176000Y-138899000D02*
X141759000Y-138899000D01*
X141938000Y-135499000D02*
X144062000Y-135499000D01*
X144241000Y-138979000D02*
X147850000Y-138979000D01*
X138217000Y-138779000D02*
X141759000Y-138779000D01*
X137925000Y-140260000D02*
X148075000Y-140260000D01*
X137932000Y-140140000D02*
X148068000Y-140140000D01*
X144241000Y-138939000D02*
X147837000Y-138939000D01*
X142401000Y-135419000D02*
X143599000Y-135419000D01*
X140875000Y-135859000D02*
X145125000Y-135859000D01*
X138035000Y-139419000D02*
X147965000Y-139419000D01*
X139522000Y-136779000D02*
X141759000Y-136779000D01*
X144241000Y-137419000D02*
X147050000Y-137419000D01*
X139211000Y-137099000D02*
X141759000Y-137099000D01*
X138727000Y-137739000D02*
X141759000Y-137739000D01*
X138702000Y-137779000D02*
X141759000Y-137779000D01*
X138475000Y-138179000D02*
X141759000Y-138179000D01*
X138416000Y-138299000D02*
X141759000Y-138299000D01*
X144241000Y-138459000D02*
X147657000Y-138459000D01*
X140000000Y-136379000D02*
X146000000Y-136379000D01*
X138103000Y-139139000D02*
X141759000Y-139139000D01*
X137927000Y-140220000D02*
X148073000Y-140220000D01*
X139247000Y-137059000D02*
X141759000Y-137059000D01*
X138018000Y-139499000D02*
X147982000Y-139499000D01*
X137935000Y-140100000D02*
X148065000Y-140100000D01*
X144241000Y-138339000D02*
X147603000Y-138339000D01*
X138189000Y-138859000D02*
X141759000Y-138859000D01*
X140291000Y-136179000D02*
X145709000Y-136179000D01*
X144241000Y-139179000D02*
X147907000Y-139179000D01*
X144241000Y-139019000D02*
X147862000Y-139019000D01*
X144241000Y-137939000D02*
X147395000Y-137939000D01*
X144241000Y-137539000D02*
X147138000Y-137539000D01*
X141056000Y-135779000D02*
X144944000Y-135779000D01*
X138072000Y-139259000D02*
X147928000Y-139259000D01*
X144241000Y-138139000D02*
X147504000Y-138139000D01*
X141154000Y-135739000D02*
X144846000Y-135739000D01*
X144241000Y-138819000D02*
X147797000Y-138819000D01*
X139176000Y-137139000D02*
X141759000Y-137139000D01*
X138010000Y-139539000D02*
X147990000Y-139539000D01*
X139894000Y-136459000D02*
X146106000Y-136459000D01*
X139439000Y-136859000D02*
X141759000Y-136859000D01*
X144241000Y-137219000D02*
X146892000Y-137219000D01*
X144241000Y-137859000D02*
X147347000Y-137859000D01*
X141490000Y-135619000D02*
X144510000Y-135619000D01*
X140111000Y-136299000D02*
X145889000Y-136299000D01*
X144241000Y-137739000D02*
X147273000Y-137739000D01*
X139321000Y-136979000D02*
X141759000Y-136979000D01*
X144241000Y-137819000D02*
X147323000Y-137819000D01*
X140170000Y-136259000D02*
X145830000Y-136259000D01*
X138677000Y-137819000D02*
X141759000Y-137819000D01*
X144241000Y-137699000D02*
X147247000Y-137699000D01*
X138310000Y-138539000D02*
X141759000Y-138539000D01*
X137938000Y-140060000D02*
X148062000Y-140060000D01*
X144241000Y-137899000D02*
X147371000Y-137899000D01*
X140230000Y-136219000D02*
X145770000Y-136219000D01*
X137965000Y-139820000D02*
X148035000Y-139820000D01*
X138262000Y-138659000D02*
X141759000Y-138659000D01*
X137921000Y-140380000D02*
X148079000Y-140380000D01*
X138496000Y-138139000D02*
X141759000Y-138139000D01*
X138629000Y-137899000D02*
X141759000Y-137899000D01*
X144241000Y-137099000D02*
X146789000Y-137099000D01*
X144241000Y-137059000D02*
X146753000Y-137059000D01*
X144241000Y-138299000D02*
X147584000Y-138299000D01*
X144241000Y-137779000D02*
X147298000Y-137779000D01*
X144241000Y-138659000D02*
X147738000Y-138659000D01*
X141258000Y-135699000D02*
X144742000Y-135699000D01*
X137970000Y-139779000D02*
X148030000Y-139779000D01*
X144241000Y-136939000D02*
X146640000Y-136939000D01*
X144241000Y-136779000D02*
X146478000Y-136779000D01*
X137922000Y-140340000D02*
X148078000Y-140340000D01*
X139284000Y-137019000D02*
X141759000Y-137019000D01*
X140055000Y-136339000D02*
X145945000Y-136339000D01*
X144241000Y-138739000D02*
X147768000Y-138739000D01*
X141370000Y-135659000D02*
X144630000Y-135659000D01*
X138277000Y-138619000D02*
X141759000Y-138619000D01*
X138326000Y-138499000D02*
X141759000Y-138499000D01*
X144241000Y-136859000D02*
X146561000Y-136859000D01*
X140490000Y-136059000D02*
X145510000Y-136059000D01*
X144241000Y-138099000D02*
X147483000Y-138099000D01*
X138583000Y-137979000D02*
X141759000Y-137979000D01*
X144241000Y-138899000D02*
X147824000Y-138899000D01*
X137920000Y-140420000D02*
X148080000Y-140420000D01*
X144241000Y-137499000D02*
X147110000Y-137499000D01*
X138343000Y-138459000D02*
X141759000Y-138459000D01*
X138890000Y-137499000D02*
X141759000Y-137499000D01*
X138806000Y-137619000D02*
X141759000Y-137619000D01*
X144241000Y-137299000D02*
X146957000Y-137299000D01*
X139399000Y-136899000D02*
X141759000Y-136899000D01*
X138538000Y-138059000D02*
X141759000Y-138059000D01*
X144241000Y-136979000D02*
X146679000Y-136979000D01*
X137923000Y-140300000D02*
X148077000Y-140300000D01*
X138126000Y-139059000D02*
X141759000Y-139059000D01*
X144241000Y-137179000D02*
X146858000Y-137179000D01*
X144241000Y-137379000D02*
X147020000Y-137379000D01*
X138082000Y-139219000D02*
X141759000Y-139219000D01*
X139625000Y-145479646D02*
X140625000Y-145479646D01*
X139653000Y-136659000D02*
X146347000Y-136659000D01*
X144241000Y-138619000D02*
X147723000Y-138619000D01*
X138753000Y-137699000D02*
X141759000Y-137699000D01*
X144241000Y-137459000D02*
X147080000Y-137459000D01*
X144241000Y-138219000D02*
X147545000Y-138219000D01*
X144241000Y-138579000D02*
X147707000Y-138579000D01*
X137960000Y-139860000D02*
X148040000Y-139860000D01*
X138093000Y-139179000D02*
X141759000Y-139179000D01*
X144241000Y-136899000D02*
X146601000Y-136899000D01*
X138232000Y-138739000D02*
X141759000Y-138739000D01*
X144241000Y-137979000D02*
X147417000Y-137979000D01*
X138517000Y-138099000D02*
X141759000Y-138099000D01*
X148120000Y-140500000D02*
G75*
G03*
X148120000Y-140500000I-5120000J0D01*
G01*
X183581000Y-100950000D02*
X183581000Y-103759000D01*
X182141000Y-106241000D02*
X182141000Y-109811000D01*
X181981000Y-100138000D02*
X181981000Y-103759000D01*
X183701000Y-106241000D02*
X183701000Y-108957000D01*
X184421000Y-101746000D02*
X184421000Y-108254000D01*
X185581000Y-104401000D02*
X185581000Y-105599000D01*
X182421000Y-106241000D02*
X182421000Y-109707000D01*
X181100000Y-99955000D02*
X181100000Y-110045000D01*
X182941000Y-106241000D02*
X182941000Y-109462000D01*
X182341000Y-106241000D02*
X182341000Y-109738000D01*
X182221000Y-106241000D02*
X182221000Y-109783000D01*
X175520354Y-101625000D02*
X175520354Y-102625000D01*
X183221000Y-106241000D02*
X183221000Y-109298000D01*
X183501000Y-106241000D02*
X183501000Y-109110000D01*
X183541000Y-106241000D02*
X183541000Y-109080000D01*
X182061000Y-106241000D02*
X182061000Y-109837000D01*
X181701000Y-100062000D02*
X181701000Y-109938000D01*
X181661000Y-100053000D02*
X181661000Y-109947000D01*
X180780000Y-99927000D02*
X180780000Y-110073000D01*
X182261000Y-100232000D02*
X182261000Y-103759000D01*
X182781000Y-106241000D02*
X182781000Y-109545000D01*
X182461000Y-100310000D02*
X182461000Y-103759000D01*
X181821000Y-100093000D02*
X181821000Y-103759000D01*
X182861000Y-106241000D02*
X182861000Y-109504000D01*
X184341000Y-101653000D02*
X184341000Y-108347000D01*
X181140000Y-99960000D02*
X181140000Y-110040000D01*
X183461000Y-100862000D02*
X183461000Y-103759000D01*
X184221000Y-106241000D02*
X184221000Y-108478000D01*
X182861000Y-100496000D02*
X182861000Y-103759000D01*
X184701000Y-102111000D02*
X184701000Y-107889000D01*
X183421000Y-100834000D02*
X183421000Y-103759000D01*
X185421000Y-103622000D02*
X185421000Y-106378000D01*
X184381000Y-101699000D02*
X184381000Y-108301000D01*
X182021000Y-100150000D02*
X182021000Y-103759000D01*
X183301000Y-106241000D02*
X183301000Y-109247000D01*
X183221000Y-100702000D02*
X183221000Y-103759000D01*
X183621000Y-106241000D02*
X183621000Y-109020000D01*
X184221000Y-101522000D02*
X184221000Y-103759000D01*
X182301000Y-106241000D02*
X182301000Y-109754000D01*
X182821000Y-100475000D02*
X182821000Y-103759000D01*
X185141000Y-102875000D02*
X185141000Y-107125000D01*
X183261000Y-106241000D02*
X183261000Y-109273000D01*
X181621000Y-100044000D02*
X181621000Y-109956000D01*
X182501000Y-106241000D02*
X182501000Y-109674000D01*
X185221000Y-103056000D02*
X185221000Y-106944000D01*
X182181000Y-100203000D02*
X182181000Y-103759000D01*
X184141000Y-106241000D02*
X184141000Y-108561000D01*
X184301000Y-101608000D02*
X184301000Y-108392000D01*
X181821000Y-106241000D02*
X181821000Y-109907000D01*
X180980000Y-99942000D02*
X180980000Y-110058000D01*
X180820000Y-99930000D02*
X180820000Y-110070000D01*
X183261000Y-100727000D02*
X183261000Y-103759000D01*
X183781000Y-101108000D02*
X183781000Y-103759000D01*
X185101000Y-102791000D02*
X185101000Y-107209000D01*
X182741000Y-100436000D02*
X182741000Y-103759000D01*
X182381000Y-100277000D02*
X182381000Y-103759000D01*
X183341000Y-100779000D02*
X183341000Y-103759000D01*
X184781000Y-102230000D02*
X184781000Y-107770000D01*
X180660000Y-99922000D02*
X180660000Y-110078000D01*
X182581000Y-106241000D02*
X182581000Y-109639000D01*
X183101000Y-100629000D02*
X183101000Y-103759000D01*
X182261000Y-106241000D02*
X182261000Y-109768000D01*
X183381000Y-106241000D02*
X183381000Y-109194000D01*
X182541000Y-106241000D02*
X182541000Y-109657000D01*
X182981000Y-106241000D02*
X182981000Y-109440000D01*
X183141000Y-100653000D02*
X183141000Y-103759000D01*
X184621000Y-102000000D02*
X184621000Y-108000000D01*
X181421000Y-100003000D02*
X181421000Y-109997000D01*
X184261000Y-101564000D02*
X184261000Y-108436000D01*
X182181000Y-106241000D02*
X182181000Y-109797000D01*
X181501000Y-100018000D02*
X181501000Y-109982000D01*
X183101000Y-106241000D02*
X183101000Y-109371000D01*
X183181000Y-106241000D02*
X183181000Y-109323000D01*
X181381000Y-99996000D02*
X181381000Y-110004000D01*
X182501000Y-100326000D02*
X182501000Y-103759000D01*
X184021000Y-106241000D02*
X184021000Y-108679000D01*
X183661000Y-106241000D02*
X183661000Y-108989000D01*
X183661000Y-101011000D02*
X183661000Y-103759000D01*
X183981000Y-106241000D02*
X183981000Y-108716000D01*
X183861000Y-101176000D02*
X183861000Y-103759000D01*
X182341000Y-100262000D02*
X182341000Y-103759000D01*
X181781000Y-106241000D02*
X181781000Y-109918000D01*
X180860000Y-99932000D02*
X180860000Y-110068000D01*
X182621000Y-100379000D02*
X182621000Y-103759000D01*
X183901000Y-101211000D02*
X183901000Y-103759000D01*
X181541000Y-100026000D02*
X181541000Y-109974000D01*
X182221000Y-100217000D02*
X182221000Y-103759000D01*
X183741000Y-101075000D02*
X183741000Y-103759000D01*
X182821000Y-106241000D02*
X182821000Y-109525000D01*
X180500000Y-99920000D02*
X180500000Y-110080000D01*
X184061000Y-106241000D02*
X184061000Y-108640000D01*
X181861000Y-106241000D02*
X181861000Y-109897000D01*
X181901000Y-100115000D02*
X181901000Y-103759000D01*
X181301000Y-99982000D02*
X181301000Y-110018000D01*
X180740000Y-99925000D02*
X180740000Y-110075000D01*
X180540000Y-99920000D02*
X180540000Y-110080000D01*
X185061000Y-102711000D02*
X185061000Y-107289000D01*
X183341000Y-106241000D02*
X183341000Y-109221000D01*
X182781000Y-100455000D02*
X182781000Y-103759000D01*
X183861000Y-106241000D02*
X183861000Y-108824000D01*
X185501000Y-103938000D02*
X185501000Y-106062000D01*
X181221000Y-99970000D02*
X181221000Y-110030000D01*
X184581000Y-101946000D02*
X184581000Y-108054000D01*
X185541000Y-104138000D02*
X185541000Y-105862000D01*
X181941000Y-100126000D02*
X181941000Y-103759000D01*
X183781000Y-106241000D02*
X183781000Y-108892000D01*
X185381000Y-103490000D02*
X185381000Y-106510000D01*
X183821000Y-106241000D02*
X183821000Y-108858000D01*
X182661000Y-100397000D02*
X182661000Y-103759000D01*
X182741000Y-106241000D02*
X182741000Y-109564000D01*
X184461000Y-101794000D02*
X184461000Y-108206000D01*
X184021000Y-101321000D02*
X184021000Y-103759000D01*
X182541000Y-100343000D02*
X182541000Y-103759000D01*
X182941000Y-100538000D02*
X182941000Y-103759000D01*
X184061000Y-101360000D02*
X184061000Y-103759000D01*
X180620000Y-99921000D02*
X180620000Y-110079000D01*
X180580000Y-99920000D02*
X180580000Y-110080000D01*
X182141000Y-100189000D02*
X182141000Y-103759000D01*
X185461000Y-103770000D02*
X185461000Y-106230000D01*
X184741000Y-102170000D02*
X184741000Y-107830000D01*
X182301000Y-100246000D02*
X182301000Y-103759000D01*
X184821000Y-102291000D02*
X184821000Y-107709000D01*
X181020000Y-99946000D02*
X181020000Y-110054000D01*
X184181000Y-106241000D02*
X184181000Y-108520000D01*
X184181000Y-101480000D02*
X184181000Y-103759000D01*
X184981000Y-102561000D02*
X184981000Y-107439000D01*
X175020354Y-102125000D02*
X176020354Y-102125000D01*
X184901000Y-102421000D02*
X184901000Y-107579000D01*
X183381000Y-100806000D02*
X183381000Y-103759000D01*
X181180000Y-99965000D02*
X181180000Y-110035000D01*
X183421000Y-106241000D02*
X183421000Y-109166000D01*
X185181000Y-102963000D02*
X185181000Y-107037000D01*
X183501000Y-100890000D02*
X183501000Y-103759000D01*
X182901000Y-106241000D02*
X182901000Y-109483000D01*
X182101000Y-100176000D02*
X182101000Y-103759000D01*
X183581000Y-106241000D02*
X183581000Y-109050000D01*
X184141000Y-101439000D02*
X184141000Y-103759000D01*
X180940000Y-99938000D02*
X180940000Y-110062000D01*
X181901000Y-106241000D02*
X181901000Y-109885000D01*
X183981000Y-101284000D02*
X183981000Y-103759000D01*
X184101000Y-101399000D02*
X184101000Y-103759000D01*
X185301000Y-103258000D02*
X185301000Y-106742000D01*
X181941000Y-106241000D02*
X181941000Y-109874000D01*
X183901000Y-106241000D02*
X183901000Y-108789000D01*
X182581000Y-100361000D02*
X182581000Y-103759000D01*
X181981000Y-106241000D02*
X181981000Y-109862000D01*
X180700000Y-99923000D02*
X180700000Y-110077000D01*
X183061000Y-106241000D02*
X183061000Y-109395000D01*
X182701000Y-100416000D02*
X182701000Y-103759000D01*
X181861000Y-100103000D02*
X181861000Y-103759000D01*
X181261000Y-99976000D02*
X181261000Y-110024000D01*
X183941000Y-101247000D02*
X183941000Y-103759000D01*
X185341000Y-103370000D02*
X185341000Y-106630000D01*
X182621000Y-106241000D02*
X182621000Y-109621000D01*
X183821000Y-101142000D02*
X183821000Y-103759000D01*
X183141000Y-106241000D02*
X183141000Y-109347000D01*
X184541000Y-101894000D02*
X184541000Y-108106000D01*
X185021000Y-102635000D02*
X185021000Y-107365000D01*
X182021000Y-106241000D02*
X182021000Y-109850000D01*
X183181000Y-100677000D02*
X183181000Y-103759000D01*
X183301000Y-100753000D02*
X183301000Y-103759000D01*
X182701000Y-106241000D02*
X182701000Y-109584000D01*
X185261000Y-103154000D02*
X185261000Y-106846000D01*
X183461000Y-106241000D02*
X183461000Y-109138000D01*
X184861000Y-102355000D02*
X184861000Y-107645000D01*
X184941000Y-102490000D02*
X184941000Y-107510000D01*
X182901000Y-100517000D02*
X182901000Y-103759000D01*
X181741000Y-100072000D02*
X181741000Y-109928000D01*
X182461000Y-106241000D02*
X182461000Y-109690000D01*
X182981000Y-100560000D02*
X182981000Y-103759000D01*
X183621000Y-100980000D02*
X183621000Y-103759000D01*
X181060000Y-99950000D02*
X181060000Y-110050000D01*
X182421000Y-100293000D02*
X182421000Y-103759000D01*
X183541000Y-100920000D02*
X183541000Y-103759000D01*
X184501000Y-101844000D02*
X184501000Y-108156000D01*
X183741000Y-106241000D02*
X183741000Y-108925000D01*
X181781000Y-100082000D02*
X181781000Y-103759000D01*
X183061000Y-100605000D02*
X183061000Y-103759000D01*
X183021000Y-100583000D02*
X183021000Y-103759000D01*
X184101000Y-106241000D02*
X184101000Y-108601000D01*
X182661000Y-106241000D02*
X182661000Y-109603000D01*
X183021000Y-106241000D02*
X183021000Y-109417000D01*
X183941000Y-106241000D02*
X183941000Y-108753000D01*
X180900000Y-99935000D02*
X180900000Y-110065000D01*
X181341000Y-99989000D02*
X181341000Y-110011000D01*
X181581000Y-100035000D02*
X181581000Y-109965000D01*
X182381000Y-106241000D02*
X182381000Y-109723000D01*
X182101000Y-106241000D02*
X182101000Y-109824000D01*
X184661000Y-102055000D02*
X184661000Y-107945000D01*
X183701000Y-101043000D02*
X183701000Y-103759000D01*
X181461000Y-100010000D02*
X181461000Y-109990000D01*
X182061000Y-100163000D02*
X182061000Y-103759000D01*
X185620000Y-105000000D02*
G75*
G03*
X185620000Y-105000000I-5120000J0D01*
G01*
X169772936Y-106735000D02*
X170227064Y-106735000D01*
X169772936Y-105265000D02*
X170227064Y-105265000D01*
X106772936Y-138235000D02*
X107227064Y-138235000D01*
X106772936Y-136765000D02*
X107227064Y-136765000D01*
%LPC*%
D14*
X184585000Y-55700000D03*
D15*
X179505000Y-55700000D03*
X174425000Y-55700000D03*
D16*
X169545000Y-109975000D03*
D17*
X164465000Y-109975000D03*
X164465000Y-115055000D03*
X169545000Y-115055000D03*
D18*
X170500000Y-130000000D03*
D19*
X164462500Y-106000000D03*
X166537500Y-106000000D03*
D16*
X117500000Y-143000000D03*
D17*
X117500000Y-137920000D03*
X112420000Y-137920000D03*
X112420000Y-143000000D03*
D20*
X108037500Y-135000000D03*
X105962500Y-135000000D03*
D16*
X155000000Y-143000000D03*
D21*
X155000000Y-138000000D03*
D22*
X179500000Y-73000000D03*
X164500000Y-73000000D03*
D23*
X135618000Y-54848500D03*
X135618000Y-66215000D03*
X152382000Y-66151500D03*
X152382000Y-54785000D03*
D24*
X195000000Y-95000000D03*
D16*
X178000000Y-130000000D03*
D21*
X183000000Y-130000000D03*
D16*
X178000000Y-117500000D03*
D21*
X183000000Y-117500000D03*
D24*
X195000000Y-145000000D03*
D25*
X130500000Y-101000000D03*
D26*
X105100000Y-73060000D03*
X110180000Y-73060000D03*
X150820000Y-73060000D03*
X155900000Y-73060000D03*
X158440000Y-128940000D03*
X152960000Y-128940000D03*
X108040000Y-128940000D03*
X102560000Y-128940000D03*
D24*
X105000000Y-105000000D03*
X105000000Y-95000000D03*
D18*
X193000000Y-117500000D03*
D20*
X181537500Y-137000000D03*
X179462500Y-137000000D03*
D27*
X105000000Y-55000000D03*
D28*
X162500000Y-142962500D03*
X162500000Y-145037500D03*
D29*
X169500000Y-122000000D03*
D24*
X195000000Y-105000000D03*
D14*
X167380000Y-144805000D03*
D15*
X172460000Y-144805000D03*
X177540000Y-144805000D03*
X182620000Y-144805000D03*
D22*
X112400000Y-65000000D03*
X127400000Y-65000000D03*
D24*
X105000000Y-145000000D03*
D29*
X165000000Y-100000000D03*
D16*
X131000000Y-143000000D03*
D21*
X131000000Y-138000000D03*
D27*
X195000000Y-55000000D03*
D16*
X143000000Y-143000000D03*
D21*
X143000000Y-138000000D03*
D16*
X178000000Y-105000000D03*
D21*
X183000000Y-105000000D03*
D30*
X169000000Y-106000000D03*
X171000000Y-106000000D03*
X106000000Y-137500000D03*
X108000000Y-137500000D03*
M02*
