G04 #@! TF.GenerationSoftware,KiCad,Pcbnew,(6.0.10)*
G04 #@! TF.CreationDate,2023-01-22T16:50:07+00:00*
G04 #@! TF.ProjectId,MaxDC,4d617844-432e-46b6-9963-61645f706362,rev?*
G04 #@! TF.SameCoordinates,Original*
G04 #@! TF.FileFunction,Legend,Bot*
G04 #@! TF.FilePolarity,Positive*
%FSLAX46Y46*%
G04 Gerber Fmt 4.6, Leading zero omitted, Abs format (unit mm)*
G04 Created by KiCad (PCBNEW (6.0.10)) date 2023-01-22 16:50:07*
%MOMM*%
%LPD*%
G01*
G04 APERTURE LIST*
%ADD10C,0.300000*%
%ADD11C,0.200000*%
%ADD12R,2.600000X2.600000*%
%ADD13C,2.600000*%
%ADD14R,2.000000X2.000000*%
%ADD15O,2.000000X2.000000*%
%ADD16R,2.500000X2.500000*%
%ADD17C,2.000000*%
%ADD18C,2.400000*%
%ADD19C,3.200000*%
%ADD20C,5.000000*%
%ADD21C,3.000000*%
%ADD22C,6.400000*%
%ADD23R,3.000000X3.000000*%
G04 APERTURE END LIST*
D10*
X155642857Y-98263571D02*
X155642857Y-96763571D01*
X155142857Y-97835000D01*
X154642857Y-96763571D01*
X154642857Y-98263571D01*
X153285714Y-98263571D02*
X153285714Y-97477857D01*
X153357142Y-97335000D01*
X153500000Y-97263571D01*
X153785714Y-97263571D01*
X153928571Y-97335000D01*
X153285714Y-98192142D02*
X153428571Y-98263571D01*
X153785714Y-98263571D01*
X153928571Y-98192142D01*
X154000000Y-98049285D01*
X154000000Y-97906428D01*
X153928571Y-97763571D01*
X153785714Y-97692142D01*
X153428571Y-97692142D01*
X153285714Y-97620714D01*
X152714285Y-98263571D02*
X151928571Y-97263571D01*
X152714285Y-97263571D02*
X151928571Y-98263571D01*
X151357142Y-98263571D02*
X151357142Y-96763571D01*
X151000000Y-96763571D01*
X150785714Y-96835000D01*
X150642857Y-96977857D01*
X150571428Y-97120714D01*
X150500000Y-97406428D01*
X150500000Y-97620714D01*
X150571428Y-97906428D01*
X150642857Y-98049285D01*
X150785714Y-98192142D01*
X151000000Y-98263571D01*
X151357142Y-98263571D01*
X149000000Y-98120714D02*
X149071428Y-98192142D01*
X149285714Y-98263571D01*
X149428571Y-98263571D01*
X149642857Y-98192142D01*
X149785714Y-98049285D01*
X149857142Y-97906428D01*
X149928571Y-97620714D01*
X149928571Y-97406428D01*
X149857142Y-97120714D01*
X149785714Y-96977857D01*
X149642857Y-96835000D01*
X149428571Y-96763571D01*
X149285714Y-96763571D01*
X149071428Y-96835000D01*
X149000000Y-96906428D01*
X146928571Y-96763571D02*
X146785714Y-96763571D01*
X146642857Y-96835000D01*
X146571428Y-96906428D01*
X146500000Y-97049285D01*
X146428571Y-97335000D01*
X146428571Y-97692142D01*
X146500000Y-97977857D01*
X146571428Y-98120714D01*
X146642857Y-98192142D01*
X146785714Y-98263571D01*
X146928571Y-98263571D01*
X147071428Y-98192142D01*
X147142857Y-98120714D01*
X147214285Y-97977857D01*
X147285714Y-97692142D01*
X147285714Y-97335000D01*
X147214285Y-97049285D01*
X147142857Y-96906428D01*
X147071428Y-96835000D01*
X146928571Y-96763571D01*
X145785714Y-98120714D02*
X145714285Y-98192142D01*
X145785714Y-98263571D01*
X145857142Y-98192142D01*
X145785714Y-98120714D01*
X145785714Y-98263571D01*
X145142857Y-96906428D02*
X145071428Y-96835000D01*
X144928571Y-96763571D01*
X144571428Y-96763571D01*
X144428571Y-96835000D01*
X144357142Y-96906428D01*
X144285714Y-97049285D01*
X144285714Y-97192142D01*
X144357142Y-97406428D01*
X145214285Y-98263571D01*
X144285714Y-98263571D01*
X158214285Y-100250000D02*
X157500000Y-100250000D01*
X158357142Y-100678571D02*
X157857142Y-99178571D01*
X157357142Y-100678571D01*
X156857142Y-99678571D02*
X156857142Y-100678571D01*
X156857142Y-99821428D02*
X156785714Y-99750000D01*
X156642857Y-99678571D01*
X156428571Y-99678571D01*
X156285714Y-99750000D01*
X156214285Y-99892857D01*
X156214285Y-100678571D01*
X154857142Y-100678571D02*
X154857142Y-99178571D01*
X154857142Y-100607142D02*
X155000000Y-100678571D01*
X155285714Y-100678571D01*
X155428571Y-100607142D01*
X155500000Y-100535714D01*
X155571428Y-100392857D01*
X155571428Y-99964285D01*
X155500000Y-99821428D01*
X155428571Y-99750000D01*
X155285714Y-99678571D01*
X155000000Y-99678571D01*
X154857142Y-99750000D01*
X154142857Y-100678571D02*
X154142857Y-99678571D01*
X154142857Y-99964285D02*
X154071428Y-99821428D01*
X154000000Y-99750000D01*
X153857142Y-99678571D01*
X153714285Y-99678571D01*
X152642857Y-100607142D02*
X152785714Y-100678571D01*
X153071428Y-100678571D01*
X153214285Y-100607142D01*
X153285714Y-100464285D01*
X153285714Y-99892857D01*
X153214285Y-99750000D01*
X153071428Y-99678571D01*
X152785714Y-99678571D01*
X152642857Y-99750000D01*
X152571428Y-99892857D01*
X152571428Y-100035714D01*
X153285714Y-100178571D01*
X152071428Y-99678571D02*
X151785714Y-100678571D01*
X151500000Y-99964285D01*
X151214285Y-100678571D01*
X150928571Y-99678571D01*
X148714285Y-99892857D02*
X149214285Y-99892857D01*
X149214285Y-100678571D02*
X149214285Y-99178571D01*
X148500000Y-99178571D01*
X147928571Y-100678571D02*
X147928571Y-99678571D01*
X147928571Y-99178571D02*
X148000000Y-99250000D01*
X147928571Y-99321428D01*
X147857142Y-99250000D01*
X147928571Y-99178571D01*
X147928571Y-99321428D01*
X147285714Y-100607142D02*
X147142857Y-100678571D01*
X146857142Y-100678571D01*
X146714285Y-100607142D01*
X146642857Y-100464285D01*
X146642857Y-100392857D01*
X146714285Y-100250000D01*
X146857142Y-100178571D01*
X147071428Y-100178571D01*
X147214285Y-100107142D01*
X147285714Y-99964285D01*
X147285714Y-99892857D01*
X147214285Y-99750000D01*
X147071428Y-99678571D01*
X146857142Y-99678571D01*
X146714285Y-99750000D01*
X145357142Y-100607142D02*
X145500000Y-100678571D01*
X145785714Y-100678571D01*
X145928571Y-100607142D01*
X146000000Y-100535714D01*
X146071428Y-100392857D01*
X146071428Y-99964285D01*
X146000000Y-99821428D01*
X145928571Y-99750000D01*
X145785714Y-99678571D01*
X145500000Y-99678571D01*
X145357142Y-99750000D01*
X144714285Y-100678571D02*
X144714285Y-99178571D01*
X144071428Y-100678571D02*
X144071428Y-99892857D01*
X144142857Y-99750000D01*
X144285714Y-99678571D01*
X144500000Y-99678571D01*
X144642857Y-99750000D01*
X144714285Y-99821428D01*
X142785714Y-100607142D02*
X142928571Y-100678571D01*
X143214285Y-100678571D01*
X143357142Y-100607142D01*
X143428571Y-100464285D01*
X143428571Y-99892857D01*
X143357142Y-99750000D01*
X143214285Y-99678571D01*
X142928571Y-99678571D01*
X142785714Y-99750000D01*
X142714285Y-99892857D01*
X142714285Y-100035714D01*
X143428571Y-100178571D01*
X142071428Y-100678571D02*
X142071428Y-99678571D01*
X142071428Y-99964285D02*
X142000000Y-99821428D01*
X141928571Y-99750000D01*
X141785714Y-99678571D01*
X141642857Y-99678571D01*
X155428571Y-101736428D02*
X155357142Y-101665000D01*
X155214285Y-101593571D01*
X154857142Y-101593571D01*
X154714285Y-101665000D01*
X154642857Y-101736428D01*
X154571428Y-101879285D01*
X154571428Y-102022142D01*
X154642857Y-102236428D01*
X155500000Y-103093571D01*
X154571428Y-103093571D01*
X154000000Y-101736428D02*
X153928571Y-101665000D01*
X153785714Y-101593571D01*
X153428571Y-101593571D01*
X153285714Y-101665000D01*
X153214285Y-101736428D01*
X153142857Y-101879285D01*
X153142857Y-102022142D01*
X153214285Y-102236428D01*
X154071428Y-103093571D01*
X153142857Y-103093571D01*
X152214285Y-101593571D02*
X152071428Y-101593571D01*
X151928571Y-101665000D01*
X151857142Y-101736428D01*
X151785714Y-101879285D01*
X151714285Y-102165000D01*
X151714285Y-102522142D01*
X151785714Y-102807857D01*
X151857142Y-102950714D01*
X151928571Y-103022142D01*
X152071428Y-103093571D01*
X152214285Y-103093571D01*
X152357142Y-103022142D01*
X152428571Y-102950714D01*
X152500000Y-102807857D01*
X152571428Y-102522142D01*
X152571428Y-102165000D01*
X152500000Y-101879285D01*
X152428571Y-101736428D01*
X152357142Y-101665000D01*
X152214285Y-101593571D01*
X150285714Y-103093571D02*
X151142857Y-103093571D01*
X150714285Y-103093571D02*
X150714285Y-101593571D01*
X150857142Y-101807857D01*
X151000000Y-101950714D01*
X151142857Y-102022142D01*
X149714285Y-101736428D02*
X149642857Y-101665000D01*
X149500000Y-101593571D01*
X149142857Y-101593571D01*
X149000000Y-101665000D01*
X148928571Y-101736428D01*
X148857142Y-101879285D01*
X148857142Y-102022142D01*
X148928571Y-102236428D01*
X149785714Y-103093571D01*
X148857142Y-103093571D01*
X147928571Y-101593571D02*
X147785714Y-101593571D01*
X147642857Y-101665000D01*
X147571428Y-101736428D01*
X147500000Y-101879285D01*
X147428571Y-102165000D01*
X147428571Y-102522142D01*
X147500000Y-102807857D01*
X147571428Y-102950714D01*
X147642857Y-103022142D01*
X147785714Y-103093571D01*
X147928571Y-103093571D01*
X148071428Y-103022142D01*
X148142857Y-102950714D01*
X148214285Y-102807857D01*
X148285714Y-102522142D01*
X148285714Y-102165000D01*
X148214285Y-101879285D01*
X148142857Y-101736428D01*
X148071428Y-101665000D01*
X147928571Y-101593571D01*
X146857142Y-101736428D02*
X146785714Y-101665000D01*
X146642857Y-101593571D01*
X146285714Y-101593571D01*
X146142857Y-101665000D01*
X146071428Y-101736428D01*
X146000000Y-101879285D01*
X146000000Y-102022142D01*
X146071428Y-102236428D01*
X146928571Y-103093571D01*
X146000000Y-103093571D01*
X145500000Y-101593571D02*
X144571428Y-101593571D01*
X145071428Y-102165000D01*
X144857142Y-102165000D01*
X144714285Y-102236428D01*
X144642857Y-102307857D01*
X144571428Y-102450714D01*
X144571428Y-102807857D01*
X144642857Y-102950714D01*
X144714285Y-103022142D01*
X144857142Y-103093571D01*
X145285714Y-103093571D01*
X145428571Y-103022142D01*
X145500000Y-102950714D01*
D11*
X105921428Y-77500000D02*
X105921428Y-76571428D01*
X105350000Y-77071428D01*
X105350000Y-76857142D01*
X105278571Y-76714285D01*
X105207142Y-76642857D01*
X105064285Y-76571428D01*
X104707142Y-76571428D01*
X104564285Y-76642857D01*
X104492857Y-76714285D01*
X104421428Y-76857142D01*
X104421428Y-77285714D01*
X104492857Y-77428571D01*
X104564285Y-77500000D01*
X157761428Y-125285714D02*
X157761428Y-126142857D01*
X157761428Y-125714285D02*
X159261428Y-125714285D01*
X159047142Y-125857142D01*
X158904285Y-126000000D01*
X158832857Y-126142857D01*
X157761428Y-123857142D02*
X157761428Y-124714285D01*
X157761428Y-124285714D02*
X159261428Y-124285714D01*
X159047142Y-124428571D01*
X158904285Y-124571428D01*
X158832857Y-124714285D01*
X101881428Y-125285714D02*
X101881428Y-126142857D01*
X101881428Y-125714285D02*
X103381428Y-125714285D01*
X103167142Y-125857142D01*
X103024285Y-126000000D01*
X102952857Y-126142857D01*
X102881428Y-124000000D02*
X101881428Y-124000000D01*
X103452857Y-124357142D02*
X102381428Y-124714285D01*
X102381428Y-123785714D01*
X104393333Y-123800000D02*
X104326666Y-123600000D01*
X104326666Y-123266666D01*
X104393333Y-123133333D01*
X104460000Y-123066666D01*
X104593333Y-123000000D01*
X104726666Y-123000000D01*
X104860000Y-123066666D01*
X104926666Y-123133333D01*
X104993333Y-123266666D01*
X105060000Y-123533333D01*
X105126666Y-123666666D01*
X105193333Y-123733333D01*
X105326666Y-123800000D01*
X105460000Y-123800000D01*
X105593333Y-123733333D01*
X105660000Y-123666666D01*
X105726666Y-123533333D01*
X105726666Y-123200000D01*
X105660000Y-123000000D01*
X105060000Y-122400000D02*
X105060000Y-121933333D01*
X104326666Y-121733333D02*
X104326666Y-122400000D01*
X105726666Y-122400000D01*
X105726666Y-121733333D01*
X104460000Y-120333333D02*
X104393333Y-120400000D01*
X104326666Y-120600000D01*
X104326666Y-120733333D01*
X104393333Y-120933333D01*
X104526666Y-121066666D01*
X104660000Y-121133333D01*
X104926666Y-121200000D01*
X105126666Y-121200000D01*
X105393333Y-121133333D01*
X105526666Y-121066666D01*
X105660000Y-120933333D01*
X105726666Y-120733333D01*
X105726666Y-120600000D01*
X105660000Y-120400000D01*
X105593333Y-120333333D01*
X105726666Y-119466666D02*
X105726666Y-119200000D01*
X105660000Y-119066666D01*
X105526666Y-118933333D01*
X105260000Y-118866666D01*
X104793333Y-118866666D01*
X104526666Y-118933333D01*
X104393333Y-119066666D01*
X104326666Y-119200000D01*
X104326666Y-119466666D01*
X104393333Y-119600000D01*
X104526666Y-119733333D01*
X104793333Y-119800000D01*
X105260000Y-119800000D01*
X105526666Y-119733333D01*
X105660000Y-119600000D01*
X105726666Y-119466666D01*
X104326666Y-118266666D02*
X105726666Y-118266666D01*
X104326666Y-117466666D01*
X105726666Y-117466666D01*
X104326666Y-116800000D02*
X105726666Y-116800000D01*
X105726666Y-116466666D01*
X105660000Y-116266666D01*
X105526666Y-116133333D01*
X105393333Y-116066666D01*
X105126666Y-116000000D01*
X104926666Y-116000000D01*
X104660000Y-116066666D01*
X104526666Y-116133333D01*
X104393333Y-116266666D01*
X104326666Y-116466666D01*
X104326666Y-116800000D01*
X104726666Y-115466666D02*
X104726666Y-114800000D01*
X104326666Y-115600000D02*
X105726666Y-115133333D01*
X104326666Y-114666666D01*
X104326666Y-113400000D02*
X104993333Y-113866666D01*
X104326666Y-114200000D02*
X105726666Y-114200000D01*
X105726666Y-113666666D01*
X105660000Y-113533333D01*
X105593333Y-113466666D01*
X105460000Y-113400000D01*
X105260000Y-113400000D01*
X105126666Y-113466666D01*
X105060000Y-113533333D01*
X104993333Y-113666666D01*
X104993333Y-114200000D01*
X104993333Y-112533333D02*
X104326666Y-112533333D01*
X105726666Y-113000000D02*
X104993333Y-112533333D01*
X105726666Y-112066666D01*
X110501428Y-76714285D02*
X109501428Y-76714285D01*
X111072857Y-77071428D02*
X110001428Y-77428571D01*
X110001428Y-76500000D01*
X152281428Y-125285714D02*
X152281428Y-126142857D01*
X152281428Y-125714285D02*
X153781428Y-125714285D01*
X153567142Y-125857142D01*
X153424285Y-126000000D01*
X153352857Y-126142857D01*
X153638571Y-124714285D02*
X153710000Y-124642857D01*
X153781428Y-124500000D01*
X153781428Y-124142857D01*
X153710000Y-124000000D01*
X153638571Y-123928571D01*
X153495714Y-123857142D01*
X153352857Y-123857142D01*
X153138571Y-123928571D01*
X152281428Y-124785714D01*
X152281428Y-123857142D01*
X106866666Y-88100000D02*
X108266666Y-88100000D01*
X108266666Y-87566666D01*
X108200000Y-87433333D01*
X108133333Y-87366666D01*
X108000000Y-87300000D01*
X107800000Y-87300000D01*
X107666666Y-87366666D01*
X107600000Y-87433333D01*
X107533333Y-87566666D01*
X107533333Y-88100000D01*
X106866666Y-85900000D02*
X107533333Y-86366666D01*
X106866666Y-86700000D02*
X108266666Y-86700000D01*
X108266666Y-86166666D01*
X108200000Y-86033333D01*
X108133333Y-85966666D01*
X108000000Y-85900000D01*
X107800000Y-85900000D01*
X107666666Y-85966666D01*
X107600000Y-86033333D01*
X107533333Y-86166666D01*
X107533333Y-86700000D01*
X106866666Y-85300000D02*
X108266666Y-85300000D01*
X106866666Y-84633333D02*
X108266666Y-84633333D01*
X107266666Y-84166666D01*
X108266666Y-83700000D01*
X106866666Y-83700000D01*
X107266666Y-83100000D02*
X107266666Y-82433333D01*
X106866666Y-83233333D02*
X108266666Y-82766666D01*
X106866666Y-82300000D01*
X106866666Y-81033333D02*
X107533333Y-81500000D01*
X106866666Y-81833333D02*
X108266666Y-81833333D01*
X108266666Y-81300000D01*
X108200000Y-81166666D01*
X108133333Y-81100000D01*
X108000000Y-81033333D01*
X107800000Y-81033333D01*
X107666666Y-81100000D01*
X107600000Y-81166666D01*
X107533333Y-81300000D01*
X107533333Y-81833333D01*
X107533333Y-80166666D02*
X106866666Y-80166666D01*
X108266666Y-80633333D02*
X107533333Y-80166666D01*
X108266666Y-79700000D01*
X151586666Y-76666666D02*
X151586666Y-77333333D01*
X150920000Y-77400000D01*
X150986666Y-77333333D01*
X151053333Y-77200000D01*
X151053333Y-76866666D01*
X150986666Y-76733333D01*
X150920000Y-76666666D01*
X150786666Y-76600000D01*
X150453333Y-76600000D01*
X150320000Y-76666666D01*
X150253333Y-76733333D01*
X150186666Y-76866666D01*
X150186666Y-77200000D01*
X150253333Y-77333333D01*
X150320000Y-77400000D01*
X156721428Y-76714285D02*
X156721428Y-77000000D01*
X156650000Y-77142857D01*
X156578571Y-77214285D01*
X156364285Y-77357142D01*
X156078571Y-77428571D01*
X155507142Y-77428571D01*
X155364285Y-77357142D01*
X155292857Y-77285714D01*
X155221428Y-77142857D01*
X155221428Y-76857142D01*
X155292857Y-76714285D01*
X155364285Y-76642857D01*
X155507142Y-76571428D01*
X155864285Y-76571428D01*
X156007142Y-76642857D01*
X156078571Y-76714285D01*
X156150000Y-76857142D01*
X156150000Y-77142857D01*
X156078571Y-77285714D01*
X156007142Y-77357142D01*
X155864285Y-77428571D01*
X152866666Y-88100000D02*
X154266666Y-88100000D01*
X154266666Y-87566666D01*
X154200000Y-87433333D01*
X154133333Y-87366666D01*
X154000000Y-87300000D01*
X153800000Y-87300000D01*
X153666666Y-87366666D01*
X153600000Y-87433333D01*
X153533333Y-87566666D01*
X153533333Y-88100000D01*
X152866666Y-85900000D02*
X153533333Y-86366666D01*
X152866666Y-86700000D02*
X154266666Y-86700000D01*
X154266666Y-86166666D01*
X154200000Y-86033333D01*
X154133333Y-85966666D01*
X154000000Y-85900000D01*
X153800000Y-85900000D01*
X153666666Y-85966666D01*
X153600000Y-86033333D01*
X153533333Y-86166666D01*
X153533333Y-86700000D01*
X152866666Y-85300000D02*
X154266666Y-85300000D01*
X152866666Y-84633333D02*
X154266666Y-84633333D01*
X153266666Y-84166666D01*
X154266666Y-83700000D01*
X152866666Y-83700000D01*
X153266666Y-83100000D02*
X153266666Y-82433333D01*
X152866666Y-83233333D02*
X154266666Y-82766666D01*
X152866666Y-82300000D01*
X152866666Y-81033333D02*
X153533333Y-81500000D01*
X152866666Y-81833333D02*
X154266666Y-81833333D01*
X154266666Y-81300000D01*
X154200000Y-81166666D01*
X154133333Y-81100000D01*
X154000000Y-81033333D01*
X153800000Y-81033333D01*
X153666666Y-81100000D01*
X153600000Y-81166666D01*
X153533333Y-81300000D01*
X153533333Y-81833333D01*
X153533333Y-80166666D02*
X152866666Y-80166666D01*
X154266666Y-80633333D02*
X153533333Y-80166666D01*
X154266666Y-79700000D01*
X155432857Y-123214285D02*
X155361428Y-123000000D01*
X155361428Y-122642857D01*
X155432857Y-122500000D01*
X155504285Y-122428571D01*
X155647142Y-122357142D01*
X155790000Y-122357142D01*
X155932857Y-122428571D01*
X156004285Y-122500000D01*
X156075714Y-122642857D01*
X156147142Y-122928571D01*
X156218571Y-123071428D01*
X156290000Y-123142857D01*
X156432857Y-123214285D01*
X156575714Y-123214285D01*
X156718571Y-123142857D01*
X156790000Y-123071428D01*
X156861428Y-122928571D01*
X156861428Y-122571428D01*
X156790000Y-122357142D01*
X156147142Y-121714285D02*
X156147142Y-121214285D01*
X155361428Y-121000000D02*
X155361428Y-121714285D01*
X156861428Y-121714285D01*
X156861428Y-121000000D01*
X155504285Y-119500000D02*
X155432857Y-119571428D01*
X155361428Y-119785714D01*
X155361428Y-119928571D01*
X155432857Y-120142857D01*
X155575714Y-120285714D01*
X155718571Y-120357142D01*
X156004285Y-120428571D01*
X156218571Y-120428571D01*
X156504285Y-120357142D01*
X156647142Y-120285714D01*
X156790000Y-120142857D01*
X156861428Y-119928571D01*
X156861428Y-119785714D01*
X156790000Y-119571428D01*
X156718571Y-119500000D01*
X156861428Y-118571428D02*
X156861428Y-118285714D01*
X156790000Y-118142857D01*
X156647142Y-118000000D01*
X156361428Y-117928571D01*
X155861428Y-117928571D01*
X155575714Y-118000000D01*
X155432857Y-118142857D01*
X155361428Y-118285714D01*
X155361428Y-118571428D01*
X155432857Y-118714285D01*
X155575714Y-118857142D01*
X155861428Y-118928571D01*
X156361428Y-118928571D01*
X156647142Y-118857142D01*
X156790000Y-118714285D01*
X156861428Y-118571428D01*
X155361428Y-117285714D02*
X156861428Y-117285714D01*
X155361428Y-116428571D01*
X156861428Y-116428571D01*
X155361428Y-115714285D02*
X156861428Y-115714285D01*
X156861428Y-115357142D01*
X156790000Y-115142857D01*
X156647142Y-115000000D01*
X156504285Y-114928571D01*
X156218571Y-114857142D01*
X156004285Y-114857142D01*
X155718571Y-114928571D01*
X155575714Y-115000000D01*
X155432857Y-115142857D01*
X155361428Y-115357142D01*
X155361428Y-115714285D01*
X155790000Y-114285714D02*
X155790000Y-113571428D01*
X155361428Y-114428571D02*
X156861428Y-113928571D01*
X155361428Y-113428571D01*
X155361428Y-112071428D02*
X156075714Y-112571428D01*
X155361428Y-112928571D02*
X156861428Y-112928571D01*
X156861428Y-112357142D01*
X156790000Y-112214285D01*
X156718571Y-112142857D01*
X156575714Y-112071428D01*
X156361428Y-112071428D01*
X156218571Y-112142857D01*
X156147142Y-112214285D01*
X156075714Y-112357142D01*
X156075714Y-112928571D01*
X156075714Y-111142857D02*
X155361428Y-111142857D01*
X156861428Y-111642857D02*
X156075714Y-111142857D01*
X156861428Y-110642857D01*
X107361428Y-125285714D02*
X107361428Y-126142857D01*
X107361428Y-125714285D02*
X108861428Y-125714285D01*
X108647142Y-125857142D01*
X108504285Y-126000000D01*
X108432857Y-126142857D01*
X108861428Y-124785714D02*
X108861428Y-123857142D01*
X108290000Y-124357142D01*
X108290000Y-124142857D01*
X108218571Y-124000000D01*
X108147142Y-123928571D01*
X108004285Y-123857142D01*
X107647142Y-123857142D01*
X107504285Y-123928571D01*
X107432857Y-124000000D01*
X107361428Y-124142857D01*
X107361428Y-124571428D01*
X107432857Y-124714285D01*
X107504285Y-124785714D01*
%LPC*%
D12*
X184585000Y-55700000D03*
D13*
X179505000Y-55700000D03*
X174425000Y-55700000D03*
D14*
X169545000Y-109975000D03*
D15*
X164465000Y-109975000D03*
X164465000Y-115055000D03*
X169545000Y-115055000D03*
D16*
X170500000Y-130000000D03*
D14*
X117500000Y-143000000D03*
D15*
X117500000Y-137920000D03*
X112420000Y-137920000D03*
X112420000Y-143000000D03*
D14*
X155000000Y-143000000D03*
D17*
X155000000Y-138000000D03*
D18*
X179500000Y-73000000D03*
X164500000Y-73000000D03*
D19*
X195000000Y-95000000D03*
D14*
X178000000Y-130000000D03*
D17*
X183000000Y-130000000D03*
D14*
X178000000Y-117500000D03*
D17*
X183000000Y-117500000D03*
D19*
X195000000Y-145000000D03*
D20*
X130500000Y-101000000D03*
D21*
X105100000Y-73060000D03*
X110180000Y-73060000D03*
X150820000Y-73060000D03*
X155900000Y-73060000D03*
X158440000Y-128940000D03*
X152960000Y-128940000D03*
X108040000Y-128940000D03*
X102560000Y-128940000D03*
D19*
X105000000Y-105000000D03*
X105000000Y-95000000D03*
D16*
X193000000Y-117500000D03*
D22*
X105000000Y-55000000D03*
D23*
X169500000Y-122000000D03*
D19*
X195000000Y-105000000D03*
D12*
X167380000Y-144805000D03*
D13*
X172460000Y-144805000D03*
X177540000Y-144805000D03*
X182620000Y-144805000D03*
D18*
X112400000Y-65000000D03*
X127400000Y-65000000D03*
D19*
X105000000Y-145000000D03*
D23*
X165000000Y-100000000D03*
D14*
X131000000Y-143000000D03*
D17*
X131000000Y-138000000D03*
D22*
X195000000Y-55000000D03*
D14*
X143000000Y-143000000D03*
D17*
X143000000Y-138000000D03*
D14*
X178000000Y-105000000D03*
D17*
X183000000Y-105000000D03*
M02*
