M48
; DRILL file {KiCad 6.0.8+dfsg-1~bpo11+1+rpt1} date Sun 05 Feb 2023 13:31:23 GMT
; FORMAT={-:-/ absolute / metric / decimal}
; #@! TF.CreationDate,2023-02-05T13:31:23+00:00
; #@! TF.GenerationSoftware,Kicad,Pcbnew,6.0.8+dfsg-1~bpo11+1+rpt1
; #@! TF.FileFunction,Plated,1,2,PTH
FMAT,2
METRIC
; #@! TA.AperFunction,Plated,PTH,ViaDrill
T1C0.400
; #@! TA.AperFunction,Plated,PTH,ComponentDrill
T2C1.000
; #@! TA.AperFunction,Plated,PTH,ComponentDrill
T3C1.200
; #@! TA.AperFunction,Plated,PTH,ComponentDrill
T4C1.300
; #@! TA.AperFunction,Plated,PTH,ComponentDrill
T5C1.500
; #@! TA.AperFunction,Plated,PTH,ComponentDrill
T6C3.200
%
G90
G05
T1
X162.5Y-137.2
T2
X112.42Y-137.92
X112.42Y-143.0
X117.5Y-137.92
X117.5Y-143.0
X131.0Y-136.968
X131.0Y-141.968
X143.0Y-136.968
X143.0Y-141.968
X155.0Y-136.968
X155.0Y-141.968
X168.965Y-105.975
X168.965Y-111.055
X174.045Y-105.975
X174.045Y-111.055
X181.0Y-101.0
X181.0Y-113.5
X181.0Y-126.0
X186.0Y-101.0
X186.0Y-113.5
X186.0Y-126.0
T3
X115.0Y-60.0
X130.0Y-60.0
X169.0Y-77.0
X175.0Y-126.0
X184.0Y-77.0
X193.0Y-120.0
T4
X167.38Y-141.0
X172.46Y-141.0
X173.84Y-60.0
X177.54Y-141.0
X178.92Y-60.0
X182.62Y-141.0
X184.0Y-60.0
T5
X107.06Y-128.94
X109.6Y-73.06
X112.54Y-128.94
X114.68Y-73.06
X155.32Y-73.06
X157.46Y-128.94
X160.4Y-73.06
X162.94Y-128.94
X169.5Y-96.0
X174.0Y-118.0
T6
X105.0Y-55.0
X195.0Y-55.0
T0
M30
