%TF.GenerationSoftware,KiCad,Pcbnew,6.0.8+dfsg-1~bpo11+1+rpt1*%
%TF.CreationDate,2023-02-05T13:31:25+00:00*%
%TF.ProjectId,MaxDC,4d617844-432e-46b6-9963-61645f706362,0.3*%
%TF.SameCoordinates,Original*%
%TF.FileFunction,Drillmap*%
%TF.FilePolarity,Positive*%
%FSLAX45Y45*%
G04 Gerber Fmt 4.5, Leading zero omitted, Abs format (unit mm)*
G04 Created by KiCad (PCBNEW 6.0.8+dfsg-1~bpo11+1+rpt1) date 2023-02-05 13:31:25*
%MOMM*%
%LPD*%
G01*
G04 APERTURE LIST*
%ADD10C,0.100000*%
%ADD11C,0.200000*%
%ADD12C,0.040000*%
%ADD13C,0.120000*%
%ADD14C,0.130000*%
%ADD15C,0.150000*%
%ADD16C,0.320000*%
G04 APERTURE END LIST*
D10*
X19950000Y-15000000D02*
X10000000Y-15000000D01*
X10000000Y-15000000D02*
X10000000Y-5000000D01*
X10000000Y-5000000D02*
X19950000Y-5000000D01*
X19950000Y-5000000D02*
X19950000Y-15000000D01*
D11*
D12*
X16230000Y-13700000D02*
X16270000Y-13740000D01*
X16270000Y-13700000D02*
X16230000Y-13740000D01*
D10*
X11292000Y-13792000D02*
G75*
G03*
X11292000Y-13792000I-50000J0D01*
G01*
X11292000Y-14300000D02*
G75*
G03*
X11292000Y-14300000I-50000J0D01*
G01*
X11800000Y-13792000D02*
G75*
G03*
X11800000Y-13792000I-50000J0D01*
G01*
X11800000Y-14300000D02*
G75*
G03*
X11800000Y-14300000I-50000J0D01*
G01*
X13150000Y-13696768D02*
G75*
G03*
X13150000Y-13696768I-50000J0D01*
G01*
X13150000Y-14196768D02*
G75*
G03*
X13150000Y-14196768I-50000J0D01*
G01*
X14350000Y-13696768D02*
G75*
G03*
X14350000Y-13696768I-50000J0D01*
G01*
X14350000Y-14196768D02*
G75*
G03*
X14350000Y-14196768I-50000J0D01*
G01*
X15550000Y-13696768D02*
G75*
G03*
X15550000Y-13696768I-50000J0D01*
G01*
X15550000Y-14196768D02*
G75*
G03*
X15550000Y-14196768I-50000J0D01*
G01*
X16946500Y-10597500D02*
G75*
G03*
X16946500Y-10597500I-50000J0D01*
G01*
X16946500Y-11105500D02*
G75*
G03*
X16946500Y-11105500I-50000J0D01*
G01*
X17454500Y-10597500D02*
G75*
G03*
X17454500Y-10597500I-50000J0D01*
G01*
X17454500Y-11105500D02*
G75*
G03*
X17454500Y-11105500I-50000J0D01*
G01*
X18150000Y-10100000D02*
G75*
G03*
X18150000Y-10100000I-50000J0D01*
G01*
X18150000Y-11350000D02*
G75*
G03*
X18150000Y-11350000I-50000J0D01*
G01*
X18150000Y-12600000D02*
G75*
G03*
X18150000Y-12600000I-50000J0D01*
G01*
X18650000Y-10100000D02*
G75*
G03*
X18650000Y-10100000I-50000J0D01*
G01*
X18650000Y-11350000D02*
G75*
G03*
X18650000Y-11350000I-50000J0D01*
G01*
X18650000Y-12600000D02*
G75*
G03*
X18650000Y-12600000I-50000J0D01*
G01*
D13*
X11500000Y-5940000D02*
X11500000Y-6060000D01*
X11440000Y-6000000D02*
X11560000Y-6000000D01*
X13000000Y-5940000D02*
X13000000Y-6060000D01*
X12940000Y-6000000D02*
X13060000Y-6000000D01*
X16900000Y-7640000D02*
X16900000Y-7760000D01*
X16840000Y-7700000D02*
X16960000Y-7700000D01*
X17500000Y-12540000D02*
X17500000Y-12660000D01*
X17440000Y-12600000D02*
X17560000Y-12600000D01*
X18400000Y-7640000D02*
X18400000Y-7760000D01*
X18340000Y-7700000D02*
X18460000Y-7700000D01*
X19300000Y-11940000D02*
X19300000Y-12060000D01*
X19240000Y-12000000D02*
X19360000Y-12000000D01*
D14*
X16783962Y-14145962D02*
X16783962Y-14054038D01*
X16692038Y-14054038D01*
X16692038Y-14145962D01*
X16783962Y-14145962D01*
X17291962Y-14145962D02*
X17291962Y-14054038D01*
X17200038Y-14054038D01*
X17200038Y-14145962D01*
X17291962Y-14145962D01*
X17429962Y-6045962D02*
X17429962Y-5954038D01*
X17338038Y-5954038D01*
X17338038Y-6045962D01*
X17429962Y-6045962D01*
X17799962Y-14145962D02*
X17799962Y-14054038D01*
X17708038Y-14054038D01*
X17708038Y-14145962D01*
X17799962Y-14145962D01*
X17937962Y-6045962D02*
X17937962Y-5954038D01*
X17846038Y-5954038D01*
X17846038Y-6045962D01*
X17937962Y-6045962D01*
X18307962Y-14145962D02*
X18307962Y-14054038D01*
X18216038Y-14054038D01*
X18216038Y-14145962D01*
X18307962Y-14145962D01*
X18445962Y-6045962D02*
X18445962Y-5954038D01*
X18354038Y-5954038D01*
X18354038Y-6045962D01*
X18445962Y-6045962D01*
D15*
X10706000Y-12969000D02*
X10781000Y-12894000D01*
X10706000Y-12819000D01*
X10631000Y-12894000D01*
X10706000Y-12969000D01*
X10960000Y-7381000D02*
X11035000Y-7306000D01*
X10960000Y-7231000D01*
X10885000Y-7306000D01*
X10960000Y-7381000D01*
X11254000Y-12969000D02*
X11329000Y-12894000D01*
X11254000Y-12819000D01*
X11179000Y-12894000D01*
X11254000Y-12969000D01*
X11468000Y-7381000D02*
X11543000Y-7306000D01*
X11468000Y-7231000D01*
X11393000Y-7306000D01*
X11468000Y-7381000D01*
X15532000Y-7381000D02*
X15607000Y-7306000D01*
X15532000Y-7231000D01*
X15457000Y-7306000D01*
X15532000Y-7381000D01*
X15746000Y-12969000D02*
X15821000Y-12894000D01*
X15746000Y-12819000D01*
X15671000Y-12894000D01*
X15746000Y-12969000D01*
X16040000Y-7381000D02*
X16115000Y-7306000D01*
X16040000Y-7231000D01*
X15965000Y-7306000D01*
X16040000Y-7381000D01*
X16294000Y-12969000D02*
X16369000Y-12894000D01*
X16294000Y-12819000D01*
X16219000Y-12894000D01*
X16294000Y-12969000D01*
X16950000Y-9675000D02*
X17025000Y-9600000D01*
X16950000Y-9525000D01*
X16875000Y-9600000D01*
X16950000Y-9675000D01*
X17400000Y-11875000D02*
X17475000Y-11800000D01*
X17400000Y-11725000D01*
X17325000Y-11800000D01*
X17400000Y-11875000D01*
D16*
X10340000Y-5340000D02*
X10660000Y-5660000D01*
X10660000Y-5340000D02*
X10340000Y-5660000D01*
X10660000Y-5500000D02*
G75*
G03*
X10660000Y-5500000I-160000J0D01*
G01*
X19340000Y-5340000D02*
X19660000Y-5660000D01*
X19660000Y-5340000D02*
X19340000Y-5660000D01*
X19660000Y-5500000D02*
G75*
G03*
X19660000Y-5500000I-160000J0D01*
G01*
D11*
X10252619Y-15315476D02*
X10252619Y-15115476D01*
X10300238Y-15115476D01*
X10328810Y-15125000D01*
X10347857Y-15144048D01*
X10357381Y-15163095D01*
X10366905Y-15201190D01*
X10366905Y-15229762D01*
X10357381Y-15267857D01*
X10347857Y-15286905D01*
X10328810Y-15305952D01*
X10300238Y-15315476D01*
X10252619Y-15315476D01*
X10452619Y-15315476D02*
X10452619Y-15182143D01*
X10452619Y-15220238D02*
X10462143Y-15201190D01*
X10471667Y-15191667D01*
X10490714Y-15182143D01*
X10509762Y-15182143D01*
X10576429Y-15315476D02*
X10576429Y-15182143D01*
X10576429Y-15115476D02*
X10566905Y-15125000D01*
X10576429Y-15134524D01*
X10585952Y-15125000D01*
X10576429Y-15115476D01*
X10576429Y-15134524D01*
X10700238Y-15315476D02*
X10681190Y-15305952D01*
X10671667Y-15286905D01*
X10671667Y-15115476D01*
X10805000Y-15315476D02*
X10785952Y-15305952D01*
X10776429Y-15286905D01*
X10776429Y-15115476D01*
X11033571Y-15315476D02*
X11033571Y-15115476D01*
X11100238Y-15258333D01*
X11166905Y-15115476D01*
X11166905Y-15315476D01*
X11347857Y-15315476D02*
X11347857Y-15210714D01*
X11338333Y-15191667D01*
X11319286Y-15182143D01*
X11281190Y-15182143D01*
X11262143Y-15191667D01*
X11347857Y-15305952D02*
X11328809Y-15315476D01*
X11281190Y-15315476D01*
X11262143Y-15305952D01*
X11252619Y-15286905D01*
X11252619Y-15267857D01*
X11262143Y-15248809D01*
X11281190Y-15239286D01*
X11328809Y-15239286D01*
X11347857Y-15229762D01*
X11443095Y-15182143D02*
X11443095Y-15382143D01*
X11443095Y-15191667D02*
X11462143Y-15182143D01*
X11500238Y-15182143D01*
X11519286Y-15191667D01*
X11528809Y-15201190D01*
X11538333Y-15220238D01*
X11538333Y-15277381D01*
X11528809Y-15296428D01*
X11519286Y-15305952D01*
X11500238Y-15315476D01*
X11462143Y-15315476D01*
X11443095Y-15305952D01*
X11624048Y-15296428D02*
X11633571Y-15305952D01*
X11624048Y-15315476D01*
X11614524Y-15305952D01*
X11624048Y-15296428D01*
X11624048Y-15315476D01*
X11624048Y-15191667D02*
X11633571Y-15201190D01*
X11624048Y-15210714D01*
X11614524Y-15201190D01*
X11624048Y-15191667D01*
X11624048Y-15210714D01*
D12*
X9955000Y-15625000D02*
X9995000Y-15665000D01*
X9995000Y-15625000D02*
X9955000Y-15665000D01*
D11*
X10290714Y-15535476D02*
X10309762Y-15535476D01*
X10328810Y-15545000D01*
X10338333Y-15554524D01*
X10347857Y-15573571D01*
X10357381Y-15611667D01*
X10357381Y-15659286D01*
X10347857Y-15697381D01*
X10338333Y-15716428D01*
X10328810Y-15725952D01*
X10309762Y-15735476D01*
X10290714Y-15735476D01*
X10271667Y-15725952D01*
X10262143Y-15716428D01*
X10252619Y-15697381D01*
X10243095Y-15659286D01*
X10243095Y-15611667D01*
X10252619Y-15573571D01*
X10262143Y-15554524D01*
X10271667Y-15545000D01*
X10290714Y-15535476D01*
X10443095Y-15716428D02*
X10452619Y-15725952D01*
X10443095Y-15735476D01*
X10433571Y-15725952D01*
X10443095Y-15716428D01*
X10443095Y-15735476D01*
X10624048Y-15602143D02*
X10624048Y-15735476D01*
X10576429Y-15525952D02*
X10528810Y-15668809D01*
X10652619Y-15668809D01*
X10766905Y-15535476D02*
X10785952Y-15535476D01*
X10805000Y-15545000D01*
X10814524Y-15554524D01*
X10824048Y-15573571D01*
X10833571Y-15611667D01*
X10833571Y-15659286D01*
X10824048Y-15697381D01*
X10814524Y-15716428D01*
X10805000Y-15725952D01*
X10785952Y-15735476D01*
X10766905Y-15735476D01*
X10747857Y-15725952D01*
X10738333Y-15716428D01*
X10728810Y-15697381D01*
X10719286Y-15659286D01*
X10719286Y-15611667D01*
X10728810Y-15573571D01*
X10738333Y-15554524D01*
X10747857Y-15545000D01*
X10766905Y-15535476D01*
X10957381Y-15535476D02*
X10976429Y-15535476D01*
X10995476Y-15545000D01*
X11005000Y-15554524D01*
X11014524Y-15573571D01*
X11024048Y-15611667D01*
X11024048Y-15659286D01*
X11014524Y-15697381D01*
X11005000Y-15716428D01*
X10995476Y-15725952D01*
X10976429Y-15735476D01*
X10957381Y-15735476D01*
X10938333Y-15725952D01*
X10928810Y-15716428D01*
X10919286Y-15697381D01*
X10909762Y-15659286D01*
X10909762Y-15611667D01*
X10919286Y-15573571D01*
X10928810Y-15554524D01*
X10938333Y-15545000D01*
X10957381Y-15535476D01*
X11109762Y-15735476D02*
X11109762Y-15602143D01*
X11109762Y-15621190D02*
X11119286Y-15611667D01*
X11138333Y-15602143D01*
X11166905Y-15602143D01*
X11185952Y-15611667D01*
X11195476Y-15630714D01*
X11195476Y-15735476D01*
X11195476Y-15630714D02*
X11205000Y-15611667D01*
X11224048Y-15602143D01*
X11252619Y-15602143D01*
X11271667Y-15611667D01*
X11281190Y-15630714D01*
X11281190Y-15735476D01*
X11376428Y-15735476D02*
X11376428Y-15602143D01*
X11376428Y-15621190D02*
X11385952Y-15611667D01*
X11405000Y-15602143D01*
X11433571Y-15602143D01*
X11452619Y-15611667D01*
X11462143Y-15630714D01*
X11462143Y-15735476D01*
X11462143Y-15630714D02*
X11471667Y-15611667D01*
X11490714Y-15602143D01*
X11519286Y-15602143D01*
X11538333Y-15611667D01*
X11547857Y-15630714D01*
X11547857Y-15735476D01*
X11938333Y-15525952D02*
X11766905Y-15783095D01*
X12195476Y-15535476D02*
X12214524Y-15535476D01*
X12233571Y-15545000D01*
X12243095Y-15554524D01*
X12252619Y-15573571D01*
X12262143Y-15611667D01*
X12262143Y-15659286D01*
X12252619Y-15697381D01*
X12243095Y-15716428D01*
X12233571Y-15725952D01*
X12214524Y-15735476D01*
X12195476Y-15735476D01*
X12176428Y-15725952D01*
X12166905Y-15716428D01*
X12157381Y-15697381D01*
X12147857Y-15659286D01*
X12147857Y-15611667D01*
X12157381Y-15573571D01*
X12166905Y-15554524D01*
X12176428Y-15545000D01*
X12195476Y-15535476D01*
X12347857Y-15716428D02*
X12357381Y-15725952D01*
X12347857Y-15735476D01*
X12338333Y-15725952D01*
X12347857Y-15716428D01*
X12347857Y-15735476D01*
X12481190Y-15535476D02*
X12500238Y-15535476D01*
X12519286Y-15545000D01*
X12528809Y-15554524D01*
X12538333Y-15573571D01*
X12547857Y-15611667D01*
X12547857Y-15659286D01*
X12538333Y-15697381D01*
X12528809Y-15716428D01*
X12519286Y-15725952D01*
X12500238Y-15735476D01*
X12481190Y-15735476D01*
X12462143Y-15725952D01*
X12452619Y-15716428D01*
X12443095Y-15697381D01*
X12433571Y-15659286D01*
X12433571Y-15611667D01*
X12443095Y-15573571D01*
X12452619Y-15554524D01*
X12462143Y-15545000D01*
X12481190Y-15535476D01*
X12738333Y-15735476D02*
X12624048Y-15735476D01*
X12681190Y-15735476D02*
X12681190Y-15535476D01*
X12662143Y-15564048D01*
X12643095Y-15583095D01*
X12624048Y-15592619D01*
X12919286Y-15535476D02*
X12824048Y-15535476D01*
X12814524Y-15630714D01*
X12824048Y-15621190D01*
X12843095Y-15611667D01*
X12890714Y-15611667D01*
X12909762Y-15621190D01*
X12919286Y-15630714D01*
X12928809Y-15649762D01*
X12928809Y-15697381D01*
X12919286Y-15716428D01*
X12909762Y-15725952D01*
X12890714Y-15735476D01*
X12843095Y-15735476D01*
X12824048Y-15725952D01*
X12814524Y-15716428D01*
X12995476Y-15535476D02*
X13128809Y-15535476D01*
X13043095Y-15735476D01*
X13195476Y-15535476D02*
X13195476Y-15573571D01*
X13271667Y-15535476D02*
X13271667Y-15573571D01*
X13566905Y-15811667D02*
X13557381Y-15802143D01*
X13538333Y-15773571D01*
X13528809Y-15754524D01*
X13519286Y-15725952D01*
X13509762Y-15678333D01*
X13509762Y-15640238D01*
X13519286Y-15592619D01*
X13528809Y-15564048D01*
X13538333Y-15545000D01*
X13557381Y-15516428D01*
X13566905Y-15506905D01*
X13747857Y-15735476D02*
X13633571Y-15735476D01*
X13690714Y-15735476D02*
X13690714Y-15535476D01*
X13671667Y-15564048D01*
X13652619Y-15583095D01*
X13633571Y-15592619D01*
X13985952Y-15735476D02*
X13985952Y-15535476D01*
X14071667Y-15735476D02*
X14071667Y-15630714D01*
X14062143Y-15611667D01*
X14043095Y-15602143D01*
X14014524Y-15602143D01*
X13995476Y-15611667D01*
X13985952Y-15621190D01*
X14195476Y-15735476D02*
X14176428Y-15725952D01*
X14166905Y-15716428D01*
X14157381Y-15697381D01*
X14157381Y-15640238D01*
X14166905Y-15621190D01*
X14176428Y-15611667D01*
X14195476Y-15602143D01*
X14224048Y-15602143D01*
X14243095Y-15611667D01*
X14252619Y-15621190D01*
X14262143Y-15640238D01*
X14262143Y-15697381D01*
X14252619Y-15716428D01*
X14243095Y-15725952D01*
X14224048Y-15735476D01*
X14195476Y-15735476D01*
X14376428Y-15735476D02*
X14357381Y-15725952D01*
X14347857Y-15706905D01*
X14347857Y-15535476D01*
X14528809Y-15725952D02*
X14509762Y-15735476D01*
X14471667Y-15735476D01*
X14452619Y-15725952D01*
X14443095Y-15706905D01*
X14443095Y-15630714D01*
X14452619Y-15611667D01*
X14471667Y-15602143D01*
X14509762Y-15602143D01*
X14528809Y-15611667D01*
X14538333Y-15630714D01*
X14538333Y-15649762D01*
X14443095Y-15668809D01*
X14605000Y-15811667D02*
X14614524Y-15802143D01*
X14633571Y-15773571D01*
X14643095Y-15754524D01*
X14652619Y-15725952D01*
X14662143Y-15678333D01*
X14662143Y-15640238D01*
X14652619Y-15592619D01*
X14643095Y-15564048D01*
X14633571Y-15545000D01*
X14614524Y-15516428D01*
X14605000Y-15506905D01*
D10*
X9995000Y-15909000D02*
G75*
G03*
X9995000Y-15909000I-50000J0D01*
G01*
D11*
X10357381Y-15999476D02*
X10243095Y-15999476D01*
X10300238Y-15999476D02*
X10300238Y-15799476D01*
X10281190Y-15828048D01*
X10262143Y-15847095D01*
X10243095Y-15856619D01*
X10443095Y-15980428D02*
X10452619Y-15989952D01*
X10443095Y-15999476D01*
X10433571Y-15989952D01*
X10443095Y-15980428D01*
X10443095Y-15999476D01*
X10576429Y-15799476D02*
X10595476Y-15799476D01*
X10614524Y-15809000D01*
X10624048Y-15818524D01*
X10633571Y-15837571D01*
X10643095Y-15875667D01*
X10643095Y-15923286D01*
X10633571Y-15961381D01*
X10624048Y-15980428D01*
X10614524Y-15989952D01*
X10595476Y-15999476D01*
X10576429Y-15999476D01*
X10557381Y-15989952D01*
X10547857Y-15980428D01*
X10538333Y-15961381D01*
X10528810Y-15923286D01*
X10528810Y-15875667D01*
X10538333Y-15837571D01*
X10547857Y-15818524D01*
X10557381Y-15809000D01*
X10576429Y-15799476D01*
X10766905Y-15799476D02*
X10785952Y-15799476D01*
X10805000Y-15809000D01*
X10814524Y-15818524D01*
X10824048Y-15837571D01*
X10833571Y-15875667D01*
X10833571Y-15923286D01*
X10824048Y-15961381D01*
X10814524Y-15980428D01*
X10805000Y-15989952D01*
X10785952Y-15999476D01*
X10766905Y-15999476D01*
X10747857Y-15989952D01*
X10738333Y-15980428D01*
X10728810Y-15961381D01*
X10719286Y-15923286D01*
X10719286Y-15875667D01*
X10728810Y-15837571D01*
X10738333Y-15818524D01*
X10747857Y-15809000D01*
X10766905Y-15799476D01*
X10957381Y-15799476D02*
X10976429Y-15799476D01*
X10995476Y-15809000D01*
X11005000Y-15818524D01*
X11014524Y-15837571D01*
X11024048Y-15875667D01*
X11024048Y-15923286D01*
X11014524Y-15961381D01*
X11005000Y-15980428D01*
X10995476Y-15989952D01*
X10976429Y-15999476D01*
X10957381Y-15999476D01*
X10938333Y-15989952D01*
X10928810Y-15980428D01*
X10919286Y-15961381D01*
X10909762Y-15923286D01*
X10909762Y-15875667D01*
X10919286Y-15837571D01*
X10928810Y-15818524D01*
X10938333Y-15809000D01*
X10957381Y-15799476D01*
X11109762Y-15999476D02*
X11109762Y-15866143D01*
X11109762Y-15885190D02*
X11119286Y-15875667D01*
X11138333Y-15866143D01*
X11166905Y-15866143D01*
X11185952Y-15875667D01*
X11195476Y-15894714D01*
X11195476Y-15999476D01*
X11195476Y-15894714D02*
X11205000Y-15875667D01*
X11224048Y-15866143D01*
X11252619Y-15866143D01*
X11271667Y-15875667D01*
X11281190Y-15894714D01*
X11281190Y-15999476D01*
X11376428Y-15999476D02*
X11376428Y-15866143D01*
X11376428Y-15885190D02*
X11385952Y-15875667D01*
X11405000Y-15866143D01*
X11433571Y-15866143D01*
X11452619Y-15875667D01*
X11462143Y-15894714D01*
X11462143Y-15999476D01*
X11462143Y-15894714D02*
X11471667Y-15875667D01*
X11490714Y-15866143D01*
X11519286Y-15866143D01*
X11538333Y-15875667D01*
X11547857Y-15894714D01*
X11547857Y-15999476D01*
X11938333Y-15789952D02*
X11766905Y-16047095D01*
X12195476Y-15799476D02*
X12214524Y-15799476D01*
X12233571Y-15809000D01*
X12243095Y-15818524D01*
X12252619Y-15837571D01*
X12262143Y-15875667D01*
X12262143Y-15923286D01*
X12252619Y-15961381D01*
X12243095Y-15980428D01*
X12233571Y-15989952D01*
X12214524Y-15999476D01*
X12195476Y-15999476D01*
X12176428Y-15989952D01*
X12166905Y-15980428D01*
X12157381Y-15961381D01*
X12147857Y-15923286D01*
X12147857Y-15875667D01*
X12157381Y-15837571D01*
X12166905Y-15818524D01*
X12176428Y-15809000D01*
X12195476Y-15799476D01*
X12347857Y-15980428D02*
X12357381Y-15989952D01*
X12347857Y-15999476D01*
X12338333Y-15989952D01*
X12347857Y-15980428D01*
X12347857Y-15999476D01*
X12481190Y-15799476D02*
X12500238Y-15799476D01*
X12519286Y-15809000D01*
X12528809Y-15818524D01*
X12538333Y-15837571D01*
X12547857Y-15875667D01*
X12547857Y-15923286D01*
X12538333Y-15961381D01*
X12528809Y-15980428D01*
X12519286Y-15989952D01*
X12500238Y-15999476D01*
X12481190Y-15999476D01*
X12462143Y-15989952D01*
X12452619Y-15980428D01*
X12443095Y-15961381D01*
X12433571Y-15923286D01*
X12433571Y-15875667D01*
X12443095Y-15837571D01*
X12452619Y-15818524D01*
X12462143Y-15809000D01*
X12481190Y-15799476D01*
X12614524Y-15799476D02*
X12738333Y-15799476D01*
X12671667Y-15875667D01*
X12700238Y-15875667D01*
X12719286Y-15885190D01*
X12728809Y-15894714D01*
X12738333Y-15913762D01*
X12738333Y-15961381D01*
X12728809Y-15980428D01*
X12719286Y-15989952D01*
X12700238Y-15999476D01*
X12643095Y-15999476D01*
X12624048Y-15989952D01*
X12614524Y-15980428D01*
X12833571Y-15999476D02*
X12871667Y-15999476D01*
X12890714Y-15989952D01*
X12900238Y-15980428D01*
X12919286Y-15951857D01*
X12928809Y-15913762D01*
X12928809Y-15837571D01*
X12919286Y-15818524D01*
X12909762Y-15809000D01*
X12890714Y-15799476D01*
X12852619Y-15799476D01*
X12833571Y-15809000D01*
X12824048Y-15818524D01*
X12814524Y-15837571D01*
X12814524Y-15885190D01*
X12824048Y-15904238D01*
X12833571Y-15913762D01*
X12852619Y-15923286D01*
X12890714Y-15923286D01*
X12909762Y-15913762D01*
X12919286Y-15904238D01*
X12928809Y-15885190D01*
X13100238Y-15866143D02*
X13100238Y-15999476D01*
X13052619Y-15789952D02*
X13005000Y-15932809D01*
X13128809Y-15932809D01*
X13195476Y-15799476D02*
X13195476Y-15837571D01*
X13271667Y-15799476D02*
X13271667Y-15837571D01*
X13566905Y-16075667D02*
X13557381Y-16066143D01*
X13538333Y-16037571D01*
X13528809Y-16018524D01*
X13519286Y-15989952D01*
X13509762Y-15942333D01*
X13509762Y-15904238D01*
X13519286Y-15856619D01*
X13528809Y-15828048D01*
X13538333Y-15809000D01*
X13557381Y-15780428D01*
X13566905Y-15770905D01*
X13633571Y-15818524D02*
X13643095Y-15809000D01*
X13662143Y-15799476D01*
X13709762Y-15799476D01*
X13728809Y-15809000D01*
X13738333Y-15818524D01*
X13747857Y-15837571D01*
X13747857Y-15856619D01*
X13738333Y-15885190D01*
X13624048Y-15999476D01*
X13747857Y-15999476D01*
X13871667Y-15799476D02*
X13890714Y-15799476D01*
X13909762Y-15809000D01*
X13919286Y-15818524D01*
X13928809Y-15837571D01*
X13938333Y-15875667D01*
X13938333Y-15923286D01*
X13928809Y-15961381D01*
X13919286Y-15980428D01*
X13909762Y-15989952D01*
X13890714Y-15999476D01*
X13871667Y-15999476D01*
X13852619Y-15989952D01*
X13843095Y-15980428D01*
X13833571Y-15961381D01*
X13824048Y-15923286D01*
X13824048Y-15875667D01*
X13833571Y-15837571D01*
X13843095Y-15818524D01*
X13852619Y-15809000D01*
X13871667Y-15799476D01*
X14176428Y-15999476D02*
X14176428Y-15799476D01*
X14262143Y-15999476D02*
X14262143Y-15894714D01*
X14252619Y-15875667D01*
X14233571Y-15866143D01*
X14205000Y-15866143D01*
X14185952Y-15875667D01*
X14176428Y-15885190D01*
X14385952Y-15999476D02*
X14366905Y-15989952D01*
X14357381Y-15980428D01*
X14347857Y-15961381D01*
X14347857Y-15904238D01*
X14357381Y-15885190D01*
X14366905Y-15875667D01*
X14385952Y-15866143D01*
X14414524Y-15866143D01*
X14433571Y-15875667D01*
X14443095Y-15885190D01*
X14452619Y-15904238D01*
X14452619Y-15961381D01*
X14443095Y-15980428D01*
X14433571Y-15989952D01*
X14414524Y-15999476D01*
X14385952Y-15999476D01*
X14566905Y-15999476D02*
X14547857Y-15989952D01*
X14538333Y-15970905D01*
X14538333Y-15799476D01*
X14719286Y-15989952D02*
X14700238Y-15999476D01*
X14662143Y-15999476D01*
X14643095Y-15989952D01*
X14633571Y-15970905D01*
X14633571Y-15894714D01*
X14643095Y-15875667D01*
X14662143Y-15866143D01*
X14700238Y-15866143D01*
X14719286Y-15875667D01*
X14728809Y-15894714D01*
X14728809Y-15913762D01*
X14633571Y-15932809D01*
X14805000Y-15989952D02*
X14824048Y-15999476D01*
X14862143Y-15999476D01*
X14881190Y-15989952D01*
X14890714Y-15970905D01*
X14890714Y-15961381D01*
X14881190Y-15942333D01*
X14862143Y-15932809D01*
X14833571Y-15932809D01*
X14814524Y-15923286D01*
X14805000Y-15904238D01*
X14805000Y-15894714D01*
X14814524Y-15875667D01*
X14833571Y-15866143D01*
X14862143Y-15866143D01*
X14881190Y-15875667D01*
X14957381Y-16075667D02*
X14966905Y-16066143D01*
X14985952Y-16037571D01*
X14995476Y-16018524D01*
X15005000Y-15989952D01*
X15014524Y-15942333D01*
X15014524Y-15904238D01*
X15005000Y-15856619D01*
X14995476Y-15828048D01*
X14985952Y-15809000D01*
X14966905Y-15780428D01*
X14957381Y-15770905D01*
D13*
X9935000Y-16113000D02*
X9935000Y-16233000D01*
X9875000Y-16173000D02*
X9995000Y-16173000D01*
D11*
X10357381Y-16263476D02*
X10243095Y-16263476D01*
X10300238Y-16263476D02*
X10300238Y-16063476D01*
X10281190Y-16092048D01*
X10262143Y-16111095D01*
X10243095Y-16120619D01*
X10443095Y-16244428D02*
X10452619Y-16253952D01*
X10443095Y-16263476D01*
X10433571Y-16253952D01*
X10443095Y-16244428D01*
X10443095Y-16263476D01*
X10528810Y-16082524D02*
X10538333Y-16073000D01*
X10557381Y-16063476D01*
X10605000Y-16063476D01*
X10624048Y-16073000D01*
X10633571Y-16082524D01*
X10643095Y-16101571D01*
X10643095Y-16120619D01*
X10633571Y-16149190D01*
X10519286Y-16263476D01*
X10643095Y-16263476D01*
X10766905Y-16063476D02*
X10785952Y-16063476D01*
X10805000Y-16073000D01*
X10814524Y-16082524D01*
X10824048Y-16101571D01*
X10833571Y-16139667D01*
X10833571Y-16187286D01*
X10824048Y-16225381D01*
X10814524Y-16244428D01*
X10805000Y-16253952D01*
X10785952Y-16263476D01*
X10766905Y-16263476D01*
X10747857Y-16253952D01*
X10738333Y-16244428D01*
X10728810Y-16225381D01*
X10719286Y-16187286D01*
X10719286Y-16139667D01*
X10728810Y-16101571D01*
X10738333Y-16082524D01*
X10747857Y-16073000D01*
X10766905Y-16063476D01*
X10957381Y-16063476D02*
X10976429Y-16063476D01*
X10995476Y-16073000D01*
X11005000Y-16082524D01*
X11014524Y-16101571D01*
X11024048Y-16139667D01*
X11024048Y-16187286D01*
X11014524Y-16225381D01*
X11005000Y-16244428D01*
X10995476Y-16253952D01*
X10976429Y-16263476D01*
X10957381Y-16263476D01*
X10938333Y-16253952D01*
X10928810Y-16244428D01*
X10919286Y-16225381D01*
X10909762Y-16187286D01*
X10909762Y-16139667D01*
X10919286Y-16101571D01*
X10928810Y-16082524D01*
X10938333Y-16073000D01*
X10957381Y-16063476D01*
X11109762Y-16263476D02*
X11109762Y-16130143D01*
X11109762Y-16149190D02*
X11119286Y-16139667D01*
X11138333Y-16130143D01*
X11166905Y-16130143D01*
X11185952Y-16139667D01*
X11195476Y-16158714D01*
X11195476Y-16263476D01*
X11195476Y-16158714D02*
X11205000Y-16139667D01*
X11224048Y-16130143D01*
X11252619Y-16130143D01*
X11271667Y-16139667D01*
X11281190Y-16158714D01*
X11281190Y-16263476D01*
X11376428Y-16263476D02*
X11376428Y-16130143D01*
X11376428Y-16149190D02*
X11385952Y-16139667D01*
X11405000Y-16130143D01*
X11433571Y-16130143D01*
X11452619Y-16139667D01*
X11462143Y-16158714D01*
X11462143Y-16263476D01*
X11462143Y-16158714D02*
X11471667Y-16139667D01*
X11490714Y-16130143D01*
X11519286Y-16130143D01*
X11538333Y-16139667D01*
X11547857Y-16158714D01*
X11547857Y-16263476D01*
X11938333Y-16053952D02*
X11766905Y-16311095D01*
X12195476Y-16063476D02*
X12214524Y-16063476D01*
X12233571Y-16073000D01*
X12243095Y-16082524D01*
X12252619Y-16101571D01*
X12262143Y-16139667D01*
X12262143Y-16187286D01*
X12252619Y-16225381D01*
X12243095Y-16244428D01*
X12233571Y-16253952D01*
X12214524Y-16263476D01*
X12195476Y-16263476D01*
X12176428Y-16253952D01*
X12166905Y-16244428D01*
X12157381Y-16225381D01*
X12147857Y-16187286D01*
X12147857Y-16139667D01*
X12157381Y-16101571D01*
X12166905Y-16082524D01*
X12176428Y-16073000D01*
X12195476Y-16063476D01*
X12347857Y-16244428D02*
X12357381Y-16253952D01*
X12347857Y-16263476D01*
X12338333Y-16253952D01*
X12347857Y-16244428D01*
X12347857Y-16263476D01*
X12481190Y-16063476D02*
X12500238Y-16063476D01*
X12519286Y-16073000D01*
X12528809Y-16082524D01*
X12538333Y-16101571D01*
X12547857Y-16139667D01*
X12547857Y-16187286D01*
X12538333Y-16225381D01*
X12528809Y-16244428D01*
X12519286Y-16253952D01*
X12500238Y-16263476D01*
X12481190Y-16263476D01*
X12462143Y-16253952D01*
X12452619Y-16244428D01*
X12443095Y-16225381D01*
X12433571Y-16187286D01*
X12433571Y-16139667D01*
X12443095Y-16101571D01*
X12452619Y-16082524D01*
X12462143Y-16073000D01*
X12481190Y-16063476D01*
X12719286Y-16130143D02*
X12719286Y-16263476D01*
X12671667Y-16053952D02*
X12624048Y-16196809D01*
X12747857Y-16196809D01*
X12805000Y-16063476D02*
X12938333Y-16063476D01*
X12852619Y-16263476D01*
X13005000Y-16082524D02*
X13014524Y-16073000D01*
X13033571Y-16063476D01*
X13081190Y-16063476D01*
X13100238Y-16073000D01*
X13109762Y-16082524D01*
X13119286Y-16101571D01*
X13119286Y-16120619D01*
X13109762Y-16149190D01*
X12995476Y-16263476D01*
X13119286Y-16263476D01*
X13195476Y-16063476D02*
X13195476Y-16101571D01*
X13271667Y-16063476D02*
X13271667Y-16101571D01*
X13566905Y-16339667D02*
X13557381Y-16330143D01*
X13538333Y-16301571D01*
X13528809Y-16282524D01*
X13519286Y-16253952D01*
X13509762Y-16206333D01*
X13509762Y-16168238D01*
X13519286Y-16120619D01*
X13528809Y-16092048D01*
X13538333Y-16073000D01*
X13557381Y-16044428D01*
X13566905Y-16034905D01*
X13728809Y-16063476D02*
X13690714Y-16063476D01*
X13671667Y-16073000D01*
X13662143Y-16082524D01*
X13643095Y-16111095D01*
X13633571Y-16149190D01*
X13633571Y-16225381D01*
X13643095Y-16244428D01*
X13652619Y-16253952D01*
X13671667Y-16263476D01*
X13709762Y-16263476D01*
X13728809Y-16253952D01*
X13738333Y-16244428D01*
X13747857Y-16225381D01*
X13747857Y-16177762D01*
X13738333Y-16158714D01*
X13728809Y-16149190D01*
X13709762Y-16139667D01*
X13671667Y-16139667D01*
X13652619Y-16149190D01*
X13643095Y-16158714D01*
X13633571Y-16177762D01*
X13985952Y-16263476D02*
X13985952Y-16063476D01*
X14071667Y-16263476D02*
X14071667Y-16158714D01*
X14062143Y-16139667D01*
X14043095Y-16130143D01*
X14014524Y-16130143D01*
X13995476Y-16139667D01*
X13985952Y-16149190D01*
X14195476Y-16263476D02*
X14176428Y-16253952D01*
X14166905Y-16244428D01*
X14157381Y-16225381D01*
X14157381Y-16168238D01*
X14166905Y-16149190D01*
X14176428Y-16139667D01*
X14195476Y-16130143D01*
X14224048Y-16130143D01*
X14243095Y-16139667D01*
X14252619Y-16149190D01*
X14262143Y-16168238D01*
X14262143Y-16225381D01*
X14252619Y-16244428D01*
X14243095Y-16253952D01*
X14224048Y-16263476D01*
X14195476Y-16263476D01*
X14376428Y-16263476D02*
X14357381Y-16253952D01*
X14347857Y-16234905D01*
X14347857Y-16063476D01*
X14528809Y-16253952D02*
X14509762Y-16263476D01*
X14471667Y-16263476D01*
X14452619Y-16253952D01*
X14443095Y-16234905D01*
X14443095Y-16158714D01*
X14452619Y-16139667D01*
X14471667Y-16130143D01*
X14509762Y-16130143D01*
X14528809Y-16139667D01*
X14538333Y-16158714D01*
X14538333Y-16177762D01*
X14443095Y-16196809D01*
X14614524Y-16253952D02*
X14633571Y-16263476D01*
X14671667Y-16263476D01*
X14690714Y-16253952D01*
X14700238Y-16234905D01*
X14700238Y-16225381D01*
X14690714Y-16206333D01*
X14671667Y-16196809D01*
X14643095Y-16196809D01*
X14624048Y-16187286D01*
X14614524Y-16168238D01*
X14614524Y-16158714D01*
X14624048Y-16139667D01*
X14643095Y-16130143D01*
X14671667Y-16130143D01*
X14690714Y-16139667D01*
X14766905Y-16339667D02*
X14776428Y-16330143D01*
X14795476Y-16301571D01*
X14805000Y-16282524D01*
X14814524Y-16253952D01*
X14824048Y-16206333D01*
X14824048Y-16168238D01*
X14814524Y-16120619D01*
X14805000Y-16092048D01*
X14795476Y-16073000D01*
X14776428Y-16044428D01*
X14766905Y-16034905D01*
D14*
X9975962Y-16482962D02*
X9975962Y-16391038D01*
X9884038Y-16391038D01*
X9884038Y-16482962D01*
X9975962Y-16482962D01*
D11*
X10357381Y-16527476D02*
X10243095Y-16527476D01*
X10300238Y-16527476D02*
X10300238Y-16327476D01*
X10281190Y-16356048D01*
X10262143Y-16375095D01*
X10243095Y-16384619D01*
X10443095Y-16508428D02*
X10452619Y-16517952D01*
X10443095Y-16527476D01*
X10433571Y-16517952D01*
X10443095Y-16508428D01*
X10443095Y-16527476D01*
X10519286Y-16327476D02*
X10643095Y-16327476D01*
X10576429Y-16403667D01*
X10605000Y-16403667D01*
X10624048Y-16413190D01*
X10633571Y-16422714D01*
X10643095Y-16441762D01*
X10643095Y-16489381D01*
X10633571Y-16508428D01*
X10624048Y-16517952D01*
X10605000Y-16527476D01*
X10547857Y-16527476D01*
X10528810Y-16517952D01*
X10519286Y-16508428D01*
X10766905Y-16327476D02*
X10785952Y-16327476D01*
X10805000Y-16337000D01*
X10814524Y-16346524D01*
X10824048Y-16365571D01*
X10833571Y-16403667D01*
X10833571Y-16451286D01*
X10824048Y-16489381D01*
X10814524Y-16508428D01*
X10805000Y-16517952D01*
X10785952Y-16527476D01*
X10766905Y-16527476D01*
X10747857Y-16517952D01*
X10738333Y-16508428D01*
X10728810Y-16489381D01*
X10719286Y-16451286D01*
X10719286Y-16403667D01*
X10728810Y-16365571D01*
X10738333Y-16346524D01*
X10747857Y-16337000D01*
X10766905Y-16327476D01*
X10957381Y-16327476D02*
X10976429Y-16327476D01*
X10995476Y-16337000D01*
X11005000Y-16346524D01*
X11014524Y-16365571D01*
X11024048Y-16403667D01*
X11024048Y-16451286D01*
X11014524Y-16489381D01*
X11005000Y-16508428D01*
X10995476Y-16517952D01*
X10976429Y-16527476D01*
X10957381Y-16527476D01*
X10938333Y-16517952D01*
X10928810Y-16508428D01*
X10919286Y-16489381D01*
X10909762Y-16451286D01*
X10909762Y-16403667D01*
X10919286Y-16365571D01*
X10928810Y-16346524D01*
X10938333Y-16337000D01*
X10957381Y-16327476D01*
X11109762Y-16527476D02*
X11109762Y-16394143D01*
X11109762Y-16413190D02*
X11119286Y-16403667D01*
X11138333Y-16394143D01*
X11166905Y-16394143D01*
X11185952Y-16403667D01*
X11195476Y-16422714D01*
X11195476Y-16527476D01*
X11195476Y-16422714D02*
X11205000Y-16403667D01*
X11224048Y-16394143D01*
X11252619Y-16394143D01*
X11271667Y-16403667D01*
X11281190Y-16422714D01*
X11281190Y-16527476D01*
X11376428Y-16527476D02*
X11376428Y-16394143D01*
X11376428Y-16413190D02*
X11385952Y-16403667D01*
X11405000Y-16394143D01*
X11433571Y-16394143D01*
X11452619Y-16403667D01*
X11462143Y-16422714D01*
X11462143Y-16527476D01*
X11462143Y-16422714D02*
X11471667Y-16403667D01*
X11490714Y-16394143D01*
X11519286Y-16394143D01*
X11538333Y-16403667D01*
X11547857Y-16422714D01*
X11547857Y-16527476D01*
X11938333Y-16317952D02*
X11766905Y-16575095D01*
X12195476Y-16327476D02*
X12214524Y-16327476D01*
X12233571Y-16337000D01*
X12243095Y-16346524D01*
X12252619Y-16365571D01*
X12262143Y-16403667D01*
X12262143Y-16451286D01*
X12252619Y-16489381D01*
X12243095Y-16508428D01*
X12233571Y-16517952D01*
X12214524Y-16527476D01*
X12195476Y-16527476D01*
X12176428Y-16517952D01*
X12166905Y-16508428D01*
X12157381Y-16489381D01*
X12147857Y-16451286D01*
X12147857Y-16403667D01*
X12157381Y-16365571D01*
X12166905Y-16346524D01*
X12176428Y-16337000D01*
X12195476Y-16327476D01*
X12347857Y-16508428D02*
X12357381Y-16517952D01*
X12347857Y-16527476D01*
X12338333Y-16517952D01*
X12347857Y-16508428D01*
X12347857Y-16527476D01*
X12481190Y-16327476D02*
X12500238Y-16327476D01*
X12519286Y-16337000D01*
X12528809Y-16346524D01*
X12538333Y-16365571D01*
X12547857Y-16403667D01*
X12547857Y-16451286D01*
X12538333Y-16489381D01*
X12528809Y-16508428D01*
X12519286Y-16517952D01*
X12500238Y-16527476D01*
X12481190Y-16527476D01*
X12462143Y-16517952D01*
X12452619Y-16508428D01*
X12443095Y-16489381D01*
X12433571Y-16451286D01*
X12433571Y-16403667D01*
X12443095Y-16365571D01*
X12452619Y-16346524D01*
X12462143Y-16337000D01*
X12481190Y-16327476D01*
X12728809Y-16327476D02*
X12633571Y-16327476D01*
X12624048Y-16422714D01*
X12633571Y-16413190D01*
X12652619Y-16403667D01*
X12700238Y-16403667D01*
X12719286Y-16413190D01*
X12728809Y-16422714D01*
X12738333Y-16441762D01*
X12738333Y-16489381D01*
X12728809Y-16508428D01*
X12719286Y-16517952D01*
X12700238Y-16527476D01*
X12652619Y-16527476D01*
X12633571Y-16517952D01*
X12624048Y-16508428D01*
X12928809Y-16527476D02*
X12814524Y-16527476D01*
X12871667Y-16527476D02*
X12871667Y-16327476D01*
X12852619Y-16356048D01*
X12833571Y-16375095D01*
X12814524Y-16384619D01*
X13005000Y-16346524D02*
X13014524Y-16337000D01*
X13033571Y-16327476D01*
X13081190Y-16327476D01*
X13100238Y-16337000D01*
X13109762Y-16346524D01*
X13119286Y-16365571D01*
X13119286Y-16384619D01*
X13109762Y-16413190D01*
X12995476Y-16527476D01*
X13119286Y-16527476D01*
X13195476Y-16327476D02*
X13195476Y-16365571D01*
X13271667Y-16327476D02*
X13271667Y-16365571D01*
X13566905Y-16603667D02*
X13557381Y-16594143D01*
X13538333Y-16565571D01*
X13528809Y-16546524D01*
X13519286Y-16517952D01*
X13509762Y-16470333D01*
X13509762Y-16432238D01*
X13519286Y-16384619D01*
X13528809Y-16356048D01*
X13538333Y-16337000D01*
X13557381Y-16308428D01*
X13566905Y-16298905D01*
X13624048Y-16327476D02*
X13757381Y-16327476D01*
X13671667Y-16527476D01*
X13985952Y-16527476D02*
X13985952Y-16327476D01*
X14071667Y-16527476D02*
X14071667Y-16422714D01*
X14062143Y-16403667D01*
X14043095Y-16394143D01*
X14014524Y-16394143D01*
X13995476Y-16403667D01*
X13985952Y-16413190D01*
X14195476Y-16527476D02*
X14176428Y-16517952D01*
X14166905Y-16508428D01*
X14157381Y-16489381D01*
X14157381Y-16432238D01*
X14166905Y-16413190D01*
X14176428Y-16403667D01*
X14195476Y-16394143D01*
X14224048Y-16394143D01*
X14243095Y-16403667D01*
X14252619Y-16413190D01*
X14262143Y-16432238D01*
X14262143Y-16489381D01*
X14252619Y-16508428D01*
X14243095Y-16517952D01*
X14224048Y-16527476D01*
X14195476Y-16527476D01*
X14376428Y-16527476D02*
X14357381Y-16517952D01*
X14347857Y-16498905D01*
X14347857Y-16327476D01*
X14528809Y-16517952D02*
X14509762Y-16527476D01*
X14471667Y-16527476D01*
X14452619Y-16517952D01*
X14443095Y-16498905D01*
X14443095Y-16422714D01*
X14452619Y-16403667D01*
X14471667Y-16394143D01*
X14509762Y-16394143D01*
X14528809Y-16403667D01*
X14538333Y-16422714D01*
X14538333Y-16441762D01*
X14443095Y-16460809D01*
X14614524Y-16517952D02*
X14633571Y-16527476D01*
X14671667Y-16527476D01*
X14690714Y-16517952D01*
X14700238Y-16498905D01*
X14700238Y-16489381D01*
X14690714Y-16470333D01*
X14671667Y-16460809D01*
X14643095Y-16460809D01*
X14624048Y-16451286D01*
X14614524Y-16432238D01*
X14614524Y-16422714D01*
X14624048Y-16403667D01*
X14643095Y-16394143D01*
X14671667Y-16394143D01*
X14690714Y-16403667D01*
X14766905Y-16603667D02*
X14776428Y-16594143D01*
X14795476Y-16565571D01*
X14805000Y-16546524D01*
X14814524Y-16517952D01*
X14824048Y-16470333D01*
X14824048Y-16432238D01*
X14814524Y-16384619D01*
X14805000Y-16356048D01*
X14795476Y-16337000D01*
X14776428Y-16308428D01*
X14766905Y-16298905D01*
D15*
X9920000Y-16776000D02*
X9995000Y-16701000D01*
X9920000Y-16626000D01*
X9845000Y-16701000D01*
X9920000Y-16776000D01*
D11*
X10357381Y-16791476D02*
X10243095Y-16791476D01*
X10300238Y-16791476D02*
X10300238Y-16591476D01*
X10281190Y-16620048D01*
X10262143Y-16639095D01*
X10243095Y-16648619D01*
X10443095Y-16772428D02*
X10452619Y-16781952D01*
X10443095Y-16791476D01*
X10433571Y-16781952D01*
X10443095Y-16772428D01*
X10443095Y-16791476D01*
X10633571Y-16591476D02*
X10538333Y-16591476D01*
X10528810Y-16686714D01*
X10538333Y-16677190D01*
X10557381Y-16667667D01*
X10605000Y-16667667D01*
X10624048Y-16677190D01*
X10633571Y-16686714D01*
X10643095Y-16705762D01*
X10643095Y-16753381D01*
X10633571Y-16772428D01*
X10624048Y-16781952D01*
X10605000Y-16791476D01*
X10557381Y-16791476D01*
X10538333Y-16781952D01*
X10528810Y-16772428D01*
X10766905Y-16591476D02*
X10785952Y-16591476D01*
X10805000Y-16601000D01*
X10814524Y-16610524D01*
X10824048Y-16629571D01*
X10833571Y-16667667D01*
X10833571Y-16715286D01*
X10824048Y-16753381D01*
X10814524Y-16772428D01*
X10805000Y-16781952D01*
X10785952Y-16791476D01*
X10766905Y-16791476D01*
X10747857Y-16781952D01*
X10738333Y-16772428D01*
X10728810Y-16753381D01*
X10719286Y-16715286D01*
X10719286Y-16667667D01*
X10728810Y-16629571D01*
X10738333Y-16610524D01*
X10747857Y-16601000D01*
X10766905Y-16591476D01*
X10957381Y-16591476D02*
X10976429Y-16591476D01*
X10995476Y-16601000D01*
X11005000Y-16610524D01*
X11014524Y-16629571D01*
X11024048Y-16667667D01*
X11024048Y-16715286D01*
X11014524Y-16753381D01*
X11005000Y-16772428D01*
X10995476Y-16781952D01*
X10976429Y-16791476D01*
X10957381Y-16791476D01*
X10938333Y-16781952D01*
X10928810Y-16772428D01*
X10919286Y-16753381D01*
X10909762Y-16715286D01*
X10909762Y-16667667D01*
X10919286Y-16629571D01*
X10928810Y-16610524D01*
X10938333Y-16601000D01*
X10957381Y-16591476D01*
X11109762Y-16791476D02*
X11109762Y-16658143D01*
X11109762Y-16677190D02*
X11119286Y-16667667D01*
X11138333Y-16658143D01*
X11166905Y-16658143D01*
X11185952Y-16667667D01*
X11195476Y-16686714D01*
X11195476Y-16791476D01*
X11195476Y-16686714D02*
X11205000Y-16667667D01*
X11224048Y-16658143D01*
X11252619Y-16658143D01*
X11271667Y-16667667D01*
X11281190Y-16686714D01*
X11281190Y-16791476D01*
X11376428Y-16791476D02*
X11376428Y-16658143D01*
X11376428Y-16677190D02*
X11385952Y-16667667D01*
X11405000Y-16658143D01*
X11433571Y-16658143D01*
X11452619Y-16667667D01*
X11462143Y-16686714D01*
X11462143Y-16791476D01*
X11462143Y-16686714D02*
X11471667Y-16667667D01*
X11490714Y-16658143D01*
X11519286Y-16658143D01*
X11538333Y-16667667D01*
X11547857Y-16686714D01*
X11547857Y-16791476D01*
X11938333Y-16581952D02*
X11766905Y-16839095D01*
X12195476Y-16591476D02*
X12214524Y-16591476D01*
X12233571Y-16601000D01*
X12243095Y-16610524D01*
X12252619Y-16629571D01*
X12262143Y-16667667D01*
X12262143Y-16715286D01*
X12252619Y-16753381D01*
X12243095Y-16772428D01*
X12233571Y-16781952D01*
X12214524Y-16791476D01*
X12195476Y-16791476D01*
X12176428Y-16781952D01*
X12166905Y-16772428D01*
X12157381Y-16753381D01*
X12147857Y-16715286D01*
X12147857Y-16667667D01*
X12157381Y-16629571D01*
X12166905Y-16610524D01*
X12176428Y-16601000D01*
X12195476Y-16591476D01*
X12347857Y-16772428D02*
X12357381Y-16781952D01*
X12347857Y-16791476D01*
X12338333Y-16781952D01*
X12347857Y-16772428D01*
X12347857Y-16791476D01*
X12481190Y-16591476D02*
X12500238Y-16591476D01*
X12519286Y-16601000D01*
X12528809Y-16610524D01*
X12538333Y-16629571D01*
X12547857Y-16667667D01*
X12547857Y-16715286D01*
X12538333Y-16753381D01*
X12528809Y-16772428D01*
X12519286Y-16781952D01*
X12500238Y-16791476D01*
X12481190Y-16791476D01*
X12462143Y-16781952D01*
X12452619Y-16772428D01*
X12443095Y-16753381D01*
X12433571Y-16715286D01*
X12433571Y-16667667D01*
X12443095Y-16629571D01*
X12452619Y-16610524D01*
X12462143Y-16601000D01*
X12481190Y-16591476D01*
X12728809Y-16591476D02*
X12633571Y-16591476D01*
X12624048Y-16686714D01*
X12633571Y-16677190D01*
X12652619Y-16667667D01*
X12700238Y-16667667D01*
X12719286Y-16677190D01*
X12728809Y-16686714D01*
X12738333Y-16705762D01*
X12738333Y-16753381D01*
X12728809Y-16772428D01*
X12719286Y-16781952D01*
X12700238Y-16791476D01*
X12652619Y-16791476D01*
X12633571Y-16781952D01*
X12624048Y-16772428D01*
X12833571Y-16791476D02*
X12871667Y-16791476D01*
X12890714Y-16781952D01*
X12900238Y-16772428D01*
X12919286Y-16743857D01*
X12928809Y-16705762D01*
X12928809Y-16629571D01*
X12919286Y-16610524D01*
X12909762Y-16601000D01*
X12890714Y-16591476D01*
X12852619Y-16591476D01*
X12833571Y-16601000D01*
X12824048Y-16610524D01*
X12814524Y-16629571D01*
X12814524Y-16677190D01*
X12824048Y-16696238D01*
X12833571Y-16705762D01*
X12852619Y-16715286D01*
X12890714Y-16715286D01*
X12909762Y-16705762D01*
X12919286Y-16696238D01*
X12928809Y-16677190D01*
X13119286Y-16791476D02*
X13005000Y-16791476D01*
X13062143Y-16791476D02*
X13062143Y-16591476D01*
X13043095Y-16620048D01*
X13024048Y-16639095D01*
X13005000Y-16648619D01*
X13195476Y-16591476D02*
X13195476Y-16629571D01*
X13271667Y-16591476D02*
X13271667Y-16629571D01*
X13566905Y-16867667D02*
X13557381Y-16858143D01*
X13538333Y-16829571D01*
X13528809Y-16810524D01*
X13519286Y-16781952D01*
X13509762Y-16734333D01*
X13509762Y-16696238D01*
X13519286Y-16648619D01*
X13528809Y-16620048D01*
X13538333Y-16601000D01*
X13557381Y-16572428D01*
X13566905Y-16562905D01*
X13747857Y-16791476D02*
X13633571Y-16791476D01*
X13690714Y-16791476D02*
X13690714Y-16591476D01*
X13671667Y-16620048D01*
X13652619Y-16639095D01*
X13633571Y-16648619D01*
X13871667Y-16591476D02*
X13890714Y-16591476D01*
X13909762Y-16601000D01*
X13919286Y-16610524D01*
X13928809Y-16629571D01*
X13938333Y-16667667D01*
X13938333Y-16715286D01*
X13928809Y-16753381D01*
X13919286Y-16772428D01*
X13909762Y-16781952D01*
X13890714Y-16791476D01*
X13871667Y-16791476D01*
X13852619Y-16781952D01*
X13843095Y-16772428D01*
X13833571Y-16753381D01*
X13824048Y-16715286D01*
X13824048Y-16667667D01*
X13833571Y-16629571D01*
X13843095Y-16610524D01*
X13852619Y-16601000D01*
X13871667Y-16591476D01*
X14176428Y-16791476D02*
X14176428Y-16591476D01*
X14262143Y-16791476D02*
X14262143Y-16686714D01*
X14252619Y-16667667D01*
X14233571Y-16658143D01*
X14205000Y-16658143D01*
X14185952Y-16667667D01*
X14176428Y-16677190D01*
X14385952Y-16791476D02*
X14366905Y-16781952D01*
X14357381Y-16772428D01*
X14347857Y-16753381D01*
X14347857Y-16696238D01*
X14357381Y-16677190D01*
X14366905Y-16667667D01*
X14385952Y-16658143D01*
X14414524Y-16658143D01*
X14433571Y-16667667D01*
X14443095Y-16677190D01*
X14452619Y-16696238D01*
X14452619Y-16753381D01*
X14443095Y-16772428D01*
X14433571Y-16781952D01*
X14414524Y-16791476D01*
X14385952Y-16791476D01*
X14566905Y-16791476D02*
X14547857Y-16781952D01*
X14538333Y-16762905D01*
X14538333Y-16591476D01*
X14719286Y-16781952D02*
X14700238Y-16791476D01*
X14662143Y-16791476D01*
X14643095Y-16781952D01*
X14633571Y-16762905D01*
X14633571Y-16686714D01*
X14643095Y-16667667D01*
X14662143Y-16658143D01*
X14700238Y-16658143D01*
X14719286Y-16667667D01*
X14728809Y-16686714D01*
X14728809Y-16705762D01*
X14633571Y-16724809D01*
X14805000Y-16781952D02*
X14824048Y-16791476D01*
X14862143Y-16791476D01*
X14881190Y-16781952D01*
X14890714Y-16762905D01*
X14890714Y-16753381D01*
X14881190Y-16734333D01*
X14862143Y-16724809D01*
X14833571Y-16724809D01*
X14814524Y-16715286D01*
X14805000Y-16696238D01*
X14805000Y-16686714D01*
X14814524Y-16667667D01*
X14833571Y-16658143D01*
X14862143Y-16658143D01*
X14881190Y-16667667D01*
X14957381Y-16867667D02*
X14966905Y-16858143D01*
X14985952Y-16829571D01*
X14995476Y-16810524D01*
X15005000Y-16781952D01*
X15014524Y-16734333D01*
X15014524Y-16696238D01*
X15005000Y-16648619D01*
X14995476Y-16620048D01*
X14985952Y-16601000D01*
X14966905Y-16572428D01*
X14957381Y-16562905D01*
X9795000Y-16871000D02*
X9995000Y-17071000D01*
X9995000Y-16871000D02*
X9795000Y-17071000D01*
X9995000Y-16971000D02*
G75*
G03*
X9995000Y-16971000I-100000J0D01*
G01*
X10233571Y-16861476D02*
X10357381Y-16861476D01*
X10290714Y-16937667D01*
X10319286Y-16937667D01*
X10338333Y-16947190D01*
X10347857Y-16956714D01*
X10357381Y-16975762D01*
X10357381Y-17023381D01*
X10347857Y-17042429D01*
X10338333Y-17051952D01*
X10319286Y-17061476D01*
X10262143Y-17061476D01*
X10243095Y-17051952D01*
X10233571Y-17042429D01*
X10443095Y-17042429D02*
X10452619Y-17051952D01*
X10443095Y-17061476D01*
X10433571Y-17051952D01*
X10443095Y-17042429D01*
X10443095Y-17061476D01*
X10528810Y-16880524D02*
X10538333Y-16871000D01*
X10557381Y-16861476D01*
X10605000Y-16861476D01*
X10624048Y-16871000D01*
X10633571Y-16880524D01*
X10643095Y-16899571D01*
X10643095Y-16918619D01*
X10633571Y-16947190D01*
X10519286Y-17061476D01*
X10643095Y-17061476D01*
X10766905Y-16861476D02*
X10785952Y-16861476D01*
X10805000Y-16871000D01*
X10814524Y-16880524D01*
X10824048Y-16899571D01*
X10833571Y-16937667D01*
X10833571Y-16985286D01*
X10824048Y-17023381D01*
X10814524Y-17042429D01*
X10805000Y-17051952D01*
X10785952Y-17061476D01*
X10766905Y-17061476D01*
X10747857Y-17051952D01*
X10738333Y-17042429D01*
X10728810Y-17023381D01*
X10719286Y-16985286D01*
X10719286Y-16937667D01*
X10728810Y-16899571D01*
X10738333Y-16880524D01*
X10747857Y-16871000D01*
X10766905Y-16861476D01*
X10957381Y-16861476D02*
X10976429Y-16861476D01*
X10995476Y-16871000D01*
X11005000Y-16880524D01*
X11014524Y-16899571D01*
X11024048Y-16937667D01*
X11024048Y-16985286D01*
X11014524Y-17023381D01*
X11005000Y-17042429D01*
X10995476Y-17051952D01*
X10976429Y-17061476D01*
X10957381Y-17061476D01*
X10938333Y-17051952D01*
X10928810Y-17042429D01*
X10919286Y-17023381D01*
X10909762Y-16985286D01*
X10909762Y-16937667D01*
X10919286Y-16899571D01*
X10928810Y-16880524D01*
X10938333Y-16871000D01*
X10957381Y-16861476D01*
X11109762Y-17061476D02*
X11109762Y-16928143D01*
X11109762Y-16947190D02*
X11119286Y-16937667D01*
X11138333Y-16928143D01*
X11166905Y-16928143D01*
X11185952Y-16937667D01*
X11195476Y-16956714D01*
X11195476Y-17061476D01*
X11195476Y-16956714D02*
X11205000Y-16937667D01*
X11224048Y-16928143D01*
X11252619Y-16928143D01*
X11271667Y-16937667D01*
X11281190Y-16956714D01*
X11281190Y-17061476D01*
X11376428Y-17061476D02*
X11376428Y-16928143D01*
X11376428Y-16947190D02*
X11385952Y-16937667D01*
X11405000Y-16928143D01*
X11433571Y-16928143D01*
X11452619Y-16937667D01*
X11462143Y-16956714D01*
X11462143Y-17061476D01*
X11462143Y-16956714D02*
X11471667Y-16937667D01*
X11490714Y-16928143D01*
X11519286Y-16928143D01*
X11538333Y-16937667D01*
X11547857Y-16956714D01*
X11547857Y-17061476D01*
X11938333Y-16851952D02*
X11766905Y-17109095D01*
X12195476Y-16861476D02*
X12214524Y-16861476D01*
X12233571Y-16871000D01*
X12243095Y-16880524D01*
X12252619Y-16899571D01*
X12262143Y-16937667D01*
X12262143Y-16985286D01*
X12252619Y-17023381D01*
X12243095Y-17042429D01*
X12233571Y-17051952D01*
X12214524Y-17061476D01*
X12195476Y-17061476D01*
X12176428Y-17051952D01*
X12166905Y-17042429D01*
X12157381Y-17023381D01*
X12147857Y-16985286D01*
X12147857Y-16937667D01*
X12157381Y-16899571D01*
X12166905Y-16880524D01*
X12176428Y-16871000D01*
X12195476Y-16861476D01*
X12347857Y-17042429D02*
X12357381Y-17051952D01*
X12347857Y-17061476D01*
X12338333Y-17051952D01*
X12347857Y-17042429D01*
X12347857Y-17061476D01*
X12547857Y-17061476D02*
X12433571Y-17061476D01*
X12490714Y-17061476D02*
X12490714Y-16861476D01*
X12471667Y-16890048D01*
X12452619Y-16909095D01*
X12433571Y-16918619D01*
X12624048Y-16880524D02*
X12633571Y-16871000D01*
X12652619Y-16861476D01*
X12700238Y-16861476D01*
X12719286Y-16871000D01*
X12728809Y-16880524D01*
X12738333Y-16899571D01*
X12738333Y-16918619D01*
X12728809Y-16947190D01*
X12614524Y-17061476D01*
X12738333Y-17061476D01*
X12909762Y-16861476D02*
X12871667Y-16861476D01*
X12852619Y-16871000D01*
X12843095Y-16880524D01*
X12824048Y-16909095D01*
X12814524Y-16947190D01*
X12814524Y-17023381D01*
X12824048Y-17042429D01*
X12833571Y-17051952D01*
X12852619Y-17061476D01*
X12890714Y-17061476D01*
X12909762Y-17051952D01*
X12919286Y-17042429D01*
X12928809Y-17023381D01*
X12928809Y-16975762D01*
X12919286Y-16956714D01*
X12909762Y-16947190D01*
X12890714Y-16937667D01*
X12852619Y-16937667D01*
X12833571Y-16947190D01*
X12824048Y-16956714D01*
X12814524Y-16975762D01*
X13052619Y-16861476D02*
X13071667Y-16861476D01*
X13090714Y-16871000D01*
X13100238Y-16880524D01*
X13109762Y-16899571D01*
X13119286Y-16937667D01*
X13119286Y-16985286D01*
X13109762Y-17023381D01*
X13100238Y-17042429D01*
X13090714Y-17051952D01*
X13071667Y-17061476D01*
X13052619Y-17061476D01*
X13033571Y-17051952D01*
X13024048Y-17042429D01*
X13014524Y-17023381D01*
X13005000Y-16985286D01*
X13005000Y-16937667D01*
X13014524Y-16899571D01*
X13024048Y-16880524D01*
X13033571Y-16871000D01*
X13052619Y-16861476D01*
X13195476Y-16861476D02*
X13195476Y-16899571D01*
X13271667Y-16861476D02*
X13271667Y-16899571D01*
X13566905Y-17137667D02*
X13557381Y-17128143D01*
X13538333Y-17099571D01*
X13528809Y-17080524D01*
X13519286Y-17051952D01*
X13509762Y-17004333D01*
X13509762Y-16966238D01*
X13519286Y-16918619D01*
X13528809Y-16890048D01*
X13538333Y-16871000D01*
X13557381Y-16842429D01*
X13566905Y-16832905D01*
X13633571Y-16880524D02*
X13643095Y-16871000D01*
X13662143Y-16861476D01*
X13709762Y-16861476D01*
X13728809Y-16871000D01*
X13738333Y-16880524D01*
X13747857Y-16899571D01*
X13747857Y-16918619D01*
X13738333Y-16947190D01*
X13624048Y-17061476D01*
X13747857Y-17061476D01*
X13985952Y-17061476D02*
X13985952Y-16861476D01*
X14071667Y-17061476D02*
X14071667Y-16956714D01*
X14062143Y-16937667D01*
X14043095Y-16928143D01*
X14014524Y-16928143D01*
X13995476Y-16937667D01*
X13985952Y-16947190D01*
X14195476Y-17061476D02*
X14176428Y-17051952D01*
X14166905Y-17042429D01*
X14157381Y-17023381D01*
X14157381Y-16966238D01*
X14166905Y-16947190D01*
X14176428Y-16937667D01*
X14195476Y-16928143D01*
X14224048Y-16928143D01*
X14243095Y-16937667D01*
X14252619Y-16947190D01*
X14262143Y-16966238D01*
X14262143Y-17023381D01*
X14252619Y-17042429D01*
X14243095Y-17051952D01*
X14224048Y-17061476D01*
X14195476Y-17061476D01*
X14376428Y-17061476D02*
X14357381Y-17051952D01*
X14347857Y-17032905D01*
X14347857Y-16861476D01*
X14528809Y-17051952D02*
X14509762Y-17061476D01*
X14471667Y-17061476D01*
X14452619Y-17051952D01*
X14443095Y-17032905D01*
X14443095Y-16956714D01*
X14452619Y-16937667D01*
X14471667Y-16928143D01*
X14509762Y-16928143D01*
X14528809Y-16937667D01*
X14538333Y-16956714D01*
X14538333Y-16975762D01*
X14443095Y-16994810D01*
X14614524Y-17051952D02*
X14633571Y-17061476D01*
X14671667Y-17061476D01*
X14690714Y-17051952D01*
X14700238Y-17032905D01*
X14700238Y-17023381D01*
X14690714Y-17004333D01*
X14671667Y-16994810D01*
X14643095Y-16994810D01*
X14624048Y-16985286D01*
X14614524Y-16966238D01*
X14614524Y-16956714D01*
X14624048Y-16937667D01*
X14643095Y-16928143D01*
X14671667Y-16928143D01*
X14690714Y-16937667D01*
X14766905Y-17137667D02*
X14776428Y-17128143D01*
X14795476Y-17099571D01*
X14805000Y-17080524D01*
X14814524Y-17051952D01*
X14824048Y-17004333D01*
X14824048Y-16966238D01*
X14814524Y-16918619D01*
X14805000Y-16890048D01*
X14795476Y-16871000D01*
X14776428Y-16842429D01*
X14766905Y-16832905D01*
M02*
