M48
; DRILL file {KiCad (6.0.10-0)} date Tuesday, 24 January 2023 at 15:26:38
; FORMAT={-:-/ absolute / metric / decimal}
; #@! TF.CreationDate,2023-01-24T15:26:38+00:00
; #@! TF.GenerationSoftware,Kicad,Pcbnew,(6.0.10-0)
; #@! TF.FileFunction,Plated,1,2,PTH
FMAT,2
METRIC
; #@! TA.AperFunction,Plated,PTH,ViaDrill
T1C0.400
; #@! TA.AperFunction,Plated,PTH,ComponentDrill
T2C1.000
; #@! TA.AperFunction,Plated,PTH,ComponentDrill
T3C1.200
; #@! TA.AperFunction,Plated,PTH,ComponentDrill
T4C1.300
; #@! TA.AperFunction,Plated,PTH,ComponentDrill
T5C1.500
; #@! TA.AperFunction,Plated,PTH,ComponentDrill
T6C3.200
%
G90
G05
T1
X162.0Y-138.0
X162.5Y-139.5
T2
X112.42Y-137.92
X112.42Y-143.0
X117.5Y-137.92
X117.5Y-143.0
X131.0Y-138.0
X131.0Y-143.0
X143.0Y-138.0
X143.0Y-143.0
X155.0Y-138.0
X155.0Y-143.0
X164.465Y-109.975
X164.465Y-115.055
X169.545Y-109.975
X169.545Y-115.055
X178.0Y-105.0
X178.0Y-117.5
X178.0Y-130.0
X183.0Y-105.0
X183.0Y-117.5
X183.0Y-130.0
T3
X115.0Y-60.0
X130.0Y-60.0
X169.0Y-73.0
X170.5Y-130.0
X184.0Y-73.0
X193.0Y-117.5
T4
X167.38Y-144.805
X172.46Y-144.805
X173.84Y-56.0
X177.54Y-144.805
X178.92Y-56.0
X182.62Y-144.805
X184.0Y-56.0
T5
X102.56Y-128.94
X105.1Y-73.06
X108.04Y-128.94
X110.18Y-73.06
X150.82Y-73.06
X152.96Y-128.94
X155.9Y-73.06
X158.44Y-128.94
X165.0Y-100.0
X169.5Y-122.0
T6
X105.0Y-55.0
X195.0Y-55.0
T0
M30
