G04 #@! TF.GenerationSoftware,KiCad,Pcbnew,6.0.8+dfsg-1~bpo11+1+rpt1*
G04 #@! TF.CreationDate,2023-02-05T13:30:40+00:00*
G04 #@! TF.ProjectId,MaxDC,4d617844-432e-46b6-9963-61645f706362,0.3*
G04 #@! TF.SameCoordinates,Original*
G04 #@! TF.FileFunction,Soldermask,Top*
G04 #@! TF.FilePolarity,Negative*
%FSLAX46Y46*%
G04 Gerber Fmt 4.6, Leading zero omitted, Abs format (unit mm)*
G04 Created by KiCad (PCBNEW 6.0.8+dfsg-1~bpo11+1+rpt1) date 2023-02-05 13:30:40*
%MOMM*%
%LPD*%
G01*
G04 APERTURE LIST*
G04 Aperture macros list*
%AMRoundRect*
0 Rectangle with rounded corners*
0 $1 Rounding radius*
0 $2 $3 $4 $5 $6 $7 $8 $9 X,Y pos of 4 corners*
0 Add a 4 corners polygon primitive as box body*
4,1,4,$2,$3,$4,$5,$6,$7,$8,$9,$2,$3,0*
0 Add four circle primitives for the rounded corners*
1,1,$1+$1,$2,$3*
1,1,$1+$1,$4,$5*
1,1,$1+$1,$6,$7*
1,1,$1+$1,$8,$9*
0 Add four rect primitives between the rounded corners*
20,1,$1+$1,$2,$3,$4,$5,0*
20,1,$1+$1,$4,$5,$6,$7,0*
20,1,$1+$1,$6,$7,$8,$9,0*
20,1,$1+$1,$8,$9,$2,$3,0*%
G04 Aperture macros list end*
%ADD10R,2.600000X2.600000*%
%ADD11C,2.600000*%
%ADD12R,2.000000X2.000000*%
%ADD13O,2.000000X2.000000*%
%ADD14R,2.500000X2.500000*%
%ADD15RoundRect,0.250000X-0.337500X-0.475000X0.337500X-0.475000X0.337500X0.475000X-0.337500X0.475000X0*%
%ADD16RoundRect,0.250000X0.337500X0.475000X-0.337500X0.475000X-0.337500X-0.475000X0.337500X-0.475000X0*%
%ADD17C,2.000000*%
%ADD18C,2.400000*%
%ADD19RoundRect,0.381000X0.381000X-1.841500X0.381000X1.841500X-0.381000X1.841500X-0.381000X-1.841500X0*%
%ADD20C,3.200000*%
%ADD21C,5.000000*%
%ADD22C,3.000000*%
%ADD23C,6.400000*%
%ADD24RoundRect,0.250000X-0.475000X0.337500X-0.475000X-0.337500X0.475000X-0.337500X0.475000X0.337500X0*%
%ADD25R,3.000000X3.000000*%
%ADD26RoundRect,0.250000X-0.350000X-0.450000X0.350000X-0.450000X0.350000X0.450000X-0.350000X0.450000X0*%
G04 APERTURE END LIST*
D10*
X184000000Y-60000000D03*
D11*
X178920000Y-60000000D03*
X173840000Y-60000000D03*
D12*
X174045000Y-105975000D03*
D13*
X168965000Y-105975000D03*
X168965000Y-111055000D03*
X174045000Y-111055000D03*
D14*
X175000000Y-126000000D03*
D15*
X168962500Y-102000000D03*
X171037500Y-102000000D03*
D12*
X117500000Y-143000000D03*
D13*
X117500000Y-137920000D03*
X112420000Y-137920000D03*
X112420000Y-143000000D03*
D16*
X108037500Y-135000000D03*
X105962500Y-135000000D03*
D12*
X155000000Y-141967677D03*
D17*
X155000000Y-136967677D03*
D18*
X184000000Y-77000000D03*
X169000000Y-77000000D03*
D19*
X141818000Y-54348500D03*
X141818000Y-65715000D03*
X158582000Y-65651500D03*
X158582000Y-54285000D03*
D20*
X195000000Y-95000000D03*
D12*
X181000000Y-126000000D03*
D17*
X186000000Y-126000000D03*
D12*
X181000000Y-113500000D03*
D17*
X186000000Y-113500000D03*
D20*
X195000000Y-145000000D03*
D21*
X135000000Y-101000000D03*
D22*
X109600000Y-73060000D03*
X114680000Y-73060000D03*
X155320000Y-73060000D03*
X160400000Y-73060000D03*
X162940000Y-128940000D03*
X157460000Y-128940000D03*
X112540000Y-128940000D03*
X107060000Y-128940000D03*
D20*
X109500000Y-105000000D03*
X109500000Y-95000000D03*
D14*
X193000000Y-120000000D03*
D16*
X181537500Y-133195000D03*
X179462500Y-133195000D03*
D23*
X105000000Y-55000000D03*
D24*
X162500000Y-139062500D03*
X162500000Y-141137500D03*
D25*
X174000000Y-118000000D03*
D20*
X195000000Y-105000000D03*
D10*
X167380000Y-141000000D03*
D11*
X172460000Y-141000000D03*
X177540000Y-141000000D03*
X182620000Y-141000000D03*
D18*
X115000000Y-60000000D03*
X130000000Y-60000000D03*
D20*
X105000000Y-145000000D03*
D25*
X169500000Y-96000000D03*
D12*
X131000000Y-141967677D03*
D17*
X131000000Y-136967677D03*
D23*
X195000000Y-55000000D03*
D12*
X143000000Y-141967677D03*
D17*
X143000000Y-136967677D03*
D12*
X181000000Y-101000000D03*
D17*
X186000000Y-101000000D03*
D26*
X173500000Y-102000000D03*
X175500000Y-102000000D03*
X106000000Y-137500000D03*
X108000000Y-137500000D03*
M02*
