G04 #@! TF.GenerationSoftware,KiCad,Pcbnew,6.0.8+dfsg-1~bpo11+1+rpt1*
G04 #@! TF.CreationDate,2023-02-05T13:30:40+00:00*
G04 #@! TF.ProjectId,MaxDC,4d617844-432e-46b6-9963-61645f706362,0.3*
G04 #@! TF.SameCoordinates,Original*
G04 #@! TF.FileFunction,Legend,Bot*
G04 #@! TF.FilePolarity,Positive*
%FSLAX46Y46*%
G04 Gerber Fmt 4.6, Leading zero omitted, Abs format (unit mm)*
G04 Created by KiCad (PCBNEW 6.0.8+dfsg-1~bpo11+1+rpt1) date 2023-02-05 13:30:40*
%MOMM*%
%LPD*%
G01*
G04 APERTURE LIST*
%ADD10C,0.300000*%
%ADD11C,0.200000*%
%ADD12R,2.600000X2.600000*%
%ADD13C,2.600000*%
%ADD14R,2.000000X2.000000*%
%ADD15O,2.000000X2.000000*%
%ADD16R,2.500000X2.500000*%
%ADD17C,2.000000*%
%ADD18C,2.400000*%
%ADD19C,3.200000*%
%ADD20C,5.000000*%
%ADD21C,3.000000*%
%ADD22C,6.400000*%
%ADD23R,3.000000X3.000000*%
G04 APERTURE END LIST*
D10*
X160742857Y-59448571D02*
X160742857Y-57948571D01*
X160242857Y-59020000D01*
X159742857Y-57948571D01*
X159742857Y-59448571D01*
X158385714Y-59448571D02*
X158385714Y-58662857D01*
X158457142Y-58520000D01*
X158600000Y-58448571D01*
X158885714Y-58448571D01*
X159028571Y-58520000D01*
X158385714Y-59377142D02*
X158528571Y-59448571D01*
X158885714Y-59448571D01*
X159028571Y-59377142D01*
X159100000Y-59234285D01*
X159100000Y-59091428D01*
X159028571Y-58948571D01*
X158885714Y-58877142D01*
X158528571Y-58877142D01*
X158385714Y-58805714D01*
X157814285Y-59448571D02*
X157028571Y-58448571D01*
X157814285Y-58448571D02*
X157028571Y-59448571D01*
X156457142Y-59448571D02*
X156457142Y-57948571D01*
X156100000Y-57948571D01*
X155885714Y-58020000D01*
X155742857Y-58162857D01*
X155671428Y-58305714D01*
X155600000Y-58591428D01*
X155600000Y-58805714D01*
X155671428Y-59091428D01*
X155742857Y-59234285D01*
X155885714Y-59377142D01*
X156100000Y-59448571D01*
X156457142Y-59448571D01*
X154100000Y-59305714D02*
X154171428Y-59377142D01*
X154385714Y-59448571D01*
X154528571Y-59448571D01*
X154742857Y-59377142D01*
X154885714Y-59234285D01*
X154957142Y-59091428D01*
X155028571Y-58805714D01*
X155028571Y-58591428D01*
X154957142Y-58305714D01*
X154885714Y-58162857D01*
X154742857Y-58020000D01*
X154528571Y-57948571D01*
X154385714Y-57948571D01*
X154171428Y-58020000D01*
X154100000Y-58091428D01*
X152028571Y-57948571D02*
X151885714Y-57948571D01*
X151742857Y-58020000D01*
X151671428Y-58091428D01*
X151600000Y-58234285D01*
X151528571Y-58520000D01*
X151528571Y-58877142D01*
X151600000Y-59162857D01*
X151671428Y-59305714D01*
X151742857Y-59377142D01*
X151885714Y-59448571D01*
X152028571Y-59448571D01*
X152171428Y-59377142D01*
X152242857Y-59305714D01*
X152314285Y-59162857D01*
X152385714Y-58877142D01*
X152385714Y-58520000D01*
X152314285Y-58234285D01*
X152242857Y-58091428D01*
X152171428Y-58020000D01*
X152028571Y-57948571D01*
X150885714Y-59305714D02*
X150814285Y-59377142D01*
X150885714Y-59448571D01*
X150957142Y-59377142D01*
X150885714Y-59305714D01*
X150885714Y-59448571D01*
X150314285Y-57948571D02*
X149385714Y-57948571D01*
X149885714Y-58520000D01*
X149671428Y-58520000D01*
X149528571Y-58591428D01*
X149457142Y-58662857D01*
X149385714Y-58805714D01*
X149385714Y-59162857D01*
X149457142Y-59305714D01*
X149528571Y-59377142D01*
X149671428Y-59448571D01*
X150100000Y-59448571D01*
X150242857Y-59377142D01*
X150314285Y-59305714D01*
X163314285Y-61435000D02*
X162600000Y-61435000D01*
X163457142Y-61863571D02*
X162957142Y-60363571D01*
X162457142Y-61863571D01*
X161957142Y-60863571D02*
X161957142Y-61863571D01*
X161957142Y-61006428D02*
X161885714Y-60935000D01*
X161742857Y-60863571D01*
X161528571Y-60863571D01*
X161385714Y-60935000D01*
X161314285Y-61077857D01*
X161314285Y-61863571D01*
X159957142Y-61863571D02*
X159957142Y-60363571D01*
X159957142Y-61792142D02*
X160100000Y-61863571D01*
X160385714Y-61863571D01*
X160528571Y-61792142D01*
X160600000Y-61720714D01*
X160671428Y-61577857D01*
X160671428Y-61149285D01*
X160600000Y-61006428D01*
X160528571Y-60935000D01*
X160385714Y-60863571D01*
X160100000Y-60863571D01*
X159957142Y-60935000D01*
X159242857Y-61863571D02*
X159242857Y-60863571D01*
X159242857Y-61149285D02*
X159171428Y-61006428D01*
X159100000Y-60935000D01*
X158957142Y-60863571D01*
X158814285Y-60863571D01*
X157742857Y-61792142D02*
X157885714Y-61863571D01*
X158171428Y-61863571D01*
X158314285Y-61792142D01*
X158385714Y-61649285D01*
X158385714Y-61077857D01*
X158314285Y-60935000D01*
X158171428Y-60863571D01*
X157885714Y-60863571D01*
X157742857Y-60935000D01*
X157671428Y-61077857D01*
X157671428Y-61220714D01*
X158385714Y-61363571D01*
X157171428Y-60863571D02*
X156885714Y-61863571D01*
X156600000Y-61149285D01*
X156314285Y-61863571D01*
X156028571Y-60863571D01*
X153814285Y-61077857D02*
X154314285Y-61077857D01*
X154314285Y-61863571D02*
X154314285Y-60363571D01*
X153600000Y-60363571D01*
X153028571Y-61863571D02*
X153028571Y-60863571D01*
X153028571Y-60363571D02*
X153100000Y-60435000D01*
X153028571Y-60506428D01*
X152957142Y-60435000D01*
X153028571Y-60363571D01*
X153028571Y-60506428D01*
X152385714Y-61792142D02*
X152242857Y-61863571D01*
X151957142Y-61863571D01*
X151814285Y-61792142D01*
X151742857Y-61649285D01*
X151742857Y-61577857D01*
X151814285Y-61435000D01*
X151957142Y-61363571D01*
X152171428Y-61363571D01*
X152314285Y-61292142D01*
X152385714Y-61149285D01*
X152385714Y-61077857D01*
X152314285Y-60935000D01*
X152171428Y-60863571D01*
X151957142Y-60863571D01*
X151814285Y-60935000D01*
X150457142Y-61792142D02*
X150600000Y-61863571D01*
X150885714Y-61863571D01*
X151028571Y-61792142D01*
X151100000Y-61720714D01*
X151171428Y-61577857D01*
X151171428Y-61149285D01*
X151100000Y-61006428D01*
X151028571Y-60935000D01*
X150885714Y-60863571D01*
X150600000Y-60863571D01*
X150457142Y-60935000D01*
X149814285Y-61863571D02*
X149814285Y-60363571D01*
X149171428Y-61863571D02*
X149171428Y-61077857D01*
X149242857Y-60935000D01*
X149385714Y-60863571D01*
X149600000Y-60863571D01*
X149742857Y-60935000D01*
X149814285Y-61006428D01*
X147885714Y-61792142D02*
X148028571Y-61863571D01*
X148314285Y-61863571D01*
X148457142Y-61792142D01*
X148528571Y-61649285D01*
X148528571Y-61077857D01*
X148457142Y-60935000D01*
X148314285Y-60863571D01*
X148028571Y-60863571D01*
X147885714Y-60935000D01*
X147814285Y-61077857D01*
X147814285Y-61220714D01*
X148528571Y-61363571D01*
X147171428Y-61863571D02*
X147171428Y-60863571D01*
X147171428Y-61149285D02*
X147100000Y-61006428D01*
X147028571Y-60935000D01*
X146885714Y-60863571D01*
X146742857Y-60863571D01*
X160171428Y-62778571D02*
X160028571Y-62778571D01*
X159885714Y-62850000D01*
X159814285Y-62921428D01*
X159742857Y-63064285D01*
X159671428Y-63350000D01*
X159671428Y-63707142D01*
X159742857Y-63992857D01*
X159814285Y-64135714D01*
X159885714Y-64207142D01*
X160028571Y-64278571D01*
X160171428Y-64278571D01*
X160314285Y-64207142D01*
X160385714Y-64135714D01*
X160457142Y-63992857D01*
X160528571Y-63707142D01*
X160528571Y-63350000D01*
X160457142Y-63064285D01*
X160385714Y-62921428D01*
X160314285Y-62850000D01*
X160171428Y-62778571D01*
X158314285Y-62778571D02*
X159028571Y-62778571D01*
X159100000Y-63492857D01*
X159028571Y-63421428D01*
X158885714Y-63350000D01*
X158528571Y-63350000D01*
X158385714Y-63421428D01*
X158314285Y-63492857D01*
X158242857Y-63635714D01*
X158242857Y-63992857D01*
X158314285Y-64135714D01*
X158385714Y-64207142D01*
X158528571Y-64278571D01*
X158885714Y-64278571D01*
X159028571Y-64207142D01*
X159100000Y-64135714D01*
X157314285Y-62778571D02*
X157171428Y-62778571D01*
X157028571Y-62850000D01*
X156957142Y-62921428D01*
X156885714Y-63064285D01*
X156814285Y-63350000D01*
X156814285Y-63707142D01*
X156885714Y-63992857D01*
X156957142Y-64135714D01*
X157028571Y-64207142D01*
X157171428Y-64278571D01*
X157314285Y-64278571D01*
X157457142Y-64207142D01*
X157528571Y-64135714D01*
X157600000Y-63992857D01*
X157671428Y-63707142D01*
X157671428Y-63350000D01*
X157600000Y-63064285D01*
X157528571Y-62921428D01*
X157457142Y-62850000D01*
X157314285Y-62778571D01*
X156242857Y-62921428D02*
X156171428Y-62850000D01*
X156028571Y-62778571D01*
X155671428Y-62778571D01*
X155528571Y-62850000D01*
X155457142Y-62921428D01*
X155385714Y-63064285D01*
X155385714Y-63207142D01*
X155457142Y-63421428D01*
X156314285Y-64278571D01*
X155385714Y-64278571D01*
X154814285Y-62921428D02*
X154742857Y-62850000D01*
X154600000Y-62778571D01*
X154242857Y-62778571D01*
X154100000Y-62850000D01*
X154028571Y-62921428D01*
X153957142Y-63064285D01*
X153957142Y-63207142D01*
X154028571Y-63421428D01*
X154885714Y-64278571D01*
X153957142Y-64278571D01*
X153028571Y-62778571D02*
X152885714Y-62778571D01*
X152742857Y-62850000D01*
X152671428Y-62921428D01*
X152600000Y-63064285D01*
X152528571Y-63350000D01*
X152528571Y-63707142D01*
X152600000Y-63992857D01*
X152671428Y-64135714D01*
X152742857Y-64207142D01*
X152885714Y-64278571D01*
X153028571Y-64278571D01*
X153171428Y-64207142D01*
X153242857Y-64135714D01*
X153314285Y-63992857D01*
X153385714Y-63707142D01*
X153385714Y-63350000D01*
X153314285Y-63064285D01*
X153242857Y-62921428D01*
X153171428Y-62850000D01*
X153028571Y-62778571D01*
X151957142Y-62921428D02*
X151885714Y-62850000D01*
X151742857Y-62778571D01*
X151385714Y-62778571D01*
X151242857Y-62850000D01*
X151171428Y-62921428D01*
X151100000Y-63064285D01*
X151100000Y-63207142D01*
X151171428Y-63421428D01*
X152028571Y-64278571D01*
X151100000Y-64278571D01*
X150600000Y-62778571D02*
X149671428Y-62778571D01*
X150171428Y-63350000D01*
X149957142Y-63350000D01*
X149814285Y-63421428D01*
X149742857Y-63492857D01*
X149671428Y-63635714D01*
X149671428Y-63992857D01*
X149742857Y-64135714D01*
X149814285Y-64207142D01*
X149957142Y-64278571D01*
X150385714Y-64278571D01*
X150528571Y-64207142D01*
X150600000Y-64135714D01*
X178492857Y-66693571D02*
X179207142Y-66693571D01*
X179207142Y-65193571D01*
X177992857Y-66693571D02*
X177992857Y-65693571D01*
X177992857Y-65193571D02*
X178064285Y-65265000D01*
X177992857Y-65336428D01*
X177921428Y-65265000D01*
X177992857Y-65193571D01*
X177992857Y-65336428D01*
X176635714Y-66622142D02*
X176778571Y-66693571D01*
X177064285Y-66693571D01*
X177207142Y-66622142D01*
X177278571Y-66550714D01*
X177350000Y-66407857D01*
X177350000Y-65979285D01*
X177278571Y-65836428D01*
X177207142Y-65765000D01*
X177064285Y-65693571D01*
X176778571Y-65693571D01*
X176635714Y-65765000D01*
X175421428Y-66622142D02*
X175564285Y-66693571D01*
X175850000Y-66693571D01*
X175992857Y-66622142D01*
X176064285Y-66479285D01*
X176064285Y-65907857D01*
X175992857Y-65765000D01*
X175850000Y-65693571D01*
X175564285Y-65693571D01*
X175421428Y-65765000D01*
X175350000Y-65907857D01*
X175350000Y-66050714D01*
X176064285Y-66193571D01*
X174707142Y-65693571D02*
X174707142Y-66693571D01*
X174707142Y-65836428D02*
X174635714Y-65765000D01*
X174492857Y-65693571D01*
X174278571Y-65693571D01*
X174135714Y-65765000D01*
X174064285Y-65907857D01*
X174064285Y-66693571D01*
X173421428Y-66622142D02*
X173278571Y-66693571D01*
X172992857Y-66693571D01*
X172850000Y-66622142D01*
X172778571Y-66479285D01*
X172778571Y-66407857D01*
X172850000Y-66265000D01*
X172992857Y-66193571D01*
X173207142Y-66193571D01*
X173350000Y-66122142D01*
X173421428Y-65979285D01*
X173421428Y-65907857D01*
X173350000Y-65765000D01*
X173207142Y-65693571D01*
X172992857Y-65693571D01*
X172850000Y-65765000D01*
X171564285Y-66622142D02*
X171707142Y-66693571D01*
X171992857Y-66693571D01*
X172135714Y-66622142D01*
X172207142Y-66479285D01*
X172207142Y-65907857D01*
X172135714Y-65765000D01*
X171992857Y-65693571D01*
X171707142Y-65693571D01*
X171564285Y-65765000D01*
X171492857Y-65907857D01*
X171492857Y-66050714D01*
X172207142Y-66193571D01*
X170850000Y-66550714D02*
X170778571Y-66622142D01*
X170850000Y-66693571D01*
X170921428Y-66622142D01*
X170850000Y-66550714D01*
X170850000Y-66693571D01*
X170850000Y-65765000D02*
X170778571Y-65836428D01*
X170850000Y-65907857D01*
X170921428Y-65836428D01*
X170850000Y-65765000D01*
X170850000Y-65907857D01*
X168135714Y-66550714D02*
X168207142Y-66622142D01*
X168421428Y-66693571D01*
X168564285Y-66693571D01*
X168778571Y-66622142D01*
X168921428Y-66479285D01*
X168992857Y-66336428D01*
X169064285Y-66050714D01*
X169064285Y-65836428D01*
X168992857Y-65550714D01*
X168921428Y-65407857D01*
X168778571Y-65265000D01*
X168564285Y-65193571D01*
X168421428Y-65193571D01*
X168207142Y-65265000D01*
X168135714Y-65336428D01*
X167492857Y-66693571D02*
X167492857Y-65693571D01*
X167492857Y-65979285D02*
X167421428Y-65836428D01*
X167350000Y-65765000D01*
X167207142Y-65693571D01*
X167064285Y-65693571D01*
X165992857Y-66622142D02*
X166135714Y-66693571D01*
X166421428Y-66693571D01*
X166564285Y-66622142D01*
X166635714Y-66479285D01*
X166635714Y-65907857D01*
X166564285Y-65765000D01*
X166421428Y-65693571D01*
X166135714Y-65693571D01*
X165992857Y-65765000D01*
X165921428Y-65907857D01*
X165921428Y-66050714D01*
X166635714Y-66193571D01*
X164635714Y-66693571D02*
X164635714Y-65907857D01*
X164707142Y-65765000D01*
X164850000Y-65693571D01*
X165135714Y-65693571D01*
X165278571Y-65765000D01*
X164635714Y-66622142D02*
X164778571Y-66693571D01*
X165135714Y-66693571D01*
X165278571Y-66622142D01*
X165350000Y-66479285D01*
X165350000Y-66336428D01*
X165278571Y-66193571D01*
X165135714Y-66122142D01*
X164778571Y-66122142D01*
X164635714Y-66050714D01*
X164135714Y-65693571D02*
X163564285Y-65693571D01*
X163921428Y-65193571D02*
X163921428Y-66479285D01*
X163850000Y-66622142D01*
X163707142Y-66693571D01*
X163564285Y-66693571D01*
X163064285Y-66693571D02*
X163064285Y-65693571D01*
X163064285Y-65193571D02*
X163135714Y-65265000D01*
X163064285Y-65336428D01*
X162992857Y-65265000D01*
X163064285Y-65193571D01*
X163064285Y-65336428D01*
X162492857Y-65693571D02*
X162135714Y-66693571D01*
X161778571Y-65693571D01*
X160635714Y-66622142D02*
X160778571Y-66693571D01*
X161064285Y-66693571D01*
X161207142Y-66622142D01*
X161278571Y-66479285D01*
X161278571Y-65907857D01*
X161207142Y-65765000D01*
X161064285Y-65693571D01*
X160778571Y-65693571D01*
X160635714Y-65765000D01*
X160564285Y-65907857D01*
X160564285Y-66050714D01*
X161278571Y-66193571D01*
X157921428Y-66550714D02*
X157992857Y-66622142D01*
X158207142Y-66693571D01*
X158350000Y-66693571D01*
X158564285Y-66622142D01*
X158707142Y-66479285D01*
X158778571Y-66336428D01*
X158850000Y-66050714D01*
X158850000Y-65836428D01*
X158778571Y-65550714D01*
X158707142Y-65407857D01*
X158564285Y-65265000D01*
X158350000Y-65193571D01*
X158207142Y-65193571D01*
X157992857Y-65265000D01*
X157921428Y-65336428D01*
X157064285Y-66693571D02*
X157207142Y-66622142D01*
X157278571Y-66550714D01*
X157350000Y-66407857D01*
X157350000Y-65979285D01*
X157278571Y-65836428D01*
X157207142Y-65765000D01*
X157064285Y-65693571D01*
X156850000Y-65693571D01*
X156707142Y-65765000D01*
X156635714Y-65836428D01*
X156564285Y-65979285D01*
X156564285Y-66407857D01*
X156635714Y-66550714D01*
X156707142Y-66622142D01*
X156850000Y-66693571D01*
X157064285Y-66693571D01*
X155921428Y-66693571D02*
X155921428Y-65693571D01*
X155921428Y-65836428D02*
X155850000Y-65765000D01*
X155707142Y-65693571D01*
X155492857Y-65693571D01*
X155350000Y-65765000D01*
X155278571Y-65907857D01*
X155278571Y-66693571D01*
X155278571Y-65907857D02*
X155207142Y-65765000D01*
X155064285Y-65693571D01*
X154850000Y-65693571D01*
X154707142Y-65765000D01*
X154635714Y-65907857D01*
X154635714Y-66693571D01*
X153921428Y-66693571D02*
X153921428Y-65693571D01*
X153921428Y-65836428D02*
X153850000Y-65765000D01*
X153707142Y-65693571D01*
X153492857Y-65693571D01*
X153350000Y-65765000D01*
X153278571Y-65907857D01*
X153278571Y-66693571D01*
X153278571Y-65907857D02*
X153207142Y-65765000D01*
X153064285Y-65693571D01*
X152850000Y-65693571D01*
X152707142Y-65765000D01*
X152635714Y-65907857D01*
X152635714Y-66693571D01*
X151707142Y-66693571D02*
X151850000Y-66622142D01*
X151921428Y-66550714D01*
X151992857Y-66407857D01*
X151992857Y-65979285D01*
X151921428Y-65836428D01*
X151850000Y-65765000D01*
X151707142Y-65693571D01*
X151492857Y-65693571D01*
X151350000Y-65765000D01*
X151278571Y-65836428D01*
X151207142Y-65979285D01*
X151207142Y-66407857D01*
X151278571Y-66550714D01*
X151350000Y-66622142D01*
X151492857Y-66693571D01*
X151707142Y-66693571D01*
X150564285Y-65693571D02*
X150564285Y-66693571D01*
X150564285Y-65836428D02*
X150492857Y-65765000D01*
X150350000Y-65693571D01*
X150135714Y-65693571D01*
X149992857Y-65765000D01*
X149921428Y-65907857D01*
X149921428Y-66693571D01*
X149278571Y-66622142D02*
X149135714Y-66693571D01*
X148850000Y-66693571D01*
X148707142Y-66622142D01*
X148635714Y-66479285D01*
X148635714Y-66407857D01*
X148707142Y-66265000D01*
X148850000Y-66193571D01*
X149064285Y-66193571D01*
X149207142Y-66122142D01*
X149278571Y-65979285D01*
X149278571Y-65907857D01*
X149207142Y-65765000D01*
X149064285Y-65693571D01*
X148850000Y-65693571D01*
X148707142Y-65765000D01*
X145992857Y-66550714D02*
X146064285Y-66622142D01*
X146278571Y-66693571D01*
X146421428Y-66693571D01*
X146635714Y-66622142D01*
X146778571Y-66479285D01*
X146850000Y-66336428D01*
X146921428Y-66050714D01*
X146921428Y-65836428D01*
X146850000Y-65550714D01*
X146778571Y-65407857D01*
X146635714Y-65265000D01*
X146421428Y-65193571D01*
X146278571Y-65193571D01*
X146064285Y-65265000D01*
X145992857Y-65336428D01*
X144492857Y-66550714D02*
X144564285Y-66622142D01*
X144778571Y-66693571D01*
X144921428Y-66693571D01*
X145135714Y-66622142D01*
X145278571Y-66479285D01*
X145350000Y-66336428D01*
X145421428Y-66050714D01*
X145421428Y-65836428D01*
X145350000Y-65550714D01*
X145278571Y-65407857D01*
X145135714Y-65265000D01*
X144921428Y-65193571D01*
X144778571Y-65193571D01*
X144564285Y-65265000D01*
X144492857Y-65336428D01*
X142207142Y-65907857D02*
X141992857Y-65979285D01*
X141921428Y-66050714D01*
X141850000Y-66193571D01*
X141850000Y-66407857D01*
X141921428Y-66550714D01*
X141992857Y-66622142D01*
X142135714Y-66693571D01*
X142707142Y-66693571D01*
X142707142Y-65193571D01*
X142207142Y-65193571D01*
X142064285Y-65265000D01*
X141992857Y-65336428D01*
X141921428Y-65479285D01*
X141921428Y-65622142D01*
X141992857Y-65765000D01*
X142064285Y-65836428D01*
X142207142Y-65907857D01*
X142707142Y-65907857D01*
X140921428Y-65979285D02*
X140921428Y-66693571D01*
X141421428Y-65193571D02*
X140921428Y-65979285D01*
X140421428Y-65193571D01*
X139921428Y-66122142D02*
X138778571Y-66122142D01*
X138064285Y-66693571D02*
X138064285Y-65193571D01*
X137207142Y-66693571D01*
X137207142Y-65193571D01*
X135635714Y-66550714D02*
X135707142Y-66622142D01*
X135921428Y-66693571D01*
X136064285Y-66693571D01*
X136278571Y-66622142D01*
X136421428Y-66479285D01*
X136492857Y-66336428D01*
X136564285Y-66050714D01*
X136564285Y-65836428D01*
X136492857Y-65550714D01*
X136421428Y-65407857D01*
X136278571Y-65265000D01*
X136064285Y-65193571D01*
X135921428Y-65193571D01*
X135707142Y-65265000D01*
X135635714Y-65336428D01*
X133207142Y-65693571D02*
X133207142Y-66693571D01*
X133564285Y-65122142D02*
X133921428Y-66193571D01*
X132992857Y-66193571D01*
X132421428Y-66550714D02*
X132350000Y-66622142D01*
X132421428Y-66693571D01*
X132492857Y-66622142D01*
X132421428Y-66550714D01*
X132421428Y-66693571D01*
X131421428Y-65193571D02*
X131278571Y-65193571D01*
X131135714Y-65265000D01*
X131064285Y-65336428D01*
X130992857Y-65479285D01*
X130921428Y-65765000D01*
X130921428Y-66122142D01*
X130992857Y-66407857D01*
X131064285Y-66550714D01*
X131135714Y-66622142D01*
X131278571Y-66693571D01*
X131421428Y-66693571D01*
X131564285Y-66622142D01*
X131635714Y-66550714D01*
X131707142Y-66407857D01*
X131778571Y-66122142D01*
X131778571Y-65765000D01*
X131707142Y-65479285D01*
X131635714Y-65336428D01*
X131564285Y-65265000D01*
X131421428Y-65193571D01*
X178992857Y-69037142D02*
X179135714Y-69108571D01*
X179421428Y-69108571D01*
X179564285Y-69037142D01*
X179635714Y-68965714D01*
X179707142Y-68822857D01*
X179707142Y-68394285D01*
X179635714Y-68251428D01*
X179564285Y-68180000D01*
X179421428Y-68108571D01*
X179135714Y-68108571D01*
X178992857Y-68180000D01*
X178350000Y-69108571D02*
X178350000Y-68108571D01*
X178350000Y-68394285D02*
X178278571Y-68251428D01*
X178207142Y-68180000D01*
X178064285Y-68108571D01*
X177921428Y-68108571D01*
X176850000Y-69037142D02*
X176992857Y-69108571D01*
X177278571Y-69108571D01*
X177421428Y-69037142D01*
X177492857Y-68894285D01*
X177492857Y-68322857D01*
X177421428Y-68180000D01*
X177278571Y-68108571D01*
X176992857Y-68108571D01*
X176850000Y-68180000D01*
X176778571Y-68322857D01*
X176778571Y-68465714D01*
X177492857Y-68608571D01*
X175492857Y-69108571D02*
X175492857Y-68322857D01*
X175564285Y-68180000D01*
X175707142Y-68108571D01*
X175992857Y-68108571D01*
X176135714Y-68180000D01*
X175492857Y-69037142D02*
X175635714Y-69108571D01*
X175992857Y-69108571D01*
X176135714Y-69037142D01*
X176207142Y-68894285D01*
X176207142Y-68751428D01*
X176135714Y-68608571D01*
X175992857Y-68537142D01*
X175635714Y-68537142D01*
X175492857Y-68465714D01*
X174992857Y-68108571D02*
X174421428Y-68108571D01*
X174778571Y-67608571D02*
X174778571Y-68894285D01*
X174707142Y-69037142D01*
X174564285Y-69108571D01*
X174421428Y-69108571D01*
X173921428Y-69108571D02*
X173921428Y-68108571D01*
X173921428Y-67608571D02*
X173992857Y-67680000D01*
X173921428Y-67751428D01*
X173850000Y-67680000D01*
X173921428Y-67608571D01*
X173921428Y-67751428D01*
X173350000Y-68108571D02*
X172992857Y-69108571D01*
X172635714Y-68108571D01*
X171492857Y-69037142D02*
X171635714Y-69108571D01*
X171921428Y-69108571D01*
X172064285Y-69037142D01*
X172135714Y-68894285D01*
X172135714Y-68322857D01*
X172064285Y-68180000D01*
X171921428Y-68108571D01*
X171635714Y-68108571D01*
X171492857Y-68180000D01*
X171421428Y-68322857D01*
X171421428Y-68465714D01*
X172135714Y-68608571D01*
X170135714Y-69037142D02*
X170278571Y-69108571D01*
X170564285Y-69108571D01*
X170707142Y-69037142D01*
X170778571Y-68965714D01*
X170850000Y-68822857D01*
X170850000Y-68394285D01*
X170778571Y-68251428D01*
X170707142Y-68180000D01*
X170564285Y-68108571D01*
X170278571Y-68108571D01*
X170135714Y-68180000D01*
X169278571Y-69108571D02*
X169421428Y-69037142D01*
X169492857Y-68965714D01*
X169564285Y-68822857D01*
X169564285Y-68394285D01*
X169492857Y-68251428D01*
X169421428Y-68180000D01*
X169278571Y-68108571D01*
X169064285Y-68108571D01*
X168921428Y-68180000D01*
X168850000Y-68251428D01*
X168778571Y-68394285D01*
X168778571Y-68822857D01*
X168850000Y-68965714D01*
X168921428Y-69037142D01*
X169064285Y-69108571D01*
X169278571Y-69108571D01*
X168135714Y-69108571D02*
X168135714Y-68108571D01*
X168135714Y-68251428D02*
X168064285Y-68180000D01*
X167921428Y-68108571D01*
X167707142Y-68108571D01*
X167564285Y-68180000D01*
X167492857Y-68322857D01*
X167492857Y-69108571D01*
X167492857Y-68322857D02*
X167421428Y-68180000D01*
X167278571Y-68108571D01*
X167064285Y-68108571D01*
X166921428Y-68180000D01*
X166850000Y-68322857D01*
X166850000Y-69108571D01*
X166135714Y-69108571D02*
X166135714Y-68108571D01*
X166135714Y-68251428D02*
X166064285Y-68180000D01*
X165921428Y-68108571D01*
X165707142Y-68108571D01*
X165564285Y-68180000D01*
X165492857Y-68322857D01*
X165492857Y-69108571D01*
X165492857Y-68322857D02*
X165421428Y-68180000D01*
X165278571Y-68108571D01*
X165064285Y-68108571D01*
X164921428Y-68180000D01*
X164850000Y-68322857D01*
X164850000Y-69108571D01*
X163921428Y-69108571D02*
X164064285Y-69037142D01*
X164135714Y-68965714D01*
X164207142Y-68822857D01*
X164207142Y-68394285D01*
X164135714Y-68251428D01*
X164064285Y-68180000D01*
X163921428Y-68108571D01*
X163707142Y-68108571D01*
X163564285Y-68180000D01*
X163492857Y-68251428D01*
X163421428Y-68394285D01*
X163421428Y-68822857D01*
X163492857Y-68965714D01*
X163564285Y-69037142D01*
X163707142Y-69108571D01*
X163921428Y-69108571D01*
X162778571Y-68108571D02*
X162778571Y-69108571D01*
X162778571Y-68251428D02*
X162707142Y-68180000D01*
X162564285Y-68108571D01*
X162350000Y-68108571D01*
X162207142Y-68180000D01*
X162135714Y-68322857D01*
X162135714Y-69108571D01*
X161492857Y-69037142D02*
X161350000Y-69108571D01*
X161064285Y-69108571D01*
X160921428Y-69037142D01*
X160850000Y-68894285D01*
X160850000Y-68822857D01*
X160921428Y-68680000D01*
X161064285Y-68608571D01*
X161278571Y-68608571D01*
X161421428Y-68537142D01*
X161492857Y-68394285D01*
X161492857Y-68322857D01*
X161421428Y-68180000D01*
X161278571Y-68108571D01*
X161064285Y-68108571D01*
X160921428Y-68180000D01*
X160207142Y-68965714D02*
X160135714Y-69037142D01*
X160207142Y-69108571D01*
X160278571Y-69037142D01*
X160207142Y-68965714D01*
X160207142Y-69108571D01*
X159278571Y-69108571D02*
X159421428Y-69037142D01*
X159492857Y-68965714D01*
X159564285Y-68822857D01*
X159564285Y-68394285D01*
X159492857Y-68251428D01*
X159421428Y-68180000D01*
X159278571Y-68108571D01*
X159064285Y-68108571D01*
X158921428Y-68180000D01*
X158850000Y-68251428D01*
X158778571Y-68394285D01*
X158778571Y-68822857D01*
X158850000Y-68965714D01*
X158921428Y-69037142D01*
X159064285Y-69108571D01*
X159278571Y-69108571D01*
X158135714Y-69108571D02*
X158135714Y-68108571D01*
X158135714Y-68394285D02*
X158064285Y-68251428D01*
X157992857Y-68180000D01*
X157850000Y-68108571D01*
X157707142Y-68108571D01*
X156564285Y-68108571D02*
X156564285Y-69322857D01*
X156635714Y-69465714D01*
X156707142Y-69537142D01*
X156850000Y-69608571D01*
X157064285Y-69608571D01*
X157207142Y-69537142D01*
X156564285Y-69037142D02*
X156707142Y-69108571D01*
X156992857Y-69108571D01*
X157135714Y-69037142D01*
X157207142Y-68965714D01*
X157278571Y-68822857D01*
X157278571Y-68394285D01*
X157207142Y-68251428D01*
X157135714Y-68180000D01*
X156992857Y-68108571D01*
X156707142Y-68108571D01*
X156564285Y-68180000D01*
X154778571Y-67537142D02*
X156064285Y-69465714D01*
X154064285Y-69108571D02*
X154207142Y-69037142D01*
X154278571Y-68894285D01*
X154278571Y-67608571D01*
X153492857Y-69108571D02*
X153492857Y-68108571D01*
X153492857Y-67608571D02*
X153564285Y-67680000D01*
X153492857Y-67751428D01*
X153421428Y-67680000D01*
X153492857Y-67608571D01*
X153492857Y-67751428D01*
X152135714Y-69037142D02*
X152278571Y-69108571D01*
X152564285Y-69108571D01*
X152707142Y-69037142D01*
X152778571Y-68965714D01*
X152850000Y-68822857D01*
X152850000Y-68394285D01*
X152778571Y-68251428D01*
X152707142Y-68180000D01*
X152564285Y-68108571D01*
X152278571Y-68108571D01*
X152135714Y-68180000D01*
X150921428Y-69037142D02*
X151064285Y-69108571D01*
X151350000Y-69108571D01*
X151492857Y-69037142D01*
X151564285Y-68894285D01*
X151564285Y-68322857D01*
X151492857Y-68180000D01*
X151350000Y-68108571D01*
X151064285Y-68108571D01*
X150921428Y-68180000D01*
X150850000Y-68322857D01*
X150850000Y-68465714D01*
X151564285Y-68608571D01*
X150207142Y-68108571D02*
X150207142Y-69108571D01*
X150207142Y-68251428D02*
X150135714Y-68180000D01*
X149992857Y-68108571D01*
X149778571Y-68108571D01*
X149635714Y-68180000D01*
X149564285Y-68322857D01*
X149564285Y-69108571D01*
X148921428Y-69037142D02*
X148778571Y-69108571D01*
X148492857Y-69108571D01*
X148350000Y-69037142D01*
X148278571Y-68894285D01*
X148278571Y-68822857D01*
X148350000Y-68680000D01*
X148492857Y-68608571D01*
X148707142Y-68608571D01*
X148850000Y-68537142D01*
X148921428Y-68394285D01*
X148921428Y-68322857D01*
X148850000Y-68180000D01*
X148707142Y-68108571D01*
X148492857Y-68108571D01*
X148350000Y-68180000D01*
X147064285Y-69037142D02*
X147207142Y-69108571D01*
X147492857Y-69108571D01*
X147635714Y-69037142D01*
X147707142Y-68894285D01*
X147707142Y-68322857D01*
X147635714Y-68180000D01*
X147492857Y-68108571D01*
X147207142Y-68108571D01*
X147064285Y-68180000D01*
X146992857Y-68322857D01*
X146992857Y-68465714D01*
X147707142Y-68608571D01*
X146421428Y-69037142D02*
X146278571Y-69108571D01*
X145992857Y-69108571D01*
X145850000Y-69037142D01*
X145778571Y-68894285D01*
X145778571Y-68822857D01*
X145850000Y-68680000D01*
X145992857Y-68608571D01*
X146207142Y-68608571D01*
X146350000Y-68537142D01*
X146421428Y-68394285D01*
X146421428Y-68322857D01*
X146350000Y-68180000D01*
X146207142Y-68108571D01*
X145992857Y-68108571D01*
X145850000Y-68180000D01*
X144064285Y-67537142D02*
X145350000Y-69465714D01*
X143564285Y-69108571D02*
X143564285Y-67608571D01*
X143564285Y-68180000D02*
X143421428Y-68108571D01*
X143135714Y-68108571D01*
X142992857Y-68180000D01*
X142921428Y-68251428D01*
X142850000Y-68394285D01*
X142850000Y-68822857D01*
X142921428Y-68965714D01*
X142992857Y-69037142D01*
X143135714Y-69108571D01*
X143421428Y-69108571D01*
X143564285Y-69037142D01*
X142350000Y-68108571D02*
X141992857Y-69108571D01*
X141635714Y-68108571D02*
X141992857Y-69108571D01*
X142135714Y-69465714D01*
X142207142Y-69537142D01*
X142350000Y-69608571D01*
X141064285Y-68537142D02*
X139921428Y-68537142D01*
X139207142Y-68108571D02*
X139207142Y-69108571D01*
X139207142Y-68251428D02*
X139135714Y-68180000D01*
X138992857Y-68108571D01*
X138778571Y-68108571D01*
X138635714Y-68180000D01*
X138564285Y-68322857D01*
X138564285Y-69108571D01*
X137207142Y-69037142D02*
X137350000Y-69108571D01*
X137635714Y-69108571D01*
X137778571Y-69037142D01*
X137850000Y-68965714D01*
X137921428Y-68822857D01*
X137921428Y-68394285D01*
X137850000Y-68251428D01*
X137778571Y-68180000D01*
X137635714Y-68108571D01*
X137350000Y-68108571D01*
X137207142Y-68180000D01*
X135492857Y-67537142D02*
X136778571Y-69465714D01*
X134350000Y-68108571D02*
X134350000Y-69108571D01*
X134707142Y-67537142D02*
X135064285Y-68608571D01*
X134135714Y-68608571D01*
X133564285Y-68965714D02*
X133492857Y-69037142D01*
X133564285Y-69108571D01*
X133635714Y-69037142D01*
X133564285Y-68965714D01*
X133564285Y-69108571D01*
X132564285Y-67608571D02*
X132421428Y-67608571D01*
X132278571Y-67680000D01*
X132207142Y-67751428D01*
X132135714Y-67894285D01*
X132064285Y-68180000D01*
X132064285Y-68537142D01*
X132135714Y-68822857D01*
X132207142Y-68965714D01*
X132278571Y-69037142D01*
X132421428Y-69108571D01*
X132564285Y-69108571D01*
X132707142Y-69037142D01*
X132778571Y-68965714D01*
X132850000Y-68822857D01*
X132921428Y-68537142D01*
X132921428Y-68180000D01*
X132850000Y-67894285D01*
X132778571Y-67751428D01*
X132707142Y-67680000D01*
X132564285Y-67608571D01*
X130350000Y-67537142D02*
X131635714Y-69465714D01*
D11*
X111366666Y-88100000D02*
X112766666Y-88100000D01*
X112766666Y-87566666D01*
X112700000Y-87433333D01*
X112633333Y-87366666D01*
X112500000Y-87300000D01*
X112300000Y-87300000D01*
X112166666Y-87366666D01*
X112100000Y-87433333D01*
X112033333Y-87566666D01*
X112033333Y-88100000D01*
X111366666Y-85900000D02*
X112033333Y-86366666D01*
X111366666Y-86700000D02*
X112766666Y-86700000D01*
X112766666Y-86166666D01*
X112700000Y-86033333D01*
X112633333Y-85966666D01*
X112500000Y-85900000D01*
X112300000Y-85900000D01*
X112166666Y-85966666D01*
X112100000Y-86033333D01*
X112033333Y-86166666D01*
X112033333Y-86700000D01*
X111366666Y-85300000D02*
X112766666Y-85300000D01*
X111366666Y-84633333D02*
X112766666Y-84633333D01*
X111766666Y-84166666D01*
X112766666Y-83700000D01*
X111366666Y-83700000D01*
X111766666Y-83100000D02*
X111766666Y-82433333D01*
X111366666Y-83233333D02*
X112766666Y-82766666D01*
X111366666Y-82300000D01*
X111366666Y-81033333D02*
X112033333Y-81500000D01*
X111366666Y-81833333D02*
X112766666Y-81833333D01*
X112766666Y-81300000D01*
X112700000Y-81166666D01*
X112633333Y-81100000D01*
X112500000Y-81033333D01*
X112300000Y-81033333D01*
X112166666Y-81100000D01*
X112100000Y-81166666D01*
X112033333Y-81300000D01*
X112033333Y-81833333D01*
X112033333Y-80166666D02*
X111366666Y-80166666D01*
X112766666Y-80633333D02*
X112033333Y-80166666D01*
X112766666Y-79700000D01*
X156781428Y-125285714D02*
X156781428Y-126142857D01*
X156781428Y-125714285D02*
X158281428Y-125714285D01*
X158067142Y-125857142D01*
X157924285Y-126000000D01*
X157852857Y-126142857D01*
X158138571Y-124714285D02*
X158210000Y-124642857D01*
X158281428Y-124500000D01*
X158281428Y-124142857D01*
X158210000Y-124000000D01*
X158138571Y-123928571D01*
X157995714Y-123857142D01*
X157852857Y-123857142D01*
X157638571Y-123928571D01*
X156781428Y-124785714D01*
X156781428Y-123857142D01*
X108893333Y-123800000D02*
X108826666Y-123600000D01*
X108826666Y-123266666D01*
X108893333Y-123133333D01*
X108960000Y-123066666D01*
X109093333Y-123000000D01*
X109226666Y-123000000D01*
X109360000Y-123066666D01*
X109426666Y-123133333D01*
X109493333Y-123266666D01*
X109560000Y-123533333D01*
X109626666Y-123666666D01*
X109693333Y-123733333D01*
X109826666Y-123800000D01*
X109960000Y-123800000D01*
X110093333Y-123733333D01*
X110160000Y-123666666D01*
X110226666Y-123533333D01*
X110226666Y-123200000D01*
X110160000Y-123000000D01*
X109560000Y-122400000D02*
X109560000Y-121933333D01*
X108826666Y-121733333D02*
X108826666Y-122400000D01*
X110226666Y-122400000D01*
X110226666Y-121733333D01*
X108960000Y-120333333D02*
X108893333Y-120400000D01*
X108826666Y-120600000D01*
X108826666Y-120733333D01*
X108893333Y-120933333D01*
X109026666Y-121066666D01*
X109160000Y-121133333D01*
X109426666Y-121200000D01*
X109626666Y-121200000D01*
X109893333Y-121133333D01*
X110026666Y-121066666D01*
X110160000Y-120933333D01*
X110226666Y-120733333D01*
X110226666Y-120600000D01*
X110160000Y-120400000D01*
X110093333Y-120333333D01*
X110226666Y-119466666D02*
X110226666Y-119200000D01*
X110160000Y-119066666D01*
X110026666Y-118933333D01*
X109760000Y-118866666D01*
X109293333Y-118866666D01*
X109026666Y-118933333D01*
X108893333Y-119066666D01*
X108826666Y-119200000D01*
X108826666Y-119466666D01*
X108893333Y-119600000D01*
X109026666Y-119733333D01*
X109293333Y-119800000D01*
X109760000Y-119800000D01*
X110026666Y-119733333D01*
X110160000Y-119600000D01*
X110226666Y-119466666D01*
X108826666Y-118266666D02*
X110226666Y-118266666D01*
X108826666Y-117466666D01*
X110226666Y-117466666D01*
X108826666Y-116800000D02*
X110226666Y-116800000D01*
X110226666Y-116466666D01*
X110160000Y-116266666D01*
X110026666Y-116133333D01*
X109893333Y-116066666D01*
X109626666Y-116000000D01*
X109426666Y-116000000D01*
X109160000Y-116066666D01*
X109026666Y-116133333D01*
X108893333Y-116266666D01*
X108826666Y-116466666D01*
X108826666Y-116800000D01*
X109226666Y-115466666D02*
X109226666Y-114800000D01*
X108826666Y-115600000D02*
X110226666Y-115133333D01*
X108826666Y-114666666D01*
X108826666Y-113400000D02*
X109493333Y-113866666D01*
X108826666Y-114200000D02*
X110226666Y-114200000D01*
X110226666Y-113666666D01*
X110160000Y-113533333D01*
X110093333Y-113466666D01*
X109960000Y-113400000D01*
X109760000Y-113400000D01*
X109626666Y-113466666D01*
X109560000Y-113533333D01*
X109493333Y-113666666D01*
X109493333Y-114200000D01*
X109493333Y-112533333D02*
X108826666Y-112533333D01*
X110226666Y-113000000D02*
X109493333Y-112533333D01*
X110226666Y-112066666D01*
X115001428Y-76714285D02*
X114001428Y-76714285D01*
X115572857Y-77071428D02*
X114501428Y-77428571D01*
X114501428Y-76500000D01*
X162261428Y-125285714D02*
X162261428Y-126142857D01*
X162261428Y-125714285D02*
X163761428Y-125714285D01*
X163547142Y-125857142D01*
X163404285Y-126000000D01*
X163332857Y-126142857D01*
X162261428Y-123857142D02*
X162261428Y-124714285D01*
X162261428Y-124285714D02*
X163761428Y-124285714D01*
X163547142Y-124428571D01*
X163404285Y-124571428D01*
X163332857Y-124714285D01*
X159932857Y-123214285D02*
X159861428Y-123000000D01*
X159861428Y-122642857D01*
X159932857Y-122500000D01*
X160004285Y-122428571D01*
X160147142Y-122357142D01*
X160290000Y-122357142D01*
X160432857Y-122428571D01*
X160504285Y-122500000D01*
X160575714Y-122642857D01*
X160647142Y-122928571D01*
X160718571Y-123071428D01*
X160790000Y-123142857D01*
X160932857Y-123214285D01*
X161075714Y-123214285D01*
X161218571Y-123142857D01*
X161290000Y-123071428D01*
X161361428Y-122928571D01*
X161361428Y-122571428D01*
X161290000Y-122357142D01*
X160647142Y-121714285D02*
X160647142Y-121214285D01*
X159861428Y-121000000D02*
X159861428Y-121714285D01*
X161361428Y-121714285D01*
X161361428Y-121000000D01*
X160004285Y-119500000D02*
X159932857Y-119571428D01*
X159861428Y-119785714D01*
X159861428Y-119928571D01*
X159932857Y-120142857D01*
X160075714Y-120285714D01*
X160218571Y-120357142D01*
X160504285Y-120428571D01*
X160718571Y-120428571D01*
X161004285Y-120357142D01*
X161147142Y-120285714D01*
X161290000Y-120142857D01*
X161361428Y-119928571D01*
X161361428Y-119785714D01*
X161290000Y-119571428D01*
X161218571Y-119500000D01*
X161361428Y-118571428D02*
X161361428Y-118285714D01*
X161290000Y-118142857D01*
X161147142Y-118000000D01*
X160861428Y-117928571D01*
X160361428Y-117928571D01*
X160075714Y-118000000D01*
X159932857Y-118142857D01*
X159861428Y-118285714D01*
X159861428Y-118571428D01*
X159932857Y-118714285D01*
X160075714Y-118857142D01*
X160361428Y-118928571D01*
X160861428Y-118928571D01*
X161147142Y-118857142D01*
X161290000Y-118714285D01*
X161361428Y-118571428D01*
X159861428Y-117285714D02*
X161361428Y-117285714D01*
X159861428Y-116428571D01*
X161361428Y-116428571D01*
X159861428Y-115714285D02*
X161361428Y-115714285D01*
X161361428Y-115357142D01*
X161290000Y-115142857D01*
X161147142Y-115000000D01*
X161004285Y-114928571D01*
X160718571Y-114857142D01*
X160504285Y-114857142D01*
X160218571Y-114928571D01*
X160075714Y-115000000D01*
X159932857Y-115142857D01*
X159861428Y-115357142D01*
X159861428Y-115714285D01*
X160290000Y-114285714D02*
X160290000Y-113571428D01*
X159861428Y-114428571D02*
X161361428Y-113928571D01*
X159861428Y-113428571D01*
X159861428Y-112071428D02*
X160575714Y-112571428D01*
X159861428Y-112928571D02*
X161361428Y-112928571D01*
X161361428Y-112357142D01*
X161290000Y-112214285D01*
X161218571Y-112142857D01*
X161075714Y-112071428D01*
X160861428Y-112071428D01*
X160718571Y-112142857D01*
X160647142Y-112214285D01*
X160575714Y-112357142D01*
X160575714Y-112928571D01*
X160575714Y-111142857D02*
X159861428Y-111142857D01*
X161361428Y-111642857D02*
X160575714Y-111142857D01*
X161361428Y-110642857D01*
X157366666Y-88100000D02*
X158766666Y-88100000D01*
X158766666Y-87566666D01*
X158700000Y-87433333D01*
X158633333Y-87366666D01*
X158500000Y-87300000D01*
X158300000Y-87300000D01*
X158166666Y-87366666D01*
X158100000Y-87433333D01*
X158033333Y-87566666D01*
X158033333Y-88100000D01*
X157366666Y-85900000D02*
X158033333Y-86366666D01*
X157366666Y-86700000D02*
X158766666Y-86700000D01*
X158766666Y-86166666D01*
X158700000Y-86033333D01*
X158633333Y-85966666D01*
X158500000Y-85900000D01*
X158300000Y-85900000D01*
X158166666Y-85966666D01*
X158100000Y-86033333D01*
X158033333Y-86166666D01*
X158033333Y-86700000D01*
X157366666Y-85300000D02*
X158766666Y-85300000D01*
X157366666Y-84633333D02*
X158766666Y-84633333D01*
X157766666Y-84166666D01*
X158766666Y-83700000D01*
X157366666Y-83700000D01*
X157766666Y-83100000D02*
X157766666Y-82433333D01*
X157366666Y-83233333D02*
X158766666Y-82766666D01*
X157366666Y-82300000D01*
X157366666Y-81033333D02*
X158033333Y-81500000D01*
X157366666Y-81833333D02*
X158766666Y-81833333D01*
X158766666Y-81300000D01*
X158700000Y-81166666D01*
X158633333Y-81100000D01*
X158500000Y-81033333D01*
X158300000Y-81033333D01*
X158166666Y-81100000D01*
X158100000Y-81166666D01*
X158033333Y-81300000D01*
X158033333Y-81833333D01*
X158033333Y-80166666D02*
X157366666Y-80166666D01*
X158766666Y-80633333D02*
X158033333Y-80166666D01*
X158766666Y-79700000D01*
X111861428Y-125285714D02*
X111861428Y-126142857D01*
X111861428Y-125714285D02*
X113361428Y-125714285D01*
X113147142Y-125857142D01*
X113004285Y-126000000D01*
X112932857Y-126142857D01*
X113361428Y-124785714D02*
X113361428Y-123857142D01*
X112790000Y-124357142D01*
X112790000Y-124142857D01*
X112718571Y-124000000D01*
X112647142Y-123928571D01*
X112504285Y-123857142D01*
X112147142Y-123857142D01*
X112004285Y-123928571D01*
X111932857Y-124000000D01*
X111861428Y-124142857D01*
X111861428Y-124571428D01*
X111932857Y-124714285D01*
X112004285Y-124785714D01*
X156086666Y-76666666D02*
X156086666Y-77333333D01*
X155420000Y-77400000D01*
X155486666Y-77333333D01*
X155553333Y-77200000D01*
X155553333Y-76866666D01*
X155486666Y-76733333D01*
X155420000Y-76666666D01*
X155286666Y-76600000D01*
X154953333Y-76600000D01*
X154820000Y-76666666D01*
X154753333Y-76733333D01*
X154686666Y-76866666D01*
X154686666Y-77200000D01*
X154753333Y-77333333D01*
X154820000Y-77400000D01*
X106381428Y-125285714D02*
X106381428Y-126142857D01*
X106381428Y-125714285D02*
X107881428Y-125714285D01*
X107667142Y-125857142D01*
X107524285Y-126000000D01*
X107452857Y-126142857D01*
X107381428Y-124000000D02*
X106381428Y-124000000D01*
X107952857Y-124357142D02*
X106881428Y-124714285D01*
X106881428Y-123785714D01*
X161221428Y-76714285D02*
X161221428Y-77000000D01*
X161150000Y-77142857D01*
X161078571Y-77214285D01*
X160864285Y-77357142D01*
X160578571Y-77428571D01*
X160007142Y-77428571D01*
X159864285Y-77357142D01*
X159792857Y-77285714D01*
X159721428Y-77142857D01*
X159721428Y-76857142D01*
X159792857Y-76714285D01*
X159864285Y-76642857D01*
X160007142Y-76571428D01*
X160364285Y-76571428D01*
X160507142Y-76642857D01*
X160578571Y-76714285D01*
X160650000Y-76857142D01*
X160650000Y-77142857D01*
X160578571Y-77285714D01*
X160507142Y-77357142D01*
X160364285Y-77428571D01*
X110421428Y-77500000D02*
X110421428Y-76571428D01*
X109850000Y-77071428D01*
X109850000Y-76857142D01*
X109778571Y-76714285D01*
X109707142Y-76642857D01*
X109564285Y-76571428D01*
X109207142Y-76571428D01*
X109064285Y-76642857D01*
X108992857Y-76714285D01*
X108921428Y-76857142D01*
X108921428Y-77285714D01*
X108992857Y-77428571D01*
X109064285Y-77500000D01*
%LPC*%
D12*
X184000000Y-60000000D03*
D13*
X178920000Y-60000000D03*
X173840000Y-60000000D03*
D14*
X174045000Y-105975000D03*
D15*
X168965000Y-105975000D03*
X168965000Y-111055000D03*
X174045000Y-111055000D03*
D16*
X175000000Y-126000000D03*
D14*
X117500000Y-143000000D03*
D15*
X117500000Y-137920000D03*
X112420000Y-137920000D03*
X112420000Y-143000000D03*
D14*
X155000000Y-141967677D03*
D17*
X155000000Y-136967677D03*
D18*
X184000000Y-77000000D03*
X169000000Y-77000000D03*
D19*
X195000000Y-95000000D03*
D14*
X181000000Y-126000000D03*
D17*
X186000000Y-126000000D03*
D14*
X181000000Y-113500000D03*
D17*
X186000000Y-113500000D03*
D19*
X195000000Y-145000000D03*
D20*
X135000000Y-101000000D03*
D21*
X109600000Y-73060000D03*
X114680000Y-73060000D03*
X155320000Y-73060000D03*
X160400000Y-73060000D03*
X162940000Y-128940000D03*
X157460000Y-128940000D03*
X112540000Y-128940000D03*
X107060000Y-128940000D03*
D19*
X109500000Y-105000000D03*
X109500000Y-95000000D03*
D16*
X193000000Y-120000000D03*
D22*
X105000000Y-55000000D03*
D23*
X174000000Y-118000000D03*
D19*
X195000000Y-105000000D03*
D12*
X167380000Y-141000000D03*
D13*
X172460000Y-141000000D03*
X177540000Y-141000000D03*
X182620000Y-141000000D03*
D18*
X115000000Y-60000000D03*
X130000000Y-60000000D03*
D19*
X105000000Y-145000000D03*
D23*
X169500000Y-96000000D03*
D14*
X131000000Y-141967677D03*
D17*
X131000000Y-136967677D03*
D22*
X195000000Y-55000000D03*
D14*
X143000000Y-141967677D03*
D17*
X143000000Y-136967677D03*
D14*
X181000000Y-101000000D03*
D17*
X186000000Y-101000000D03*
M02*
