G04 #@! TF.GenerationSoftware,KiCad,Pcbnew,(6.0.10-0)*
G04 #@! TF.CreationDate,2023-01-24T15:26:33+00:00*
G04 #@! TF.ProjectId,MaxDC,4d617844-432e-46b6-9963-61645f706362,rev?*
G04 #@! TF.SameCoordinates,Original*
G04 #@! TF.FileFunction,Soldermask,Bot*
G04 #@! TF.FilePolarity,Negative*
%FSLAX46Y46*%
G04 Gerber Fmt 4.6, Leading zero omitted, Abs format (unit mm)*
G04 Created by KiCad (PCBNEW (6.0.10-0)) date 2023-01-24 15:26:33*
%MOMM*%
%LPD*%
G01*
G04 APERTURE LIST*
%ADD10C,2.400000*%
%ADD11R,2.600000X2.600000*%
%ADD12C,2.600000*%
%ADD13R,2.000000X2.000000*%
%ADD14O,2.000000X2.000000*%
%ADD15R,2.500000X2.500000*%
%ADD16C,2.000000*%
%ADD17C,3.200000*%
%ADD18C,5.000000*%
%ADD19C,3.000000*%
%ADD20C,6.400000*%
%ADD21R,3.000000X3.000000*%
G04 APERTURE END LIST*
D10*
X169000000Y-73000000D03*
X184000000Y-73000000D03*
X115000000Y-60000000D03*
X130000000Y-60000000D03*
D11*
X184000000Y-56000000D03*
D12*
X178920000Y-56000000D03*
X173840000Y-56000000D03*
D13*
X169545000Y-109975000D03*
D14*
X164465000Y-109975000D03*
X164465000Y-115055000D03*
X169545000Y-115055000D03*
D15*
X170500000Y-130000000D03*
D13*
X117500000Y-143000000D03*
D14*
X117500000Y-137920000D03*
X112420000Y-137920000D03*
X112420000Y-143000000D03*
D13*
X155000000Y-143000000D03*
D16*
X155000000Y-138000000D03*
D17*
X195000000Y-95000000D03*
D13*
X178000000Y-130000000D03*
D16*
X183000000Y-130000000D03*
D13*
X178000000Y-117500000D03*
D16*
X183000000Y-117500000D03*
D17*
X195000000Y-145000000D03*
D18*
X130500000Y-101000000D03*
D19*
X105100000Y-73060000D03*
X110180000Y-73060000D03*
X150820000Y-73060000D03*
X155900000Y-73060000D03*
X158440000Y-128940000D03*
X152960000Y-128940000D03*
X108040000Y-128940000D03*
X102560000Y-128940000D03*
D17*
X105000000Y-105000000D03*
X105000000Y-95000000D03*
D15*
X193000000Y-117500000D03*
D20*
X105000000Y-55000000D03*
D21*
X169500000Y-122000000D03*
D17*
X195000000Y-105000000D03*
D11*
X167380000Y-144805000D03*
D12*
X172460000Y-144805000D03*
X177540000Y-144805000D03*
X182620000Y-144805000D03*
D17*
X105000000Y-145000000D03*
D21*
X165000000Y-100000000D03*
D13*
X131000000Y-143000000D03*
D16*
X131000000Y-138000000D03*
D20*
X195000000Y-55000000D03*
D13*
X143000000Y-143000000D03*
D16*
X143000000Y-138000000D03*
D13*
X178000000Y-105000000D03*
D16*
X183000000Y-105000000D03*
M02*
