G04 #@! TF.GenerationSoftware,KiCad,Pcbnew,(6.0.10)*
G04 #@! TF.CreationDate,2023-01-23T20:19:36+00:00*
G04 #@! TF.ProjectId,MaxDC,4d617844-432e-46b6-9963-61645f706362,rev?*
G04 #@! TF.SameCoordinates,Original*
G04 #@! TF.FileFunction,Copper,L1,Top*
G04 #@! TF.FilePolarity,Positive*
%FSLAX46Y46*%
G04 Gerber Fmt 4.6, Leading zero omitted, Abs format (unit mm)*
G04 Created by KiCad (PCBNEW (6.0.10)) date 2023-01-23 20:19:36*
%MOMM*%
%LPD*%
G01*
G04 APERTURE LIST*
G04 Aperture macros list*
%AMRoundRect*
0 Rectangle with rounded corners*
0 $1 Rounding radius*
0 $2 $3 $4 $5 $6 $7 $8 $9 X,Y pos of 4 corners*
0 Add a 4 corners polygon primitive as box body*
4,1,4,$2,$3,$4,$5,$6,$7,$8,$9,$2,$3,0*
0 Add four circle primitives for the rounded corners*
1,1,$1+$1,$2,$3*
1,1,$1+$1,$4,$5*
1,1,$1+$1,$6,$7*
1,1,$1+$1,$8,$9*
0 Add four rect primitives between the rounded corners*
20,1,$1+$1,$2,$3,$4,$5,0*
20,1,$1+$1,$4,$5,$6,$7,0*
20,1,$1+$1,$6,$7,$8,$9,0*
20,1,$1+$1,$8,$9,$2,$3,0*%
G04 Aperture macros list end*
G04 #@! TA.AperFunction,EtchedComponent*
%ADD10C,0.381000*%
G04 #@! TD*
G04 #@! TA.AperFunction,ComponentPad*
%ADD11R,2.600000X2.600000*%
G04 #@! TD*
G04 #@! TA.AperFunction,ComponentPad*
%ADD12C,2.600000*%
G04 #@! TD*
G04 #@! TA.AperFunction,ComponentPad*
%ADD13R,2.000000X2.000000*%
G04 #@! TD*
G04 #@! TA.AperFunction,ComponentPad*
%ADD14O,2.000000X2.000000*%
G04 #@! TD*
G04 #@! TA.AperFunction,ComponentPad*
%ADD15R,2.500000X2.500000*%
G04 #@! TD*
G04 #@! TA.AperFunction,SMDPad,CuDef*
%ADD16RoundRect,0.250000X-0.337500X-0.475000X0.337500X-0.475000X0.337500X0.475000X-0.337500X0.475000X0*%
G04 #@! TD*
G04 #@! TA.AperFunction,SMDPad,CuDef*
%ADD17RoundRect,0.250000X0.337500X0.475000X-0.337500X0.475000X-0.337500X-0.475000X0.337500X-0.475000X0*%
G04 #@! TD*
G04 #@! TA.AperFunction,ComponentPad*
%ADD18C,2.000000*%
G04 #@! TD*
G04 #@! TA.AperFunction,ComponentPad*
%ADD19C,2.400000*%
G04 #@! TD*
G04 #@! TA.AperFunction,SMDPad,CuDef*
%ADD20RoundRect,0.381000X0.381000X-1.841500X0.381000X1.841500X-0.381000X1.841500X-0.381000X-1.841500X0*%
G04 #@! TD*
G04 #@! TA.AperFunction,ComponentPad*
%ADD21C,3.000000*%
G04 #@! TD*
G04 #@! TA.AperFunction,ComponentPad*
%ADD22C,6.400000*%
G04 #@! TD*
G04 #@! TA.AperFunction,SMDPad,CuDef*
%ADD23RoundRect,0.250000X-0.475000X0.337500X-0.475000X-0.337500X0.475000X-0.337500X0.475000X0.337500X0*%
G04 #@! TD*
G04 #@! TA.AperFunction,ComponentPad*
%ADD24R,3.000000X3.000000*%
G04 #@! TD*
G04 #@! TA.AperFunction,SMDPad,CuDef*
%ADD25RoundRect,0.250000X-0.350000X-0.450000X0.350000X-0.450000X0.350000X0.450000X-0.350000X0.450000X0*%
G04 #@! TD*
G04 #@! TA.AperFunction,ViaPad*
%ADD26C,0.800000*%
G04 #@! TD*
G04 #@! TA.AperFunction,Conductor*
%ADD27C,0.800000*%
G04 #@! TD*
G04 #@! TA.AperFunction,Conductor*
%ADD28C,1.000000*%
G04 #@! TD*
G04 #@! TA.AperFunction,Conductor*
%ADD29C,1.400000*%
G04 #@! TD*
G04 #@! TA.AperFunction,Conductor*
%ADD30C,2.000000*%
G04 #@! TD*
G04 APERTURE END LIST*
D10*
X187286000Y-64960000D02*
X188556000Y-64960000D01*
X188937000Y-64706000D02*
X187667000Y-64706000D01*
X187667000Y-67246000D02*
X187159000Y-67500000D01*
X188302000Y-65087000D02*
X187159000Y-67373000D01*
X188429000Y-62801000D02*
X186905000Y-65087000D01*
X187667000Y-64706000D02*
X189445000Y-62674000D01*
X188683000Y-63182000D02*
X188556000Y-62674000D01*
X186905000Y-67881000D02*
X187667000Y-67246000D01*
X186905000Y-65087000D02*
X188302000Y-65087000D01*
X187159000Y-67500000D02*
X188937000Y-64706000D01*
X189445000Y-62674000D02*
X188683000Y-63182000D01*
X187159000Y-67373000D02*
X187032000Y-66865000D01*
X188683000Y-63055000D02*
X187286000Y-64960000D01*
X187032000Y-66865000D02*
X186905000Y-67881000D01*
D11*
X184585000Y-55700000D03*
D12*
X179505000Y-55700000D03*
X174425000Y-55700000D03*
D13*
X169545000Y-109975000D03*
D14*
X164465000Y-109975000D03*
X164465000Y-115055000D03*
X169545000Y-115055000D03*
D15*
X170500000Y-130000000D03*
D16*
X164462500Y-106000000D03*
X166537500Y-106000000D03*
D13*
X117500000Y-143000000D03*
D14*
X117500000Y-137920000D03*
X112420000Y-137920000D03*
X112420000Y-143000000D03*
D17*
X108037500Y-135000000D03*
X105962500Y-135000000D03*
D13*
X155000000Y-143000000D03*
D18*
X155000000Y-138000000D03*
D19*
X179500000Y-73000000D03*
X164500000Y-73000000D03*
D20*
X135618000Y-54848500D03*
X135618000Y-66215000D03*
X152382000Y-66151500D03*
X152382000Y-54785000D03*
D13*
X178000000Y-130000000D03*
D18*
X183000000Y-130000000D03*
D13*
X178000000Y-117500000D03*
D18*
X183000000Y-117500000D03*
D21*
X105100000Y-73060000D03*
X110180000Y-73060000D03*
X150820000Y-73060000D03*
X155900000Y-73060000D03*
X158440000Y-128940000D03*
X152960000Y-128940000D03*
X108040000Y-128940000D03*
X102560000Y-128940000D03*
D15*
X193000000Y-117500000D03*
D17*
X181537500Y-137000000D03*
X179462500Y-137000000D03*
D22*
X105000000Y-55000000D03*
D23*
X162500000Y-142962500D03*
X162500000Y-145037500D03*
D24*
X169500000Y-122000000D03*
D11*
X167380000Y-144805000D03*
D12*
X172460000Y-144805000D03*
X177540000Y-144805000D03*
X182620000Y-144805000D03*
D19*
X112400000Y-65000000D03*
X127400000Y-65000000D03*
D24*
X165000000Y-100000000D03*
D13*
X131000000Y-143000000D03*
D18*
X131000000Y-138000000D03*
D22*
X195000000Y-55000000D03*
D13*
X143000000Y-143000000D03*
D18*
X143000000Y-138000000D03*
D13*
X178000000Y-105000000D03*
D18*
X183000000Y-105000000D03*
D25*
X169000000Y-106000000D03*
X171000000Y-106000000D03*
X106000000Y-137500000D03*
X108000000Y-137500000D03*
D26*
X162000000Y-138000000D03*
X162500000Y-139500000D03*
D27*
X172000000Y-112600000D02*
X169545000Y-115055000D01*
X172000000Y-107000000D02*
X172000000Y-112600000D01*
X171000000Y-106000000D02*
X172000000Y-107000000D01*
D28*
X164462500Y-106000000D02*
X164462500Y-109972500D01*
X164462500Y-109972500D02*
X164465000Y-109975000D01*
X164462500Y-106000000D02*
X164462500Y-100537500D01*
X164462500Y-100537500D02*
X165000000Y-100000000D01*
X167147500Y-145037500D02*
X167380000Y-144805000D01*
X162500000Y-145037500D02*
X167147500Y-145037500D01*
X166537500Y-106000000D02*
X169000000Y-106000000D01*
D29*
X135618000Y-66215000D02*
X135618000Y-69382000D01*
X134000000Y-71000000D02*
X121000000Y-71000000D01*
X121000000Y-71000000D02*
X115000000Y-65000000D01*
X115000000Y-65000000D02*
X112400000Y-65000000D01*
X135618000Y-69382000D02*
X134000000Y-71000000D01*
D28*
X182500000Y-51000000D02*
X164000000Y-51000000D01*
X160000000Y-55000000D02*
X152597000Y-55000000D01*
X184585000Y-55700000D02*
X184585000Y-53085000D01*
X152597000Y-55000000D02*
X152382000Y-54785000D01*
X184585000Y-53085000D02*
X182500000Y-51000000D01*
X164000000Y-51000000D02*
X160000000Y-55000000D01*
X143000000Y-60000000D02*
X137848500Y-54848500D01*
X137848500Y-54848500D02*
X135618000Y-54848500D01*
X174425000Y-55700000D02*
X170125000Y-60000000D01*
X170125000Y-60000000D02*
X143000000Y-60000000D01*
D29*
X162500000Y-138500000D02*
X162000000Y-138000000D01*
X162500000Y-142962500D02*
X162500000Y-138500000D01*
D28*
X179462500Y-137000000D02*
X179462500Y-134462500D01*
X178000000Y-133000000D02*
X178000000Y-130000000D01*
X179462500Y-134462500D02*
X178000000Y-133000000D01*
X181537500Y-134462500D02*
X183000000Y-133000000D01*
D30*
X181000000Y-121000000D02*
X183000000Y-119000000D01*
X173000000Y-118000000D02*
X176000000Y-121000000D01*
X166000000Y-118000000D02*
X173000000Y-118000000D01*
D28*
X183000000Y-133000000D02*
X183000000Y-130000000D01*
D30*
X176000000Y-121000000D02*
X181000000Y-121000000D01*
D28*
X181537500Y-137000000D02*
X181537500Y-134462500D01*
D30*
X164465000Y-116465000D02*
X166000000Y-118000000D01*
X183000000Y-119000000D02*
X183000000Y-117500000D01*
X164465000Y-115055000D02*
X164465000Y-116465000D01*
D28*
X115080000Y-135500000D02*
X117500000Y-137920000D01*
X108037500Y-133537500D02*
X108037500Y-135000000D01*
X108037500Y-135037500D02*
X108500000Y-135500000D01*
X105620000Y-132000000D02*
X106500000Y-132000000D01*
X106500000Y-132000000D02*
X108037500Y-133537500D01*
X108037500Y-135000000D02*
X108037500Y-135037500D01*
X102560000Y-128940000D02*
X105620000Y-132000000D01*
X108500000Y-135500000D02*
X115080000Y-135500000D01*
X105962500Y-135000000D02*
X105962500Y-137462500D01*
X105962500Y-137462500D02*
X106000000Y-137500000D01*
X108000000Y-138580000D02*
X108000000Y-137500000D01*
X112420000Y-143000000D02*
X108000000Y-138580000D01*
D29*
X152382000Y-66151500D02*
X153151500Y-66151500D01*
X155900000Y-68900000D02*
X155900000Y-73060000D01*
X153151500Y-66151500D02*
X155900000Y-68900000D01*
M02*
