G04 #@! TF.GenerationSoftware,KiCad,Pcbnew,(6.0.10-0)*
G04 #@! TF.CreationDate,2023-01-24T15:26:33+00:00*
G04 #@! TF.ProjectId,MaxDC,4d617844-432e-46b6-9963-61645f706362,rev?*
G04 #@! TF.SameCoordinates,Original*
G04 #@! TF.FileFunction,Legend,Top*
G04 #@! TF.FilePolarity,Positive*
%FSLAX46Y46*%
G04 Gerber Fmt 4.6, Leading zero omitted, Abs format (unit mm)*
G04 Created by KiCad (PCBNEW (6.0.10-0)) date 2023-01-24 15:26:33*
%MOMM*%
%LPD*%
G01*
G04 APERTURE LIST*
G04 Aperture macros list*
%AMRoundRect*
0 Rectangle with rounded corners*
0 $1 Rounding radius*
0 $2 $3 $4 $5 $6 $7 $8 $9 X,Y pos of 4 corners*
0 Add a 4 corners polygon primitive as box body*
4,1,4,$2,$3,$4,$5,$6,$7,$8,$9,$2,$3,0*
0 Add four circle primitives for the rounded corners*
1,1,$1+$1,$2,$3*
1,1,$1+$1,$4,$5*
1,1,$1+$1,$6,$7*
1,1,$1+$1,$8,$9*
0 Add four rect primitives between the rounded corners*
20,1,$1+$1,$2,$3,$4,$5,0*
20,1,$1+$1,$4,$5,$6,$7,0*
20,1,$1+$1,$6,$7,$8,$9,0*
20,1,$1+$1,$8,$9,$2,$3,0*%
G04 Aperture macros list end*
%ADD10C,0.200000*%
%ADD11C,0.150000*%
%ADD12C,0.180000*%
%ADD13C,0.300000*%
%ADD14C,0.120000*%
%ADD15C,0.010000*%
%ADD16C,2.400000*%
%ADD17R,2.600000X2.600000*%
%ADD18C,2.600000*%
%ADD19R,2.000000X2.000000*%
%ADD20O,2.000000X2.000000*%
%ADD21R,2.500000X2.500000*%
%ADD22RoundRect,0.250000X-0.337500X-0.475000X0.337500X-0.475000X0.337500X0.475000X-0.337500X0.475000X0*%
%ADD23RoundRect,0.250000X0.337500X0.475000X-0.337500X0.475000X-0.337500X-0.475000X0.337500X-0.475000X0*%
%ADD24C,2.000000*%
%ADD25RoundRect,0.381000X0.381000X-1.841500X0.381000X1.841500X-0.381000X1.841500X-0.381000X-1.841500X0*%
%ADD26C,3.200000*%
%ADD27C,5.000000*%
%ADD28C,3.000000*%
%ADD29C,6.400000*%
%ADD30RoundRect,0.250000X-0.475000X0.337500X-0.475000X-0.337500X0.475000X-0.337500X0.475000X0.337500X0*%
%ADD31R,3.000000X3.000000*%
%ADD32RoundRect,0.250000X-0.350000X-0.450000X0.350000X-0.450000X0.350000X0.450000X-0.350000X0.450000X0*%
G04 APERTURE END LIST*
D10*
X175600000Y-79000000D02*
X175533333Y-79066666D01*
X175333333Y-79133333D01*
X175200000Y-79133333D01*
X175000000Y-79066666D01*
X174866666Y-78933333D01*
X174800000Y-78800000D01*
X174733333Y-78533333D01*
X174733333Y-78333333D01*
X174800000Y-78066666D01*
X174866666Y-77933333D01*
X175000000Y-77800000D01*
X175200000Y-77733333D01*
X175333333Y-77733333D01*
X175533333Y-77800000D01*
X175600000Y-77866666D01*
X176933333Y-79133333D02*
X176133333Y-79133333D01*
X176533333Y-79133333D02*
X176533333Y-77733333D01*
X176400000Y-77933333D01*
X176266666Y-78066666D01*
X176133333Y-78133333D01*
X177800000Y-77733333D02*
X177933333Y-77733333D01*
X178066666Y-77800000D01*
X178133333Y-77866666D01*
X178200000Y-78000000D01*
X178266666Y-78266666D01*
X178266666Y-78600000D01*
X178200000Y-78866666D01*
X178133333Y-79000000D01*
X178066666Y-79066666D01*
X177933333Y-79133333D01*
X177800000Y-79133333D01*
X177666666Y-79066666D01*
X177600000Y-79000000D01*
X177533333Y-78866666D01*
X177466666Y-78600000D01*
X177466666Y-78266666D01*
X177533333Y-78000000D01*
X177600000Y-77866666D01*
X177666666Y-77800000D01*
X177800000Y-77733333D01*
X122266666Y-55250000D02*
X122200000Y-55316666D01*
X122000000Y-55383333D01*
X121866666Y-55383333D01*
X121666666Y-55316666D01*
X121533333Y-55183333D01*
X121466666Y-55050000D01*
X121400000Y-54783333D01*
X121400000Y-54583333D01*
X121466666Y-54316666D01*
X121533333Y-54183333D01*
X121666666Y-54050000D01*
X121866666Y-53983333D01*
X122000000Y-53983333D01*
X122200000Y-54050000D01*
X122266666Y-54116666D01*
X122933333Y-55383333D02*
X123200000Y-55383333D01*
X123333333Y-55316666D01*
X123400000Y-55250000D01*
X123533333Y-55050000D01*
X123600000Y-54783333D01*
X123600000Y-54250000D01*
X123533333Y-54116666D01*
X123466666Y-54050000D01*
X123333333Y-53983333D01*
X123066666Y-53983333D01*
X122933333Y-54050000D01*
X122866666Y-54116666D01*
X122800000Y-54250000D01*
X122800000Y-54583333D01*
X122866666Y-54716666D01*
X122933333Y-54783333D01*
X123066666Y-54850000D01*
X123333333Y-54850000D01*
X123466666Y-54783333D01*
X123533333Y-54716666D01*
X123600000Y-54583333D01*
D11*
X188466666Y-55552380D02*
X188466666Y-56266666D01*
X188419047Y-56409523D01*
X188323809Y-56504761D01*
X188180952Y-56552380D01*
X188085714Y-56552380D01*
X189466666Y-56552380D02*
X188895238Y-56552380D01*
X189180952Y-56552380D02*
X189180952Y-55552380D01*
X189085714Y-55695238D01*
X188990476Y-55790476D01*
X188895238Y-55838095D01*
X173299380Y-113253095D02*
X172299380Y-113253095D01*
X172299380Y-113015000D01*
X172347000Y-112872142D01*
X172442238Y-112776904D01*
X172537476Y-112729285D01*
X172727952Y-112681666D01*
X172870809Y-112681666D01*
X173061285Y-112729285D01*
X173156523Y-112776904D01*
X173251761Y-112872142D01*
X173299380Y-113015000D01*
X173299380Y-113253095D01*
X172299380Y-112348333D02*
X172299380Y-111729285D01*
X172680333Y-112062619D01*
X172680333Y-111919761D01*
X172727952Y-111824523D01*
X172775571Y-111776904D01*
X172870809Y-111729285D01*
X173108904Y-111729285D01*
X173204142Y-111776904D01*
X173251761Y-111824523D01*
X173299380Y-111919761D01*
X173299380Y-112205476D01*
X173251761Y-112300714D01*
X173204142Y-112348333D01*
X169238095Y-127304380D02*
X169809523Y-127304380D01*
X169523809Y-128304380D02*
X169523809Y-127304380D01*
X170142857Y-128304380D02*
X170142857Y-127304380D01*
X170523809Y-127304380D01*
X170619047Y-127352000D01*
X170666666Y-127399619D01*
X170714285Y-127494857D01*
X170714285Y-127637714D01*
X170666666Y-127732952D01*
X170619047Y-127780571D01*
X170523809Y-127828190D01*
X170142857Y-127828190D01*
X171095238Y-127399619D02*
X171142857Y-127352000D01*
X171238095Y-127304380D01*
X171476190Y-127304380D01*
X171571428Y-127352000D01*
X171619047Y-127399619D01*
X171666666Y-127494857D01*
X171666666Y-127590095D01*
X171619047Y-127732952D01*
X171047619Y-128304380D01*
X171666666Y-128304380D01*
X164857142Y-104677142D02*
X164809523Y-104724761D01*
X164666666Y-104772380D01*
X164571428Y-104772380D01*
X164428571Y-104724761D01*
X164333333Y-104629523D01*
X164285714Y-104534285D01*
X164238095Y-104343809D01*
X164238095Y-104200952D01*
X164285714Y-104010476D01*
X164333333Y-103915238D01*
X164428571Y-103820000D01*
X164571428Y-103772380D01*
X164666666Y-103772380D01*
X164809523Y-103820000D01*
X164857142Y-103867619D01*
X165238095Y-104724761D02*
X165380952Y-104772380D01*
X165619047Y-104772380D01*
X165714285Y-104724761D01*
X165761904Y-104677142D01*
X165809523Y-104581904D01*
X165809523Y-104486666D01*
X165761904Y-104391428D01*
X165714285Y-104343809D01*
X165619047Y-104296190D01*
X165428571Y-104248571D01*
X165333333Y-104200952D01*
X165285714Y-104153333D01*
X165238095Y-104058095D01*
X165238095Y-103962857D01*
X165285714Y-103867619D01*
X165333333Y-103820000D01*
X165428571Y-103772380D01*
X165666666Y-103772380D01*
X165809523Y-103820000D01*
X166761904Y-104772380D02*
X166190476Y-104772380D01*
X166476190Y-104772380D02*
X166476190Y-103772380D01*
X166380952Y-103915238D01*
X166285714Y-104010476D01*
X166190476Y-104058095D01*
D10*
X114074285Y-147542857D02*
X114074285Y-146342857D01*
X114360000Y-146342857D01*
X114531428Y-146400000D01*
X114645714Y-146514285D01*
X114702857Y-146628571D01*
X114760000Y-146857142D01*
X114760000Y-147028571D01*
X114702857Y-147257142D01*
X114645714Y-147371428D01*
X114531428Y-147485714D01*
X114360000Y-147542857D01*
X114074285Y-147542857D01*
X115902857Y-147542857D02*
X115217142Y-147542857D01*
X115560000Y-147542857D02*
X115560000Y-146342857D01*
X115445714Y-146514285D01*
X115331428Y-146628571D01*
X115217142Y-146685714D01*
D12*
X106292857Y-133392857D02*
X106240476Y-133445238D01*
X106083333Y-133497619D01*
X105978571Y-133497619D01*
X105821428Y-133445238D01*
X105716666Y-133340476D01*
X105664285Y-133235714D01*
X105611904Y-133026190D01*
X105611904Y-132869047D01*
X105664285Y-132659523D01*
X105716666Y-132554761D01*
X105821428Y-132450000D01*
X105978571Y-132397619D01*
X106083333Y-132397619D01*
X106240476Y-132450000D01*
X106292857Y-132502380D01*
X106711904Y-133445238D02*
X106869047Y-133497619D01*
X107130952Y-133497619D01*
X107235714Y-133445238D01*
X107288095Y-133392857D01*
X107340476Y-133288095D01*
X107340476Y-133183333D01*
X107288095Y-133078571D01*
X107235714Y-133026190D01*
X107130952Y-132973809D01*
X106921428Y-132921428D01*
X106816666Y-132869047D01*
X106764285Y-132816666D01*
X106711904Y-132711904D01*
X106711904Y-132607142D01*
X106764285Y-132502380D01*
X106816666Y-132450000D01*
X106921428Y-132397619D01*
X107183333Y-132397619D01*
X107340476Y-132450000D01*
X107759523Y-132502380D02*
X107811904Y-132450000D01*
X107916666Y-132397619D01*
X108178571Y-132397619D01*
X108283333Y-132450000D01*
X108335714Y-132502380D01*
X108388095Y-132607142D01*
X108388095Y-132711904D01*
X108335714Y-132869047D01*
X107707142Y-133497619D01*
X108388095Y-133497619D01*
D10*
X154800000Y-134428571D02*
X154742857Y-134485714D01*
X154571428Y-134542857D01*
X154457142Y-134542857D01*
X154285714Y-134485714D01*
X154171428Y-134371428D01*
X154114285Y-134257142D01*
X154057142Y-134028571D01*
X154057142Y-133857142D01*
X154114285Y-133628571D01*
X154171428Y-133514285D01*
X154285714Y-133400000D01*
X154457142Y-133342857D01*
X154571428Y-133342857D01*
X154742857Y-133400000D01*
X154800000Y-133457142D01*
X155200000Y-133342857D02*
X156000000Y-133342857D01*
X155485714Y-134542857D01*
X147567142Y-60197523D02*
X147567142Y-60630857D01*
X148248095Y-60630857D02*
X146948095Y-60630857D01*
X146948095Y-60011809D01*
X148248095Y-58897523D02*
X148248095Y-59516571D01*
X146948095Y-59516571D01*
X148248095Y-57783238D02*
X148248095Y-58526095D01*
X148248095Y-58154666D02*
X146948095Y-58154666D01*
X147133809Y-58278476D01*
X147257619Y-58402285D01*
X147319523Y-58526095D01*
X180300000Y-124178571D02*
X180242857Y-124235714D01*
X180071428Y-124292857D01*
X179957142Y-124292857D01*
X179785714Y-124235714D01*
X179671428Y-124121428D01*
X179614285Y-124007142D01*
X179557142Y-123778571D01*
X179557142Y-123607142D01*
X179614285Y-123378571D01*
X179671428Y-123264285D01*
X179785714Y-123150000D01*
X179957142Y-123092857D01*
X180071428Y-123092857D01*
X180242857Y-123150000D01*
X180300000Y-123207142D01*
X180700000Y-123092857D02*
X181442857Y-123092857D01*
X181042857Y-123550000D01*
X181214285Y-123550000D01*
X181328571Y-123607142D01*
X181385714Y-123664285D01*
X181442857Y-123778571D01*
X181442857Y-124064285D01*
X181385714Y-124178571D01*
X181328571Y-124235714D01*
X181214285Y-124292857D01*
X180871428Y-124292857D01*
X180757142Y-124235714D01*
X180700000Y-124178571D01*
X180300000Y-111678571D02*
X180242857Y-111735714D01*
X180071428Y-111792857D01*
X179957142Y-111792857D01*
X179785714Y-111735714D01*
X179671428Y-111621428D01*
X179614285Y-111507142D01*
X179557142Y-111278571D01*
X179557142Y-111107142D01*
X179614285Y-110878571D01*
X179671428Y-110764285D01*
X179785714Y-110650000D01*
X179957142Y-110592857D01*
X180071428Y-110592857D01*
X180242857Y-110650000D01*
X180300000Y-110707142D01*
X180757142Y-110707142D02*
X180814285Y-110650000D01*
X180928571Y-110592857D01*
X181214285Y-110592857D01*
X181328571Y-110650000D01*
X181385714Y-110707142D01*
X181442857Y-110821428D01*
X181442857Y-110935714D01*
X181385714Y-111107142D01*
X180700000Y-111792857D01*
X181442857Y-111792857D01*
D11*
X194238095Y-141252380D02*
X194238095Y-140252380D01*
X194238095Y-140728571D02*
X194809523Y-140728571D01*
X194809523Y-141252380D02*
X194809523Y-140252380D01*
X195761904Y-140252380D02*
X195285714Y-140252380D01*
X195238095Y-140728571D01*
X195285714Y-140680952D01*
X195380952Y-140633333D01*
X195619047Y-140633333D01*
X195714285Y-140680952D01*
X195761904Y-140728571D01*
X195809523Y-140823809D01*
X195809523Y-141061904D01*
X195761904Y-141157142D01*
X195714285Y-141204761D01*
X195619047Y-141252380D01*
X195380952Y-141252380D01*
X195285714Y-141204761D01*
X195238095Y-141157142D01*
X136047619Y-100238095D02*
X136047619Y-100809523D01*
X135047619Y-100523809D02*
X136047619Y-100523809D01*
X135952380Y-101095238D02*
X136000000Y-101142857D01*
X136047619Y-101238095D01*
X136047619Y-101476190D01*
X136000000Y-101571428D01*
X135952380Y-101619047D01*
X135857142Y-101666666D01*
X135761904Y-101666666D01*
X135619047Y-101619047D01*
X135047619Y-101047619D01*
X135047619Y-101666666D01*
X104238095Y-101252380D02*
X104238095Y-100252380D01*
X104238095Y-100728571D02*
X104809523Y-100728571D01*
X104809523Y-101252380D02*
X104809523Y-100252380D01*
X105190476Y-100252380D02*
X105809523Y-100252380D01*
X105476190Y-100633333D01*
X105619047Y-100633333D01*
X105714285Y-100680952D01*
X105761904Y-100728571D01*
X105809523Y-100823809D01*
X105809523Y-101061904D01*
X105761904Y-101157142D01*
X105714285Y-101204761D01*
X105619047Y-101252380D01*
X105333333Y-101252380D01*
X105238095Y-101204761D01*
X105190476Y-101157142D01*
X104238095Y-91252380D02*
X104238095Y-90252380D01*
X104238095Y-90728571D02*
X104809523Y-90728571D01*
X104809523Y-91252380D02*
X104809523Y-90252380D01*
X105238095Y-90347619D02*
X105285714Y-90300000D01*
X105380952Y-90252380D01*
X105619047Y-90252380D01*
X105714285Y-90300000D01*
X105761904Y-90347619D01*
X105809523Y-90442857D01*
X105809523Y-90538095D01*
X105761904Y-90680952D01*
X105190476Y-91252380D01*
X105809523Y-91252380D01*
X191738095Y-114804380D02*
X192309523Y-114804380D01*
X192023809Y-115804380D02*
X192023809Y-114804380D01*
X192642857Y-115804380D02*
X192642857Y-114804380D01*
X193023809Y-114804380D01*
X193119047Y-114852000D01*
X193166666Y-114899619D01*
X193214285Y-114994857D01*
X193214285Y-115137714D01*
X193166666Y-115232952D01*
X193119047Y-115280571D01*
X193023809Y-115328190D01*
X192642857Y-115328190D01*
X194166666Y-115804380D02*
X193595238Y-115804380D01*
X193880952Y-115804380D02*
X193880952Y-114804380D01*
X193785714Y-114947238D01*
X193690476Y-115042476D01*
X193595238Y-115090095D01*
X180333333Y-139037142D02*
X180285714Y-139084761D01*
X180142857Y-139132380D01*
X180047619Y-139132380D01*
X179904761Y-139084761D01*
X179809523Y-138989523D01*
X179761904Y-138894285D01*
X179714285Y-138703809D01*
X179714285Y-138560952D01*
X179761904Y-138370476D01*
X179809523Y-138275238D01*
X179904761Y-138180000D01*
X180047619Y-138132380D01*
X180142857Y-138132380D01*
X180285714Y-138180000D01*
X180333333Y-138227619D01*
X180904761Y-138560952D02*
X180809523Y-138513333D01*
X180761904Y-138465714D01*
X180714285Y-138370476D01*
X180714285Y-138322857D01*
X180761904Y-138227619D01*
X180809523Y-138180000D01*
X180904761Y-138132380D01*
X181095238Y-138132380D01*
X181190476Y-138180000D01*
X181238095Y-138227619D01*
X181285714Y-138322857D01*
X181285714Y-138370476D01*
X181238095Y-138465714D01*
X181190476Y-138513333D01*
X181095238Y-138560952D01*
X180904761Y-138560952D01*
X180809523Y-138608571D01*
X180761904Y-138656190D01*
X180714285Y-138751428D01*
X180714285Y-138941904D01*
X180761904Y-139037142D01*
X180809523Y-139084761D01*
X180904761Y-139132380D01*
X181095238Y-139132380D01*
X181190476Y-139084761D01*
X181238095Y-139037142D01*
X181285714Y-138941904D01*
X181285714Y-138751428D01*
X181238095Y-138656190D01*
X181190476Y-138608571D01*
X181095238Y-138560952D01*
X104238095Y-51252380D02*
X104238095Y-50252380D01*
X104238095Y-50728571D02*
X104809523Y-50728571D01*
X104809523Y-51252380D02*
X104809523Y-50252380D01*
X105809523Y-51252380D02*
X105238095Y-51252380D01*
X105523809Y-51252380D02*
X105523809Y-50252380D01*
X105428571Y-50395238D01*
X105333333Y-50490476D01*
X105238095Y-50538095D01*
X164537142Y-144166666D02*
X164584761Y-144214285D01*
X164632380Y-144357142D01*
X164632380Y-144452380D01*
X164584761Y-144595238D01*
X164489523Y-144690476D01*
X164394285Y-144738095D01*
X164203809Y-144785714D01*
X164060952Y-144785714D01*
X163870476Y-144738095D01*
X163775238Y-144690476D01*
X163680000Y-144595238D01*
X163632380Y-144452380D01*
X163632380Y-144357142D01*
X163680000Y-144214285D01*
X163727619Y-144166666D01*
X163632380Y-143309523D02*
X163632380Y-143500000D01*
X163680000Y-143595238D01*
X163727619Y-143642857D01*
X163870476Y-143738095D01*
X164060952Y-143785714D01*
X164441904Y-143785714D01*
X164537142Y-143738095D01*
X164584761Y-143690476D01*
X164632380Y-143595238D01*
X164632380Y-143404761D01*
X164584761Y-143309523D01*
X164537142Y-143261904D01*
X164441904Y-143214285D01*
X164203809Y-143214285D01*
X164108571Y-143261904D01*
X164060952Y-143309523D01*
X164013333Y-143404761D01*
X164013333Y-143595238D01*
X164060952Y-143690476D01*
X164108571Y-143738095D01*
X164203809Y-143785714D01*
X168285714Y-119768666D02*
X168761904Y-119768666D01*
X168190476Y-120054380D02*
X168523809Y-119054380D01*
X168857142Y-120054380D01*
X169761904Y-119959142D02*
X169714285Y-120006761D01*
X169571428Y-120054380D01*
X169476190Y-120054380D01*
X169333333Y-120006761D01*
X169238095Y-119911523D01*
X169190476Y-119816285D01*
X169142857Y-119625809D01*
X169142857Y-119482952D01*
X169190476Y-119292476D01*
X169238095Y-119197238D01*
X169333333Y-119102000D01*
X169476190Y-119054380D01*
X169571428Y-119054380D01*
X169714285Y-119102000D01*
X169761904Y-119149619D01*
X170714285Y-120054380D02*
X170142857Y-120054380D01*
X170428571Y-120054380D02*
X170428571Y-119054380D01*
X170333333Y-119197238D01*
X170238095Y-119292476D01*
X170142857Y-119340095D01*
X194238095Y-101252380D02*
X194238095Y-100252380D01*
X194238095Y-100728571D02*
X194809523Y-100728571D01*
X194809523Y-101252380D02*
X194809523Y-100252380D01*
X195714285Y-100252380D02*
X195523809Y-100252380D01*
X195428571Y-100300000D01*
X195380952Y-100347619D01*
X195285714Y-100490476D01*
X195238095Y-100680952D01*
X195238095Y-101061904D01*
X195285714Y-101157142D01*
X195333333Y-101204761D01*
X195428571Y-101252380D01*
X195619047Y-101252380D01*
X195714285Y-101204761D01*
X195761904Y-101157142D01*
X195809523Y-101061904D01*
X195809523Y-100823809D01*
X195761904Y-100728571D01*
X195714285Y-100680952D01*
X195619047Y-100633333D01*
X195428571Y-100633333D01*
X195333333Y-100680952D01*
X195285714Y-100728571D01*
X195238095Y-100823809D01*
X174666666Y-137997380D02*
X174666666Y-138711666D01*
X174619047Y-138854523D01*
X174523809Y-138949761D01*
X174380952Y-138997380D01*
X174285714Y-138997380D01*
X175095238Y-138092619D02*
X175142857Y-138045000D01*
X175238095Y-137997380D01*
X175476190Y-137997380D01*
X175571428Y-138045000D01*
X175619047Y-138092619D01*
X175666666Y-138187857D01*
X175666666Y-138283095D01*
X175619047Y-138425952D01*
X175047619Y-138997380D01*
X175666666Y-138997380D01*
X104238095Y-141252380D02*
X104238095Y-140252380D01*
X104238095Y-140728571D02*
X104809523Y-140728571D01*
X104809523Y-141252380D02*
X104809523Y-140252380D01*
X105714285Y-140585714D02*
X105714285Y-141252380D01*
X105476190Y-140204761D02*
X105238095Y-140919047D01*
X105857142Y-140919047D01*
X163785714Y-97768666D02*
X164261904Y-97768666D01*
X163690476Y-98054380D02*
X164023809Y-97054380D01*
X164357142Y-98054380D01*
X165261904Y-97959142D02*
X165214285Y-98006761D01*
X165071428Y-98054380D01*
X164976190Y-98054380D01*
X164833333Y-98006761D01*
X164738095Y-97911523D01*
X164690476Y-97816285D01*
X164642857Y-97625809D01*
X164642857Y-97482952D01*
X164690476Y-97292476D01*
X164738095Y-97197238D01*
X164833333Y-97102000D01*
X164976190Y-97054380D01*
X165071428Y-97054380D01*
X165214285Y-97102000D01*
X165261904Y-97149619D01*
X165642857Y-97149619D02*
X165690476Y-97102000D01*
X165785714Y-97054380D01*
X166023809Y-97054380D01*
X166119047Y-97102000D01*
X166166666Y-97149619D01*
X166214285Y-97244857D01*
X166214285Y-97340095D01*
X166166666Y-97482952D01*
X165595238Y-98054380D01*
X166214285Y-98054380D01*
D13*
X174528571Y-65785714D02*
X174614285Y-65700000D01*
X174785714Y-65614285D01*
X175214285Y-65614285D01*
X175385714Y-65700000D01*
X175471428Y-65785714D01*
X175557142Y-65957142D01*
X175557142Y-66128571D01*
X175471428Y-66385714D01*
X174442857Y-67414285D01*
X175557142Y-67414285D01*
X177100000Y-66214285D02*
X177100000Y-67414285D01*
X176671428Y-65528571D02*
X176242857Y-66814285D01*
X177357142Y-66814285D01*
X178385714Y-65614285D02*
X178557142Y-65614285D01*
X178728571Y-65700000D01*
X178814285Y-65785714D01*
X178900000Y-65957142D01*
X178985714Y-66300000D01*
X178985714Y-66728571D01*
X178900000Y-67071428D01*
X178814285Y-67242857D01*
X178728571Y-67328571D01*
X178557142Y-67414285D01*
X178385714Y-67414285D01*
X178214285Y-67328571D01*
X178128571Y-67242857D01*
X178042857Y-67071428D01*
X177957142Y-66728571D01*
X177957142Y-66300000D01*
X178042857Y-65957142D01*
X178128571Y-65785714D01*
X178214285Y-65700000D01*
X178385714Y-65614285D01*
X179500000Y-65614285D02*
X180100000Y-67414285D01*
X180700000Y-65614285D01*
X181214285Y-66900000D02*
X182071428Y-66900000D01*
X181042857Y-67414285D02*
X181642857Y-65614285D01*
X182242857Y-67414285D01*
X183871428Y-67242857D02*
X183785714Y-67328571D01*
X183528571Y-67414285D01*
X183357142Y-67414285D01*
X183100000Y-67328571D01*
X182928571Y-67157142D01*
X182842857Y-66985714D01*
X182757142Y-66642857D01*
X182757142Y-66385714D01*
X182842857Y-66042857D01*
X182928571Y-65871428D01*
X183100000Y-65700000D01*
X183357142Y-65614285D01*
X183528571Y-65614285D01*
X183785714Y-65700000D01*
X183871428Y-65785714D01*
D10*
X130800000Y-134428571D02*
X130742857Y-134485714D01*
X130571428Y-134542857D01*
X130457142Y-134542857D01*
X130285714Y-134485714D01*
X130171428Y-134371428D01*
X130114285Y-134257142D01*
X130057142Y-134028571D01*
X130057142Y-133857142D01*
X130114285Y-133628571D01*
X130171428Y-133514285D01*
X130285714Y-133400000D01*
X130457142Y-133342857D01*
X130571428Y-133342857D01*
X130742857Y-133400000D01*
X130800000Y-133457142D01*
X131942857Y-134542857D02*
X131257142Y-134542857D01*
X131600000Y-134542857D02*
X131600000Y-133342857D01*
X131485714Y-133514285D01*
X131371428Y-133628571D01*
X131257142Y-133685714D01*
D11*
X194238095Y-51252380D02*
X194238095Y-50252380D01*
X194238095Y-50728571D02*
X194809523Y-50728571D01*
X194809523Y-51252380D02*
X194809523Y-50252380D01*
X195428571Y-50680952D02*
X195333333Y-50633333D01*
X195285714Y-50585714D01*
X195238095Y-50490476D01*
X195238095Y-50442857D01*
X195285714Y-50347619D01*
X195333333Y-50300000D01*
X195428571Y-50252380D01*
X195619047Y-50252380D01*
X195714285Y-50300000D01*
X195761904Y-50347619D01*
X195809523Y-50442857D01*
X195809523Y-50490476D01*
X195761904Y-50585714D01*
X195714285Y-50633333D01*
X195619047Y-50680952D01*
X195428571Y-50680952D01*
X195333333Y-50728571D01*
X195285714Y-50776190D01*
X195238095Y-50871428D01*
X195238095Y-51061904D01*
X195285714Y-51157142D01*
X195333333Y-51204761D01*
X195428571Y-51252380D01*
X195619047Y-51252380D01*
X195714285Y-51204761D01*
X195761904Y-51157142D01*
X195809523Y-51061904D01*
X195809523Y-50871428D01*
X195761904Y-50776190D01*
X195714285Y-50728571D01*
X195619047Y-50680952D01*
D10*
X142800000Y-134428571D02*
X142742857Y-134485714D01*
X142571428Y-134542857D01*
X142457142Y-134542857D01*
X142285714Y-134485714D01*
X142171428Y-134371428D01*
X142114285Y-134257142D01*
X142057142Y-134028571D01*
X142057142Y-133857142D01*
X142114285Y-133628571D01*
X142171428Y-133514285D01*
X142285714Y-133400000D01*
X142457142Y-133342857D01*
X142571428Y-133342857D01*
X142742857Y-133400000D01*
X142800000Y-133457142D01*
X143828571Y-133742857D02*
X143828571Y-134542857D01*
X143542857Y-133285714D02*
X143257142Y-134142857D01*
X144000000Y-134142857D01*
X180300000Y-99178571D02*
X180242857Y-99235714D01*
X180071428Y-99292857D01*
X179957142Y-99292857D01*
X179785714Y-99235714D01*
X179671428Y-99121428D01*
X179614285Y-99007142D01*
X179557142Y-98778571D01*
X179557142Y-98607142D01*
X179614285Y-98378571D01*
X179671428Y-98264285D01*
X179785714Y-98150000D01*
X179957142Y-98092857D01*
X180071428Y-98092857D01*
X180242857Y-98150000D01*
X180300000Y-98207142D01*
X181385714Y-98092857D02*
X180814285Y-98092857D01*
X180757142Y-98664285D01*
X180814285Y-98607142D01*
X180928571Y-98550000D01*
X181214285Y-98550000D01*
X181328571Y-98607142D01*
X181385714Y-98664285D01*
X181442857Y-98778571D01*
X181442857Y-99064285D01*
X181385714Y-99178571D01*
X181328571Y-99235714D01*
X181214285Y-99292857D01*
X180928571Y-99292857D01*
X180814285Y-99235714D01*
X180757142Y-99178571D01*
D11*
X169357142Y-104802380D02*
X169023809Y-104326190D01*
X168785714Y-104802380D02*
X168785714Y-103802380D01*
X169166666Y-103802380D01*
X169261904Y-103850000D01*
X169309523Y-103897619D01*
X169357142Y-103992857D01*
X169357142Y-104135714D01*
X169309523Y-104230952D01*
X169261904Y-104278571D01*
X169166666Y-104326190D01*
X168785714Y-104326190D01*
X169738095Y-104754761D02*
X169880952Y-104802380D01*
X170119047Y-104802380D01*
X170214285Y-104754761D01*
X170261904Y-104707142D01*
X170309523Y-104611904D01*
X170309523Y-104516666D01*
X170261904Y-104421428D01*
X170214285Y-104373809D01*
X170119047Y-104326190D01*
X169928571Y-104278571D01*
X169833333Y-104230952D01*
X169785714Y-104183333D01*
X169738095Y-104088095D01*
X169738095Y-103992857D01*
X169785714Y-103897619D01*
X169833333Y-103850000D01*
X169928571Y-103802380D01*
X170166666Y-103802380D01*
X170309523Y-103850000D01*
X171261904Y-104802380D02*
X170690476Y-104802380D01*
X170976190Y-104802380D02*
X170976190Y-103802380D01*
X170880952Y-103945238D01*
X170785714Y-104040476D01*
X170690476Y-104088095D01*
D12*
X106519921Y-139997619D02*
X106153254Y-139473809D01*
X105891349Y-139997619D02*
X105891349Y-138897619D01*
X106310397Y-138897619D01*
X106415159Y-138950000D01*
X106467540Y-139002380D01*
X106519921Y-139107142D01*
X106519921Y-139264285D01*
X106467540Y-139369047D01*
X106415159Y-139421428D01*
X106310397Y-139473809D01*
X105891349Y-139473809D01*
X106938968Y-139945238D02*
X107096111Y-139997619D01*
X107358016Y-139997619D01*
X107462778Y-139945238D01*
X107515159Y-139892857D01*
X107567540Y-139788095D01*
X107567540Y-139683333D01*
X107515159Y-139578571D01*
X107462778Y-139526190D01*
X107358016Y-139473809D01*
X107148492Y-139421428D01*
X107043730Y-139369047D01*
X106991349Y-139316666D01*
X106938968Y-139211904D01*
X106938968Y-139107142D01*
X106991349Y-139002380D01*
X107043730Y-138950000D01*
X107148492Y-138897619D01*
X107410397Y-138897619D01*
X107567540Y-138950000D01*
X107986587Y-139002380D02*
X108038968Y-138950000D01*
X108143730Y-138897619D01*
X108405635Y-138897619D01*
X108510397Y-138950000D01*
X108562778Y-139002380D01*
X108615159Y-139107142D01*
X108615159Y-139211904D01*
X108562778Y-139369047D01*
X107934206Y-139997619D01*
X108615159Y-139997619D01*
D14*
X185620000Y-68880000D02*
X167380000Y-68880000D01*
X185620000Y-77120000D02*
X167380000Y-77120000D01*
X185620000Y-77120000D02*
X185620000Y-68880000D01*
X167380000Y-77120000D02*
X167380000Y-68880000D01*
X131620000Y-55880000D02*
X131620000Y-64120000D01*
X113380000Y-55880000D02*
X113380000Y-64120000D01*
X113380000Y-55880000D02*
X131620000Y-55880000D01*
X113380000Y-64120000D02*
X131620000Y-64120000D01*
X177532000Y-57654000D02*
X177912000Y-57274000D01*
X175098000Y-55008000D02*
X175493000Y-54612000D01*
X186600000Y-61960000D02*
X186600000Y-50640000D01*
X185282000Y-54453000D02*
X185388000Y-54346000D01*
X172452000Y-57654000D02*
X172832000Y-57274000D01*
X179927000Y-54726000D02*
X180307000Y-54346000D01*
X186600000Y-53700000D02*
X171240000Y-53700000D01*
X185548000Y-54719000D02*
X185654000Y-54612000D01*
X174847000Y-54726000D02*
X175227000Y-54346000D01*
X171240000Y-61960000D02*
X171240000Y-50640000D01*
X186600000Y-61960000D02*
X171240000Y-61960000D01*
X182346000Y-57388000D02*
X182453000Y-57281000D01*
X186600000Y-51200000D02*
X171240000Y-51200000D01*
X182612000Y-57654000D02*
X182719000Y-57547000D01*
X186600000Y-59900000D02*
X171240000Y-59900000D01*
X186840000Y-51140000D02*
X186840000Y-50400000D01*
X177266000Y-57388000D02*
X177661000Y-56992000D01*
X172186000Y-57388000D02*
X172581000Y-56992000D01*
X186600000Y-50640000D02*
X171240000Y-50640000D01*
X186840000Y-50400000D02*
X186340000Y-50400000D01*
X180178000Y-55008000D02*
X180573000Y-54612000D01*
X186180000Y-56000000D02*
G75*
G03*
X186180000Y-56000000I-2180000J0D01*
G01*
X181100000Y-56000000D02*
G75*
G03*
X181100000Y-56000000I-2180000J0D01*
G01*
X176020000Y-56000000D02*
G75*
G03*
X176020000Y-56000000I-2180000J0D01*
G01*
X169926000Y-108451000D02*
X164084000Y-108451000D01*
X164084000Y-108451000D02*
G75*
G03*
X171069000Y-109594000I2921000J-4064000D01*
G01*
X169050000Y-128550000D02*
X171950000Y-128550000D01*
X171950000Y-128550000D02*
X171950000Y-131450000D01*
X169050000Y-131450000D02*
X169050000Y-128550000D01*
X171950000Y-131450000D02*
X169050000Y-131450000D01*
X165238748Y-106735000D02*
X165761252Y-106735000D01*
X165238748Y-105265000D02*
X165761252Y-105265000D01*
X119024000Y-143381000D02*
X119024000Y-137539000D01*
X119024000Y-137539000D02*
G75*
G03*
X117881000Y-144524000I-4064000J-2921000D01*
G01*
X107261252Y-135735000D02*
X106738748Y-135735000D01*
X107261252Y-134265000D02*
X106738748Y-134265000D01*
X156241000Y-137779000D02*
X159298000Y-137779000D01*
X150629000Y-137899000D02*
X153759000Y-137899000D01*
X151439000Y-136859000D02*
X153759000Y-136859000D01*
X150779000Y-137659000D02*
X153759000Y-137659000D01*
X152111000Y-136299000D02*
X157889000Y-136299000D01*
X156241000Y-137619000D02*
X159194000Y-137619000D01*
X156241000Y-138859000D02*
X159811000Y-138859000D01*
X151360000Y-136939000D02*
X153759000Y-136939000D01*
X151653000Y-136659000D02*
X158347000Y-136659000D01*
X156241000Y-137659000D02*
X159221000Y-137659000D01*
X156241000Y-137579000D02*
X159166000Y-137579000D01*
X150115000Y-139099000D02*
X153759000Y-139099000D01*
X152230000Y-136219000D02*
X157770000Y-136219000D01*
X156241000Y-138299000D02*
X159584000Y-138299000D01*
X150361000Y-138419000D02*
X153759000Y-138419000D01*
X156241000Y-138019000D02*
X159440000Y-138019000D01*
X149920000Y-140500000D02*
X160080000Y-140500000D01*
X150026000Y-139459000D02*
X159974000Y-139459000D01*
X149970000Y-139779000D02*
X160030000Y-139779000D01*
X149930000Y-140180000D02*
X160070000Y-140180000D01*
X156241000Y-138179000D02*
X159525000Y-138179000D01*
X151247000Y-137059000D02*
X153759000Y-137059000D01*
X152000000Y-136379000D02*
X158000000Y-136379000D01*
X156241000Y-137099000D02*
X158789000Y-137099000D01*
X151176000Y-137139000D02*
X153759000Y-137139000D01*
X150834000Y-137579000D02*
X153759000Y-137579000D01*
X156241000Y-137539000D02*
X159138000Y-137539000D01*
X150416000Y-138299000D02*
X153759000Y-138299000D01*
X156241000Y-138419000D02*
X159639000Y-138419000D01*
X150189000Y-138859000D02*
X153759000Y-138859000D01*
X156241000Y-138339000D02*
X159603000Y-138339000D01*
X153258000Y-135699000D02*
X156742000Y-135699000D01*
X156241000Y-137259000D02*
X158925000Y-137259000D01*
X150496000Y-138139000D02*
X153759000Y-138139000D01*
X156241000Y-137019000D02*
X158716000Y-137019000D01*
X156241000Y-138539000D02*
X159690000Y-138539000D01*
X150150000Y-138979000D02*
X153759000Y-138979000D01*
X152490000Y-136059000D02*
X157510000Y-136059000D01*
X150677000Y-137819000D02*
X153759000Y-137819000D01*
X149938000Y-140060000D02*
X160062000Y-140060000D01*
X156241000Y-137219000D02*
X158892000Y-137219000D01*
X156241000Y-136779000D02*
X158478000Y-136779000D01*
X151608000Y-136699000D02*
X158392000Y-136699000D01*
X150062000Y-139299000D02*
X159938000Y-139299000D01*
X152635000Y-135979000D02*
X157365000Y-135979000D01*
X156241000Y-136899000D02*
X158601000Y-136899000D01*
X149996000Y-139619000D02*
X160004000Y-139619000D01*
X150950000Y-137419000D02*
X153759000Y-137419000D01*
X156241000Y-137339000D02*
X158989000Y-137339000D01*
X152055000Y-136339000D02*
X157945000Y-136339000D01*
X156241000Y-138499000D02*
X159674000Y-138499000D01*
X150053000Y-139339000D02*
X159947000Y-139339000D01*
X151746000Y-136579000D02*
X158254000Y-136579000D01*
X154401000Y-135419000D02*
X155599000Y-135419000D01*
X156241000Y-137739000D02*
X159273000Y-137739000D01*
X156241000Y-138579000D02*
X159707000Y-138579000D01*
X149920000Y-140420000D02*
X160080000Y-140420000D01*
X150044000Y-139379000D02*
X159956000Y-139379000D01*
X156241000Y-139019000D02*
X159862000Y-139019000D01*
X156241000Y-138699000D02*
X159754000Y-138699000D01*
X150517000Y-138099000D02*
X153759000Y-138099000D01*
X152791000Y-135899000D02*
X157209000Y-135899000D01*
X150653000Y-137859000D02*
X153759000Y-137859000D01*
X153154000Y-135739000D02*
X156846000Y-135739000D01*
X156241000Y-138979000D02*
X159850000Y-138979000D01*
X156241000Y-138139000D02*
X159504000Y-138139000D01*
X151946000Y-136419000D02*
X158054000Y-136419000D01*
X150262000Y-138659000D02*
X153759000Y-138659000D01*
X156241000Y-137979000D02*
X159417000Y-137979000D01*
X150475000Y-138179000D02*
X153759000Y-138179000D01*
X154138000Y-135459000D02*
X155862000Y-135459000D01*
X150397000Y-138339000D02*
X153759000Y-138339000D01*
X150326000Y-138499000D02*
X153759000Y-138499000D01*
X149920000Y-140460000D02*
X160080000Y-140460000D01*
X156241000Y-137419000D02*
X159050000Y-137419000D01*
X151844000Y-136499000D02*
X158156000Y-136499000D01*
X156241000Y-138739000D02*
X159768000Y-138739000D01*
X152561000Y-136019000D02*
X157439000Y-136019000D01*
X150583000Y-137979000D02*
X153759000Y-137979000D01*
X149942000Y-140020000D02*
X160058000Y-140020000D01*
X152711000Y-135939000D02*
X157289000Y-135939000D01*
X153056000Y-135779000D02*
X156944000Y-135779000D01*
X153938000Y-135499000D02*
X156062000Y-135499000D01*
X151011000Y-137339000D02*
X153759000Y-137339000D01*
X150010000Y-139539000D02*
X159990000Y-139539000D01*
X150103000Y-139139000D02*
X153759000Y-139139000D01*
X150980000Y-137379000D02*
X153759000Y-137379000D01*
X156241000Y-138259000D02*
X159564000Y-138259000D01*
X150246000Y-138699000D02*
X153759000Y-138699000D01*
X150176000Y-138899000D02*
X153759000Y-138899000D01*
X149935000Y-140100000D02*
X160065000Y-140100000D01*
X152875000Y-135859000D02*
X157125000Y-135859000D01*
X150163000Y-138939000D02*
X153759000Y-138939000D01*
X156241000Y-136979000D02*
X158679000Y-136979000D01*
X156241000Y-138779000D02*
X159783000Y-138779000D01*
X149921000Y-140380000D02*
X160079000Y-140380000D01*
X150343000Y-138459000D02*
X153759000Y-138459000D01*
X149960000Y-139860000D02*
X160040000Y-139860000D01*
X152291000Y-136179000D02*
X157709000Y-136179000D01*
X153622000Y-135579000D02*
X156378000Y-135579000D01*
X151399000Y-136899000D02*
X153759000Y-136899000D01*
X151321000Y-136979000D02*
X153759000Y-136979000D01*
X150702000Y-137779000D02*
X153759000Y-137779000D01*
X156241000Y-137059000D02*
X158753000Y-137059000D01*
X150379000Y-138379000D02*
X153759000Y-138379000D01*
X150753000Y-137699000D02*
X153759000Y-137699000D01*
X150293000Y-138579000D02*
X153759000Y-138579000D01*
X150920000Y-137459000D02*
X153759000Y-137459000D01*
X150072000Y-139259000D02*
X159928000Y-139259000D01*
X152421000Y-136099000D02*
X157579000Y-136099000D01*
X150217000Y-138779000D02*
X153759000Y-138779000D01*
X150277000Y-138619000D02*
X153759000Y-138619000D01*
X156241000Y-138059000D02*
X159462000Y-138059000D01*
X151699000Y-136619000D02*
X158301000Y-136619000D01*
X151625000Y-145479646D02*
X152625000Y-145479646D01*
X150003000Y-139579000D02*
X159997000Y-139579000D01*
X156241000Y-138819000D02*
X159797000Y-138819000D01*
X156241000Y-138379000D02*
X159621000Y-138379000D01*
X156241000Y-138899000D02*
X159824000Y-138899000D01*
X151284000Y-137019000D02*
X153759000Y-137019000D01*
X151075000Y-137259000D02*
X153759000Y-137259000D01*
X156241000Y-137939000D02*
X159395000Y-137939000D01*
X156241000Y-138459000D02*
X159657000Y-138459000D01*
X150727000Y-137739000D02*
X153759000Y-137739000D01*
X153370000Y-135659000D02*
X156630000Y-135659000D01*
X156241000Y-137859000D02*
X159347000Y-137859000D01*
X156241000Y-137379000D02*
X159020000Y-137379000D01*
X149982000Y-139699000D02*
X160018000Y-139699000D01*
X149976000Y-139739000D02*
X160024000Y-139739000D01*
X151142000Y-137179000D02*
X153759000Y-137179000D01*
X156241000Y-137459000D02*
X159080000Y-137459000D01*
X151480000Y-136819000D02*
X153759000Y-136819000D01*
X156241000Y-138619000D02*
X159723000Y-138619000D01*
X149932000Y-140140000D02*
X160068000Y-140140000D01*
X150018000Y-139499000D02*
X159982000Y-139499000D01*
X151564000Y-136739000D02*
X158436000Y-136739000D01*
X156241000Y-137179000D02*
X158858000Y-137179000D01*
X153770000Y-135539000D02*
X156230000Y-135539000D01*
X156241000Y-136939000D02*
X158640000Y-136939000D01*
X151043000Y-137299000D02*
X153759000Y-137299000D01*
X152355000Y-136139000D02*
X157645000Y-136139000D01*
X152963000Y-135819000D02*
X157037000Y-135819000D01*
X150560000Y-138019000D02*
X153759000Y-138019000D01*
X150436000Y-138259000D02*
X153759000Y-138259000D01*
X152125000Y-145979646D02*
X152125000Y-144979646D01*
X156241000Y-136859000D02*
X158561000Y-136859000D01*
X150126000Y-139059000D02*
X153759000Y-139059000D01*
X153490000Y-135619000D02*
X156510000Y-135619000D01*
X156241000Y-139059000D02*
X159874000Y-139059000D01*
X149946000Y-139980000D02*
X160054000Y-139980000D01*
X156241000Y-138219000D02*
X159545000Y-138219000D01*
X149922000Y-140340000D02*
X160078000Y-140340000D01*
X150605000Y-137939000D02*
X153759000Y-137939000D01*
X156241000Y-138939000D02*
X159837000Y-138939000D01*
X150862000Y-137539000D02*
X153759000Y-137539000D01*
X151211000Y-137099000D02*
X153759000Y-137099000D01*
X156241000Y-137139000D02*
X158824000Y-137139000D01*
X156241000Y-139219000D02*
X159918000Y-139219000D01*
X150203000Y-138819000D02*
X153759000Y-138819000D01*
X156241000Y-139179000D02*
X159907000Y-139179000D01*
X150232000Y-138739000D02*
X153759000Y-138739000D01*
X149965000Y-139820000D02*
X160035000Y-139820000D01*
X151108000Y-137219000D02*
X153759000Y-137219000D01*
X150538000Y-138059000D02*
X153759000Y-138059000D01*
X149989000Y-139659000D02*
X160011000Y-139659000D01*
X150093000Y-139179000D02*
X153759000Y-139179000D01*
X149955000Y-139900000D02*
X160045000Y-139900000D01*
X150082000Y-139219000D02*
X153759000Y-139219000D01*
X156241000Y-137499000D02*
X159110000Y-137499000D01*
X149950000Y-139940000D02*
X160050000Y-139940000D01*
X156241000Y-136819000D02*
X158520000Y-136819000D01*
X156241000Y-137899000D02*
X159371000Y-137899000D01*
X150310000Y-138539000D02*
X153759000Y-138539000D01*
X156241000Y-139099000D02*
X159885000Y-139099000D01*
X151894000Y-136459000D02*
X158106000Y-136459000D01*
X156241000Y-138659000D02*
X159738000Y-138659000D01*
X156241000Y-137299000D02*
X158957000Y-137299000D01*
X156241000Y-139139000D02*
X159897000Y-139139000D01*
X149925000Y-140260000D02*
X160075000Y-140260000D01*
X150138000Y-139019000D02*
X153759000Y-139019000D01*
X152170000Y-136259000D02*
X157830000Y-136259000D01*
X151522000Y-136779000D02*
X153759000Y-136779000D01*
X150890000Y-137499000D02*
X153759000Y-137499000D01*
X150806000Y-137619000D02*
X153759000Y-137619000D01*
X156241000Y-138099000D02*
X159483000Y-138099000D01*
X150035000Y-139419000D02*
X159965000Y-139419000D01*
X156241000Y-137819000D02*
X159323000Y-137819000D01*
X149923000Y-140300000D02*
X160077000Y-140300000D01*
X149927000Y-140220000D02*
X160073000Y-140220000D01*
X151794000Y-136539000D02*
X158206000Y-136539000D01*
X156241000Y-137699000D02*
X159247000Y-137699000D01*
X150455000Y-138219000D02*
X153759000Y-138219000D01*
X160120000Y-140500000D02*
G75*
G03*
X160120000Y-140500000I-5120000J0D01*
G01*
X159979000Y-68509000D02*
X140421000Y-68509000D01*
X140421000Y-51491000D02*
X140421000Y-68509000D01*
X159979000Y-68509000D02*
X159979000Y-51491000D01*
X159979000Y-51491000D02*
X140421000Y-51491000D01*
X184341000Y-126653000D02*
X184341000Y-133347000D01*
X183061000Y-125605000D02*
X183061000Y-128759000D01*
X182541000Y-131241000D02*
X182541000Y-134657000D01*
X181701000Y-125062000D02*
X181701000Y-134938000D01*
X183861000Y-131241000D02*
X183861000Y-133824000D01*
X184301000Y-126608000D02*
X184301000Y-133392000D01*
X182501000Y-125326000D02*
X182501000Y-128759000D01*
X181621000Y-125044000D02*
X181621000Y-134956000D01*
X185341000Y-128370000D02*
X185341000Y-131630000D01*
X183221000Y-125702000D02*
X183221000Y-128759000D01*
X184021000Y-131241000D02*
X184021000Y-133679000D01*
X183221000Y-131241000D02*
X183221000Y-134298000D01*
X183901000Y-126211000D02*
X183901000Y-128759000D01*
X182341000Y-125262000D02*
X182341000Y-128759000D01*
X185181000Y-127963000D02*
X185181000Y-132037000D01*
X184981000Y-127561000D02*
X184981000Y-132439000D01*
X183781000Y-131241000D02*
X183781000Y-133892000D01*
X183101000Y-125629000D02*
X183101000Y-128759000D01*
X181981000Y-125138000D02*
X181981000Y-128759000D01*
X181861000Y-125103000D02*
X181861000Y-128759000D01*
X181100000Y-124955000D02*
X181100000Y-135045000D01*
X181060000Y-124950000D02*
X181060000Y-135050000D01*
X182501000Y-131241000D02*
X182501000Y-134674000D01*
X182541000Y-125343000D02*
X182541000Y-128759000D01*
X182221000Y-125217000D02*
X182221000Y-128759000D01*
X183581000Y-131241000D02*
X183581000Y-134050000D01*
X181781000Y-131241000D02*
X181781000Y-134918000D01*
X180940000Y-124938000D02*
X180940000Y-135062000D01*
X184181000Y-126480000D02*
X184181000Y-128759000D01*
X183621000Y-125980000D02*
X183621000Y-128759000D01*
X184621000Y-127000000D02*
X184621000Y-133000000D01*
X182741000Y-125436000D02*
X182741000Y-128759000D01*
X181941000Y-131241000D02*
X181941000Y-134874000D01*
X180780000Y-124927000D02*
X180780000Y-135073000D01*
X184661000Y-127055000D02*
X184661000Y-132945000D01*
X181821000Y-131241000D02*
X181821000Y-134907000D01*
X182101000Y-131241000D02*
X182101000Y-134824000D01*
X182341000Y-131241000D02*
X182341000Y-134738000D01*
X183341000Y-131241000D02*
X183341000Y-134221000D01*
X181421000Y-125003000D02*
X181421000Y-134997000D01*
X181381000Y-124996000D02*
X181381000Y-135004000D01*
X181501000Y-125018000D02*
X181501000Y-134982000D01*
X183181000Y-131241000D02*
X183181000Y-134323000D01*
X180860000Y-124932000D02*
X180860000Y-135068000D01*
X183981000Y-131241000D02*
X183981000Y-133716000D01*
X183821000Y-126142000D02*
X183821000Y-128759000D01*
X183941000Y-126247000D02*
X183941000Y-128759000D01*
X183461000Y-131241000D02*
X183461000Y-134138000D01*
X184421000Y-126746000D02*
X184421000Y-133254000D01*
X184261000Y-126564000D02*
X184261000Y-133436000D01*
X183141000Y-125653000D02*
X183141000Y-128759000D01*
X182821000Y-131241000D02*
X182821000Y-134525000D01*
X180660000Y-124922000D02*
X180660000Y-135078000D01*
X182181000Y-131241000D02*
X182181000Y-134797000D01*
X181741000Y-125072000D02*
X181741000Y-134928000D01*
X182461000Y-125310000D02*
X182461000Y-128759000D01*
X182661000Y-131241000D02*
X182661000Y-134603000D01*
X184021000Y-126321000D02*
X184021000Y-128759000D01*
X183861000Y-126176000D02*
X183861000Y-128759000D01*
X180700000Y-124923000D02*
X180700000Y-135077000D01*
X181020000Y-124946000D02*
X181020000Y-135054000D01*
X184101000Y-131241000D02*
X184101000Y-133601000D01*
X183661000Y-126011000D02*
X183661000Y-128759000D01*
X181781000Y-125082000D02*
X181781000Y-128759000D01*
X181261000Y-124976000D02*
X181261000Y-135024000D01*
X182301000Y-125246000D02*
X182301000Y-128759000D01*
X184781000Y-127230000D02*
X184781000Y-132770000D01*
X183821000Y-131241000D02*
X183821000Y-133858000D01*
X184941000Y-127490000D02*
X184941000Y-132510000D01*
X182261000Y-131241000D02*
X182261000Y-134768000D01*
X184181000Y-131241000D02*
X184181000Y-133520000D01*
X183501000Y-125890000D02*
X183501000Y-128759000D01*
X180500000Y-124920000D02*
X180500000Y-135080000D01*
X183701000Y-131241000D02*
X183701000Y-133957000D01*
X182141000Y-131241000D02*
X182141000Y-134811000D01*
X181180000Y-124965000D02*
X181180000Y-135035000D01*
X184821000Y-127291000D02*
X184821000Y-132709000D01*
X182141000Y-125189000D02*
X182141000Y-128759000D01*
X184581000Y-126946000D02*
X184581000Y-133054000D01*
X183301000Y-131241000D02*
X183301000Y-134247000D01*
X185101000Y-127791000D02*
X185101000Y-132209000D01*
X180620000Y-124921000D02*
X180620000Y-135079000D01*
X182901000Y-125517000D02*
X182901000Y-128759000D01*
X185421000Y-128622000D02*
X185421000Y-131378000D01*
X183581000Y-125950000D02*
X183581000Y-128759000D01*
X181861000Y-131241000D02*
X181861000Y-134897000D01*
X182981000Y-131241000D02*
X182981000Y-134440000D01*
X182021000Y-131241000D02*
X182021000Y-134850000D01*
X182941000Y-131241000D02*
X182941000Y-134462000D01*
X183701000Y-126043000D02*
X183701000Y-128759000D01*
X183101000Y-131241000D02*
X183101000Y-134371000D01*
X182061000Y-125163000D02*
X182061000Y-128759000D01*
X183661000Y-131241000D02*
X183661000Y-133989000D01*
X181140000Y-124960000D02*
X181140000Y-135040000D01*
X183261000Y-131241000D02*
X183261000Y-134273000D01*
X182661000Y-125397000D02*
X182661000Y-128759000D01*
X185381000Y-128490000D02*
X185381000Y-131510000D01*
X182221000Y-131241000D02*
X182221000Y-134783000D01*
X182621000Y-125379000D02*
X182621000Y-128759000D01*
X183181000Y-125677000D02*
X183181000Y-128759000D01*
X184141000Y-126439000D02*
X184141000Y-128759000D01*
X184221000Y-131241000D02*
X184221000Y-133478000D01*
X183541000Y-131241000D02*
X183541000Y-134080000D01*
X184701000Y-127111000D02*
X184701000Y-132889000D01*
X183901000Y-131241000D02*
X183901000Y-133789000D01*
X182861000Y-131241000D02*
X182861000Y-134504000D01*
X184061000Y-131241000D02*
X184061000Y-133640000D01*
X181941000Y-125126000D02*
X181941000Y-128759000D01*
X182861000Y-125496000D02*
X182861000Y-128759000D01*
X183061000Y-131241000D02*
X183061000Y-134395000D01*
X182461000Y-131241000D02*
X182461000Y-134690000D01*
X183381000Y-131241000D02*
X183381000Y-134194000D01*
X182741000Y-131241000D02*
X182741000Y-134564000D01*
X184541000Y-126894000D02*
X184541000Y-133106000D01*
X184461000Y-126794000D02*
X184461000Y-133206000D01*
X185581000Y-129401000D02*
X185581000Y-130599000D01*
X180820000Y-124930000D02*
X180820000Y-135070000D01*
X182381000Y-125277000D02*
X182381000Y-128759000D01*
X185261000Y-128154000D02*
X185261000Y-131846000D01*
X185141000Y-127875000D02*
X185141000Y-132125000D01*
X182421000Y-125293000D02*
X182421000Y-128759000D01*
X182061000Y-131241000D02*
X182061000Y-134837000D01*
X175020354Y-127125000D02*
X176020354Y-127125000D01*
X183301000Y-125753000D02*
X183301000Y-128759000D01*
X181981000Y-131241000D02*
X181981000Y-134862000D01*
X180900000Y-124935000D02*
X180900000Y-135065000D01*
X181821000Y-125093000D02*
X181821000Y-128759000D01*
X181341000Y-124989000D02*
X181341000Y-135011000D01*
X184141000Y-131241000D02*
X184141000Y-133561000D01*
X185461000Y-128770000D02*
X185461000Y-131230000D01*
X183421000Y-125834000D02*
X183421000Y-128759000D01*
X181461000Y-125010000D02*
X181461000Y-134990000D01*
X183021000Y-125583000D02*
X183021000Y-128759000D01*
X182421000Y-131241000D02*
X182421000Y-134707000D01*
X180980000Y-124942000D02*
X180980000Y-135058000D01*
X183741000Y-131241000D02*
X183741000Y-133925000D01*
X182581000Y-125361000D02*
X182581000Y-128759000D01*
X182701000Y-131241000D02*
X182701000Y-134584000D01*
X182781000Y-131241000D02*
X182781000Y-134545000D01*
X184861000Y-127355000D02*
X184861000Y-132645000D01*
X182941000Y-125538000D02*
X182941000Y-128759000D01*
X183541000Y-125920000D02*
X183541000Y-128759000D01*
X182101000Y-125176000D02*
X182101000Y-128759000D01*
X182781000Y-125455000D02*
X182781000Y-128759000D01*
X183461000Y-125862000D02*
X183461000Y-128759000D01*
X180540000Y-124920000D02*
X180540000Y-135080000D01*
X184221000Y-126522000D02*
X184221000Y-128759000D01*
X184741000Y-127170000D02*
X184741000Y-132830000D01*
X182701000Y-125416000D02*
X182701000Y-128759000D01*
X183261000Y-125727000D02*
X183261000Y-128759000D01*
X183741000Y-126075000D02*
X183741000Y-128759000D01*
X181221000Y-124970000D02*
X181221000Y-135030000D01*
X182301000Y-131241000D02*
X182301000Y-134754000D01*
X182021000Y-125150000D02*
X182021000Y-128759000D01*
X185541000Y-129138000D02*
X185541000Y-130862000D01*
X185021000Y-127635000D02*
X185021000Y-132365000D01*
X183981000Y-126284000D02*
X183981000Y-128759000D01*
X183421000Y-131241000D02*
X183421000Y-134166000D01*
X182621000Y-131241000D02*
X182621000Y-134621000D01*
X183141000Y-131241000D02*
X183141000Y-134347000D01*
X184061000Y-126360000D02*
X184061000Y-128759000D01*
X183021000Y-131241000D02*
X183021000Y-134417000D01*
X181301000Y-124982000D02*
X181301000Y-135018000D01*
X181661000Y-125053000D02*
X181661000Y-134947000D01*
X182821000Y-125475000D02*
X182821000Y-128759000D01*
X184901000Y-127421000D02*
X184901000Y-132579000D01*
X180740000Y-124925000D02*
X180740000Y-135075000D01*
X181901000Y-125115000D02*
X181901000Y-128759000D01*
X185221000Y-128056000D02*
X185221000Y-131944000D01*
X180580000Y-124920000D02*
X180580000Y-135080000D01*
X184501000Y-126844000D02*
X184501000Y-133156000D01*
X184381000Y-126699000D02*
X184381000Y-133301000D01*
X183941000Y-131241000D02*
X183941000Y-133753000D01*
X183621000Y-131241000D02*
X183621000Y-134020000D01*
X182181000Y-125203000D02*
X182181000Y-128759000D01*
X185301000Y-128258000D02*
X185301000Y-131742000D01*
X175520354Y-126625000D02*
X175520354Y-127625000D01*
X182381000Y-131241000D02*
X182381000Y-134723000D01*
X183781000Y-126108000D02*
X183781000Y-128759000D01*
X182901000Y-131241000D02*
X182901000Y-134483000D01*
X181541000Y-125026000D02*
X181541000Y-134974000D01*
X185501000Y-128938000D02*
X185501000Y-131062000D01*
X181581000Y-125035000D02*
X181581000Y-134965000D01*
X185061000Y-127711000D02*
X185061000Y-132289000D01*
X183501000Y-131241000D02*
X183501000Y-134110000D01*
X183381000Y-125806000D02*
X183381000Y-128759000D01*
X182581000Y-131241000D02*
X182581000Y-134639000D01*
X184101000Y-126399000D02*
X184101000Y-128759000D01*
X181901000Y-131241000D02*
X181901000Y-134885000D01*
X182261000Y-125232000D02*
X182261000Y-128759000D01*
X182981000Y-125560000D02*
X182981000Y-128759000D01*
X183341000Y-125779000D02*
X183341000Y-128759000D01*
X185620000Y-130000000D02*
G75*
G03*
X185620000Y-130000000I-5120000J0D01*
G01*
X181781000Y-118741000D02*
X181781000Y-122418000D01*
X184901000Y-114921000D02*
X184901000Y-120079000D01*
X183101000Y-118741000D02*
X183101000Y-121871000D01*
X181621000Y-112544000D02*
X181621000Y-122456000D01*
X182101000Y-112676000D02*
X182101000Y-116259000D01*
X184621000Y-114500000D02*
X184621000Y-120500000D01*
X184061000Y-118741000D02*
X184061000Y-121140000D01*
X181941000Y-118741000D02*
X181941000Y-122374000D01*
X182541000Y-118741000D02*
X182541000Y-122157000D01*
X183541000Y-113420000D02*
X183541000Y-116259000D01*
X182181000Y-112703000D02*
X182181000Y-116259000D01*
X182301000Y-112746000D02*
X182301000Y-116259000D01*
X184141000Y-113939000D02*
X184141000Y-116259000D01*
X182301000Y-118741000D02*
X182301000Y-122254000D01*
X182781000Y-112955000D02*
X182781000Y-116259000D01*
X182661000Y-118741000D02*
X182661000Y-122103000D01*
X182701000Y-118741000D02*
X182701000Y-122084000D01*
X182581000Y-118741000D02*
X182581000Y-122139000D01*
X182061000Y-112663000D02*
X182061000Y-116259000D01*
X180580000Y-112420000D02*
X180580000Y-122580000D01*
X183581000Y-113450000D02*
X183581000Y-116259000D01*
X183301000Y-113253000D02*
X183301000Y-116259000D01*
X182221000Y-112717000D02*
X182221000Y-116259000D01*
X184421000Y-114246000D02*
X184421000Y-120754000D01*
X183181000Y-113177000D02*
X183181000Y-116259000D01*
X185301000Y-115758000D02*
X185301000Y-119242000D01*
X183661000Y-113511000D02*
X183661000Y-116259000D01*
X182981000Y-113060000D02*
X182981000Y-116259000D01*
X182541000Y-112843000D02*
X182541000Y-116259000D01*
X181781000Y-112582000D02*
X181781000Y-116259000D01*
X182621000Y-118741000D02*
X182621000Y-122121000D01*
X175520354Y-114125000D02*
X175520354Y-115125000D01*
X181421000Y-112503000D02*
X181421000Y-122497000D01*
X184981000Y-115061000D02*
X184981000Y-119939000D01*
X182421000Y-118741000D02*
X182421000Y-122207000D01*
X183821000Y-118741000D02*
X183821000Y-121358000D01*
X185461000Y-116270000D02*
X185461000Y-118730000D01*
X184141000Y-118741000D02*
X184141000Y-121061000D01*
X181541000Y-112526000D02*
X181541000Y-122474000D01*
X184061000Y-113860000D02*
X184061000Y-116259000D01*
X182021000Y-112650000D02*
X182021000Y-116259000D01*
X181501000Y-112518000D02*
X181501000Y-122482000D01*
X183821000Y-113642000D02*
X183821000Y-116259000D01*
X180980000Y-112442000D02*
X180980000Y-122558000D01*
X183781000Y-113608000D02*
X183781000Y-116259000D01*
X182861000Y-118741000D02*
X182861000Y-122004000D01*
X185221000Y-115556000D02*
X185221000Y-119444000D01*
X185181000Y-115463000D02*
X185181000Y-119537000D01*
X180500000Y-112420000D02*
X180500000Y-122580000D01*
X182981000Y-118741000D02*
X182981000Y-121940000D01*
X183101000Y-113129000D02*
X183101000Y-116259000D01*
X182661000Y-112897000D02*
X182661000Y-116259000D01*
X184101000Y-118741000D02*
X184101000Y-121101000D01*
X182741000Y-112936000D02*
X182741000Y-116259000D01*
X185021000Y-115135000D02*
X185021000Y-119865000D01*
X183301000Y-118741000D02*
X183301000Y-121747000D01*
X182381000Y-118741000D02*
X182381000Y-122223000D01*
X181821000Y-112593000D02*
X181821000Y-116259000D01*
X181341000Y-112489000D02*
X181341000Y-122511000D01*
X182181000Y-118741000D02*
X182181000Y-122297000D01*
X183061000Y-113105000D02*
X183061000Y-116259000D01*
X182781000Y-118741000D02*
X182781000Y-122045000D01*
X182021000Y-118741000D02*
X182021000Y-122350000D01*
X182341000Y-112762000D02*
X182341000Y-116259000D01*
X183941000Y-118741000D02*
X183941000Y-121253000D01*
X182461000Y-118741000D02*
X182461000Y-122190000D01*
X182941000Y-118741000D02*
X182941000Y-121962000D01*
X185501000Y-116438000D02*
X185501000Y-118562000D01*
X182621000Y-112879000D02*
X182621000Y-116259000D01*
X183461000Y-118741000D02*
X183461000Y-121638000D01*
X180700000Y-112423000D02*
X180700000Y-122577000D01*
X183901000Y-118741000D02*
X183901000Y-121289000D01*
X183941000Y-113747000D02*
X183941000Y-116259000D01*
X184181000Y-118741000D02*
X184181000Y-121020000D01*
X182501000Y-112826000D02*
X182501000Y-116259000D01*
X183021000Y-118741000D02*
X183021000Y-121917000D01*
X181941000Y-112626000D02*
X181941000Y-116259000D01*
X183141000Y-118741000D02*
X183141000Y-121847000D01*
X183381000Y-113306000D02*
X183381000Y-116259000D01*
X184741000Y-114670000D02*
X184741000Y-120330000D01*
X181821000Y-118741000D02*
X181821000Y-122407000D01*
X183621000Y-118741000D02*
X183621000Y-121520000D01*
X182261000Y-118741000D02*
X182261000Y-122268000D01*
X180860000Y-112432000D02*
X180860000Y-122568000D01*
X184221000Y-118741000D02*
X184221000Y-120978000D01*
X183981000Y-118741000D02*
X183981000Y-121216000D01*
X182461000Y-112810000D02*
X182461000Y-116259000D01*
X182141000Y-112689000D02*
X182141000Y-116259000D01*
X181741000Y-112572000D02*
X181741000Y-122428000D01*
X184781000Y-114730000D02*
X184781000Y-120270000D01*
X182581000Y-112861000D02*
X182581000Y-116259000D01*
X181581000Y-112535000D02*
X181581000Y-122465000D01*
X184941000Y-114990000D02*
X184941000Y-120010000D01*
X185061000Y-115211000D02*
X185061000Y-119789000D01*
X180820000Y-112430000D02*
X180820000Y-122570000D01*
X185101000Y-115291000D02*
X185101000Y-119709000D01*
X183021000Y-113083000D02*
X183021000Y-116259000D01*
X181020000Y-112446000D02*
X181020000Y-122554000D01*
X181221000Y-112470000D02*
X181221000Y-122530000D01*
X183661000Y-118741000D02*
X183661000Y-121489000D01*
X181661000Y-112553000D02*
X181661000Y-122447000D01*
X183421000Y-118741000D02*
X183421000Y-121666000D01*
X184301000Y-114108000D02*
X184301000Y-120892000D01*
X183341000Y-113279000D02*
X183341000Y-116259000D01*
X183981000Y-113784000D02*
X183981000Y-116259000D01*
X183781000Y-118741000D02*
X183781000Y-121392000D01*
X183381000Y-118741000D02*
X183381000Y-121694000D01*
X184581000Y-114446000D02*
X184581000Y-120554000D01*
X185341000Y-115870000D02*
X185341000Y-119130000D01*
X183341000Y-118741000D02*
X183341000Y-121721000D01*
X184461000Y-114294000D02*
X184461000Y-120706000D01*
X183541000Y-118741000D02*
X183541000Y-121580000D01*
X183741000Y-118741000D02*
X183741000Y-121425000D01*
X184861000Y-114855000D02*
X184861000Y-120145000D01*
X183901000Y-113711000D02*
X183901000Y-116259000D01*
X184021000Y-113821000D02*
X184021000Y-116259000D01*
X182101000Y-118741000D02*
X182101000Y-122324000D01*
X181261000Y-112476000D02*
X181261000Y-122524000D01*
X183701000Y-113543000D02*
X183701000Y-116259000D01*
X182941000Y-113038000D02*
X182941000Y-116259000D01*
X182741000Y-118741000D02*
X182741000Y-122064000D01*
X185261000Y-115654000D02*
X185261000Y-119346000D01*
X184181000Y-113980000D02*
X184181000Y-116259000D01*
X182261000Y-112732000D02*
X182261000Y-116259000D01*
X181901000Y-112615000D02*
X181901000Y-116259000D01*
X180620000Y-112421000D02*
X180620000Y-122579000D01*
X183221000Y-113202000D02*
X183221000Y-116259000D01*
X183581000Y-118741000D02*
X183581000Y-121550000D01*
X180740000Y-112425000D02*
X180740000Y-122575000D01*
X183621000Y-113480000D02*
X183621000Y-116259000D01*
X183701000Y-118741000D02*
X183701000Y-121457000D01*
X183501000Y-113390000D02*
X183501000Y-116259000D01*
X181060000Y-112450000D02*
X181060000Y-122550000D01*
X185541000Y-116638000D02*
X185541000Y-118362000D01*
X185581000Y-116901000D02*
X185581000Y-118099000D01*
X182501000Y-118741000D02*
X182501000Y-122174000D01*
X180900000Y-112435000D02*
X180900000Y-122565000D01*
X185381000Y-115990000D02*
X185381000Y-119010000D01*
X184341000Y-114153000D02*
X184341000Y-120847000D01*
X184221000Y-114022000D02*
X184221000Y-116259000D01*
X181981000Y-112638000D02*
X181981000Y-116259000D01*
X182901000Y-113017000D02*
X182901000Y-116259000D01*
X182701000Y-112916000D02*
X182701000Y-116259000D01*
X183861000Y-113676000D02*
X183861000Y-116259000D01*
X183061000Y-118741000D02*
X183061000Y-121895000D01*
X181180000Y-112465000D02*
X181180000Y-122535000D01*
X182821000Y-112975000D02*
X182821000Y-116259000D01*
X181140000Y-112460000D02*
X181140000Y-122540000D01*
X183261000Y-113227000D02*
X183261000Y-116259000D01*
X183741000Y-113575000D02*
X183741000Y-116259000D01*
X183221000Y-118741000D02*
X183221000Y-121798000D01*
X181981000Y-118741000D02*
X181981000Y-122362000D01*
X182861000Y-112996000D02*
X182861000Y-116259000D01*
X181461000Y-112510000D02*
X181461000Y-122490000D01*
X182821000Y-118741000D02*
X182821000Y-122025000D01*
X183261000Y-118741000D02*
X183261000Y-121773000D01*
X182901000Y-118741000D02*
X182901000Y-121983000D01*
X181100000Y-112455000D02*
X181100000Y-122545000D01*
X183141000Y-113153000D02*
X183141000Y-116259000D01*
X182141000Y-118741000D02*
X182141000Y-122311000D01*
X184661000Y-114555000D02*
X184661000Y-120445000D01*
X181901000Y-118741000D02*
X181901000Y-122385000D01*
X185421000Y-116122000D02*
X185421000Y-118878000D01*
X182221000Y-118741000D02*
X182221000Y-122283000D01*
X184501000Y-114344000D02*
X184501000Y-120656000D01*
X182421000Y-112793000D02*
X182421000Y-116259000D01*
X180940000Y-112438000D02*
X180940000Y-122562000D01*
X184261000Y-114064000D02*
X184261000Y-120936000D01*
X185141000Y-115375000D02*
X185141000Y-119625000D01*
X183181000Y-118741000D02*
X183181000Y-121823000D01*
X183461000Y-113362000D02*
X183461000Y-116259000D01*
X182381000Y-112777000D02*
X182381000Y-116259000D01*
X182061000Y-118741000D02*
X182061000Y-122337000D01*
X183501000Y-118741000D02*
X183501000Y-121610000D01*
X181381000Y-112496000D02*
X181381000Y-122504000D01*
X180780000Y-112427000D02*
X180780000Y-122573000D01*
X184101000Y-113899000D02*
X184101000Y-116259000D01*
X180540000Y-112420000D02*
X180540000Y-122580000D01*
X184821000Y-114791000D02*
X184821000Y-120209000D01*
X181701000Y-112562000D02*
X181701000Y-122438000D01*
X180660000Y-112422000D02*
X180660000Y-122578000D01*
X183421000Y-113334000D02*
X183421000Y-116259000D01*
X184701000Y-114611000D02*
X184701000Y-120389000D01*
X181861000Y-118741000D02*
X181861000Y-122397000D01*
X181301000Y-112482000D02*
X181301000Y-122518000D01*
X184541000Y-114394000D02*
X184541000Y-120606000D01*
X181861000Y-112603000D02*
X181861000Y-116259000D01*
X175020354Y-114625000D02*
X176020354Y-114625000D01*
X184381000Y-114199000D02*
X184381000Y-120801000D01*
X182341000Y-118741000D02*
X182341000Y-122238000D01*
X184021000Y-118741000D02*
X184021000Y-121179000D01*
X183861000Y-118741000D02*
X183861000Y-121324000D01*
X185620000Y-117500000D02*
G75*
G03*
X185620000Y-117500000I-5120000J0D01*
G01*
X160500000Y-131000000D02*
X100500000Y-131000000D01*
X100500000Y-131000000D02*
X100500000Y-71000000D01*
X100500000Y-71000000D02*
X160500000Y-71000000D01*
X160500000Y-71000000D02*
X160500000Y-131000000D01*
X194450000Y-116050000D02*
X194450000Y-118950000D01*
X191550000Y-118950000D02*
X191550000Y-116050000D01*
X194450000Y-118950000D02*
X191550000Y-118950000D01*
X191550000Y-116050000D02*
X194450000Y-116050000D01*
X180761252Y-137735000D02*
X180238748Y-137735000D01*
X180761252Y-136265000D02*
X180238748Y-136265000D01*
X161765000Y-143738748D02*
X161765000Y-144261252D01*
X163235000Y-143738748D02*
X163235000Y-144261252D01*
X167800000Y-123700000D02*
X167800000Y-120300000D01*
X171200000Y-123700000D02*
X167800000Y-123700000D01*
X167800000Y-120300000D02*
X171200000Y-120300000D01*
X171200000Y-120300000D02*
X171200000Y-123700000D01*
X173735000Y-143736000D02*
X173688000Y-143782000D01*
X164540000Y-149705000D02*
X165040000Y-149705000D01*
X164540000Y-148965000D02*
X164540000Y-149705000D01*
X183690000Y-143530000D02*
X183655000Y-143566000D01*
X171233000Y-145828000D02*
X171186000Y-145874000D01*
X164780000Y-139544000D02*
X164780000Y-149465000D01*
X181586000Y-146044000D02*
X181551000Y-146079000D01*
X164780000Y-139544000D02*
X185220000Y-139544000D01*
X181393000Y-145828000D02*
X181346000Y-145874000D01*
X178610000Y-143530000D02*
X178575000Y-143566000D01*
X185220000Y-139544000D02*
X185220000Y-149465000D01*
X164780000Y-142504000D02*
X185220000Y-142504000D01*
X176506000Y-146044000D02*
X176471000Y-146079000D01*
X164780000Y-147405000D02*
X185220000Y-147405000D01*
X171426000Y-146044000D02*
X171391000Y-146079000D01*
X178815000Y-143736000D02*
X178768000Y-143782000D01*
X183895000Y-143736000D02*
X183848000Y-143782000D01*
X173530000Y-143530000D02*
X173495000Y-143566000D01*
X176313000Y-145828000D02*
X176266000Y-145874000D01*
X164780000Y-148905000D02*
X185220000Y-148905000D01*
X164780000Y-149465000D02*
X185220000Y-149465000D01*
X166696000Y-146340000D02*
G75*
G03*
X167408805Y-146485253I683999J1535001D01*
G01*
X168915001Y-145489000D02*
G75*
G03*
X168915427Y-144121958I-1535001J684000D01*
G01*
X168064000Y-143270000D02*
G75*
G03*
X166696958Y-143269573I-684001J-1534993D01*
G01*
X165845000Y-144121000D02*
G75*
G03*
X165844573Y-145488042I1534993J-684001D01*
G01*
X167380000Y-146485000D02*
G75*
G03*
X168063318Y-146339756I0J1680000D01*
G01*
X174140000Y-144805000D02*
G75*
G03*
X174140000Y-144805000I-1680000J0D01*
G01*
X184300000Y-144805000D02*
G75*
G03*
X184300000Y-144805000I-1680000J0D01*
G01*
X179220000Y-144805000D02*
G75*
G03*
X179220000Y-144805000I-1680000J0D01*
G01*
X163300000Y-101700000D02*
X163300000Y-98300000D01*
X163300000Y-98300000D02*
X166700000Y-98300000D01*
X166700000Y-98300000D02*
X166700000Y-101700000D01*
X166700000Y-101700000D02*
X163300000Y-101700000D01*
G36*
X174156047Y-91999561D02*
G01*
X174242554Y-92017161D01*
X174250969Y-92019965D01*
X174299465Y-92044033D01*
X174355169Y-92081797D01*
X174409592Y-92126057D01*
X174454249Y-92169610D01*
X174480652Y-92205254D01*
X174484356Y-92218027D01*
X174469480Y-92235674D01*
X174430699Y-92263724D01*
X174376748Y-92295912D01*
X174269355Y-92354896D01*
X174230909Y-92300903D01*
X174171165Y-92245917D01*
X174096000Y-92219761D01*
X174015219Y-92225180D01*
X173990717Y-92233639D01*
X173927912Y-92271686D01*
X173886199Y-92327723D01*
X173861940Y-92408057D01*
X173854280Y-92470165D01*
X173854892Y-92586167D01*
X173878393Y-92677082D01*
X173925999Y-92746926D01*
X173942889Y-92762478D01*
X174008378Y-92798108D01*
X174083087Y-92809361D01*
X174156416Y-92797538D01*
X174217766Y-92763942D01*
X174249787Y-92724782D01*
X174271276Y-92694672D01*
X174298113Y-92684365D01*
X174337882Y-92694242D01*
X174398167Y-92724686D01*
X174412896Y-92733015D01*
X174503220Y-92784602D01*
X174428186Y-92869845D01*
X174341029Y-92952843D01*
X174248586Y-93005228D01*
X174140438Y-93031957D01*
X174076357Y-93037288D01*
X174003195Y-93038034D01*
X173936956Y-93034665D01*
X173894928Y-93028499D01*
X173781771Y-92981018D01*
X173683817Y-92904686D01*
X173608283Y-92806046D01*
X173577312Y-92740452D01*
X173547620Y-92617926D01*
X173541947Y-92483503D01*
X173560252Y-92352453D01*
X173578445Y-92292805D01*
X173626103Y-92203958D01*
X173696069Y-92121320D01*
X173778395Y-92054638D01*
X173863133Y-92013659D01*
X173863436Y-92013568D01*
X173950149Y-91997494D01*
X174053132Y-91992915D01*
X174156047Y-91999561D01*
G37*
D15*
X174156047Y-91999561D02*
X174242554Y-92017161D01*
X174250969Y-92019965D01*
X174299465Y-92044033D01*
X174355169Y-92081797D01*
X174409592Y-92126057D01*
X174454249Y-92169610D01*
X174480652Y-92205254D01*
X174484356Y-92218027D01*
X174469480Y-92235674D01*
X174430699Y-92263724D01*
X174376748Y-92295912D01*
X174269355Y-92354896D01*
X174230909Y-92300903D01*
X174171165Y-92245917D01*
X174096000Y-92219761D01*
X174015219Y-92225180D01*
X173990717Y-92233639D01*
X173927912Y-92271686D01*
X173886199Y-92327723D01*
X173861940Y-92408057D01*
X173854280Y-92470165D01*
X173854892Y-92586167D01*
X173878393Y-92677082D01*
X173925999Y-92746926D01*
X173942889Y-92762478D01*
X174008378Y-92798108D01*
X174083087Y-92809361D01*
X174156416Y-92797538D01*
X174217766Y-92763942D01*
X174249787Y-92724782D01*
X174271276Y-92694672D01*
X174298113Y-92684365D01*
X174337882Y-92694242D01*
X174398167Y-92724686D01*
X174412896Y-92733015D01*
X174503220Y-92784602D01*
X174428186Y-92869845D01*
X174341029Y-92952843D01*
X174248586Y-93005228D01*
X174140438Y-93031957D01*
X174076357Y-93037288D01*
X174003195Y-93038034D01*
X173936956Y-93034665D01*
X173894928Y-93028499D01*
X173781771Y-92981018D01*
X173683817Y-92904686D01*
X173608283Y-92806046D01*
X173577312Y-92740452D01*
X173547620Y-92617926D01*
X173541947Y-92483503D01*
X173560252Y-92352453D01*
X173578445Y-92292805D01*
X173626103Y-92203958D01*
X173696069Y-92121320D01*
X173778395Y-92054638D01*
X173863133Y-92013659D01*
X173863436Y-92013568D01*
X173950149Y-91997494D01*
X174053132Y-91992915D01*
X174156047Y-91999561D01*
G36*
X180150016Y-92441368D02*
G01*
X180170045Y-92211914D01*
X180213987Y-92005014D01*
X180284269Y-91813979D01*
X180321729Y-91745202D01*
X180689630Y-91745202D01*
X180705166Y-91761931D01*
X180745722Y-91786615D01*
X180802544Y-91813932D01*
X180803022Y-91814139D01*
X180866491Y-91841798D01*
X180951129Y-91878991D01*
X181044976Y-91920452D01*
X181120374Y-91953920D01*
X181324534Y-92044776D01*
X181361260Y-91972787D01*
X181426479Y-91884738D01*
X181522788Y-91814984D01*
X181649796Y-91763778D01*
X181709964Y-91748355D01*
X181736079Y-91740755D01*
X181750997Y-91726700D01*
X181757850Y-91697547D01*
X181759769Y-91644657D01*
X181759857Y-91610654D01*
X181759857Y-91484000D01*
X181959428Y-91484000D01*
X181959428Y-91736356D01*
X182027464Y-91747508D01*
X182110114Y-91766662D01*
X182198444Y-91796024D01*
X182279314Y-91830534D01*
X182339584Y-91865133D01*
X182346385Y-91870297D01*
X182396383Y-91910357D01*
X182177621Y-92126463D01*
X182091696Y-92084717D01*
X181999013Y-92050182D01*
X181906475Y-92034011D01*
X181820922Y-92035488D01*
X181749195Y-92053896D01*
X181698134Y-92088519D01*
X181676560Y-92128204D01*
X181672920Y-92169064D01*
X181680450Y-92191973D01*
X181700220Y-92202779D01*
X181749075Y-92226267D01*
X181822903Y-92260610D01*
X181917596Y-92303976D01*
X182029046Y-92354538D01*
X182153142Y-92410464D01*
X182285775Y-92469927D01*
X182422837Y-92531096D01*
X182560218Y-92592142D01*
X182693809Y-92651236D01*
X182819501Y-92706547D01*
X182933184Y-92756248D01*
X183030750Y-92798508D01*
X183108089Y-92831498D01*
X183161091Y-92853388D01*
X183185649Y-92862349D01*
X183186492Y-92862469D01*
X183204742Y-92847183D01*
X183217829Y-92812964D01*
X183240011Y-92650735D01*
X183242527Y-92472093D01*
X183226174Y-92290588D01*
X183191753Y-92119770D01*
X183173303Y-92058069D01*
X183098341Y-91885202D01*
X182992572Y-91717790D01*
X182861473Y-91561628D01*
X182710522Y-91422512D01*
X182545195Y-91306238D01*
X182385748Y-91224693D01*
X182183792Y-91158972D01*
X181972543Y-91125900D01*
X181757563Y-91125022D01*
X181544415Y-91155881D01*
X181338661Y-91218022D01*
X181145866Y-91310989D01*
X181116601Y-91328688D01*
X181060957Y-91367976D01*
X180994994Y-91421620D01*
X180924194Y-91484270D01*
X180854044Y-91550576D01*
X180790028Y-91615187D01*
X180737631Y-91672754D01*
X180702338Y-91717925D01*
X180689630Y-91745202D01*
X180321729Y-91745202D01*
X180383319Y-91632123D01*
X180505043Y-91463302D01*
X180651739Y-91302592D01*
X180818283Y-91158384D01*
X180997318Y-91035939D01*
X181181489Y-90940517D01*
X181297846Y-90896319D01*
X181527949Y-90839936D01*
X181765329Y-90815410D01*
X182004497Y-90822048D01*
X182239964Y-90859157D01*
X182466241Y-90926043D01*
X182677838Y-91022012D01*
X182781126Y-91083755D01*
X182980099Y-91234803D01*
X183152477Y-91409231D01*
X183296565Y-91604674D01*
X183410670Y-91818767D01*
X183493097Y-92049145D01*
X183504902Y-92094017D01*
X183530828Y-92237181D01*
X183544851Y-92401654D01*
X183546966Y-92574642D01*
X183537170Y-92743350D01*
X183515455Y-92894984D01*
X183505228Y-92940896D01*
X183435023Y-93161014D01*
X183337718Y-93361150D01*
X183210384Y-93546302D01*
X183050096Y-93721468D01*
X183045444Y-93725952D01*
X182879178Y-93871149D01*
X182711865Y-93986251D01*
X182534883Y-94076649D01*
X182404276Y-94126876D01*
X182175011Y-94187526D01*
X181937941Y-94217256D01*
X181701738Y-94215379D01*
X181542143Y-94195000D01*
X181316831Y-94136381D01*
X181100807Y-94045550D01*
X180897824Y-93925774D01*
X180711631Y-93780321D01*
X180545980Y-93612458D01*
X180404622Y-93425453D01*
X180291308Y-93222574D01*
X180221183Y-93044286D01*
X180187458Y-92929110D01*
X180164760Y-92823330D01*
X180151773Y-92715805D01*
X180147183Y-92595390D01*
X180148609Y-92512653D01*
X180453886Y-92512653D01*
X180462432Y-92689028D01*
X180489328Y-92845411D01*
X180537478Y-92994643D01*
X180588379Y-93107786D01*
X180705747Y-93306105D01*
X180847631Y-93477745D01*
X181014726Y-93623399D01*
X181207726Y-93743761D01*
X181244985Y-93762654D01*
X181356604Y-93813919D01*
X181456625Y-93850444D01*
X181555093Y-93874190D01*
X181662052Y-93887115D01*
X181787548Y-93891182D01*
X181895928Y-93889701D01*
X182011783Y-93885462D01*
X182100421Y-93878873D01*
X182170889Y-93868794D01*
X182232236Y-93854087D01*
X182267465Y-93842897D01*
X182432452Y-93778043D01*
X182575614Y-93701601D01*
X182708674Y-93606262D01*
X182843352Y-93484717D01*
X182846005Y-93482105D01*
X182924337Y-93400668D01*
X182987461Y-93326668D01*
X183032432Y-93264215D01*
X183056307Y-93217421D01*
X183056142Y-93190396D01*
X183055431Y-93189619D01*
X183034710Y-93177732D01*
X182987457Y-93154544D01*
X182920282Y-93123012D01*
X182839792Y-93086097D01*
X182752595Y-93046758D01*
X182665300Y-93007955D01*
X182584516Y-92972646D01*
X182516849Y-92943792D01*
X182468909Y-92924352D01*
X182447347Y-92917286D01*
X182433463Y-92932531D01*
X182416458Y-92969726D01*
X182414700Y-92974635D01*
X182361869Y-93073238D01*
X182279408Y-93158617D01*
X182172931Y-93226175D01*
X182054208Y-93269775D01*
X181968500Y-93291694D01*
X181966376Y-93417454D01*
X181964253Y-93543214D01*
X181768928Y-93543214D01*
X181758358Y-93284660D01*
X181651666Y-93272589D01*
X181556675Y-93251440D01*
X181451910Y-93211814D01*
X181353461Y-93160683D01*
X181289366Y-93115597D01*
X181245231Y-93078461D01*
X181365851Y-92957841D01*
X181486471Y-92837222D01*
X181528140Y-92876367D01*
X181599844Y-92926820D01*
X181688433Y-92964262D01*
X181784297Y-92987079D01*
X181877826Y-92993657D01*
X181959408Y-92982382D01*
X182012083Y-92957629D01*
X182041772Y-92929061D01*
X182055706Y-92892767D01*
X182059214Y-92834737D01*
X182059214Y-92833720D01*
X182057109Y-92779130D01*
X182046140Y-92747513D01*
X182019323Y-92725605D01*
X181995714Y-92713102D01*
X181944855Y-92688646D01*
X181869545Y-92653905D01*
X181773873Y-92610654D01*
X181661926Y-92560670D01*
X181537793Y-92505728D01*
X181405560Y-92447603D01*
X181269315Y-92388071D01*
X181133145Y-92328907D01*
X181001140Y-92271887D01*
X180877385Y-92218787D01*
X180765969Y-92171382D01*
X180670980Y-92131448D01*
X180596505Y-92100760D01*
X180546631Y-92081094D01*
X180525446Y-92074225D01*
X180525079Y-92074300D01*
X180509594Y-92100329D01*
X180493846Y-92154686D01*
X180479123Y-92229442D01*
X180466712Y-92316675D01*
X180457899Y-92408456D01*
X180453974Y-92496861D01*
X180453886Y-92512653D01*
X180148609Y-92512653D01*
X180149673Y-92450944D01*
X180150016Y-92441368D01*
G37*
X180150016Y-92441368D02*
X180170045Y-92211914D01*
X180213987Y-92005014D01*
X180284269Y-91813979D01*
X180321729Y-91745202D01*
X180689630Y-91745202D01*
X180705166Y-91761931D01*
X180745722Y-91786615D01*
X180802544Y-91813932D01*
X180803022Y-91814139D01*
X180866491Y-91841798D01*
X180951129Y-91878991D01*
X181044976Y-91920452D01*
X181120374Y-91953920D01*
X181324534Y-92044776D01*
X181361260Y-91972787D01*
X181426479Y-91884738D01*
X181522788Y-91814984D01*
X181649796Y-91763778D01*
X181709964Y-91748355D01*
X181736079Y-91740755D01*
X181750997Y-91726700D01*
X181757850Y-91697547D01*
X181759769Y-91644657D01*
X181759857Y-91610654D01*
X181759857Y-91484000D01*
X181959428Y-91484000D01*
X181959428Y-91736356D01*
X182027464Y-91747508D01*
X182110114Y-91766662D01*
X182198444Y-91796024D01*
X182279314Y-91830534D01*
X182339584Y-91865133D01*
X182346385Y-91870297D01*
X182396383Y-91910357D01*
X182177621Y-92126463D01*
X182091696Y-92084717D01*
X181999013Y-92050182D01*
X181906475Y-92034011D01*
X181820922Y-92035488D01*
X181749195Y-92053896D01*
X181698134Y-92088519D01*
X181676560Y-92128204D01*
X181672920Y-92169064D01*
X181680450Y-92191973D01*
X181700220Y-92202779D01*
X181749075Y-92226267D01*
X181822903Y-92260610D01*
X181917596Y-92303976D01*
X182029046Y-92354538D01*
X182153142Y-92410464D01*
X182285775Y-92469927D01*
X182422837Y-92531096D01*
X182560218Y-92592142D01*
X182693809Y-92651236D01*
X182819501Y-92706547D01*
X182933184Y-92756248D01*
X183030750Y-92798508D01*
X183108089Y-92831498D01*
X183161091Y-92853388D01*
X183185649Y-92862349D01*
X183186492Y-92862469D01*
X183204742Y-92847183D01*
X183217829Y-92812964D01*
X183240011Y-92650735D01*
X183242527Y-92472093D01*
X183226174Y-92290588D01*
X183191753Y-92119770D01*
X183173303Y-92058069D01*
X183098341Y-91885202D01*
X182992572Y-91717790D01*
X182861473Y-91561628D01*
X182710522Y-91422512D01*
X182545195Y-91306238D01*
X182385748Y-91224693D01*
X182183792Y-91158972D01*
X181972543Y-91125900D01*
X181757563Y-91125022D01*
X181544415Y-91155881D01*
X181338661Y-91218022D01*
X181145866Y-91310989D01*
X181116601Y-91328688D01*
X181060957Y-91367976D01*
X180994994Y-91421620D01*
X180924194Y-91484270D01*
X180854044Y-91550576D01*
X180790028Y-91615187D01*
X180737631Y-91672754D01*
X180702338Y-91717925D01*
X180689630Y-91745202D01*
X180321729Y-91745202D01*
X180383319Y-91632123D01*
X180505043Y-91463302D01*
X180651739Y-91302592D01*
X180818283Y-91158384D01*
X180997318Y-91035939D01*
X181181489Y-90940517D01*
X181297846Y-90896319D01*
X181527949Y-90839936D01*
X181765329Y-90815410D01*
X182004497Y-90822048D01*
X182239964Y-90859157D01*
X182466241Y-90926043D01*
X182677838Y-91022012D01*
X182781126Y-91083755D01*
X182980099Y-91234803D01*
X183152477Y-91409231D01*
X183296565Y-91604674D01*
X183410670Y-91818767D01*
X183493097Y-92049145D01*
X183504902Y-92094017D01*
X183530828Y-92237181D01*
X183544851Y-92401654D01*
X183546966Y-92574642D01*
X183537170Y-92743350D01*
X183515455Y-92894984D01*
X183505228Y-92940896D01*
X183435023Y-93161014D01*
X183337718Y-93361150D01*
X183210384Y-93546302D01*
X183050096Y-93721468D01*
X183045444Y-93725952D01*
X182879178Y-93871149D01*
X182711865Y-93986251D01*
X182534883Y-94076649D01*
X182404276Y-94126876D01*
X182175011Y-94187526D01*
X181937941Y-94217256D01*
X181701738Y-94215379D01*
X181542143Y-94195000D01*
X181316831Y-94136381D01*
X181100807Y-94045550D01*
X180897824Y-93925774D01*
X180711631Y-93780321D01*
X180545980Y-93612458D01*
X180404622Y-93425453D01*
X180291308Y-93222574D01*
X180221183Y-93044286D01*
X180187458Y-92929110D01*
X180164760Y-92823330D01*
X180151773Y-92715805D01*
X180147183Y-92595390D01*
X180148609Y-92512653D01*
X180453886Y-92512653D01*
X180462432Y-92689028D01*
X180489328Y-92845411D01*
X180537478Y-92994643D01*
X180588379Y-93107786D01*
X180705747Y-93306105D01*
X180847631Y-93477745D01*
X181014726Y-93623399D01*
X181207726Y-93743761D01*
X181244985Y-93762654D01*
X181356604Y-93813919D01*
X181456625Y-93850444D01*
X181555093Y-93874190D01*
X181662052Y-93887115D01*
X181787548Y-93891182D01*
X181895928Y-93889701D01*
X182011783Y-93885462D01*
X182100421Y-93878873D01*
X182170889Y-93868794D01*
X182232236Y-93854087D01*
X182267465Y-93842897D01*
X182432452Y-93778043D01*
X182575614Y-93701601D01*
X182708674Y-93606262D01*
X182843352Y-93484717D01*
X182846005Y-93482105D01*
X182924337Y-93400668D01*
X182987461Y-93326668D01*
X183032432Y-93264215D01*
X183056307Y-93217421D01*
X183056142Y-93190396D01*
X183055431Y-93189619D01*
X183034710Y-93177732D01*
X182987457Y-93154544D01*
X182920282Y-93123012D01*
X182839792Y-93086097D01*
X182752595Y-93046758D01*
X182665300Y-93007955D01*
X182584516Y-92972646D01*
X182516849Y-92943792D01*
X182468909Y-92924352D01*
X182447347Y-92917286D01*
X182433463Y-92932531D01*
X182416458Y-92969726D01*
X182414700Y-92974635D01*
X182361869Y-93073238D01*
X182279408Y-93158617D01*
X182172931Y-93226175D01*
X182054208Y-93269775D01*
X181968500Y-93291694D01*
X181966376Y-93417454D01*
X181964253Y-93543214D01*
X181768928Y-93543214D01*
X181758358Y-93284660D01*
X181651666Y-93272589D01*
X181556675Y-93251440D01*
X181451910Y-93211814D01*
X181353461Y-93160683D01*
X181289366Y-93115597D01*
X181245231Y-93078461D01*
X181365851Y-92957841D01*
X181486471Y-92837222D01*
X181528140Y-92876367D01*
X181599844Y-92926820D01*
X181688433Y-92964262D01*
X181784297Y-92987079D01*
X181877826Y-92993657D01*
X181959408Y-92982382D01*
X182012083Y-92957629D01*
X182041772Y-92929061D01*
X182055706Y-92892767D01*
X182059214Y-92834737D01*
X182059214Y-92833720D01*
X182057109Y-92779130D01*
X182046140Y-92747513D01*
X182019323Y-92725605D01*
X181995714Y-92713102D01*
X181944855Y-92688646D01*
X181869545Y-92653905D01*
X181773873Y-92610654D01*
X181661926Y-92560670D01*
X181537793Y-92505728D01*
X181405560Y-92447603D01*
X181269315Y-92388071D01*
X181133145Y-92328907D01*
X181001140Y-92271887D01*
X180877385Y-92218787D01*
X180765969Y-92171382D01*
X180670980Y-92131448D01*
X180596505Y-92100760D01*
X180546631Y-92081094D01*
X180525446Y-92074225D01*
X180525079Y-92074300D01*
X180509594Y-92100329D01*
X180493846Y-92154686D01*
X180479123Y-92229442D01*
X180466712Y-92316675D01*
X180457899Y-92408456D01*
X180453974Y-92496861D01*
X180453886Y-92512653D01*
X180148609Y-92512653D01*
X180149673Y-92450944D01*
X180150016Y-92441368D01*
G36*
X178315225Y-91992335D02*
G01*
X178417439Y-91993542D01*
X178492533Y-91995925D01*
X178545089Y-91999789D01*
X178579685Y-92005437D01*
X178600904Y-92013174D01*
X178610775Y-92020510D01*
X178620627Y-92035294D01*
X178627980Y-92060400D01*
X178633174Y-92100604D01*
X178636551Y-92160681D01*
X178638453Y-92245407D01*
X178639220Y-92359559D01*
X178639285Y-92419653D01*
X178639285Y-92790286D01*
X178439714Y-92790286D01*
X178439714Y-93624857D01*
X177913571Y-93624857D01*
X177913571Y-92790286D01*
X177714000Y-92790286D01*
X177714000Y-92421169D01*
X177714259Y-92295306D01*
X177715312Y-92200727D01*
X177717577Y-92132434D01*
X177721467Y-92085429D01*
X177727398Y-92054711D01*
X177735787Y-92035283D01*
X177747048Y-92022144D01*
X177747178Y-92022026D01*
X177762241Y-92012071D01*
X177785646Y-92004549D01*
X177822110Y-91999132D01*
X177876348Y-91995495D01*
X177953079Y-91993312D01*
X178057017Y-91992256D01*
X178181311Y-91992000D01*
X178315225Y-91992335D01*
G37*
X178315225Y-91992335D02*
X178417439Y-91993542D01*
X178492533Y-91995925D01*
X178545089Y-91999789D01*
X178579685Y-92005437D01*
X178600904Y-92013174D01*
X178610775Y-92020510D01*
X178620627Y-92035294D01*
X178627980Y-92060400D01*
X178633174Y-92100604D01*
X178636551Y-92160681D01*
X178638453Y-92245407D01*
X178639220Y-92359559D01*
X178639285Y-92419653D01*
X178639285Y-92790286D01*
X178439714Y-92790286D01*
X178439714Y-93624857D01*
X177913571Y-93624857D01*
X177913571Y-92790286D01*
X177714000Y-92790286D01*
X177714000Y-92421169D01*
X177714259Y-92295306D01*
X177715312Y-92200727D01*
X177717577Y-92132434D01*
X177721467Y-92085429D01*
X177727398Y-92054711D01*
X177735787Y-92035283D01*
X177747048Y-92022144D01*
X177747178Y-92022026D01*
X177762241Y-92012071D01*
X177785646Y-92004549D01*
X177822110Y-91999132D01*
X177876348Y-91995495D01*
X177953079Y-91993312D01*
X178057017Y-91992256D01*
X178181311Y-91992000D01*
X178315225Y-91992335D01*
G36*
X178241171Y-91418794D02*
G01*
X178318934Y-91448599D01*
X178355167Y-91476972D01*
X178397515Y-91542539D01*
X178416080Y-91623013D01*
X178411575Y-91707491D01*
X178384713Y-91785067D01*
X178336206Y-91844836D01*
X178330845Y-91848939D01*
X178265544Y-91879028D01*
X178183737Y-91892477D01*
X178102226Y-91887044D01*
X178082534Y-91882075D01*
X178016664Y-91849222D01*
X177974404Y-91795437D01*
X177953336Y-91716536D01*
X177949857Y-91652515D01*
X177951675Y-91585692D01*
X177959724Y-91542382D01*
X177977899Y-91509889D01*
X178001556Y-91483939D01*
X178071721Y-91436675D01*
X178155179Y-91414890D01*
X178241171Y-91418794D01*
G37*
X178241171Y-91418794D02*
X178318934Y-91448599D01*
X178355167Y-91476972D01*
X178397515Y-91542539D01*
X178416080Y-91623013D01*
X178411575Y-91707491D01*
X178384713Y-91785067D01*
X178336206Y-91844836D01*
X178330845Y-91848939D01*
X178265544Y-91879028D01*
X178183737Y-91892477D01*
X178102226Y-91887044D01*
X178082534Y-91882075D01*
X178016664Y-91849222D01*
X177974404Y-91795437D01*
X177953336Y-91716536D01*
X177949857Y-91652515D01*
X177951675Y-91585692D01*
X177959724Y-91542382D01*
X177977899Y-91509889D01*
X178001556Y-91483939D01*
X178071721Y-91436675D01*
X178155179Y-91414890D01*
X178241171Y-91418794D01*
G36*
X185631663Y-91630908D02*
G01*
X185756036Y-91650343D01*
X185808844Y-91664392D01*
X185958363Y-91729606D01*
X186089457Y-91824163D01*
X186199517Y-91944748D01*
X186285937Y-92088048D01*
X186346109Y-92250749D01*
X186371997Y-92380132D01*
X186382633Y-92574657D01*
X186361671Y-92757556D01*
X186309830Y-92925875D01*
X186227827Y-93076658D01*
X186190782Y-93126424D01*
X186067105Y-93252147D01*
X185923981Y-93348440D01*
X185764940Y-93413961D01*
X185593512Y-93447365D01*
X185413228Y-93447307D01*
X185363715Y-93441412D01*
X185210463Y-93401754D01*
X185072160Y-93331164D01*
X184952761Y-93233294D01*
X184856223Y-93111792D01*
X184786504Y-92970308D01*
X184761080Y-92885536D01*
X184738558Y-92790286D01*
X185166406Y-92790286D01*
X185186431Y-92869810D01*
X185221372Y-92946170D01*
X185280267Y-93014618D01*
X185351973Y-93063550D01*
X185384225Y-93075773D01*
X185429607Y-93083324D01*
X185494601Y-93088232D01*
X185544430Y-93089337D01*
X185653061Y-93074945D01*
X185743656Y-93030985D01*
X185819732Y-92955288D01*
X185858714Y-92895772D01*
X185906243Y-92785879D01*
X185934892Y-92661405D01*
X185945233Y-92529910D01*
X185937837Y-92398952D01*
X185913276Y-92276091D01*
X185872121Y-92168885D01*
X185814946Y-92084895D01*
X185795987Y-92066429D01*
X185706483Y-92010796D01*
X185600325Y-91981851D01*
X185486370Y-91980474D01*
X185373472Y-92007548D01*
X185341462Y-92021194D01*
X185280718Y-92064748D01*
X185227647Y-92128185D01*
X185192726Y-92197629D01*
X185185680Y-92227479D01*
X185188127Y-92261802D01*
X185214096Y-92278275D01*
X185230231Y-92281908D01*
X185249984Y-92286749D01*
X185258418Y-92295016D01*
X185252666Y-92311068D01*
X185229859Y-92339262D01*
X185187131Y-92383959D01*
X185121614Y-92449516D01*
X185116838Y-92454265D01*
X184953000Y-92617172D01*
X184789120Y-92454265D01*
X184625239Y-92291357D01*
X184684798Y-92282286D01*
X184723150Y-92272169D01*
X184746464Y-92249703D01*
X184764522Y-92204267D01*
X184768339Y-92191571D01*
X184831988Y-92024692D01*
X184916613Y-91887130D01*
X185022946Y-91778090D01*
X185151719Y-91696777D01*
X185263314Y-91653555D01*
X185371321Y-91632237D01*
X185498764Y-91624781D01*
X185631663Y-91630908D01*
G37*
X185631663Y-91630908D02*
X185756036Y-91650343D01*
X185808844Y-91664392D01*
X185958363Y-91729606D01*
X186089457Y-91824163D01*
X186199517Y-91944748D01*
X186285937Y-92088048D01*
X186346109Y-92250749D01*
X186371997Y-92380132D01*
X186382633Y-92574657D01*
X186361671Y-92757556D01*
X186309830Y-92925875D01*
X186227827Y-93076658D01*
X186190782Y-93126424D01*
X186067105Y-93252147D01*
X185923981Y-93348440D01*
X185764940Y-93413961D01*
X185593512Y-93447365D01*
X185413228Y-93447307D01*
X185363715Y-93441412D01*
X185210463Y-93401754D01*
X185072160Y-93331164D01*
X184952761Y-93233294D01*
X184856223Y-93111792D01*
X184786504Y-92970308D01*
X184761080Y-92885536D01*
X184738558Y-92790286D01*
X185166406Y-92790286D01*
X185186431Y-92869810D01*
X185221372Y-92946170D01*
X185280267Y-93014618D01*
X185351973Y-93063550D01*
X185384225Y-93075773D01*
X185429607Y-93083324D01*
X185494601Y-93088232D01*
X185544430Y-93089337D01*
X185653061Y-93074945D01*
X185743656Y-93030985D01*
X185819732Y-92955288D01*
X185858714Y-92895772D01*
X185906243Y-92785879D01*
X185934892Y-92661405D01*
X185945233Y-92529910D01*
X185937837Y-92398952D01*
X185913276Y-92276091D01*
X185872121Y-92168885D01*
X185814946Y-92084895D01*
X185795987Y-92066429D01*
X185706483Y-92010796D01*
X185600325Y-91981851D01*
X185486370Y-91980474D01*
X185373472Y-92007548D01*
X185341462Y-92021194D01*
X185280718Y-92064748D01*
X185227647Y-92128185D01*
X185192726Y-92197629D01*
X185185680Y-92227479D01*
X185188127Y-92261802D01*
X185214096Y-92278275D01*
X185230231Y-92281908D01*
X185249984Y-92286749D01*
X185258418Y-92295016D01*
X185252666Y-92311068D01*
X185229859Y-92339262D01*
X185187131Y-92383959D01*
X185121614Y-92449516D01*
X185116838Y-92454265D01*
X184953000Y-92617172D01*
X184789120Y-92454265D01*
X184625239Y-92291357D01*
X184684798Y-92282286D01*
X184723150Y-92272169D01*
X184746464Y-92249703D01*
X184764522Y-92204267D01*
X184768339Y-92191571D01*
X184831988Y-92024692D01*
X184916613Y-91887130D01*
X185022946Y-91778090D01*
X185151719Y-91696777D01*
X185263314Y-91653555D01*
X185371321Y-91632237D01*
X185498764Y-91624781D01*
X185631663Y-91630908D01*
G36*
X183868255Y-92051369D02*
G01*
X183943430Y-91839134D01*
X184051396Y-91636355D01*
X184182697Y-91452196D01*
X184349783Y-91271335D01*
X184537058Y-91119266D01*
X184741512Y-90996881D01*
X184960129Y-90905075D01*
X185189899Y-90844741D01*
X185427807Y-90816773D01*
X185670842Y-90822065D01*
X185915989Y-90861510D01*
X186050643Y-90898091D01*
X186269262Y-90985062D01*
X186474607Y-91104316D01*
X186663296Y-91253223D01*
X186831945Y-91429156D01*
X186962883Y-91607007D01*
X187071921Y-91808405D01*
X187150769Y-92025126D01*
X187199461Y-92252417D01*
X187218029Y-92485521D01*
X187206508Y-92719682D01*
X187164931Y-92950144D01*
X187093330Y-93172153D01*
X186991740Y-93380951D01*
X186949976Y-93448698D01*
X186811165Y-93629568D01*
X186644386Y-93793309D01*
X186455571Y-93935725D01*
X186250655Y-94052615D01*
X186035573Y-94139782D01*
X185930782Y-94169753D01*
X185763154Y-94200578D01*
X185581777Y-94215724D01*
X185400261Y-94214879D01*
X185232217Y-94197733D01*
X185175340Y-94187012D01*
X184941487Y-94121211D01*
X184729088Y-94029022D01*
X184533181Y-93907644D01*
X184348806Y-93754278D01*
X184270165Y-93676054D01*
X184111735Y-93485678D01*
X183986368Y-93280431D01*
X183894291Y-93060879D01*
X183835730Y-92827589D01*
X183810911Y-92581130D01*
X183810000Y-92522240D01*
X183810835Y-92507953D01*
X184121254Y-92507953D01*
X184124758Y-92646854D01*
X184138720Y-92770671D01*
X184144659Y-92801355D01*
X184206645Y-93004650D01*
X184299913Y-93195355D01*
X184420897Y-93370200D01*
X184566033Y-93525918D01*
X184731755Y-93659241D01*
X184914498Y-93766900D01*
X185110698Y-93845626D01*
X185316789Y-93892153D01*
X185337499Y-93894872D01*
X185495350Y-93903679D01*
X185664778Y-93895219D01*
X185826203Y-93870751D01*
X185869071Y-93860751D01*
X186056878Y-93795399D01*
X186239622Y-93698982D01*
X186410435Y-93576679D01*
X186562449Y-93433665D01*
X186688794Y-93275117D01*
X186727552Y-93213739D01*
X186813562Y-93033659D01*
X186872816Y-92835649D01*
X186904311Y-92627345D01*
X186907043Y-92416381D01*
X186880007Y-92210390D01*
X186866866Y-92154256D01*
X186799893Y-91964423D01*
X186701334Y-91782592D01*
X186575816Y-91614402D01*
X186427960Y-91465493D01*
X186262392Y-91341504D01*
X186147519Y-91276973D01*
X186017285Y-91217244D01*
X185902460Y-91175740D01*
X185790443Y-91149564D01*
X185668632Y-91135817D01*
X185524424Y-91131600D01*
X185515428Y-91131587D01*
X185338795Y-91138808D01*
X185184248Y-91162423D01*
X185040251Y-91205180D01*
X184895269Y-91269827D01*
X184862285Y-91287158D01*
X184682817Y-91403579D01*
X184520049Y-91548706D01*
X184378505Y-91717062D01*
X184262708Y-91903172D01*
X184177180Y-92101559D01*
X184168965Y-92126562D01*
X184143811Y-92235226D01*
X184127756Y-92366551D01*
X184121254Y-92507953D01*
X183810835Y-92507953D01*
X183824302Y-92277568D01*
X183868255Y-92051369D01*
G37*
X183868255Y-92051369D02*
X183943430Y-91839134D01*
X184051396Y-91636355D01*
X184182697Y-91452196D01*
X184349783Y-91271335D01*
X184537058Y-91119266D01*
X184741512Y-90996881D01*
X184960129Y-90905075D01*
X185189899Y-90844741D01*
X185427807Y-90816773D01*
X185670842Y-90822065D01*
X185915989Y-90861510D01*
X186050643Y-90898091D01*
X186269262Y-90985062D01*
X186474607Y-91104316D01*
X186663296Y-91253223D01*
X186831945Y-91429156D01*
X186962883Y-91607007D01*
X187071921Y-91808405D01*
X187150769Y-92025126D01*
X187199461Y-92252417D01*
X187218029Y-92485521D01*
X187206508Y-92719682D01*
X187164931Y-92950144D01*
X187093330Y-93172153D01*
X186991740Y-93380951D01*
X186949976Y-93448698D01*
X186811165Y-93629568D01*
X186644386Y-93793309D01*
X186455571Y-93935725D01*
X186250655Y-94052615D01*
X186035573Y-94139782D01*
X185930782Y-94169753D01*
X185763154Y-94200578D01*
X185581777Y-94215724D01*
X185400261Y-94214879D01*
X185232217Y-94197733D01*
X185175340Y-94187012D01*
X184941487Y-94121211D01*
X184729088Y-94029022D01*
X184533181Y-93907644D01*
X184348806Y-93754278D01*
X184270165Y-93676054D01*
X184111735Y-93485678D01*
X183986368Y-93280431D01*
X183894291Y-93060879D01*
X183835730Y-92827589D01*
X183810911Y-92581130D01*
X183810000Y-92522240D01*
X183810835Y-92507953D01*
X184121254Y-92507953D01*
X184124758Y-92646854D01*
X184138720Y-92770671D01*
X184144659Y-92801355D01*
X184206645Y-93004650D01*
X184299913Y-93195355D01*
X184420897Y-93370200D01*
X184566033Y-93525918D01*
X184731755Y-93659241D01*
X184914498Y-93766900D01*
X185110698Y-93845626D01*
X185316789Y-93892153D01*
X185337499Y-93894872D01*
X185495350Y-93903679D01*
X185664778Y-93895219D01*
X185826203Y-93870751D01*
X185869071Y-93860751D01*
X186056878Y-93795399D01*
X186239622Y-93698982D01*
X186410435Y-93576679D01*
X186562449Y-93433665D01*
X186688794Y-93275117D01*
X186727552Y-93213739D01*
X186813562Y-93033659D01*
X186872816Y-92835649D01*
X186904311Y-92627345D01*
X186907043Y-92416381D01*
X186880007Y-92210390D01*
X186866866Y-92154256D01*
X186799893Y-91964423D01*
X186701334Y-91782592D01*
X186575816Y-91614402D01*
X186427960Y-91465493D01*
X186262392Y-91341504D01*
X186147519Y-91276973D01*
X186017285Y-91217244D01*
X185902460Y-91175740D01*
X185790443Y-91149564D01*
X185668632Y-91135817D01*
X185524424Y-91131600D01*
X185515428Y-91131587D01*
X185338795Y-91138808D01*
X185184248Y-91162423D01*
X185040251Y-91205180D01*
X184895269Y-91269827D01*
X184862285Y-91287158D01*
X184682817Y-91403579D01*
X184520049Y-91548706D01*
X184378505Y-91717062D01*
X184262708Y-91903172D01*
X184177180Y-92101559D01*
X184168965Y-92126562D01*
X184143811Y-92235226D01*
X184127756Y-92366551D01*
X184121254Y-92507953D01*
X183810835Y-92507953D01*
X183824302Y-92277568D01*
X183868255Y-92051369D01*
G36*
X176490964Y-92254880D02*
G01*
X176506011Y-92154842D01*
X176572124Y-91928721D01*
X176670819Y-91713389D01*
X176799072Y-91512646D01*
X176953858Y-91330295D01*
X177132153Y-91170137D01*
X177330931Y-91035976D01*
X177443022Y-90976965D01*
X177660621Y-90892255D01*
X177890258Y-90838585D01*
X178126486Y-90815798D01*
X178363857Y-90823740D01*
X178596921Y-90862254D01*
X178820231Y-90931186D01*
X179013167Y-91021776D01*
X179220262Y-91157559D01*
X179403630Y-91318907D01*
X179561030Y-91502913D01*
X179690226Y-91706671D01*
X179788976Y-91927273D01*
X179840088Y-92095390D01*
X179865319Y-92235681D01*
X179879147Y-92397520D01*
X179881565Y-92568210D01*
X179872568Y-92735057D01*
X179852151Y-92885362D01*
X179840485Y-92939225D01*
X179769129Y-93162520D01*
X179669260Y-93366300D01*
X179538477Y-93554705D01*
X179389220Y-93717600D01*
X179193796Y-93884306D01*
X178984216Y-94017926D01*
X178758543Y-94119542D01*
X178562278Y-94179217D01*
X178461423Y-94197202D01*
X178337220Y-94209235D01*
X178202166Y-94214997D01*
X178068759Y-94214170D01*
X177949495Y-94206436D01*
X177880315Y-94196588D01*
X177648869Y-94137328D01*
X177437246Y-94051066D01*
X177240791Y-93935249D01*
X177054853Y-93787321D01*
X176949956Y-93685764D01*
X176791714Y-93501506D01*
X176667130Y-93308922D01*
X176573803Y-93103741D01*
X176517269Y-92916289D01*
X176498083Y-92806727D01*
X176485683Y-92673881D01*
X176480246Y-92529675D01*
X176480329Y-92522607D01*
X176788833Y-92522607D01*
X176795785Y-92678655D01*
X176816872Y-92819429D01*
X176822759Y-92844413D01*
X176892796Y-93048893D01*
X176995177Y-93241730D01*
X177126546Y-93417767D01*
X177283544Y-93571846D01*
X177310754Y-93594066D01*
X177422294Y-93677798D01*
X177523413Y-93741164D01*
X177627187Y-93791442D01*
X177743068Y-93834699D01*
X177947010Y-93884973D01*
X178161315Y-93904120D01*
X178377231Y-93891855D01*
X178539357Y-93860751D01*
X178728539Y-93794796D01*
X178910961Y-93697656D01*
X179080741Y-93574171D01*
X179231997Y-93429184D01*
X179358847Y-93267536D01*
X179446063Y-93114403D01*
X179499638Y-92989954D01*
X179536418Y-92874559D01*
X179558965Y-92756070D01*
X179569841Y-92622342D01*
X179571875Y-92518143D01*
X179568507Y-92373101D01*
X179555754Y-92251094D01*
X179530699Y-92139453D01*
X179490428Y-92025509D01*
X179432025Y-91896592D01*
X179426040Y-91884353D01*
X179385667Y-91806167D01*
X179346559Y-91741933D01*
X179301552Y-91682107D01*
X179243483Y-91617143D01*
X179167346Y-91539639D01*
X179073358Y-91449968D01*
X178992310Y-91381951D01*
X178915057Y-91328449D01*
X178847750Y-91290206D01*
X178639782Y-91201140D01*
X178423369Y-91145986D01*
X178202566Y-91125044D01*
X177981423Y-91138611D01*
X177763993Y-91186987D01*
X177706655Y-91205982D01*
X177523441Y-91289450D01*
X177350247Y-91403950D01*
X177191817Y-91544614D01*
X177052898Y-91706574D01*
X176938236Y-91884961D01*
X176852576Y-92074907D01*
X176848585Y-92086211D01*
X176815653Y-92214047D01*
X176795596Y-92363625D01*
X176788833Y-92522607D01*
X176480329Y-92522607D01*
X176481948Y-92386033D01*
X176490964Y-92254880D01*
G37*
X176490964Y-92254880D02*
X176506011Y-92154842D01*
X176572124Y-91928721D01*
X176670819Y-91713389D01*
X176799072Y-91512646D01*
X176953858Y-91330295D01*
X177132153Y-91170137D01*
X177330931Y-91035976D01*
X177443022Y-90976965D01*
X177660621Y-90892255D01*
X177890258Y-90838585D01*
X178126486Y-90815798D01*
X178363857Y-90823740D01*
X178596921Y-90862254D01*
X178820231Y-90931186D01*
X179013167Y-91021776D01*
X179220262Y-91157559D01*
X179403630Y-91318907D01*
X179561030Y-91502913D01*
X179690226Y-91706671D01*
X179788976Y-91927273D01*
X179840088Y-92095390D01*
X179865319Y-92235681D01*
X179879147Y-92397520D01*
X179881565Y-92568210D01*
X179872568Y-92735057D01*
X179852151Y-92885362D01*
X179840485Y-92939225D01*
X179769129Y-93162520D01*
X179669260Y-93366300D01*
X179538477Y-93554705D01*
X179389220Y-93717600D01*
X179193796Y-93884306D01*
X178984216Y-94017926D01*
X178758543Y-94119542D01*
X178562278Y-94179217D01*
X178461423Y-94197202D01*
X178337220Y-94209235D01*
X178202166Y-94214997D01*
X178068759Y-94214170D01*
X177949495Y-94206436D01*
X177880315Y-94196588D01*
X177648869Y-94137328D01*
X177437246Y-94051066D01*
X177240791Y-93935249D01*
X177054853Y-93787321D01*
X176949956Y-93685764D01*
X176791714Y-93501506D01*
X176667130Y-93308922D01*
X176573803Y-93103741D01*
X176517269Y-92916289D01*
X176498083Y-92806727D01*
X176485683Y-92673881D01*
X176480246Y-92529675D01*
X176480329Y-92522607D01*
X176788833Y-92522607D01*
X176795785Y-92678655D01*
X176816872Y-92819429D01*
X176822759Y-92844413D01*
X176892796Y-93048893D01*
X176995177Y-93241730D01*
X177126546Y-93417767D01*
X177283544Y-93571846D01*
X177310754Y-93594066D01*
X177422294Y-93677798D01*
X177523413Y-93741164D01*
X177627187Y-93791442D01*
X177743068Y-93834699D01*
X177947010Y-93884973D01*
X178161315Y-93904120D01*
X178377231Y-93891855D01*
X178539357Y-93860751D01*
X178728539Y-93794796D01*
X178910961Y-93697656D01*
X179080741Y-93574171D01*
X179231997Y-93429184D01*
X179358847Y-93267536D01*
X179446063Y-93114403D01*
X179499638Y-92989954D01*
X179536418Y-92874559D01*
X179558965Y-92756070D01*
X179569841Y-92622342D01*
X179571875Y-92518143D01*
X179568507Y-92373101D01*
X179555754Y-92251094D01*
X179530699Y-92139453D01*
X179490428Y-92025509D01*
X179432025Y-91896592D01*
X179426040Y-91884353D01*
X179385667Y-91806167D01*
X179346559Y-91741933D01*
X179301552Y-91682107D01*
X179243483Y-91617143D01*
X179167346Y-91539639D01*
X179073358Y-91449968D01*
X178992310Y-91381951D01*
X178915057Y-91328449D01*
X178847750Y-91290206D01*
X178639782Y-91201140D01*
X178423369Y-91145986D01*
X178202566Y-91125044D01*
X177981423Y-91138611D01*
X177763993Y-91186987D01*
X177706655Y-91205982D01*
X177523441Y-91289450D01*
X177350247Y-91403950D01*
X177191817Y-91544614D01*
X177052898Y-91706574D01*
X176938236Y-91884961D01*
X176852576Y-92074907D01*
X176848585Y-92086211D01*
X176815653Y-92214047D01*
X176795596Y-92363625D01*
X176788833Y-92522607D01*
X176480329Y-92522607D01*
X176481948Y-92386033D01*
X176490964Y-92254880D01*
G36*
X175074862Y-91994204D02*
G01*
X175181450Y-92008754D01*
X175273076Y-92036007D01*
X175306331Y-92052349D01*
X175360885Y-92090177D01*
X175411012Y-92134834D01*
X175449919Y-92178907D01*
X175470816Y-92214981D01*
X175470835Y-92231937D01*
X175450869Y-92247341D01*
X175407999Y-92272670D01*
X175358642Y-92298770D01*
X175255643Y-92350729D01*
X175222224Y-92306347D01*
X175182186Y-92267634D01*
X175130664Y-92234273D01*
X175127603Y-92232779D01*
X175052501Y-92215370D01*
X174976906Y-92228713D01*
X174912134Y-92269468D01*
X174883735Y-92304756D01*
X174847796Y-92392561D01*
X174834409Y-92492552D01*
X174842706Y-92593932D01*
X174871818Y-92685902D01*
X174920075Y-92756867D01*
X174958600Y-92788969D01*
X175000032Y-92804281D01*
X175060267Y-92808413D01*
X175066140Y-92808429D01*
X175125973Y-92805564D01*
X175166487Y-92792248D01*
X175204494Y-92761400D01*
X175222934Y-92742382D01*
X175285224Y-92676335D01*
X175375946Y-92718826D01*
X175427810Y-92744896D01*
X175464732Y-92766765D01*
X175475817Y-92776124D01*
X175472219Y-92801789D01*
X175445568Y-92841255D01*
X175402547Y-92887528D01*
X175349839Y-92933616D01*
X175294128Y-92972524D01*
X175280874Y-92980114D01*
X175175954Y-93020178D01*
X175055212Y-93039238D01*
X174933270Y-93036033D01*
X174847428Y-93017493D01*
X174737460Y-92963284D01*
X174646355Y-92878930D01*
X174581622Y-92777249D01*
X174555730Y-92718917D01*
X174540455Y-92665976D01*
X174533166Y-92604803D01*
X174531228Y-92521776D01*
X174531224Y-92516534D01*
X174532745Y-92433801D01*
X174539148Y-92373821D01*
X174553194Y-92323127D01*
X174577646Y-92268247D01*
X174585193Y-92253301D01*
X174655604Y-92149219D01*
X174746132Y-92067783D01*
X174849677Y-92015076D01*
X174870870Y-92008640D01*
X174966830Y-91993714D01*
X175074862Y-91994204D01*
G37*
X175074862Y-91994204D02*
X175181450Y-92008754D01*
X175273076Y-92036007D01*
X175306331Y-92052349D01*
X175360885Y-92090177D01*
X175411012Y-92134834D01*
X175449919Y-92178907D01*
X175470816Y-92214981D01*
X175470835Y-92231937D01*
X175450869Y-92247341D01*
X175407999Y-92272670D01*
X175358642Y-92298770D01*
X175255643Y-92350729D01*
X175222224Y-92306347D01*
X175182186Y-92267634D01*
X175130664Y-92234273D01*
X175127603Y-92232779D01*
X175052501Y-92215370D01*
X174976906Y-92228713D01*
X174912134Y-92269468D01*
X174883735Y-92304756D01*
X174847796Y-92392561D01*
X174834409Y-92492552D01*
X174842706Y-92593932D01*
X174871818Y-92685902D01*
X174920075Y-92756867D01*
X174958600Y-92788969D01*
X175000032Y-92804281D01*
X175060267Y-92808413D01*
X175066140Y-92808429D01*
X175125973Y-92805564D01*
X175166487Y-92792248D01*
X175204494Y-92761400D01*
X175222934Y-92742382D01*
X175285224Y-92676335D01*
X175375946Y-92718826D01*
X175427810Y-92744896D01*
X175464732Y-92766765D01*
X175475817Y-92776124D01*
X175472219Y-92801789D01*
X175445568Y-92841255D01*
X175402547Y-92887528D01*
X175349839Y-92933616D01*
X175294128Y-92972524D01*
X175280874Y-92980114D01*
X175175954Y-93020178D01*
X175055212Y-93039238D01*
X174933270Y-93036033D01*
X174847428Y-93017493D01*
X174737460Y-92963284D01*
X174646355Y-92878930D01*
X174581622Y-92777249D01*
X174555730Y-92718917D01*
X174540455Y-92665976D01*
X174533166Y-92604803D01*
X174531228Y-92521776D01*
X174531224Y-92516534D01*
X174532745Y-92433801D01*
X174539148Y-92373821D01*
X174553194Y-92323127D01*
X174577646Y-92268247D01*
X174585193Y-92253301D01*
X174655604Y-92149219D01*
X174746132Y-92067783D01*
X174849677Y-92015076D01*
X174870870Y-92008640D01*
X174966830Y-91993714D01*
X175074862Y-91994204D01*
G36*
X172849524Y-92135259D02*
G01*
X172919141Y-91909279D01*
X172929648Y-91883143D01*
X173039284Y-91662588D01*
X173177148Y-91460959D01*
X173340087Y-91281273D01*
X173524946Y-91126549D01*
X173728573Y-90999804D01*
X173947813Y-90904055D01*
X173955695Y-90901314D01*
X174149384Y-90850102D01*
X174360157Y-90821771D01*
X174577387Y-90816461D01*
X174790452Y-90834312D01*
X174988725Y-90875462D01*
X175027947Y-90887223D01*
X175251600Y-90976488D01*
X175460349Y-91095744D01*
X175650466Y-91241676D01*
X175818224Y-91410969D01*
X175959896Y-91600308D01*
X176071755Y-91806376D01*
X176078569Y-91821794D01*
X176155890Y-92041758D01*
X176202461Y-92271675D01*
X176218699Y-92506356D01*
X176205018Y-92740611D01*
X176161832Y-92969251D01*
X176089558Y-93187086D01*
X175988610Y-93388927D01*
X175948158Y-93452500D01*
X175800482Y-93640499D01*
X175628962Y-93805048D01*
X175437515Y-93944516D01*
X175230059Y-94057273D01*
X175010508Y-94141687D01*
X174782781Y-94196128D01*
X174550793Y-94218963D01*
X174318461Y-94208563D01*
X174185214Y-94186684D01*
X173938817Y-94117314D01*
X173711250Y-94016971D01*
X173503147Y-93886071D01*
X173315147Y-93725030D01*
X173147887Y-93534264D01*
X173112217Y-93485947D01*
X172990062Y-93284507D01*
X172898556Y-93067448D01*
X172838224Y-92839383D01*
X172809591Y-92604923D01*
X172811359Y-92488593D01*
X173117428Y-92488593D01*
X173129262Y-92696538D01*
X173173908Y-92901799D01*
X173251584Y-93101129D01*
X173362504Y-93291280D01*
X173420075Y-93368910D01*
X173566697Y-93525609D01*
X173738365Y-93660442D01*
X173928330Y-93769028D01*
X174129840Y-93846981D01*
X174176143Y-93859867D01*
X174320770Y-93885972D01*
X174483004Y-93896701D01*
X174648053Y-93892064D01*
X174801124Y-93872073D01*
X174857419Y-93859329D01*
X175010551Y-93807458D01*
X175169941Y-93732836D01*
X175321515Y-93642765D01*
X175431193Y-93561597D01*
X175584816Y-93411264D01*
X175710176Y-93240698D01*
X175806275Y-93053611D01*
X175872110Y-92853716D01*
X175906683Y-92644726D01*
X175908992Y-92430353D01*
X175878039Y-92214311D01*
X175835254Y-92061748D01*
X175762027Y-91887824D01*
X175663761Y-91727429D01*
X175535733Y-91573287D01*
X175483849Y-91520286D01*
X175315604Y-91376997D01*
X175134645Y-91266805D01*
X174938463Y-91188596D01*
X174724551Y-91141257D01*
X174599553Y-91128054D01*
X174376060Y-91130118D01*
X174160847Y-91166944D01*
X173956546Y-91237550D01*
X173765792Y-91340951D01*
X173591218Y-91476166D01*
X173542894Y-91522288D01*
X173393903Y-91694934D01*
X173276645Y-91881135D01*
X173191336Y-92077644D01*
X173138191Y-92281212D01*
X173117428Y-92488593D01*
X172811359Y-92488593D01*
X172813183Y-92368677D01*
X172849524Y-92135259D01*
G37*
X172849524Y-92135259D02*
X172919141Y-91909279D01*
X172929648Y-91883143D01*
X173039284Y-91662588D01*
X173177148Y-91460959D01*
X173340087Y-91281273D01*
X173524946Y-91126549D01*
X173728573Y-90999804D01*
X173947813Y-90904055D01*
X173955695Y-90901314D01*
X174149384Y-90850102D01*
X174360157Y-90821771D01*
X174577387Y-90816461D01*
X174790452Y-90834312D01*
X174988725Y-90875462D01*
X175027947Y-90887223D01*
X175251600Y-90976488D01*
X175460349Y-91095744D01*
X175650466Y-91241676D01*
X175818224Y-91410969D01*
X175959896Y-91600308D01*
X176071755Y-91806376D01*
X176078569Y-91821794D01*
X176155890Y-92041758D01*
X176202461Y-92271675D01*
X176218699Y-92506356D01*
X176205018Y-92740611D01*
X176161832Y-92969251D01*
X176089558Y-93187086D01*
X175988610Y-93388927D01*
X175948158Y-93452500D01*
X175800482Y-93640499D01*
X175628962Y-93805048D01*
X175437515Y-93944516D01*
X175230059Y-94057273D01*
X175010508Y-94141687D01*
X174782781Y-94196128D01*
X174550793Y-94218963D01*
X174318461Y-94208563D01*
X174185214Y-94186684D01*
X173938817Y-94117314D01*
X173711250Y-94016971D01*
X173503147Y-93886071D01*
X173315147Y-93725030D01*
X173147887Y-93534264D01*
X173112217Y-93485947D01*
X172990062Y-93284507D01*
X172898556Y-93067448D01*
X172838224Y-92839383D01*
X172809591Y-92604923D01*
X172811359Y-92488593D01*
X173117428Y-92488593D01*
X173129262Y-92696538D01*
X173173908Y-92901799D01*
X173251584Y-93101129D01*
X173362504Y-93291280D01*
X173420075Y-93368910D01*
X173566697Y-93525609D01*
X173738365Y-93660442D01*
X173928330Y-93769028D01*
X174129840Y-93846981D01*
X174176143Y-93859867D01*
X174320770Y-93885972D01*
X174483004Y-93896701D01*
X174648053Y-93892064D01*
X174801124Y-93872073D01*
X174857419Y-93859329D01*
X175010551Y-93807458D01*
X175169941Y-93732836D01*
X175321515Y-93642765D01*
X175431193Y-93561597D01*
X175584816Y-93411264D01*
X175710176Y-93240698D01*
X175806275Y-93053611D01*
X175872110Y-92853716D01*
X175906683Y-92644726D01*
X175908992Y-92430353D01*
X175878039Y-92214311D01*
X175835254Y-92061748D01*
X175762027Y-91887824D01*
X175663761Y-91727429D01*
X175535733Y-91573287D01*
X175483849Y-91520286D01*
X175315604Y-91376997D01*
X175134645Y-91266805D01*
X174938463Y-91188596D01*
X174724551Y-91141257D01*
X174599553Y-91128054D01*
X174376060Y-91130118D01*
X174160847Y-91166944D01*
X173956546Y-91237550D01*
X173765792Y-91340951D01*
X173591218Y-91476166D01*
X173542894Y-91522288D01*
X173393903Y-91694934D01*
X173276645Y-91881135D01*
X173191336Y-92077644D01*
X173138191Y-92281212D01*
X173117428Y-92488593D01*
X172811359Y-92488593D01*
X172813183Y-92368677D01*
X172849524Y-92135259D01*
D14*
X130138000Y-135459000D02*
X131862000Y-135459000D01*
X126436000Y-138259000D02*
X129759000Y-138259000D01*
X132241000Y-137059000D02*
X134753000Y-137059000D01*
X125922000Y-140340000D02*
X136078000Y-140340000D01*
X132241000Y-139059000D02*
X135874000Y-139059000D01*
X126018000Y-139499000D02*
X135982000Y-139499000D01*
X126262000Y-138659000D02*
X129759000Y-138659000D01*
X132241000Y-138539000D02*
X135690000Y-138539000D01*
X132241000Y-139019000D02*
X135862000Y-139019000D01*
X125982000Y-139699000D02*
X136018000Y-139699000D01*
X126163000Y-138939000D02*
X129759000Y-138939000D01*
X126310000Y-138539000D02*
X129759000Y-138539000D01*
X126026000Y-139459000D02*
X135974000Y-139459000D01*
X132241000Y-138619000D02*
X135723000Y-138619000D01*
X132241000Y-138299000D02*
X135584000Y-138299000D01*
X127142000Y-137179000D02*
X129759000Y-137179000D01*
X132241000Y-139139000D02*
X135897000Y-139139000D01*
X126806000Y-137619000D02*
X129759000Y-137619000D01*
X126326000Y-138499000D02*
X129759000Y-138499000D01*
X132241000Y-138459000D02*
X135657000Y-138459000D01*
X132241000Y-136819000D02*
X134520000Y-136819000D01*
X126379000Y-138379000D02*
X129759000Y-138379000D01*
X126010000Y-139539000D02*
X135990000Y-139539000D01*
X126779000Y-137659000D02*
X129759000Y-137659000D01*
X132241000Y-138019000D02*
X135440000Y-138019000D01*
X129370000Y-135659000D02*
X132630000Y-135659000D01*
X125920000Y-140420000D02*
X136080000Y-140420000D01*
X132241000Y-138979000D02*
X135850000Y-138979000D01*
X125930000Y-140180000D02*
X136070000Y-140180000D01*
X125923000Y-140300000D02*
X136077000Y-140300000D01*
X132241000Y-136899000D02*
X134601000Y-136899000D01*
X126035000Y-139419000D02*
X135965000Y-139419000D01*
X132241000Y-137819000D02*
X135323000Y-137819000D01*
X127844000Y-136499000D02*
X134156000Y-136499000D01*
X132241000Y-136979000D02*
X134679000Y-136979000D01*
X126496000Y-138139000D02*
X129759000Y-138139000D01*
X132241000Y-138219000D02*
X135545000Y-138219000D01*
X132241000Y-137219000D02*
X134892000Y-137219000D01*
X132241000Y-138939000D02*
X135837000Y-138939000D01*
X127946000Y-136419000D02*
X134054000Y-136419000D01*
X125970000Y-139779000D02*
X136030000Y-139779000D01*
X126950000Y-137419000D02*
X129759000Y-137419000D01*
X125955000Y-139900000D02*
X136045000Y-139900000D01*
X126232000Y-138739000D02*
X129759000Y-138739000D01*
X128055000Y-136339000D02*
X133945000Y-136339000D01*
X127653000Y-136659000D02*
X134347000Y-136659000D01*
X132241000Y-137019000D02*
X134716000Y-137019000D01*
X125932000Y-140140000D02*
X136068000Y-140140000D01*
X125996000Y-139619000D02*
X136004000Y-139619000D01*
X132241000Y-136779000D02*
X134478000Y-136779000D01*
X132241000Y-138859000D02*
X135811000Y-138859000D01*
X132241000Y-139099000D02*
X135885000Y-139099000D01*
X126753000Y-137699000D02*
X129759000Y-137699000D01*
X127399000Y-136899000D02*
X129759000Y-136899000D01*
X128791000Y-135899000D02*
X133209000Y-135899000D01*
X125921000Y-140380000D02*
X136079000Y-140380000D01*
X128561000Y-136019000D02*
X133439000Y-136019000D01*
X125989000Y-139659000D02*
X136011000Y-139659000D01*
X127321000Y-136979000D02*
X129759000Y-136979000D01*
X125960000Y-139860000D02*
X136040000Y-139860000D01*
X132241000Y-136859000D02*
X134561000Y-136859000D01*
X125935000Y-140100000D02*
X136065000Y-140100000D01*
X132241000Y-138339000D02*
X135603000Y-138339000D01*
X128711000Y-135939000D02*
X133289000Y-135939000D01*
X132241000Y-138659000D02*
X135738000Y-138659000D01*
X126677000Y-137819000D02*
X129759000Y-137819000D01*
X126203000Y-138819000D02*
X129759000Y-138819000D01*
X132241000Y-138699000D02*
X135754000Y-138699000D01*
X126072000Y-139259000D02*
X135928000Y-139259000D01*
X128355000Y-136139000D02*
X133645000Y-136139000D01*
X127108000Y-137219000D02*
X129759000Y-137219000D01*
X126246000Y-138699000D02*
X129759000Y-138699000D01*
X132241000Y-139179000D02*
X135907000Y-139179000D01*
X128111000Y-136299000D02*
X133889000Y-136299000D01*
X126862000Y-137539000D02*
X129759000Y-137539000D01*
X127360000Y-136939000D02*
X129759000Y-136939000D01*
X126150000Y-138979000D02*
X129759000Y-138979000D01*
X126653000Y-137859000D02*
X129759000Y-137859000D01*
X126093000Y-139179000D02*
X129759000Y-139179000D01*
X127625000Y-145479646D02*
X128625000Y-145479646D01*
X132241000Y-137419000D02*
X135050000Y-137419000D01*
X132241000Y-137259000D02*
X134925000Y-137259000D01*
X128000000Y-136379000D02*
X134000000Y-136379000D01*
X126475000Y-138179000D02*
X129759000Y-138179000D01*
X128490000Y-136059000D02*
X133510000Y-136059000D01*
X125976000Y-139739000D02*
X136024000Y-139739000D01*
X126293000Y-138579000D02*
X129759000Y-138579000D01*
X128291000Y-136179000D02*
X133709000Y-136179000D01*
X126361000Y-138419000D02*
X129759000Y-138419000D01*
X126517000Y-138099000D02*
X129759000Y-138099000D01*
X125920000Y-140500000D02*
X136080000Y-140500000D01*
X132241000Y-137579000D02*
X135166000Y-137579000D01*
X132241000Y-137899000D02*
X135371000Y-137899000D01*
X125927000Y-140220000D02*
X136073000Y-140220000D01*
X132241000Y-136939000D02*
X134640000Y-136939000D01*
X128875000Y-135859000D02*
X133125000Y-135859000D01*
X126343000Y-138459000D02*
X129759000Y-138459000D01*
X127480000Y-136819000D02*
X129759000Y-136819000D01*
X125920000Y-140460000D02*
X136080000Y-140460000D01*
X132241000Y-137139000D02*
X134824000Y-137139000D01*
X126176000Y-138899000D02*
X129759000Y-138899000D01*
X127564000Y-136739000D02*
X134436000Y-136739000D01*
X127043000Y-137299000D02*
X129759000Y-137299000D01*
X126277000Y-138619000D02*
X129759000Y-138619000D01*
X126980000Y-137379000D02*
X129759000Y-137379000D01*
X126138000Y-139019000D02*
X129759000Y-139019000D01*
X132241000Y-138739000D02*
X135768000Y-138739000D01*
X132241000Y-137659000D02*
X135221000Y-137659000D01*
X127176000Y-137139000D02*
X129759000Y-137139000D01*
X126702000Y-137779000D02*
X129759000Y-137779000D01*
X132241000Y-138259000D02*
X135564000Y-138259000D01*
X126629000Y-137899000D02*
X129759000Y-137899000D01*
X132241000Y-138419000D02*
X135639000Y-138419000D01*
X132241000Y-138579000D02*
X135707000Y-138579000D01*
X132241000Y-137179000D02*
X134858000Y-137179000D01*
X126103000Y-139139000D02*
X129759000Y-139139000D01*
X126605000Y-137939000D02*
X129759000Y-137939000D01*
X126053000Y-139339000D02*
X135947000Y-139339000D01*
X126727000Y-137739000D02*
X129759000Y-137739000D01*
X127794000Y-136539000D02*
X134206000Y-136539000D01*
X126416000Y-138299000D02*
X129759000Y-138299000D01*
X125946000Y-139980000D02*
X136054000Y-139980000D01*
X126003000Y-139579000D02*
X135997000Y-139579000D01*
X132241000Y-137939000D02*
X135395000Y-137939000D01*
X126560000Y-138019000D02*
X129759000Y-138019000D01*
X128230000Y-136219000D02*
X133770000Y-136219000D01*
X132241000Y-137619000D02*
X135194000Y-137619000D01*
X129938000Y-135499000D02*
X132062000Y-135499000D01*
X132241000Y-137499000D02*
X135110000Y-137499000D01*
X132241000Y-137739000D02*
X135273000Y-137739000D01*
X129490000Y-135619000D02*
X132510000Y-135619000D01*
X126834000Y-137579000D02*
X129759000Y-137579000D01*
X132241000Y-138819000D02*
X135797000Y-138819000D01*
X132241000Y-139219000D02*
X135918000Y-139219000D01*
X126062000Y-139299000D02*
X135938000Y-139299000D01*
X132241000Y-137379000D02*
X135020000Y-137379000D01*
X125950000Y-139940000D02*
X136050000Y-139940000D01*
X127075000Y-137259000D02*
X129759000Y-137259000D01*
X126890000Y-137499000D02*
X129759000Y-137499000D01*
X126082000Y-139219000D02*
X129759000Y-139219000D01*
X132241000Y-138499000D02*
X135674000Y-138499000D01*
X130401000Y-135419000D02*
X131599000Y-135419000D01*
X132241000Y-137779000D02*
X135298000Y-137779000D01*
X125965000Y-139820000D02*
X136035000Y-139820000D01*
X129258000Y-135699000D02*
X132742000Y-135699000D01*
X132241000Y-137699000D02*
X135247000Y-137699000D01*
X126217000Y-138779000D02*
X129759000Y-138779000D01*
X127011000Y-137339000D02*
X129759000Y-137339000D01*
X127746000Y-136579000D02*
X134254000Y-136579000D01*
X126538000Y-138059000D02*
X129759000Y-138059000D01*
X127894000Y-136459000D02*
X134106000Y-136459000D01*
X128635000Y-135979000D02*
X133365000Y-135979000D01*
X126397000Y-138339000D02*
X129759000Y-138339000D01*
X128125000Y-145979646D02*
X128125000Y-144979646D01*
X132241000Y-137539000D02*
X135138000Y-137539000D01*
X127439000Y-136859000D02*
X129759000Y-136859000D01*
X127699000Y-136619000D02*
X134301000Y-136619000D01*
X128170000Y-136259000D02*
X133830000Y-136259000D01*
X132241000Y-138899000D02*
X135824000Y-138899000D01*
X125938000Y-140060000D02*
X136062000Y-140060000D01*
X125925000Y-140260000D02*
X136075000Y-140260000D01*
X132241000Y-138779000D02*
X135783000Y-138779000D01*
X132241000Y-137099000D02*
X134789000Y-137099000D01*
X127211000Y-137099000D02*
X129759000Y-137099000D01*
X126455000Y-138219000D02*
X129759000Y-138219000D01*
X132241000Y-138059000D02*
X135462000Y-138059000D01*
X126189000Y-138859000D02*
X129759000Y-138859000D01*
X129154000Y-135739000D02*
X132846000Y-135739000D01*
X126044000Y-139379000D02*
X135956000Y-139379000D01*
X132241000Y-138379000D02*
X135621000Y-138379000D01*
X132241000Y-138179000D02*
X135525000Y-138179000D01*
X129622000Y-135579000D02*
X132378000Y-135579000D01*
X127247000Y-137059000D02*
X129759000Y-137059000D01*
X126126000Y-139059000D02*
X129759000Y-139059000D01*
X127522000Y-136779000D02*
X129759000Y-136779000D01*
X128963000Y-135819000D02*
X133037000Y-135819000D01*
X129056000Y-135779000D02*
X132944000Y-135779000D01*
X129770000Y-135539000D02*
X132230000Y-135539000D01*
X128421000Y-136099000D02*
X133579000Y-136099000D01*
X132241000Y-138139000D02*
X135504000Y-138139000D01*
X126920000Y-137459000D02*
X129759000Y-137459000D01*
X127284000Y-137019000D02*
X129759000Y-137019000D01*
X127608000Y-136699000D02*
X134392000Y-136699000D01*
X132241000Y-138099000D02*
X135483000Y-138099000D01*
X132241000Y-137299000D02*
X134957000Y-137299000D01*
X132241000Y-137339000D02*
X134989000Y-137339000D01*
X132241000Y-137859000D02*
X135347000Y-137859000D01*
X132241000Y-137459000D02*
X135080000Y-137459000D01*
X126583000Y-137979000D02*
X129759000Y-137979000D01*
X126115000Y-139099000D02*
X129759000Y-139099000D01*
X132241000Y-137979000D02*
X135417000Y-137979000D01*
X125942000Y-140020000D02*
X136058000Y-140020000D01*
X136120000Y-140500000D02*
G75*
G03*
X136120000Y-140500000I-5120000J0D01*
G01*
X138176000Y-138899000D02*
X141759000Y-138899000D01*
X139522000Y-136779000D02*
X141759000Y-136779000D01*
X144241000Y-139059000D02*
X147874000Y-139059000D01*
X138189000Y-138859000D02*
X141759000Y-138859000D01*
X144241000Y-138099000D02*
X147483000Y-138099000D01*
X138232000Y-138739000D02*
X141759000Y-138739000D01*
X139746000Y-136579000D02*
X146254000Y-136579000D01*
X140355000Y-136139000D02*
X145645000Y-136139000D01*
X144241000Y-138619000D02*
X147723000Y-138619000D01*
X144241000Y-139139000D02*
X147897000Y-139139000D01*
X138082000Y-139219000D02*
X141759000Y-139219000D01*
X139176000Y-137139000D02*
X141759000Y-137139000D01*
X138379000Y-138379000D02*
X141759000Y-138379000D01*
X141154000Y-135739000D02*
X144846000Y-135739000D01*
X144241000Y-138339000D02*
X147603000Y-138339000D01*
X144241000Y-138699000D02*
X147754000Y-138699000D01*
X139284000Y-137019000D02*
X141759000Y-137019000D01*
X138890000Y-137499000D02*
X141759000Y-137499000D01*
X138138000Y-139019000D02*
X141759000Y-139019000D01*
X138605000Y-137939000D02*
X141759000Y-137939000D01*
X137923000Y-140300000D02*
X148077000Y-140300000D01*
X138203000Y-138819000D02*
X141759000Y-138819000D01*
X144241000Y-138259000D02*
X147564000Y-138259000D01*
X138702000Y-137779000D02*
X141759000Y-137779000D01*
X138072000Y-139259000D02*
X147928000Y-139259000D01*
X138150000Y-138979000D02*
X141759000Y-138979000D01*
X138538000Y-138059000D02*
X141759000Y-138059000D01*
X144241000Y-137819000D02*
X147323000Y-137819000D01*
X138436000Y-138259000D02*
X141759000Y-138259000D01*
X140711000Y-135939000D02*
X145289000Y-135939000D01*
X139360000Y-136939000D02*
X141759000Y-136939000D01*
X144241000Y-138859000D02*
X147811000Y-138859000D01*
X140490000Y-136059000D02*
X145510000Y-136059000D01*
X144241000Y-139219000D02*
X147918000Y-139219000D01*
X144241000Y-138419000D02*
X147639000Y-138419000D01*
X141258000Y-135699000D02*
X144742000Y-135699000D01*
X138416000Y-138299000D02*
X141759000Y-138299000D01*
X138862000Y-137539000D02*
X141759000Y-137539000D01*
X141622000Y-135579000D02*
X144378000Y-135579000D01*
X138361000Y-138419000D02*
X141759000Y-138419000D01*
X138629000Y-137899000D02*
X141759000Y-137899000D01*
X139794000Y-136539000D02*
X146206000Y-136539000D01*
X139142000Y-137179000D02*
X141759000Y-137179000D01*
X139844000Y-136499000D02*
X146156000Y-136499000D01*
X144241000Y-138579000D02*
X147707000Y-138579000D01*
X140791000Y-135899000D02*
X145209000Y-135899000D01*
X137922000Y-140340000D02*
X148078000Y-140340000D01*
X140875000Y-135859000D02*
X145125000Y-135859000D01*
X144241000Y-136939000D02*
X146640000Y-136939000D01*
X138950000Y-137419000D02*
X141759000Y-137419000D01*
X144241000Y-138379000D02*
X147621000Y-138379000D01*
X139699000Y-136619000D02*
X146301000Y-136619000D01*
X138583000Y-137979000D02*
X141759000Y-137979000D01*
X140963000Y-135819000D02*
X145037000Y-135819000D01*
X138560000Y-138019000D02*
X141759000Y-138019000D01*
X138044000Y-139379000D02*
X147956000Y-139379000D01*
X144241000Y-138499000D02*
X147674000Y-138499000D01*
X144241000Y-138779000D02*
X147783000Y-138779000D01*
X139946000Y-136419000D02*
X146054000Y-136419000D01*
X137950000Y-139940000D02*
X148050000Y-139940000D01*
X137925000Y-140260000D02*
X148075000Y-140260000D01*
X144241000Y-138739000D02*
X147768000Y-138739000D01*
X144241000Y-138659000D02*
X147738000Y-138659000D01*
X139625000Y-145479646D02*
X140625000Y-145479646D01*
X140230000Y-136219000D02*
X145770000Y-136219000D01*
X137982000Y-139699000D02*
X148018000Y-139699000D01*
X144241000Y-137019000D02*
X146716000Y-137019000D01*
X140291000Y-136179000D02*
X145709000Y-136179000D01*
X137920000Y-140420000D02*
X148080000Y-140420000D01*
X144241000Y-137899000D02*
X147371000Y-137899000D01*
X144241000Y-137059000D02*
X146753000Y-137059000D01*
X138677000Y-137819000D02*
X141759000Y-137819000D01*
X138217000Y-138779000D02*
X141759000Y-138779000D01*
X138103000Y-139139000D02*
X141759000Y-139139000D01*
X141770000Y-135539000D02*
X144230000Y-135539000D01*
X139211000Y-137099000D02*
X141759000Y-137099000D01*
X141056000Y-135779000D02*
X144944000Y-135779000D01*
X139108000Y-137219000D02*
X141759000Y-137219000D01*
X138475000Y-138179000D02*
X141759000Y-138179000D01*
X144241000Y-136859000D02*
X146561000Y-136859000D01*
X138010000Y-139539000D02*
X147990000Y-139539000D01*
X144241000Y-137219000D02*
X146892000Y-137219000D01*
X137920000Y-140460000D02*
X148080000Y-140460000D01*
X141490000Y-135619000D02*
X144510000Y-135619000D01*
X137996000Y-139619000D02*
X148004000Y-139619000D01*
X138653000Y-137859000D02*
X141759000Y-137859000D01*
X144241000Y-137299000D02*
X146957000Y-137299000D01*
X139653000Y-136659000D02*
X146347000Y-136659000D01*
X144241000Y-138899000D02*
X147824000Y-138899000D01*
X138035000Y-139419000D02*
X147965000Y-139419000D01*
X137932000Y-140140000D02*
X148068000Y-140140000D01*
X144241000Y-138139000D02*
X147504000Y-138139000D01*
X138018000Y-139499000D02*
X147982000Y-139499000D01*
X138026000Y-139459000D02*
X147974000Y-139459000D01*
X138343000Y-138459000D02*
X141759000Y-138459000D01*
X144241000Y-137699000D02*
X147247000Y-137699000D01*
X137938000Y-140060000D02*
X148062000Y-140060000D01*
X144241000Y-137739000D02*
X147273000Y-137739000D01*
X140635000Y-135979000D02*
X145365000Y-135979000D01*
X144241000Y-137539000D02*
X147138000Y-137539000D01*
X138806000Y-137619000D02*
X141759000Y-137619000D01*
X139011000Y-137339000D02*
X141759000Y-137339000D01*
X144241000Y-137459000D02*
X147080000Y-137459000D01*
X141370000Y-135659000D02*
X144630000Y-135659000D01*
X144241000Y-137939000D02*
X147395000Y-137939000D01*
X140561000Y-136019000D02*
X145439000Y-136019000D01*
X140111000Y-136299000D02*
X145889000Y-136299000D01*
X138727000Y-137739000D02*
X141759000Y-137739000D01*
X144241000Y-137979000D02*
X147417000Y-137979000D01*
X137955000Y-139900000D02*
X148045000Y-139900000D01*
X144241000Y-137139000D02*
X146824000Y-137139000D01*
X144241000Y-138019000D02*
X147440000Y-138019000D01*
X139894000Y-136459000D02*
X146106000Y-136459000D01*
X144241000Y-139099000D02*
X147885000Y-139099000D01*
X144241000Y-137379000D02*
X147020000Y-137379000D01*
X138753000Y-137699000D02*
X141759000Y-137699000D01*
X138126000Y-139059000D02*
X141759000Y-139059000D01*
X139247000Y-137059000D02*
X141759000Y-137059000D01*
X138277000Y-138619000D02*
X141759000Y-138619000D01*
X144241000Y-137179000D02*
X146858000Y-137179000D01*
X137970000Y-139779000D02*
X148030000Y-139779000D01*
X144241000Y-137339000D02*
X146989000Y-137339000D01*
X144241000Y-139179000D02*
X147907000Y-139179000D01*
X144241000Y-137259000D02*
X146925000Y-137259000D01*
X138517000Y-138099000D02*
X141759000Y-138099000D01*
X144241000Y-138299000D02*
X147584000Y-138299000D01*
X138062000Y-139299000D02*
X147938000Y-139299000D01*
X144241000Y-138059000D02*
X147462000Y-138059000D01*
X137965000Y-139820000D02*
X148035000Y-139820000D01*
X137920000Y-140500000D02*
X148080000Y-140500000D01*
X138093000Y-139179000D02*
X141759000Y-139179000D01*
X137960000Y-139860000D02*
X148040000Y-139860000D01*
X144241000Y-138819000D02*
X147797000Y-138819000D01*
X137976000Y-139739000D02*
X148024000Y-139739000D01*
X139321000Y-136979000D02*
X141759000Y-136979000D01*
X144241000Y-137419000D02*
X147050000Y-137419000D01*
X144241000Y-136819000D02*
X146520000Y-136819000D01*
X138246000Y-138699000D02*
X141759000Y-138699000D01*
X138326000Y-138499000D02*
X141759000Y-138499000D01*
X144241000Y-138539000D02*
X147690000Y-138539000D01*
X144241000Y-138939000D02*
X147837000Y-138939000D01*
X144241000Y-136779000D02*
X146478000Y-136779000D01*
X137927000Y-140220000D02*
X148073000Y-140220000D01*
X139564000Y-136739000D02*
X146436000Y-136739000D01*
X144241000Y-136899000D02*
X146601000Y-136899000D01*
X144241000Y-137779000D02*
X147298000Y-137779000D01*
X138455000Y-138219000D02*
X141759000Y-138219000D01*
X138293000Y-138579000D02*
X141759000Y-138579000D01*
X140125000Y-145979646D02*
X140125000Y-144979646D01*
X140055000Y-136339000D02*
X145945000Y-136339000D01*
X138496000Y-138139000D02*
X141759000Y-138139000D01*
X138834000Y-137579000D02*
X141759000Y-137579000D01*
X139608000Y-136699000D02*
X146392000Y-136699000D01*
X144241000Y-136979000D02*
X146679000Y-136979000D01*
X144241000Y-139019000D02*
X147862000Y-139019000D01*
X138310000Y-138539000D02*
X141759000Y-138539000D01*
X141938000Y-135499000D02*
X144062000Y-135499000D01*
X138980000Y-137379000D02*
X141759000Y-137379000D01*
X144241000Y-137499000D02*
X147110000Y-137499000D01*
X142401000Y-135419000D02*
X143599000Y-135419000D01*
X138053000Y-139339000D02*
X147947000Y-139339000D01*
X137935000Y-140100000D02*
X148065000Y-140100000D01*
X142138000Y-135459000D02*
X143862000Y-135459000D01*
X138779000Y-137659000D02*
X141759000Y-137659000D01*
X140170000Y-136259000D02*
X145830000Y-136259000D01*
X138262000Y-138659000D02*
X141759000Y-138659000D01*
X137989000Y-139659000D02*
X148011000Y-139659000D01*
X144241000Y-138979000D02*
X147850000Y-138979000D01*
X138003000Y-139579000D02*
X147997000Y-139579000D01*
X137946000Y-139980000D02*
X148054000Y-139980000D01*
X139043000Y-137299000D02*
X141759000Y-137299000D01*
X139075000Y-137259000D02*
X141759000Y-137259000D01*
X144241000Y-137099000D02*
X146789000Y-137099000D01*
X139399000Y-136899000D02*
X141759000Y-136899000D01*
X144241000Y-138179000D02*
X147525000Y-138179000D01*
X144241000Y-138219000D02*
X147545000Y-138219000D01*
X137930000Y-140180000D02*
X148070000Y-140180000D01*
X138115000Y-139099000D02*
X141759000Y-139099000D01*
X144241000Y-137619000D02*
X147194000Y-137619000D01*
X138163000Y-138939000D02*
X141759000Y-138939000D01*
X144241000Y-138459000D02*
X147657000Y-138459000D01*
X137921000Y-140380000D02*
X148079000Y-140380000D01*
X139439000Y-136859000D02*
X141759000Y-136859000D01*
X140421000Y-136099000D02*
X145579000Y-136099000D01*
X140000000Y-136379000D02*
X146000000Y-136379000D01*
X139480000Y-136819000D02*
X141759000Y-136819000D01*
X144241000Y-137859000D02*
X147347000Y-137859000D01*
X137942000Y-140020000D02*
X148058000Y-140020000D01*
X144241000Y-137659000D02*
X147221000Y-137659000D01*
X138397000Y-138339000D02*
X141759000Y-138339000D01*
X144241000Y-137579000D02*
X147166000Y-137579000D01*
X138920000Y-137459000D02*
X141759000Y-137459000D01*
X148120000Y-140500000D02*
G75*
G03*
X148120000Y-140500000I-5120000J0D01*
G01*
X183781000Y-106241000D02*
X183781000Y-108892000D01*
X181901000Y-100115000D02*
X181901000Y-103759000D01*
X183621000Y-100980000D02*
X183621000Y-103759000D01*
X182421000Y-100293000D02*
X182421000Y-103759000D01*
X181861000Y-100103000D02*
X181861000Y-103759000D01*
X182261000Y-106241000D02*
X182261000Y-109768000D01*
X182901000Y-100517000D02*
X182901000Y-103759000D01*
X183461000Y-106241000D02*
X183461000Y-109138000D01*
X185261000Y-103154000D02*
X185261000Y-106846000D01*
X183701000Y-101043000D02*
X183701000Y-103759000D01*
X182181000Y-106241000D02*
X182181000Y-109797000D01*
X182021000Y-106241000D02*
X182021000Y-109850000D01*
X183741000Y-106241000D02*
X183741000Y-108925000D01*
X183141000Y-100653000D02*
X183141000Y-103759000D01*
X184101000Y-106241000D02*
X184101000Y-108601000D01*
X181261000Y-99976000D02*
X181261000Y-110024000D01*
X183621000Y-106241000D02*
X183621000Y-109020000D01*
X184461000Y-101794000D02*
X184461000Y-108206000D01*
X180780000Y-99927000D02*
X180780000Y-110073000D01*
X181180000Y-99965000D02*
X181180000Y-110035000D01*
X183741000Y-101075000D02*
X183741000Y-103759000D01*
X182621000Y-100379000D02*
X182621000Y-103759000D01*
X181221000Y-99970000D02*
X181221000Y-110030000D01*
X181821000Y-100093000D02*
X181821000Y-103759000D01*
X185101000Y-102791000D02*
X185101000Y-107209000D01*
X182781000Y-106241000D02*
X182781000Y-109545000D01*
X183701000Y-106241000D02*
X183701000Y-108957000D01*
X184181000Y-106241000D02*
X184181000Y-108520000D01*
X175020354Y-102125000D02*
X176020354Y-102125000D01*
X184221000Y-106241000D02*
X184221000Y-108478000D01*
X184501000Y-101844000D02*
X184501000Y-108156000D01*
X180860000Y-99932000D02*
X180860000Y-110068000D01*
X184781000Y-102230000D02*
X184781000Y-107770000D01*
X182181000Y-100203000D02*
X182181000Y-103759000D01*
X180580000Y-99920000D02*
X180580000Y-110080000D01*
X181901000Y-106241000D02*
X181901000Y-109885000D01*
X183381000Y-100806000D02*
X183381000Y-103759000D01*
X184181000Y-101480000D02*
X184181000Y-103759000D01*
X182781000Y-100455000D02*
X182781000Y-103759000D01*
X183181000Y-100677000D02*
X183181000Y-103759000D01*
X181981000Y-106241000D02*
X181981000Y-109862000D01*
X184901000Y-102421000D02*
X184901000Y-107579000D01*
X183181000Y-106241000D02*
X183181000Y-109323000D01*
X184821000Y-102291000D02*
X184821000Y-107709000D01*
X183581000Y-100950000D02*
X183581000Y-103759000D01*
X183301000Y-106241000D02*
X183301000Y-109247000D01*
X183101000Y-100629000D02*
X183101000Y-103759000D01*
X180620000Y-99921000D02*
X180620000Y-110079000D01*
X183301000Y-100753000D02*
X183301000Y-103759000D01*
X183221000Y-106241000D02*
X183221000Y-109298000D01*
X183101000Y-106241000D02*
X183101000Y-109371000D01*
X182581000Y-100361000D02*
X182581000Y-103759000D01*
X183981000Y-106241000D02*
X183981000Y-108716000D01*
X183501000Y-106241000D02*
X183501000Y-109110000D01*
X182141000Y-100189000D02*
X182141000Y-103759000D01*
X181781000Y-106241000D02*
X181781000Y-109918000D01*
X184861000Y-102355000D02*
X184861000Y-107645000D01*
X175520354Y-101625000D02*
X175520354Y-102625000D01*
X183021000Y-106241000D02*
X183021000Y-109417000D01*
X182981000Y-100560000D02*
X182981000Y-103759000D01*
X183941000Y-101247000D02*
X183941000Y-103759000D01*
X183541000Y-100920000D02*
X183541000Y-103759000D01*
X184421000Y-101746000D02*
X184421000Y-108254000D01*
X181661000Y-100053000D02*
X181661000Y-109947000D01*
X185421000Y-103622000D02*
X185421000Y-106378000D01*
X180540000Y-99920000D02*
X180540000Y-110080000D01*
X184741000Y-102170000D02*
X184741000Y-107830000D01*
X185581000Y-104401000D02*
X185581000Y-105599000D01*
X181741000Y-100072000D02*
X181741000Y-109928000D01*
X184701000Y-102111000D02*
X184701000Y-107889000D01*
X184621000Y-102000000D02*
X184621000Y-108000000D01*
X185381000Y-103490000D02*
X185381000Y-106510000D01*
X182861000Y-106241000D02*
X182861000Y-109504000D01*
X183341000Y-100779000D02*
X183341000Y-103759000D01*
X183661000Y-101011000D02*
X183661000Y-103759000D01*
X182861000Y-100496000D02*
X182861000Y-103759000D01*
X180700000Y-99923000D02*
X180700000Y-110077000D01*
X181461000Y-100010000D02*
X181461000Y-109990000D01*
X185021000Y-102635000D02*
X185021000Y-107365000D01*
X181941000Y-106241000D02*
X181941000Y-109874000D01*
X183901000Y-101211000D02*
X183901000Y-103759000D01*
X180740000Y-99925000D02*
X180740000Y-110075000D01*
X182661000Y-106241000D02*
X182661000Y-109603000D01*
X182901000Y-106241000D02*
X182901000Y-109483000D01*
X181541000Y-100026000D02*
X181541000Y-109974000D01*
X181861000Y-106241000D02*
X181861000Y-109897000D01*
X182301000Y-106241000D02*
X182301000Y-109754000D01*
X181020000Y-99946000D02*
X181020000Y-110054000D01*
X182261000Y-100232000D02*
X182261000Y-103759000D01*
X184261000Y-101564000D02*
X184261000Y-108436000D01*
X184101000Y-101399000D02*
X184101000Y-103759000D01*
X184021000Y-106241000D02*
X184021000Y-108679000D01*
X183901000Y-106241000D02*
X183901000Y-108789000D01*
X182941000Y-106241000D02*
X182941000Y-109462000D01*
X182741000Y-106241000D02*
X182741000Y-109564000D01*
X182061000Y-106241000D02*
X182061000Y-109837000D01*
X183381000Y-106241000D02*
X183381000Y-109194000D01*
X184141000Y-101439000D02*
X184141000Y-103759000D01*
X181301000Y-99982000D02*
X181301000Y-110018000D01*
X182501000Y-106241000D02*
X182501000Y-109674000D01*
X183661000Y-106241000D02*
X183661000Y-108989000D01*
X181621000Y-100044000D02*
X181621000Y-109956000D01*
X182981000Y-106241000D02*
X182981000Y-109440000D01*
X185341000Y-103370000D02*
X185341000Y-106630000D01*
X182821000Y-106241000D02*
X182821000Y-109525000D01*
X182101000Y-100176000D02*
X182101000Y-103759000D01*
X185061000Y-102711000D02*
X185061000Y-107289000D01*
X183021000Y-100583000D02*
X183021000Y-103759000D01*
X184581000Y-101946000D02*
X184581000Y-108054000D01*
X184661000Y-102055000D02*
X184661000Y-107945000D01*
X183861000Y-101176000D02*
X183861000Y-103759000D01*
X183421000Y-106241000D02*
X183421000Y-109166000D01*
X183541000Y-106241000D02*
X183541000Y-109080000D01*
X182741000Y-100436000D02*
X182741000Y-103759000D01*
X181981000Y-100138000D02*
X181981000Y-103759000D01*
X183981000Y-101284000D02*
X183981000Y-103759000D01*
X181501000Y-100018000D02*
X181501000Y-109982000D01*
X182421000Y-106241000D02*
X182421000Y-109707000D01*
X181421000Y-100003000D02*
X181421000Y-109997000D01*
X184061000Y-106241000D02*
X184061000Y-108640000D01*
X182461000Y-106241000D02*
X182461000Y-109690000D01*
X181941000Y-100126000D02*
X181941000Y-103759000D01*
X182701000Y-100416000D02*
X182701000Y-103759000D01*
X184021000Y-101321000D02*
X184021000Y-103759000D01*
X182221000Y-106241000D02*
X182221000Y-109783000D01*
X181060000Y-99950000D02*
X181060000Y-110050000D01*
X182501000Y-100326000D02*
X182501000Y-103759000D01*
X183421000Y-100834000D02*
X183421000Y-103759000D01*
X185141000Y-102875000D02*
X185141000Y-107125000D01*
X180980000Y-99942000D02*
X180980000Y-110058000D01*
X185301000Y-103258000D02*
X185301000Y-106742000D01*
X184061000Y-101360000D02*
X184061000Y-103759000D01*
X181781000Y-100082000D02*
X181781000Y-103759000D01*
X182381000Y-100277000D02*
X182381000Y-103759000D01*
X184381000Y-101699000D02*
X184381000Y-108301000D01*
X182541000Y-106241000D02*
X182541000Y-109657000D01*
X182221000Y-100217000D02*
X182221000Y-103759000D01*
X184301000Y-101608000D02*
X184301000Y-108392000D01*
X183941000Y-106241000D02*
X183941000Y-108753000D01*
X184221000Y-101522000D02*
X184221000Y-103759000D01*
X182141000Y-106241000D02*
X182141000Y-109811000D01*
X183501000Y-100890000D02*
X183501000Y-103759000D01*
X182021000Y-100150000D02*
X182021000Y-103759000D01*
X183861000Y-106241000D02*
X183861000Y-108824000D01*
X182701000Y-106241000D02*
X182701000Y-109584000D01*
X184941000Y-102490000D02*
X184941000Y-107510000D01*
X185461000Y-103770000D02*
X185461000Y-106230000D01*
X183821000Y-101142000D02*
X183821000Y-103759000D01*
X180940000Y-99938000D02*
X180940000Y-110062000D01*
X181341000Y-99989000D02*
X181341000Y-110011000D01*
X182061000Y-100163000D02*
X182061000Y-103759000D01*
X183581000Y-106241000D02*
X183581000Y-109050000D01*
X180820000Y-99930000D02*
X180820000Y-110070000D01*
X185541000Y-104138000D02*
X185541000Y-105862000D01*
X183781000Y-101108000D02*
X183781000Y-103759000D01*
X181821000Y-106241000D02*
X181821000Y-109907000D01*
X183461000Y-100862000D02*
X183461000Y-103759000D01*
X181100000Y-99955000D02*
X181100000Y-110045000D01*
X183821000Y-106241000D02*
X183821000Y-108858000D01*
X182381000Y-106241000D02*
X182381000Y-109723000D01*
X184541000Y-101894000D02*
X184541000Y-108106000D01*
X180500000Y-99920000D02*
X180500000Y-110080000D01*
X181581000Y-100035000D02*
X181581000Y-109965000D01*
X183261000Y-106241000D02*
X183261000Y-109273000D01*
X183221000Y-100702000D02*
X183221000Y-103759000D01*
X182461000Y-100310000D02*
X182461000Y-103759000D01*
X182821000Y-100475000D02*
X182821000Y-103759000D01*
X185221000Y-103056000D02*
X185221000Y-106944000D01*
X185501000Y-103938000D02*
X185501000Y-106062000D01*
X180660000Y-99922000D02*
X180660000Y-110078000D01*
X181701000Y-100062000D02*
X181701000Y-109938000D01*
X183061000Y-100605000D02*
X183061000Y-103759000D01*
X184981000Y-102561000D02*
X184981000Y-107439000D01*
X182101000Y-106241000D02*
X182101000Y-109824000D01*
X184341000Y-101653000D02*
X184341000Y-108347000D01*
X183341000Y-106241000D02*
X183341000Y-109221000D01*
X182941000Y-100538000D02*
X182941000Y-103759000D01*
X181381000Y-99996000D02*
X181381000Y-110004000D01*
X182341000Y-106241000D02*
X182341000Y-109738000D01*
X180900000Y-99935000D02*
X180900000Y-110065000D01*
X181140000Y-99960000D02*
X181140000Y-110040000D01*
X184141000Y-106241000D02*
X184141000Y-108561000D01*
X182581000Y-106241000D02*
X182581000Y-109639000D01*
X182621000Y-106241000D02*
X182621000Y-109621000D01*
X185181000Y-102963000D02*
X185181000Y-107037000D01*
X183141000Y-106241000D02*
X183141000Y-109347000D01*
X183261000Y-100727000D02*
X183261000Y-103759000D01*
X182301000Y-100246000D02*
X182301000Y-103759000D01*
X182541000Y-100343000D02*
X182541000Y-103759000D01*
X183061000Y-106241000D02*
X183061000Y-109395000D01*
X182661000Y-100397000D02*
X182661000Y-103759000D01*
X182341000Y-100262000D02*
X182341000Y-103759000D01*
X185620000Y-105000000D02*
G75*
G03*
X185620000Y-105000000I-5120000J0D01*
G01*
X169772936Y-105265000D02*
X170227064Y-105265000D01*
X169772936Y-106735000D02*
X170227064Y-106735000D01*
X106772936Y-138235000D02*
X107227064Y-138235000D01*
X106772936Y-136765000D02*
X107227064Y-136765000D01*
%LPC*%
D16*
X169000000Y-73000000D03*
X184000000Y-73000000D03*
X115000000Y-60000000D03*
X130000000Y-60000000D03*
D17*
X184000000Y-56000000D03*
D18*
X178920000Y-56000000D03*
X173840000Y-56000000D03*
D19*
X169545000Y-109975000D03*
D20*
X164465000Y-109975000D03*
X164465000Y-115055000D03*
X169545000Y-115055000D03*
D21*
X170500000Y-130000000D03*
D22*
X164462500Y-106000000D03*
X166537500Y-106000000D03*
D19*
X117500000Y-143000000D03*
D20*
X117500000Y-137920000D03*
X112420000Y-137920000D03*
X112420000Y-143000000D03*
D23*
X108037500Y-135000000D03*
X105962500Y-135000000D03*
D19*
X155000000Y-143000000D03*
D24*
X155000000Y-138000000D03*
D25*
X141818000Y-54348500D03*
X141818000Y-65715000D03*
X158582000Y-65651500D03*
X158582000Y-54285000D03*
D26*
X195000000Y-95000000D03*
D19*
X178000000Y-130000000D03*
D24*
X183000000Y-130000000D03*
D19*
X178000000Y-117500000D03*
D24*
X183000000Y-117500000D03*
D26*
X195000000Y-145000000D03*
D27*
X130500000Y-101000000D03*
D28*
X105100000Y-73060000D03*
X110180000Y-73060000D03*
X150820000Y-73060000D03*
X155900000Y-73060000D03*
X158440000Y-128940000D03*
X152960000Y-128940000D03*
X108040000Y-128940000D03*
X102560000Y-128940000D03*
D26*
X105000000Y-105000000D03*
X105000000Y-95000000D03*
D21*
X193000000Y-117500000D03*
D23*
X181537500Y-137000000D03*
X179462500Y-137000000D03*
D29*
X105000000Y-55000000D03*
D30*
X162500000Y-142962500D03*
X162500000Y-145037500D03*
D31*
X169500000Y-122000000D03*
D26*
X195000000Y-105000000D03*
D17*
X167380000Y-144805000D03*
D18*
X172460000Y-144805000D03*
X177540000Y-144805000D03*
X182620000Y-144805000D03*
D26*
X105000000Y-145000000D03*
D31*
X165000000Y-100000000D03*
D19*
X131000000Y-143000000D03*
D24*
X131000000Y-138000000D03*
D29*
X195000000Y-55000000D03*
D19*
X143000000Y-143000000D03*
D24*
X143000000Y-138000000D03*
D19*
X178000000Y-105000000D03*
D24*
X183000000Y-105000000D03*
D32*
X169000000Y-106000000D03*
X171000000Y-106000000D03*
X106000000Y-137500000D03*
X108000000Y-137500000D03*
M02*
