G04 #@! TF.GenerationSoftware,KiCad,Pcbnew,(6.0.10-0)*
G04 #@! TF.CreationDate,2023-01-24T15:26:33+00:00*
G04 #@! TF.ProjectId,MaxDC,4d617844-432e-46b6-9963-61645f706362,rev?*
G04 #@! TF.SameCoordinates,Original*
G04 #@! TF.FileFunction,Soldermask,Top*
G04 #@! TF.FilePolarity,Negative*
%FSLAX46Y46*%
G04 Gerber Fmt 4.6, Leading zero omitted, Abs format (unit mm)*
G04 Created by KiCad (PCBNEW (6.0.10-0)) date 2023-01-24 15:26:33*
%MOMM*%
%LPD*%
G01*
G04 APERTURE LIST*
G04 Aperture macros list*
%AMRoundRect*
0 Rectangle with rounded corners*
0 $1 Rounding radius*
0 $2 $3 $4 $5 $6 $7 $8 $9 X,Y pos of 4 corners*
0 Add a 4 corners polygon primitive as box body*
4,1,4,$2,$3,$4,$5,$6,$7,$8,$9,$2,$3,0*
0 Add four circle primitives for the rounded corners*
1,1,$1+$1,$2,$3*
1,1,$1+$1,$4,$5*
1,1,$1+$1,$6,$7*
1,1,$1+$1,$8,$9*
0 Add four rect primitives between the rounded corners*
20,1,$1+$1,$2,$3,$4,$5,0*
20,1,$1+$1,$4,$5,$6,$7,0*
20,1,$1+$1,$6,$7,$8,$9,0*
20,1,$1+$1,$8,$9,$2,$3,0*%
G04 Aperture macros list end*
%ADD10C,2.400000*%
%ADD11R,2.600000X2.600000*%
%ADD12C,2.600000*%
%ADD13R,2.000000X2.000000*%
%ADD14O,2.000000X2.000000*%
%ADD15R,2.500000X2.500000*%
%ADD16RoundRect,0.250000X-0.337500X-0.475000X0.337500X-0.475000X0.337500X0.475000X-0.337500X0.475000X0*%
%ADD17RoundRect,0.250000X0.337500X0.475000X-0.337500X0.475000X-0.337500X-0.475000X0.337500X-0.475000X0*%
%ADD18C,2.000000*%
%ADD19RoundRect,0.381000X0.381000X-1.841500X0.381000X1.841500X-0.381000X1.841500X-0.381000X-1.841500X0*%
%ADD20C,3.200000*%
%ADD21C,5.000000*%
%ADD22C,3.000000*%
%ADD23C,6.400000*%
%ADD24RoundRect,0.250000X-0.475000X0.337500X-0.475000X-0.337500X0.475000X-0.337500X0.475000X0.337500X0*%
%ADD25R,3.000000X3.000000*%
%ADD26RoundRect,0.250000X-0.350000X-0.450000X0.350000X-0.450000X0.350000X0.450000X-0.350000X0.450000X0*%
G04 APERTURE END LIST*
D10*
X169000000Y-73000000D03*
X184000000Y-73000000D03*
X115000000Y-60000000D03*
X130000000Y-60000000D03*
D11*
X184000000Y-56000000D03*
D12*
X178920000Y-56000000D03*
X173840000Y-56000000D03*
D13*
X169545000Y-109975000D03*
D14*
X164465000Y-109975000D03*
X164465000Y-115055000D03*
X169545000Y-115055000D03*
D15*
X170500000Y-130000000D03*
D16*
X164462500Y-106000000D03*
X166537500Y-106000000D03*
D13*
X117500000Y-143000000D03*
D14*
X117500000Y-137920000D03*
X112420000Y-137920000D03*
X112420000Y-143000000D03*
D17*
X108037500Y-135000000D03*
X105962500Y-135000000D03*
D13*
X155000000Y-143000000D03*
D18*
X155000000Y-138000000D03*
D19*
X141818000Y-54348500D03*
X141818000Y-65715000D03*
X158582000Y-65651500D03*
X158582000Y-54285000D03*
D20*
X195000000Y-95000000D03*
D13*
X178000000Y-130000000D03*
D18*
X183000000Y-130000000D03*
D13*
X178000000Y-117500000D03*
D18*
X183000000Y-117500000D03*
D20*
X195000000Y-145000000D03*
D21*
X130500000Y-101000000D03*
D22*
X105100000Y-73060000D03*
X110180000Y-73060000D03*
X150820000Y-73060000D03*
X155900000Y-73060000D03*
X158440000Y-128940000D03*
X152960000Y-128940000D03*
X108040000Y-128940000D03*
X102560000Y-128940000D03*
D20*
X105000000Y-105000000D03*
X105000000Y-95000000D03*
D15*
X193000000Y-117500000D03*
D17*
X181537500Y-137000000D03*
X179462500Y-137000000D03*
D23*
X105000000Y-55000000D03*
D24*
X162500000Y-142962500D03*
X162500000Y-145037500D03*
D25*
X169500000Y-122000000D03*
D20*
X195000000Y-105000000D03*
D11*
X167380000Y-144805000D03*
D12*
X172460000Y-144805000D03*
X177540000Y-144805000D03*
X182620000Y-144805000D03*
D20*
X105000000Y-145000000D03*
D25*
X165000000Y-100000000D03*
D13*
X131000000Y-143000000D03*
D18*
X131000000Y-138000000D03*
D23*
X195000000Y-55000000D03*
D13*
X143000000Y-143000000D03*
D18*
X143000000Y-138000000D03*
D13*
X178000000Y-105000000D03*
D18*
X183000000Y-105000000D03*
D26*
X169000000Y-106000000D03*
X171000000Y-106000000D03*
X106000000Y-137500000D03*
X108000000Y-137500000D03*
M02*
